<svg width="60" height="60" viewBox="0 0 60 60" fill="none" xmlns="http://www.w3.org/2000/svg">
<g clip-path="url(#clip0_1_1605)">
<path d="M56.25 45H3.75C1.6825 45 0 43.3175 0 41.25V3.75C0 1.6825 1.6825 0 3.75 0H56.25C58.3175 0 60 1.6825 60 3.75V41.25C60 43.3175 58.3175 45 56.25 45ZM3.75 2.5C3.06 2.5 2.5 3.06 2.5 3.75V41.25C2.5 41.94 3.06 42.5 3.75 42.5H56.25C56.94 42.5 57.5 41.94 57.5 41.25V3.75C57.5 3.06 56.94 2.5 56.25 2.5H3.75Z" fill="#005CCE"/>
<path d="M23.75 60C23.06 60 22.5 59.44 22.5 58.75V43.75C22.5 43.06 23.06 42.5 23.75 42.5C24.44 42.5 25 43.06 25 43.75V58.75C25 59.44 24.44 60 23.75 60ZM36.25 60C35.56 60 35 59.44 35 58.75V43.75C35 43.06 35.56 42.5 36.25 42.5C36.94 42.5 37.5 43.06 37.5 43.75V58.75C37.5 59.44 36.94 60 36.25 60ZM47.5 10C46.81 10 46.25 9.44 46.25 8.75V2.5C46.25 1.81 46.81 1.25 47.5 1.25C48.19 1.25 48.75 1.81 48.75 2.5V8.75C48.75 9.44 48.19 10 47.5 10Z" fill="#005CCE"/>
<path d="M51.25 10H43.75C43.06 10 42.5 9.44 42.5 8.75C42.5 8.06 43.06 7.5 43.75 7.5H51.25C51.94 7.5 52.5 8.06 52.5 8.75C52.5 9.44 51.94 10 51.25 10ZM30 10C29.31 10 28.75 9.44 28.75 8.75V2.5C28.75 1.81 29.31 1.25 30 1.25C30.69 1.25 31.25 1.81 31.25 2.5V8.75C31.25 9.44 30.69 10 30 10Z" fill="#005CCE"/>
<path d="M33.75 10H26.25C25.56 10 25 9.44 25 8.75C25 8.06 25.56 7.5 26.25 7.5H33.75C34.44 7.5 35 8.06 35 8.75C35 9.44 34.44 10 33.75 10ZM12.5 10C11.81 10 11.25 9.44 11.25 8.75V2.5C11.25 1.81 11.81 1.25 12.5 1.25C13.19 1.25 13.75 1.81 13.75 2.5V8.75C13.75 9.44 13.19 10 12.5 10Z" fill="#005CCE"/>
<path d="M16.25 10H8.75C8.06 10 7.5 9.44 7.5 8.75C7.5 8.06 8.06 7.5 8.75 7.5H16.25C16.94 7.5 17.5 8.06 17.5 8.75C17.5 9.44 16.94 10 16.25 10Z" fill="#005CCE"/>
</g>
<defs>
<clipPath id="clip0_1_1605">
<rect width="60" height="60" fill="white"/>
</clipPath>
</defs>
</svg>
