<svg width="60" height="60" viewBox="0 0 60 60" fill="none" xmlns="http://www.w3.org/2000/svg">
<path d="M53.4386 23.8549V21.9639H58.1266V16.291H53.4386V15.3459H49.6885V9.67296V7.78197V4H36.5639V7.78197V9.67296V15.3459H35.0767L32.8138 13.063L31.4881 14.4L33.7509 16.6821V18.182H30.0008V22.909H27.1878V24.8H30.0008V29.527H33.7509V30.4721H36.5639V41.818H34.6889V38.0361H13.1254V41.818H9.37526V40.873H6.56227V33.309H7.49938V26.691H6.56227V8.72704H0.93711V26.691H0V33.309H0.93711V40.873H0V41.818V46.5459V56H53.4377V47.4918V45.6008V41.8189H49.6876V30.473H53.4377V30.3286C53.526 30.3286 53.6142 30.3219 53.7032 30.3093L60 29.402V23.8549H53.4386ZM58.1266 27.762L53.4386 28.4376V25.7459H58.1266V27.762ZM51.5635 28.4376V28.582H49.6885H48.7505H47.8134H44.0633H42.1883H38.4382H37.501H36.5639H35.6268V18.182V17.2361H36.5639H37.501H38.4382H42.1883H44.0633H47.8134H48.7505H49.6885H51.5635V21.9639V23.8549V28.4376ZM51.5635 45.6008H41.2511V43.7099H42.1883H44.0633H49.6885H51.5635V45.6008ZM51.5635 54.1099H1.87505V46.5459H9.37526V43.709H13.1254H14.0625V47.491H33.7501V43.709H34.6872H36.5623H39.3744V47.491H51.5619V54.1099H51.5635ZM2.81383 10.618H4.68888V26.691H2.81383V10.618ZM5.62599 28.582V31.4189H4.68888H2.81383H1.87588V28.582H2.81383H4.68888H5.62599ZM2.81383 33.3099H4.68888V40.8738H2.81383V33.3099ZM6.5631 42.7639H7.50021V43.709V44.6549H1.87505V43.709V42.7639H6.5631ZM15.0004 39.9279H32.8138V41.8189H15.0004V39.9279ZM31.8759 43.7099V45.6008H15.9384V43.7099H31.8759ZM38.4382 30.473H42.1883V41.8189H41.2511H39.3761H38.439V30.473H38.4382ZM47.8134 41.8189H44.0633V30.473H47.8134V41.8189ZM38.4382 5.89099H47.8134V7.78197H44.0633H42.1883H38.4382V5.89099ZM47.8134 15.3451H44.0633V9.67212H47.8134V15.3451ZM38.4382 9.67296H42.1883V15.3459H38.4382V9.67296ZM56.2516 20.073H53.4386V18.182H56.2516V20.073ZM31.8759 24.8008V22.9099V20.0738H33.7509V27.6377H31.8759V24.8008ZM45.9384 24.8008H47.8134V26.6918C45.9384 26.6918 47.8134 26.6918 45.9384 26.6918V24.8008ZM38.4382 24.8008H40.3132V26.6918C38.4382 26.6918 40.3132 26.6918 38.4382 26.6918V24.8008ZM42.1883 24.8008H44.0633V26.6918C42.1883 26.6918 44.0633 26.6918 42.1883 26.6918V24.8008ZM7.50104 50.3279H9.37609V52.2189C7.50104 52.2189 9.37609 52.2189 7.50104 52.2189V50.3279ZM26.2507 50.3279H28.1258V52.2189C26.2507 52.2189 28.1258 52.2189 26.2507 52.2189V50.3279ZM46.8763 52.2189C45.0013 52.2189 46.8763 52.2189 45.0013 52.2189V50.3279H46.8763V52.2189Z" fill="#005CCE"/>
</svg>
