<svg width="20" height="20" viewBox="0 0 20 20" fill="none" xmlns="http://www.w3.org/2000/svg">
<g clip-path="url(#clip0_1_167)">
<path d="M9.17519 0.0590286C6.84928 0.367674 4.90182 1.75854 3.86896 3.84483C3.49445 4.60668 3.2934 5.2982 3.19878 6.17335C3.0135 7.84942 3.66002 9.72474 5.24085 12.108C5.76517 12.8933 6.5063 13.8856 7.14494 14.6475L7.58647 15.1749L7.41696 15.2101C6.98726 15.2921 6.16727 15.5187 5.8519 15.6437C5.0122 15.9719 4.42087 16.4173 4.1804 16.9057C4.06607 17.1323 4.0503 17.2026 4.0503 17.48C4.0503 17.7417 4.07001 17.8316 4.16068 18.023C4.37356 18.4762 4.73231 18.8044 5.37095 19.1209C6.95572 19.9101 9.73104 20.2031 12.2304 19.8437C13.5313 19.6561 14.6588 19.2693 15.329 18.7771C15.6207 18.5622 15.8218 18.3278 15.9637 18.023C16.1174 17.6988 16.1174 17.269 15.9676 16.9408C15.8533 16.6947 15.5064 16.3079 15.2344 16.1243C14.9978 15.9641 14.5169 15.7297 14.1384 15.589C13.8664 15.4914 12.8612 15.2257 12.6089 15.1866C12.5497 15.1788 12.6365 15.0538 13.0228 14.5889C15.5774 11.5024 16.9611 8.77927 16.9611 6.83753C16.9611 4.56761 15.7902 2.41099 13.8743 1.14515C12.4985 0.234838 10.7954 -0.15976 9.17519 0.0590286ZM11.2133 1.2858C12.3447 1.52022 13.2357 2.00858 14.0833 2.84857C14.9387 3.69637 15.4118 4.55198 15.668 5.72796C15.7784 6.24758 15.7902 7.17743 15.6877 7.65407C15.4512 8.74801 14.7731 10.1584 13.76 11.6587C12.9282 12.8854 11.4262 14.7256 10.35 15.8273L10.0582 16.1282L9.75075 15.8078C8.54837 14.5615 7.18042 12.8815 6.29342 11.561C5.34729 10.1506 4.79538 9.0254 4.49183 7.88849C4.38145 7.47436 4.37356 7.3845 4.36962 6.79455C4.36962 5.62248 4.6574 4.677 5.32758 3.66902C5.59959 3.25879 6.42352 2.43053 6.81774 2.17267C7.61407 1.65305 8.4577 1.33268 9.35259 1.20766C9.76652 1.15297 10.7757 1.19203 11.2133 1.2858ZM9.2974 17.019L10.0622 17.7925L10.8309 17.015L11.5997 16.2376L11.8638 16.2649C12.6404 16.3431 13.693 16.6322 14.2528 16.9213C14.5918 17.0971 14.9111 17.3628 14.9111 17.4761C14.9111 17.5972 14.5997 17.8785 14.2882 18.0387C12.2422 19.0857 7.8782 19.0857 5.83613 18.0387C5.52469 17.8785 5.21326 17.5972 5.21326 17.4761C5.21326 17.269 5.89526 16.851 6.60092 16.6244C7.08975 16.4642 8.04771 16.2649 8.37886 16.2532C8.52866 16.2493 8.55626 16.2727 9.2974 17.019Z" fill="#005CCE"/>
<path d="M9.62789 3.16107C8.05889 3.35642 6.80132 4.47379 6.42681 6.0014C6.32037 6.4546 6.31249 7.15003 6.41104 7.59542C6.61209 8.47447 7.1167 9.25195 7.8263 9.78719C8.11802 10.006 8.76455 10.3224 9.09569 10.4045C9.89597 10.6076 10.7711 10.549 11.4886 10.2404C12.1036 9.98254 12.6476 9.56059 13.0419 9.04879C13.2942 8.7167 13.5898 8.0955 13.6923 7.67355C13.8027 7.21254 13.8145 6.52101 13.712 6.07172C13.3888 4.66132 12.3047 3.55957 10.9209 3.23921C10.5267 3.14935 9.97875 3.11809 9.62789 3.16107ZM10.7199 4.39565C11.5793 4.61835 12.2928 5.33331 12.5294 6.21237C12.6161 6.54446 12.6161 7.12659 12.5294 7.45867C12.348 8.12676 11.8592 8.74014 11.26 9.04879C10.8382 9.26757 10.5188 9.34571 10.0615 9.34571C9.60424 9.34571 9.28492 9.26757 8.8631 9.04879C8.26389 8.74014 7.77505 8.12676 7.59371 7.45867C7.50698 7.12659 7.50304 6.54446 7.58977 6.21237C7.84995 5.24345 8.69359 4.48551 9.68703 4.33705C9.96693 4.29407 10.4282 4.32142 10.7199 4.39565Z" fill="#005CCE"/>
</g>
<defs>
<clipPath id="clip0_1_167">
<rect width="20" height="20" fill="white"/>
</clipPath>
</defs>
</svg>
