<svg width="14" height="20" viewBox="0 0 14 20" fill="none" xmlns="http://www.w3.org/2000/svg">
<path d="M6.17519 0.0590286C3.84928 0.367674 1.90182 1.75854 0.86896 3.84483C0.494449 4.60668 0.293396 5.2982 0.198782 6.17335C0.0134982 7.84942 0.660022 9.72474 2.24085 12.108C2.76517 12.8933 3.5063 13.8856 4.14494 14.6475L4.58647 15.1749L4.41696 15.2101C3.98726 15.2921 3.16727 15.5187 2.8519 15.6437C2.0122 15.9719 1.42087 16.4173 1.1804 16.9057C1.06607 17.1323 1.0503 17.2026 1.0503 17.48C1.0503 17.7417 1.07001 17.8316 1.16068 18.023C1.37356 18.4762 1.73231 18.8044 2.37095 19.1209C3.95572 19.9101 6.73104 20.2031 9.23041 19.8437C10.5313 19.6561 11.6588 19.2693 12.329 18.7771C12.6207 18.5622 12.8218 18.3278 12.9637 18.023C13.1174 17.6988 13.1174 17.269 12.9676 16.9408C12.8533 16.6947 12.5064 16.3079 12.2344 16.1243C11.9978 15.9641 11.5169 15.7297 11.1384 15.589C10.8664 15.4914 9.86116 15.2257 9.60886 15.1866C9.54973 15.1788 9.63646 15.0538 10.0228 14.5889C12.5774 11.5024 13.9611 8.77927 13.9611 6.83753C13.9611 4.56761 12.7902 2.41099 10.8743 1.14515C9.49848 0.234838 7.79544 -0.15976 6.17519 0.0590286ZM8.21332 1.2858C9.34473 1.52022 10.2357 2.00858 11.0833 2.84857C11.9387 3.69637 12.4118 4.55198 12.668 5.72796C12.7784 6.24758 12.7902 7.17743 12.6877 7.65407C12.4512 8.74801 11.7731 10.1584 10.76 11.6587C9.92818 12.8854 8.42619 14.7256 7.34997 15.8273L7.05824 16.1282L6.75075 15.8078C5.54837 14.5615 4.18042 12.8815 3.29342 11.561C2.34729 10.1506 1.79538 9.0254 1.49183 7.88849C1.38145 7.47436 1.37356 7.3845 1.36962 6.79455C1.36962 5.62248 1.6574 4.677 2.32758 3.66902C2.59959 3.25879 3.42352 2.43053 3.81774 2.17267C4.61407 1.65305 5.4577 1.33268 6.35259 1.20766C6.76652 1.15297 7.77573 1.19203 8.21332 1.2858ZM6.2974 17.019L7.06219 17.7925L7.83092 17.015L8.59965 16.2376L8.86378 16.2649C9.6404 16.3431 10.693 16.6322 11.2528 16.9213C11.5918 17.0971 11.9111 17.3628 11.9111 17.4761C11.9111 17.5972 11.5997 17.8785 11.2882 18.0387C9.24223 19.0857 4.8782 19.0857 2.83613 18.0387C2.52469 17.8785 2.21326 17.5972 2.21326 17.4761C2.21326 17.269 2.89526 16.851 3.60092 16.6244C4.08975 16.4642 5.04771 16.2649 5.37886 16.2532C5.52866 16.2493 5.55626 16.2727 6.2974 17.019Z" fill="#DB2F09"/>
<path d="M6.62789 3.16107C5.05889 3.35642 3.80132 4.47379 3.42681 6.0014C3.32037 6.4546 3.31249 7.15003 3.41104 7.59542C3.61209 8.47447 4.1167 9.25195 4.8263 9.78719C5.11802 10.006 5.76455 10.3224 6.09569 10.4045C6.89597 10.6076 7.77114 10.549 8.48862 10.2404C9.10361 9.98254 9.64764 9.56059 10.0419 9.04879C10.2942 8.7167 10.5898 8.0955 10.6923 7.67355C10.8027 7.21254 10.8145 6.52101 10.712 6.07172C10.3888 4.66132 9.30466 3.55957 7.92094 3.23921C7.52672 3.14935 6.97875 3.11809 6.62789 3.16107ZM7.71989 4.39565C8.57929 4.61835 9.29284 5.33331 9.52937 6.21237C9.6161 6.54446 9.6161 7.12659 9.52937 7.45867C9.34803 8.12676 8.85919 8.74014 8.25997 9.04879C7.83816 9.26757 7.51884 9.34571 7.06154 9.34571C6.60424 9.34571 6.28492 9.26757 5.8631 9.04879C5.26389 8.74014 4.77505 8.12676 4.59371 7.45867C4.50698 7.12659 4.50304 6.54446 4.58977 6.21237C4.84995 5.24345 5.69359 4.48551 6.68703 4.33705C6.96693 4.29407 7.42816 4.32142 7.71989 4.39565Z" fill="#DB2F09"/>
</svg>
