<svg width="60" height="60" viewBox="0 0 60 60" fill="none" xmlns="http://www.w3.org/2000/svg">
<path d="M54.9675 15.2057L54.9285 13.6973C54.9279 13.6781 54.9273 13.6577 54.9249 13.6373L54.6219 10.2221C54.5973 9.94674 54.4551 9.69474 54.2313 9.53154C54.0081 9.36834 53.7249 9.30834 53.4543 9.37014C52.8867 9.49734 52.4649 9.60054 52.1217 9.68334C51.0033 9.95514 50.8017 10.0043 48.8505 10.0859C48.5067 10.1141 48.2067 10.1801 47.9397 10.2701C44.6187 9.69294 41.2869 9.39474 37.9857 9.39474C34.8381 9.39474 31.6635 9.66294 28.4973 10.1873C27.9207 9.72414 27.1389 9.37494 26.0919 9.54654C24.2193 9.93054 24.0111 9.93234 22.8573 9.93834C22.5039 9.94014 22.0683 9.94314 21.4857 9.95634C21.2055 9.96234 20.9415 10.0907 20.7639 10.3079C20.5857 10.5245 20.5125 10.8089 20.5617 11.0849L21.2433 14.9051C21.3159 15.3155 21.4389 15.7007 21.5829 16.0541C21.2481 18.0293 21.0825 20.0741 21.0825 22.2905C21.0825 25.7345 21.4701 29.0831 21.8799 32.6279C21.8979 32.7821 21.9153 32.9375 21.9333 33.0917C15.0705 33.7043 9.59669 38.7947 8.27729 40.1219H5.98469C5.64389 40.1219 5.32889 40.3025 5.15669 40.5959C4.98389 40.8899 4.98029 41.2535 5.14649 41.5505L9.94949 50.1587C10.1187 50.4629 10.4397 50.6513 10.7883 50.6513H23.4699H35.7639C35.7645 50.6513 35.7651 50.6507 35.7657 50.6507L44.8545 50.6501L44.9601 50.6519C45.3405 50.6519 46.1481 50.5907 46.8081 50.1413C47.2617 50.4461 47.8077 50.6513 48.4563 50.6513H52.5003C52.7787 50.6513 53.0445 50.5301 53.2269 50.3189C53.4093 50.1083 53.4909 49.8287 53.4507 49.5527C53.2971 48.4955 53.1501 47.9687 53.0421 47.5847C52.8987 47.0711 52.8327 46.8365 52.8939 45.3467C52.8939 44.5655 52.6137 43.8377 52.2105 43.2239C52.2111 43.2203 52.2117 43.2173 52.2117 43.2137C52.3413 40.0829 52.7997 36.8171 53.2851 33.3593C53.4447 32.2259 53.6043 31.0859 53.7537 29.9429C53.8221 29.4167 53.4513 28.9343 52.9251 28.8659C52.9239 28.8653 52.9227 28.8659 52.9215 28.8653C52.4031 28.7987 51.9165 29.1683 51.8481 29.6939C51.6999 30.8309 51.5409 31.9649 51.3819 33.0917C50.9703 36.0275 50.5797 38.8253 50.3847 41.5517C50.3841 41.5511 50.3835 41.5505 50.3823 41.5505C49.9053 41.3213 49.3305 41.5229 49.1007 42.0017C48.8967 42.4277 49.0359 42.9281 49.4067 43.1945C49.4517 43.2275 49.4991 43.2581 49.5519 43.2827C49.7721 43.3889 50.1753 43.7057 50.4963 44.1227C50.7621 44.4689 50.9721 44.8835 50.9727 45.3065C50.9031 46.9859 50.9943 47.3981 51.1917 48.1019C51.2403 48.2747 51.2937 48.4673 51.3525 48.7295H48.4551C47.9709 48.7295 47.6151 48.3761 47.3835 48.0347C47.1735 47.7257 47.0649 47.4263 47.0595 47.4107C46.9929 47.2133 46.8669 47.0531 46.7091 46.9403C46.4679 46.7663 46.1505 46.7051 45.8469 46.8059C45.3429 46.9727 45.0699 47.5163 45.2367 48.0197C45.2997 48.2099 45.3909 48.4265 45.5091 48.6509C45.3525 48.6995 45.1557 48.7307 44.9589 48.7307H37.3977L41.4039 41.5505C41.5701 41.2529 41.5665 40.8893 41.3931 40.5959C41.2203 40.3025 40.9053 40.1219 40.5645 40.1219H38.2719C36.9045 38.7467 31.0737 33.3281 23.8599 33.0437C23.8353 32.8319 23.8113 32.6189 23.7867 32.4077C23.3835 28.9193 23.0019 25.6247 23.0019 22.2911C23.0019 20.9207 23.0697 19.6217 23.2017 18.3653C23.3265 18.4205 23.4597 18.4505 23.5935 18.4505C23.8305 18.4505 24.0687 18.3629 24.2547 18.1871C24.6399 17.8223 24.6561 17.2139 24.2913 16.8287C24.2907 16.8275 24.2781 16.8137 24.2601 16.7933C24.1641 16.6847 23.8569 16.3157 23.5791 15.7985C23.3889 15.4439 23.2131 15.0215 23.1321 14.5667L23.0121 13.8959L22.6485 11.8607C22.7247 11.8601 22.7961 11.8595 22.8651 11.8595C24.1455 11.8523 24.4863 11.8373 26.4375 11.4353C26.5947 11.4095 26.7375 11.4179 26.8737 11.4557C27.2001 11.5469 27.4839 11.8205 27.8163 12.2543C27.8697 12.3239 27.9231 12.3947 27.9795 12.4727L28.0563 12.5783C28.0905 12.6245 28.1289 12.6653 28.1691 12.7043C28.4985 13.0199 29.0157 13.0667 29.3985 12.7865C29.6787 12.5819 29.8125 12.2537 29.7855 11.9309C32.5233 11.5259 35.2647 11.3165 37.9827 11.3165C40.6827 11.3165 43.4043 11.5229 46.1241 11.9231C46.0545 12.0713 46.0029 12.2033 45.9633 12.3047C45.7701 12.7991 46.0149 13.3559 46.5099 13.5479C46.8915 13.6973 47.3097 13.5821 47.5695 13.2953C47.6457 13.2113 47.7099 13.1141 47.7537 13.0013C47.8749 12.6899 47.9955 12.4397 48.2109 12.2645C48.3831 12.1247 48.6147 12.0317 48.9657 12.0029C49.9383 11.9627 50.5209 11.9261 51.0009 11.8661C51.5241 11.8007 51.9255 11.7077 52.5729 11.5505C52.6461 11.5325 52.7229 11.5139 52.8039 11.4941L53.0061 13.7771L53.0265 14.5439L53.0451 15.2819C53.0457 15.3023 53.0469 15.3221 53.0487 15.3419C53.0973 15.8849 52.6809 16.3043 52.3545 16.5467C52.1583 16.6919 51.9945 16.7735 51.9831 16.7789C51.8637 16.8353 51.7623 16.9121 51.6789 17.0045C51.4287 17.2817 51.3537 17.6921 51.5205 18.0521C51.6831 18.4031 52.0299 18.6089 52.3923 18.6089C52.4343 18.6089 52.4769 18.6011 52.5195 18.5951C52.5507 19.2221 52.5675 19.8659 52.5675 20.5301C52.5675 22.1549 52.4745 23.9141 52.2837 25.9097C52.2333 26.4353 52.6173 26.9021 53.1417 26.9555C53.1441 26.9561 53.1465 26.9567 53.1483 26.9573C53.6781 27.0029 54.1449 26.6201 54.1959 26.0921C54.3927 24.0353 54.4881 22.2161 54.4881 20.5295C54.4881 19.3841 54.4413 18.2933 54.3519 17.2451C54.7545 16.7063 55.0311 16.0223 54.9675 15.2057ZM35.4153 40.1219H24.5367H23.5743H22.6125H11.1357C13.3521 38.2625 17.4561 35.4089 22.1487 34.9997C22.4667 34.9721 22.7871 34.9571 23.1099 34.9529C23.1651 34.9523 23.2197 34.9499 23.2749 34.9499C23.5449 34.9499 23.8125 34.9613 24.0789 34.9781C28.9065 35.2805 33.1485 38.2205 35.4153 40.1219ZM24.5169 48.7307H23.5497H22.5867H11.3523L7.62089 42.0431H8.43029H10.3695H12.3027H22.7091H23.6727H24.6315H34.2489H36.1821H38.1213H38.9307L35.1993 48.7307H24.5169ZM45.8481 21.4325L31.9911 19.6919C31.4691 19.6247 30.9909 19.9931 30.9201 20.5151L29.6229 29.9987C29.5881 30.2531 29.6571 30.5105 29.8131 30.7139C29.9691 30.9167 30.2007 31.0499 30.4551 31.0817L44.3109 32.8223C44.3517 32.8271 44.3919 32.8295 44.4315 32.8295C44.9049 32.8295 45.3165 32.4803 45.3819 31.9997L46.6791 22.5161C46.7139 22.2617 46.6455 22.0037 46.4895 21.8009C46.3335 21.5975 46.1025 21.4643 45.8481 21.4325ZM31.6581 29.2973L32.6943 21.7169L44.6445 23.2175L43.6077 30.7979L31.6581 29.2973Z" fill="#005CCE"/>
</svg>
