<svg width="60" height="60" viewBox="0 0 60 60" fill="none" xmlns="http://www.w3.org/2000/svg">
<path d="M51.9239 36.3504H48.8339C48.6275 34.9932 48.2777 33.6828 47.7995 32.4342L50.2505 29.8602C50.5433 29.9304 50.8427 29.9694 51.1421 29.9694C52.1561 29.9694 53.1677 29.571 53.9195 28.7814C54.6251 28.0404 55.0001 27.0696 54.9743 26.0472C54.9491 25.0242 54.5261 24.0726 53.7845 23.3682L51.0107 20.7324C49.4789 19.2786 47.0501 19.3392 45.5939 20.868C44.8883 21.609 44.5139 22.5804 44.5391 23.6034C44.5475 23.9412 44.6033 24.2694 44.6957 24.5856L43.5545 25.7838L25.1855 5.81456C24.8855 5.48816 24.3989 5.40956 24.0101 5.62616L6.68686 15.2928C5.66086 15.8826 5.02366 16.9848 5.02366 18.1686C5.02366 18.8742 5.24506 19.5492 5.66266 20.1204C5.66986 20.13 5.67646 20.139 5.68366 20.1486C6.43006 21.1272 6.84106 22.3446 6.84106 23.5764C6.84106 24.4476 6.63526 25.32 6.24526 26.0994L5.12506 28.3374C4.91686 28.7526 5.03626 29.2578 5.40826 29.5362L6.13906 30.084C6.56506 30.4026 7.16626 30.315 7.48366 29.8914C7.48366 29.8908 7.48366 29.8908 7.48366 29.8908C7.80166 29.4666 7.71586 28.8636 7.29106 28.5462L7.20166 28.4796L7.96306 26.9598C8.48566 25.9152 8.76166 24.7452 8.76166 23.577C8.76166 21.933 8.21506 20.3082 7.22206 18.9996C7.22086 18.9978 7.21906 18.9954 7.21786 18.9942C7.03846 18.7524 6.94366 18.4668 6.94366 18.1692C6.94366 17.6634 7.20526 17.211 7.63246 16.9656L24.2831 7.67396L27.6245 11.3064L30.8783 14.8434L36.9611 21.4548C36.0017 21.0726 35.0057 20.7642 33.9785 20.5404L29.3465 16.2438L28.6415 15.5898L27.9317 14.9316L27.3089 14.3544C27.2951 14.3418 27.2813 14.3298 27.2669 14.3178C26.4443 13.6386 25.7303 13.3224 25.0181 13.3224C24.4487 13.3224 23.8949 13.5324 23.3711 13.9464C22.8917 14.325 22.3241 14.7444 21.6917 15.1926C21.4391 15.3714 21.1739 15.5556 20.9015 15.7428C20.6441 15.9198 20.3783 16.101 20.1059 16.284C17.5289 18.0198 14.3411 20.0058 11.5697 21.7092C11.5691 21.7098 11.5679 21.7104 11.5673 21.7104C11.4101 21.807 11.0747 21.777 10.6697 21.6282C10.1717 21.447 9.61966 21.7014 9.43726 22.1994C9.25486 22.698 9.51046 23.2494 10.0085 23.4318C10.5083 23.6154 10.9403 23.6856 11.3099 23.6856C11.5601 23.6856 11.7773 23.6502 11.9711 23.5986L16.0037 26.1162C14.3561 27.8592 13.0331 29.9094 12.1289 32.1696L10.3661 30.849C9.94186 30.531 9.33886 30.6174 9.02146 31.0416C8.70346 31.4664 8.78986 32.0688 9.21406 32.3868L10.5425 33.3822L10.0277 33.5106C9.79606 33.5688 9.59386 33.7104 9.46126 33.909L7.82986 36.3534C6.27586 36.3894 5.02246 37.6614 5.02246 39.2226V41.1348C5.02246 41.6652 5.45266 42.0954 5.98306 42.0954L15.8867 42.0948L15.3629 43.1916C15.1427 43.6536 15.3221 44.2062 15.7715 44.4504L17.1167 45.1794L16.8215 46.6794C16.7231 47.181 17.0351 47.6718 17.5307 47.7966L19.0163 48.1686L19.1033 49.695C19.1327 50.2032 19.5533 50.6004 20.0627 50.6004C20.0645 50.6004 20.0663 50.6004 20.0675 50.6004L21.5993 50.592L22.0643 52.0494C22.2203 52.536 22.7291 52.8168 23.2235 52.6866L24.7049 52.2978L25.5179 53.5938C25.7897 54.0264 26.3525 54.1716 26.7983 53.9226L28.1375 53.178L29.2481 54.2316C29.4335 54.4074 29.6711 54.495 29.9087 54.495C30.1469 54.495 30.3845 54.4068 30.5699 54.2316L31.6805 53.178L33.0197 53.9226C33.4661 54.171 34.0283 54.0264 34.3001 53.5938L35.1131 52.2978L36.5951 52.6866C37.0889 52.8162 37.5989 52.5366 37.7543 52.0494L38.2187 50.592L39.7505 50.6004C39.7523 50.6004 39.7541 50.6004 39.7559 50.6004C40.2647 50.6004 40.6853 50.2038 40.7153 49.695L40.8029 48.1686L42.2879 47.7966C42.7835 47.6724 43.0955 47.181 42.9971 46.6794L42.7019 45.1794L44.0471 44.4504C44.4971 44.2068 44.6765 43.6536 44.4563 43.1916L43.9325 42.0948H53.8361C54.3665 42.0948 54.7967 41.6646 54.7967 41.1342V39.222C54.7991 37.6392 53.5091 36.3504 51.9239 36.3504ZM42.3317 43.197L41.1677 43.8282C40.7981 44.0286 40.6019 44.4456 40.6829 44.8578L40.9379 46.1556L39.6533 46.4778C39.2453 46.5798 38.9519 46.935 38.9279 47.3544L38.8517 48.6756L37.5263 48.6684C37.1201 48.6792 36.7337 48.9366 36.6059 49.3368L36.2033 50.598L34.9211 50.2614C34.5131 50.154 34.0859 50.3244 33.8633 50.6802L33.1595 51.8022L32.0003 51.1578C31.6331 50.9532 31.1765 51.0114 30.8729 51.3006L29.9111 52.2126L28.9499 51.3006C28.7669 51.1272 28.5293 51.0372 28.2881 51.0372C28.1285 51.0372 27.9683 51.0768 27.8219 51.1584L26.6627 51.8028L25.9589 50.6808C25.7363 50.3256 25.3097 50.157 24.9011 50.262L23.6189 50.5986L23.2169 49.3374C23.0897 48.939 22.7195 48.669 22.3013 48.669C22.2995 48.669 22.2983 48.669 22.2965 48.669L20.9711 48.6762L20.8955 47.3556C20.8709 46.9362 20.5775 46.581 20.1701 46.479L18.8849 46.1568L19.1399 44.859C19.2209 44.4468 19.0247 44.0298 18.6551 43.8294L17.4917 43.1982L18.0179 42.0966H28.4975C28.7921 42.1038 29.1023 42.1014 29.4257 42.099L29.9117 42.0966L30.3977 42.099C30.5573 42.1002 30.7133 42.1008 30.8633 42.1008C31.0175 42.1008 31.1657 42.0996 31.3037 42.0966H41.8055L42.3317 43.197ZM42.7409 40.1748H31.2815C31.1489 40.1784 31.0121 40.179 30.8723 40.179V39.225C30.8723 38.6946 30.4421 38.2644 29.9117 38.2644C29.3813 38.2644 28.9511 38.6946 28.9511 39.225V40.1754C28.8083 40.1754 28.6631 40.1772 28.5197 40.1742H17.0819H15.6695H14.6039H6.94546V39.2226C6.94546 38.6976 7.37326 38.271 7.89946 38.271H8.34766H10.7963H11.7575H15.0473H15.7961H16.9385H17.9483H19.4333H20.3975H26.6003C26.9429 38.271 27.2591 38.0886 27.4313 37.7922C27.9437 36.9084 28.8941 36.3588 29.9117 36.3588C30.9299 36.3588 31.8797 36.9078 32.3927 37.7922C32.5649 38.088 32.8817 38.271 33.2237 38.271H39.4265H40.3913H41.8763H42.8861H44.0279H48.0671H49.0277H51.9245C52.4501 38.271 52.8785 38.6982 52.8785 39.2226V40.1742H45.2195H44.1533H42.7409V40.1748ZM21.1961 17.8662C21.7943 18.3834 23.3411 19.6392 24.2495 19.6392C24.3497 19.6392 24.4415 19.6236 24.5243 19.5912C24.6107 19.5564 24.7415 19.5042 27.9557 17.5734L30.6995 20.1186C30.4379 20.1078 30.1757 20.0982 29.9111 20.0982C25.1561 20.0982 20.7953 21.855 17.4383 24.747L13.8935 22.5336C16.3433 21.0192 18.9833 19.3572 21.1961 17.8662ZM26.0243 15.7818L26.4887 16.2126C25.5539 16.773 24.6407 17.3172 24.1355 17.6136C23.7833 17.3934 23.2571 17.028 22.8503 16.725C23.4917 16.2702 24.0731 15.8412 24.5633 15.453C24.8015 15.2652 24.9377 15.243 25.0193 15.243C25.1777 15.243 25.4807 15.3372 26.0243 15.7818ZM18.1877 26.6484C21.2681 23.7798 25.3931 22.0194 29.9117 22.0194C30.9893 22.0194 32.0435 22.1226 33.0677 22.314C33.7235 22.4364 34.3673 22.596 34.9955 22.7916C35.8523 23.0574 36.6803 23.3904 37.4753 23.781C38.9753 24.519 40.3541 25.4676 41.5715 26.5896C41.7875 26.7888 41.9987 26.9922 42.2045 27.2016C42.2261 27.2238 42.2495 27.2442 42.2711 27.267C42.4733 27.4752 42.6689 27.6888 42.8597 27.9072C42.8807 27.9312 42.9011 27.9564 42.9215 27.981C43.6613 28.8336 44.3171 29.7594 44.8799 30.7452C45.3131 31.5036 45.6905 32.2974 46.0061 33.1224C46.4009 34.1556 46.6997 35.235 46.8887 36.351H44.9903H43.8689H42.2213H41.0279C40.8065 35.502 40.4903 34.6908 40.0901 33.9288C40.3577 33.7416 40.5911 33.51 40.7813 33.2448C40.9679 32.985 41.1125 32.6934 41.2043 32.379C41.2787 32.124 41.3207 31.8552 41.3207 31.5756C41.3207 31.0866 41.1971 30.6264 40.9811 30.2226C40.9379 30.1422 40.8911 30.0648 40.8413 29.9892C40.3499 29.2506 39.5255 28.7544 38.5841 28.7094C38.5385 28.7076 38.4929 28.7022 38.4467 28.7022C38.1617 28.7022 37.8875 28.7454 37.6277 28.8228C37.0991 28.98 36.6353 29.286 36.2813 29.691C34.4543 28.4652 32.2625 27.7464 29.9123 27.7464C24.5963 27.7464 20.0831 31.4154 18.7967 36.3504H17.6033H15.9557H15.7979L15.5711 35.4438L15.1049 33.5802L15.0233 33.2544C14.9489 32.958 14.7413 32.7324 14.4827 32.616C14.3501 32.556 14.2061 32.523 14.0561 32.5284C14.5961 31.26 15.2861 30.0696 16.1015 28.977C16.7249 28.1388 17.4233 27.3594 18.1877 26.6484ZM46.9859 22.1922C47.3609 21.7986 47.8655 21.6 48.3707 21.6C48.8441 21.6 49.3181 21.774 49.6871 22.125L52.4603 24.7608C52.8305 25.1118 53.0405 25.5858 53.0543 26.0952C53.0669 26.604 52.8803 27.0876 52.5287 27.4566C52.2323 27.768 51.8543 27.9504 51.4601 28.0164C50.8877 28.1124 50.2793 27.9546 49.8269 27.5244L47.0531 24.8886C46.6835 24.5376 46.4729 24.0642 46.4603 23.5554C46.4579 23.4636 46.4693 23.3742 46.4801 23.2842C46.5281 22.8756 46.6979 22.4952 46.9859 22.1922ZM45.7319 26.283L48.5003 28.9128L46.9511 30.5394C46.3493 29.3688 45.6311 28.2672 44.8103 27.2502L45.7319 26.283ZM38.4125 30.627C38.4233 30.627 38.4341 30.6234 38.4449 30.6234C38.5895 30.6234 38.7257 30.6582 38.8481 30.7164C39.1721 30.8688 39.3983 31.1952 39.3983 31.575C39.3983 31.8672 39.2627 32.1258 39.0545 32.3004C38.8889 32.4396 38.6777 32.5266 38.4449 32.5266C38.1929 32.5266 37.9655 32.427 37.7951 32.2674C37.7447 32.2206 37.6991 32.1696 37.6595 32.1132C37.5539 31.9596 37.4909 31.7748 37.4909 31.5744C37.4909 31.3062 37.6037 31.0644 37.7831 30.891C37.9487 30.7338 38.1689 30.6354 38.4125 30.627ZM38.1755 34.434C38.5271 35.0352 38.8157 35.676 39.0305 36.3504H33.7367C32.8385 35.1588 31.4195 34.4388 29.9111 34.4388C28.4033 34.4388 26.9843 35.1588 26.0861 36.3504H20.7917C22.0211 32.4858 25.6583 29.6676 29.9111 29.6676C32.0231 29.6676 33.9833 30.363 35.5721 31.536C35.5721 31.5492 35.5703 31.5618 35.5703 31.575C35.5703 33.0678 36.7163 34.2972 38.1755 34.434ZM11.1989 35.199L12.2465 34.9374L12.5261 34.8672L13.3085 34.6716L13.3907 34.6512L13.5929 35.4588L13.8155 36.3492H12.9335H11.9567H10.9883H10.1429L10.8539 35.2842L11.1989 35.199Z" fill="#005CCE"/>
</svg>
