<svg width="32" height="32" viewBox="0 0 32 32" fill="none" xmlns="http://www.w3.org/2000/svg">
<g clip-path="url(#clip0_1_1454)">
<path d="M0.5 6C0.223869 6.00003 2.7609e-05 6.22387 0 6.5V19.5V21.5C2.7609e-05 21.7761 0.223869 22 0.5 22H1V23.5C1.00003 23.7761 1.22387 24 1.5 24H3.05078V24.002C3.28495 25.1383 4.29706 26 5.5 26C6.70294 26 7.71505 25.1364 7.94922 24H9.05078V24.002C9.28495 25.1383 10.2971 26 11.5 26C12.7029 26 13.7151 25.1364 13.9492 24H23.0508V24.002C23.2849 25.1383 24.2971 26 25.5 26C26.7029 26 27.7151 25.1364 27.9492 24H29.5C29.7761 24 30 23.7761 30 23.5V22H31.4648H31.5C31.7761 22 32 21.7761 32 21.5L32.0078 19.3984L31.4883 19.3594L31.5 19.4082H32L32 11C32 9.3467 30.6534 8 29 8H22V9H22.0137V19H21.0137V6.00781L20.5215 6H20.5137H0.5ZM1 7H20.0137V19H1V7ZM23.0137 9H29C30.1166 9 31 9.8834 31 11V19H23.0137V9ZM4.50586 9.00586C4.22971 9.01017 4.00935 9.23753 4.01367 9.51367V16.4844C4.00411 17.1605 5.02323 17.1605 5.01367 16.4844V9.51367C5.01809 9.23141 4.78813 9.00144 4.50586 9.00586ZM8.50586 9.00586C8.22971 9.01017 8.00935 9.23753 8.01367 9.51367V16.4844C8.00411 17.1605 9.02323 17.1605 9.01367 16.4844V9.51367C9.01809 9.23141 8.78813 9.00144 8.50586 9.00586ZM12.5059 9.00586C12.2297 9.01017 12.0094 9.23753 12.0137 9.51367V16.4844C12.0041 17.1605 13.0232 17.1605 13.0137 16.4844V9.51367C13.0181 9.23141 12.7881 9.00144 12.5059 9.00586ZM16.5059 9.00586C16.2297 9.01017 16.0094 9.23753 16.0137 9.51367V16.4844C16.0041 17.1605 17.0232 17.1605 17.0137 16.4844V9.51367C17.0181 9.23141 16.7881 9.00144 16.5059 9.00586ZM25 10V15H28.6992H30V14.5V11.6113C30 10.7304 29.2824 10 28.4023 10H26H25ZM26 11H28.4023C28.7395 11 29 11.2611 29 11.6113V14H28.6992H26V11ZM25.457 16C24.7904 16.0338 24.8411 17.0339 25.5078 17H26.5078C27.184 17.0096 27.184 15.9904 26.5078 16H25.5078C25.4909 15.9991 25.4739 15.9991 25.457 16ZM1 20H20.4785H31V21H29.5H5.5H1V20ZM2 22H3.51367C3.29186 22.2925 3.12676 22.6284 3.05078 23H2V22ZM5.5 22C6.33435 22 7 22.6657 7 23.5C7 24.3344 6.33435 25 5.5 25C4.66565 25 4 24.3344 4 23.5V23.4922C4.00421 22.6616 4.6683 22 5.5 22ZM7.48633 22H9.51367C9.29186 22.2925 9.12676 22.6284 9.05078 23H7.94922C7.87324 22.6284 7.70814 22.2925 7.48633 22ZM11.5 22C12.3343 22 13 22.6657 13 23.5C13 24.3344 12.3343 25 11.5 25C10.6657 25 10 24.3344 10 23.5C10 22.6657 10.6657 22 11.5 22ZM13.4863 22H23.5137C23.2919 22.2925 23.1268 22.6284 23.0508 23H13.9492C13.8732 22.6284 13.7081 22.2925 13.4863 22ZM25.5 22C26.3343 22 27 22.6657 27 23.5C27 24.3344 26.3343 25 25.5 25C24.6657 25 24 24.3344 24 23.5C24 22.6657 24.6657 22 25.5 22ZM27.4863 22H29V23H27.9492C27.8732 22.6284 27.7081 22.2925 27.4863 22ZM5.5 23C5.22386 23 5 23.2239 5 23.5C5 23.7761 5.22386 24 5.5 24C5.77614 24 6 23.7761 6 23.5C6 23.2239 5.77614 23 5.5 23ZM11.5 23C11.2239 23 11 23.2239 11 23.5C11 23.7761 11.2239 24 11.5 24C11.7761 24 12 23.7761 12 23.5C12 23.2239 11.7761 23 11.5 23ZM25.5 23C25.2239 23 25 23.2239 25 23.5C25 23.7761 25.2239 24 25.5 24C25.7761 24 26 23.7761 26 23.5C26 23.2239 25.7761 23 25.5 23Z" fill="#005CCE"/>
</g>
<defs>
<clipPath id="clip0_1_1454">
<rect width="32" height="32" fill="white"/>
</clipPath>
</defs>
</svg>
