<svg width="32" height="32" viewBox="0 0 32 32" fill="none" xmlns="http://www.w3.org/2000/svg">
<g clip-path="url(#clip0_1_1464)">
<path d="M11.5 23C11.2239 23 11 23.2239 11 23.5C11 23.7761 11.2239 24 11.5 24C11.7761 24 12 23.7761 12 23.5C12 23.2239 11.7761 23 11.5 23Z" fill="#005CCE"/>
<path d="M5.5 23C5.22386 23 5 23.2239 5 23.5C5 23.7761 5.22386 24 5.5 24C5.77614 24 6 23.7761 6 23.5C6 23.2239 5.77614 23 5.5 23Z" fill="#005CCE"/>
<path d="M25.5 23C25.2239 23 25 23.2239 25 23.5C25 23.7761 25.2239 24 25.5 24C25.7761 24 26 23.7761 26 23.5C26 23.2239 25.7761 23 25.5 23Z" fill="#005CCE"/>
<path fill-rule="evenodd" clip-rule="evenodd" d="M25 10V15H28.6992H30V14.5V11.6113C30 10.7304 29.2824 10 28.4023 10H26H25ZM28.4023 11H26V14H28.6992H29V11.6113C29 11.2611 28.7395 11 28.4023 11Z" fill="#005CCE"/>
<path d="M25.457 16C24.7904 16.0338 24.8411 17.0339 25.5078 17H26.5078C27.184 17.0096 27.184 15.9904 26.5078 16H25.5078C25.4909 15.9991 25.4739 15.9991 25.457 16Z" fill="#005CCE"/>
<path fill-rule="evenodd" clip-rule="evenodd" d="M0 19V21.5C2.7609e-05 21.7761 0.223869 22 0.5 22H1V23.5C1.00003 23.7761 1.22387 24 1.5 24H3.05078V24.002C3.28495 25.1383 4.29706 26 5.5 26C6.70294 26 7.71505 25.1364 7.94922 24H9.05078V24.002C9.28495 25.1383 10.2971 26 11.5 26C12.7029 26 13.7151 25.1364 13.9492 24L18.9967 24.002V23.002L13.9492 23C13.8732 22.6284 13.7081 22.2925 13.4863 22H20.602H21.8863H23.5137C23.2919 22.2925 23.1268 22.6284 23.0508 23C23.0118 23.3723 23.005 23.5893 23.0508 24V24.002C23.285 25.1383 24.2971 26 25.5 26C26.7029 26 27.7151 25.1364 27.9492 24H29.5C29.7761 24 30 23.7761 30 23.5V22H31.4648H31.5C31.7761 22 32 21.7761 32 21.5L32.0078 19.3984L32 19.3979V19.4082H31.5L31.4883 19.3594L32 19.3979L32 11C32 9.3467 30.6534 8 29 8H22V9H22.0137V19H20.0137H1H0ZM29 9H23.0137V19H31V11C31 9.8834 30.1167 9 29 9ZM20.4785 20H1V21H5.5H29.5H31V20H20.4785ZM3.51367 22H2V23H3.05078C3.12676 22.6284 3.29186 22.2925 3.51367 22ZM7 23.5C7 22.6657 6.33435 22 5.5 22C4.6683 22 4.00421 22.6616 4 23.4922V23.5C4 24.3344 4.66565 25 5.5 25C6.33435 25 7 24.3344 7 23.5ZM9.51367 22H7.48633C7.70814 22.2925 7.87324 22.6284 7.94922 23H9.05078C9.12677 22.6284 9.29186 22.2925 9.51367 22ZM13 23.5C13 22.6657 12.3343 22 11.5 22C10.6657 22 10 22.6657 10 23.5C10 24.3344 10.6657 25 11.5 25C12.3343 25 13 24.3344 13 23.5ZM27 23.5C27 22.6657 26.3344 22 25.5 22C24.6657 22 24 22.6657 24 23.5C24 24.3344 24.6657 25 25.5 25C26.3344 25 27 24.3344 27 23.5ZM29 22H27.4863C27.7081 22.2925 27.8732 22.6284 27.9492 23H29V22Z" fill="#005CCE"/>
<path fill-rule="evenodd" clip-rule="evenodd" d="M25 23.5C25 23.2239 25.2239 23 25.5 23C25.7761 23 26 23.2239 26 23.5C26 23.7761 25.7761 24 25.5 24C25.2239 24 25 23.7761 25 23.5ZM11.5 23C11.2239 23 11 23.2239 11 23.5C11 23.7761 11.2239 24 11.5 24C11.7761 24 12 23.7761 12 23.5C12 23.2239 11.7761 23 11.5 23ZM5.5 23C5.22386 23 5 23.2239 5 23.5C5 23.7761 5.22386 24 5.5 24C5.77614 24 6 23.7761 6 23.5C6 23.2239 5.77614 23 5.5 23ZM25 15V10H26H28.4023C29.2824 10 30 10.7304 30 11.6113V14.5V15H28.6992H25ZM25.5078 17C24.8411 17.0339 24.7904 16.0338 25.457 16C25.4739 15.9991 25.4909 15.9991 25.5078 16H26.5078C27.184 15.9904 27.184 17.0096 26.5078 17H25.5078ZM28.4023 11H26V14H28.6992H29V11.6113C29 11.2611 28.7395 11 28.4023 11Z" fill="#005CCE"/>
<path d="M18.9967 23.002V24.002L21.8863 22H20.602L18.9967 23.002Z" fill="#005CCE"/>
<path d="M0 19H1V11.2375H0V19Z" fill="#005CCE"/>
<path d="M17.9495 9.28757H17.3408V5.93975C17.3408 5.85903 17.3087 5.78162 17.2516 5.72454C17.1946 5.66746 17.1171 5.6354 17.0364 5.6354H16.7321V3.80931C16.7321 3.75922 16.7197 3.7099 16.6961 3.66572C16.6725 3.62155 16.6383 3.5839 16.5966 3.55609L15.6836 2.9474L15.3458 3.45383L16.1234 3.97214V5.6354H15.819C15.7383 5.6354 15.6609 5.66746 15.6038 5.72454C15.5468 5.78162 15.5147 5.85903 15.5147 5.93975V9.28757H13.6034L11.9803 4.41801H13.0799C13.1606 4.41801 13.238 4.38594 13.2951 4.32887C13.3522 4.27179 13.3843 4.19438 13.3843 4.11366V2.89627C13.3843 2.81555 13.3522 2.73814 13.2951 2.68106C13.238 2.62398 13.1606 2.59192 13.0799 2.59192H3.94947C3.86876 2.59192 3.79134 2.62398 3.73427 2.68106C3.67719 2.73814 3.64513 2.81555 3.64513 2.89627V4.11366C3.64513 4.19438 3.67719 4.27179 3.73427 4.32887C3.79134 4.38594 3.86876 4.41801 3.94947 4.41801H4.55817V7.45175H5.16686V4.41801H11.3387L12.9618 9.28757H5.16686V8.08966H4.55817V9.59192C4.55847 9.63393 4.56759 9.67541 4.58495 9.71366C3.80918 10.0344 3.11755 10.5293 2.56347 11.1599C2.51032 11.2207 2.48349 11.3001 2.48888 11.3807C2.49428 11.4612 2.53145 11.5364 2.59223 11.5895C2.65302 11.6427 2.73242 11.6695 2.81298 11.6641C2.89355 11.6587 2.96867 11.6215 3.02182 11.5607C3.12286 11.4454 3.2306 11.3377 3.34078 11.2333V12.0876L3.03004 12.3986C2.97298 12.4557 2.94093 12.5331 2.94093 12.6138C2.94093 12.6945 2.97298 12.7719 3.03004 12.829L3.16852 12.9671C3.07261 13.154 2.99209 13.3485 2.92778 13.5484H2.73208C2.65136 13.5484 2.57395 13.5805 2.51688 13.6376C2.4598 13.6947 2.42773 13.7721 2.42773 13.8528V15.6789C2.42773 15.7596 2.4598 15.837 2.51688 15.8941C2.57395 15.9512 2.65136 15.9832 2.73208 15.9832H2.92778C2.99217 16.1831 3.07258 16.3775 3.16821 16.5645L3.03004 16.7027C2.97298 16.7598 2.94093 16.8372 2.94093 16.9179C2.94093 16.9986 2.97298 17.076 3.03004 17.1331L4.32139 18.4244C4.37846 18.4815 4.45586 18.5135 4.53656 18.5135C4.61726 18.5135 4.69466 18.4815 4.75173 18.4244L4.88991 18.2862C5.07693 18.3818 5.27133 18.4622 5.47121 18.5267V18.7224C5.47121 18.8031 5.50328 18.8805 5.56035 18.9376C5.61743 18.9946 5.69484 19.0267 5.77556 19.0267H7.60165C7.68237 19.0267 7.75978 18.9946 7.81685 18.9376C7.87393 18.8805 7.90599 18.8031 7.90599 18.7224V18.5267C8.10588 18.4622 8.30027 18.3818 8.4873 18.2862L8.62547 18.4244C8.68255 18.4815 8.75994 18.5135 8.84065 18.5135C8.92135 18.5135 8.99875 18.4815 9.05582 18.4244L10.3472 17.1331C10.4042 17.076 10.4363 16.9986 10.4363 16.9179C10.4363 16.8372 10.4042 16.7598 10.3472 16.7027L10.209 16.5645C10.3046 16.3775 10.385 16.1831 10.4494 15.9832H12.7756V16.5919C12.7756 16.6598 12.7982 16.7257 12.84 16.7792C12.8817 16.8326 12.9401 16.8707 13.006 16.8871L13.2561 16.9498C13.2765 17.0043 13.2993 17.0585 13.3237 17.1118L13.1907 17.333C13.1558 17.3912 13.1413 17.4595 13.1496 17.5269C13.158 17.5943 13.1886 17.6569 13.2366 17.7049L14.0973 18.5656C14.1453 18.6136 14.2079 18.6442 14.2752 18.6525C14.3426 18.6608 14.4107 18.6464 14.469 18.6116L14.6905 18.4789C14.7441 18.5029 14.7983 18.5254 14.8524 18.5461L14.9151 18.796C14.9316 18.8619 14.9695 18.9204 15.023 18.9622C15.0765 19.004 15.1425 19.0267 15.2103 19.0267H16.4277C16.4956 19.0267 16.5616 19.004 16.615 18.9622C16.6685 18.9204 16.7065 18.8619 16.723 18.796L16.7856 18.5461C16.8398 18.5254 16.894 18.5029 16.9476 18.4789L17.1691 18.6116C17.2273 18.6464 17.2955 18.6608 17.3628 18.6525C17.4302 18.6442 17.4928 18.6136 17.5407 18.5656L18.4014 17.7049C18.4495 17.6569 18.4801 17.5943 18.4884 17.5269C18.4968 17.4595 18.4823 17.3912 18.4474 17.333L18.3144 17.1118C18.3387 17.0585 18.3616 17.0043 18.382 16.9498L18.6321 16.8871C18.6979 16.8707 18.7564 16.8326 18.7981 16.7792C18.8398 16.7257 18.8625 16.6598 18.8625 16.5919V15.9832H19.7756C20.0177 15.9832 20.25 15.887 20.4212 15.7158C20.5924 15.5446 20.6886 15.3123 20.6886 15.0702V13.8403H20.0799V15.0702C20.0799 15.1509 20.0478 15.2283 19.9908 15.2854C19.9337 15.3425 19.8563 15.3745 19.7756 15.3745H18.8625C18.8625 15.3067 18.8398 15.2408 18.7981 15.1873C18.7564 15.1338 18.6979 15.0958 18.6321 15.0793L18.382 15.0166C18.3616 14.9621 18.3387 14.908 18.3144 14.8547L18.4474 14.6334C18.4823 14.5752 18.4968 14.507 18.4884 14.4396C18.4801 14.3722 18.4495 14.3095 18.4014 14.2615L17.5407 13.4008C17.4928 13.3529 17.4302 13.3223 17.3628 13.3139C17.2955 13.3056 17.2273 13.32 17.1691 13.3549L16.9476 13.4876C16.894 13.4635 16.8398 13.441 16.7856 13.4203L16.723 13.1704C16.7065 13.1046 16.6685 13.0461 16.615 13.0043C16.5616 12.9625 16.4956 12.9398 16.4277 12.9397H15.5147V9.89627H17.9495C18.5143 9.89691 19.0558 10.1216 19.4552 10.521C19.8546 10.9204 20.0793 11.4619 20.0799 12.0267V13.2441H20.6886V12.0267C20.6878 11.3005 20.399 10.6042 19.8854 10.0907C19.3719 9.57722 18.6757 9.28838 17.9495 9.28757ZM4.86252 3.80931H4.25382V3.20061H12.7756V3.80931H4.86252ZM10.3408 15.3745H10.2209C10.1534 15.3745 10.0879 15.397 10.0345 15.4383C9.98121 15.4796 9.94312 15.5375 9.92626 15.6028C9.84848 15.905 9.72861 16.1947 9.57017 16.4635C9.53589 16.5216 9.52189 16.5895 9.53037 16.6564C9.53886 16.7233 9.56934 16.7855 9.61704 16.8333L9.70134 16.9179L8.84065 17.7789L8.75604 17.6946C8.70829 17.6468 8.64602 17.6163 8.57902 17.6078C8.51202 17.5993 8.4441 17.6133 8.38595 17.6477C8.11725 17.8062 7.82763 17.9262 7.52556 18.0041C7.46024 18.021 7.40238 18.0591 7.36106 18.1124C7.31974 18.1657 7.29732 18.2312 7.2973 18.2987V18.418H6.07991V18.2984C6.07989 18.2309 6.05746 18.1654 6.01615 18.1121C5.97483 18.0587 5.91697 18.0207 5.85165 18.0038C5.54958 17.9259 5.25996 17.8059 4.99126 17.6474C4.93311 17.613 4.86519 17.599 4.79819 17.6075C4.73119 17.616 4.66891 17.6465 4.62117 17.6943L4.53656 17.7786L3.67556 16.9179L3.75986 16.8333C3.80756 16.7855 3.83805 16.7233 3.84653 16.6564C3.85501 16.5895 3.84102 16.5216 3.80673 16.4635C3.64829 16.1947 3.52842 15.905 3.45065 15.6028C3.4338 15.5375 3.39575 15.4797 3.34249 15.4384C3.28922 15.3971 3.22375 15.3746 3.15634 15.3745H3.03643V14.1571H3.15634C3.2238 14.1571 3.28935 14.1347 3.34267 14.0934C3.396 14.0521 3.43409 13.9942 3.45095 13.9289C3.52873 13.6267 3.6486 13.337 3.80704 13.0682C3.84132 13.0101 3.85532 12.9422 3.84683 12.8753C3.83835 12.8083 3.80787 12.7461 3.76017 12.6984L3.67556 12.6138L4.53656 11.7528L4.62117 11.8371C4.66891 11.8849 4.73119 11.9154 4.79819 11.9239C4.86519 11.9324 4.93311 11.9183 4.99126 11.884C5.25996 11.7255 5.54958 11.6055 5.85165 11.5276C5.91697 11.5107 5.97483 11.4726 6.01615 11.4193C6.05746 11.366 6.07989 11.3004 6.07991 11.233V11.1137H7.2973V11.2333C7.29732 11.3007 7.31974 11.3663 7.36106 11.4196C7.40238 11.4729 7.46024 11.511 7.52556 11.5279C7.82763 11.6058 8.11725 11.7258 8.38595 11.8843C8.4441 11.9186 8.51202 11.9327 8.57902 11.9242C8.64602 11.9157 8.70829 11.8852 8.75604 11.8374L8.84065 11.7531L9.70165 12.6138L9.61734 12.6984C9.56965 12.7461 9.53916 12.8083 9.53068 12.8753C9.52219 12.9422 9.53619 13.0101 9.57047 13.0682C9.72891 13.337 9.84878 13.6267 9.92656 13.9289C9.94343 13.9942 9.98151 14.0521 10.0348 14.0934C10.0882 14.1347 10.1537 14.1571 10.2212 14.1571H10.3408V15.3745ZM16.19 13.5484L16.2351 13.7283C16.2478 13.7793 16.2734 13.8262 16.3096 13.8643C16.3458 13.9024 16.3912 13.9306 16.4414 13.9459C16.5721 13.9857 16.6986 14.0382 16.8191 14.1027C16.8655 14.1273 16.9175 14.1396 16.9701 14.1382C17.0226 14.1368 17.0739 14.1218 17.1189 14.0947L17.2784 13.9992L17.8031 14.5239L17.7072 14.6834C17.6801 14.7285 17.6652 14.7799 17.6639 14.8326C17.6626 14.8852 17.675 14.9373 17.6999 14.9837C17.7643 15.1041 17.8168 15.2304 17.8566 15.3608C17.872 15.411 17.9 15.4564 17.938 15.4925C17.976 15.5287 18.0228 15.5544 18.0736 15.5672L18.2538 15.6122V16.3542L18.0736 16.3993C18.0228 16.412 17.976 16.4378 17.938 16.4739C17.9 16.5101 17.872 16.5554 17.8566 16.6056C17.8168 16.7361 17.7643 16.8624 17.6999 16.9827C17.675 17.0291 17.6626 17.0812 17.6639 17.1339C17.6652 17.1865 17.6801 17.2379 17.7072 17.2831L17.8031 17.4426L17.2799 17.9673L17.1204 17.8717C17.0754 17.8446 17.0241 17.8297 16.9716 17.8283C16.919 17.8269 16.867 17.8391 16.8206 17.8638C16.7002 17.9282 16.5737 17.9807 16.443 18.0205C16.3927 18.0359 16.3473 18.064 16.3111 18.1022C16.275 18.1403 16.2493 18.1871 16.2366 18.2381L16.19 18.418H15.448L15.403 18.2381C15.3903 18.1871 15.3646 18.1403 15.3285 18.1022C15.2923 18.064 15.2469 18.0359 15.1966 18.0205C15.0659 17.9807 14.9394 17.9282 14.819 17.8638C14.7726 17.8391 14.7206 17.8269 14.668 17.8283C14.6155 17.8297 14.5642 17.8446 14.5192 17.8717L14.3597 17.9673L13.835 17.4441L13.9309 17.2846C13.958 17.2395 13.9729 17.188 13.9742 17.1354C13.9755 17.0827 13.963 17.0307 13.9382 16.9842C13.8738 16.8639 13.8213 16.7376 13.7814 16.6071C13.7661 16.557 13.7381 16.5116 13.7001 16.4754C13.662 16.4393 13.6153 16.4136 13.5644 16.4008L13.3843 16.3542V15.6122L13.5644 15.5672C13.6153 15.5544 13.662 15.5287 13.7001 15.4925C13.7381 15.4564 13.7661 15.411 13.7814 15.3608C13.8214 15.2303 13.8739 15.1039 13.9382 14.9834C13.963 14.9371 13.9754 14.885 13.9741 14.8324C13.9728 14.7798 13.9579 14.7285 13.9309 14.6834L13.835 14.5239L14.3597 13.9992L14.5192 14.0947C14.5642 14.1218 14.6155 14.1368 14.668 14.1382C14.7206 14.1396 14.7726 14.1273 14.819 14.1027C14.9394 14.0382 15.0659 13.9857 15.1966 13.9459C15.2469 13.9306 15.2923 13.9024 15.3285 13.8643C15.3646 13.8262 15.3903 13.7793 15.403 13.7283L15.448 13.5484H16.19ZM14.906 13.207L14.8524 13.42C14.7983 13.4407 14.7441 13.4632 14.6905 13.4873L14.469 13.3546C14.4107 13.3197 14.3426 13.3053 14.2752 13.3136C14.2079 13.322 14.1453 13.3526 14.0973 13.4005L13.2366 14.2612C13.1886 14.3092 13.158 14.3719 13.1496 14.4393C13.1413 14.5067 13.1558 14.5749 13.1907 14.6331L13.3237 14.8541C13.2993 14.9077 13.2765 14.9618 13.2561 15.0163L13.006 15.079C12.9401 15.0955 12.8816 15.1336 12.8399 15.1871C12.7981 15.2407 12.7755 15.3066 12.7756 15.3745H10.9495V13.8528C10.9495 13.7721 10.9174 13.6947 10.8603 13.6376C10.8033 13.5805 10.7258 13.5484 10.6451 13.5484H10.4494C10.3851 13.3485 10.3046 13.154 10.2087 12.9671L10.3472 12.829C10.4042 12.7719 10.4363 12.6945 10.4363 12.6138C10.4363 12.5331 10.4042 12.4557 10.3472 12.3986L9.05582 11.1073C8.99875 11.0502 8.92135 11.0182 8.84065 11.0182C8.75994 11.0182 8.68255 11.0502 8.62547 11.1073L8.4873 11.2454C8.30027 11.1499 8.10588 11.0695 7.90599 11.005V10.8093C7.90599 10.7286 7.87393 10.6512 7.81685 10.5941C7.75978 10.537 7.68237 10.505 7.60165 10.505H5.77556C5.69484 10.505 5.61743 10.537 5.56035 10.5941C5.50328 10.6512 5.47121 10.7286 5.47121 10.8093V11.005C5.27133 11.0695 5.07693 11.1499 4.88991 11.2454L4.75173 11.1073C4.69466 11.0502 4.61726 11.0182 4.53656 11.0182C4.45586 11.0182 4.37846 11.0502 4.32139 11.1073L3.94947 11.4789V10.7484C4.93126 10.0748 6.12638 9.78557 7.30753 9.93562C8.48869 10.0857 9.57351 10.6646 10.3557 11.5623C10.4089 11.6226 10.4839 11.6593 10.5642 11.6645C10.6444 11.6697 10.7235 11.6429 10.7841 11.59C10.8447 11.5371 10.8818 11.4623 10.8874 11.3821C10.893 11.3018 10.8667 11.2226 10.814 11.1617C10.3552 10.6401 9.80111 10.2106 9.18152 9.89627H14.906V13.207ZM16.1234 9.28757V6.24409H16.7321V9.28757H16.1234Z" fill="#005CCE"/>
<path d="M18.5582 10.8093C18.2353 10.8093 17.9257 10.9376 17.6974 11.1659C17.4691 11.3942 17.3408 11.7038 17.3408 12.0267C17.3408 12.3496 17.4691 12.6592 17.6974 12.8875C17.9257 13.1158 18.2353 13.2441 18.5582 13.2441H18.8626C18.9433 13.2441 19.0207 13.212 19.0778 13.155C19.1348 13.0979 19.1669 13.0205 19.1669 12.9398V11.1137C19.1669 11.033 19.1348 10.9555 19.0778 10.8985C19.0207 10.8414 18.9433 10.8093 18.8626 10.8093H18.5582ZM18.5582 12.6354C18.3968 12.6354 18.242 12.5713 18.1278 12.4571C18.0136 12.343 17.9495 12.1882 17.9495 12.0267C17.9495 11.8653 18.0136 11.7105 18.1278 11.5963C18.242 11.4822 18.3968 11.418 18.5582 11.418V12.6354Z" fill="#005CCE"/>
<path d="M13.9934 10.8093H12.4717V11.418H13.9934V10.8093Z" fill="#005CCE"/>
<path d="M13.9934 12.0267H12.4717V12.6354H13.9934V12.0267Z" fill="#005CCE"/>
<path d="M11.5583 8.67891C11.6057 8.67891 11.6525 8.66782 11.6949 8.64653C11.7373 8.62524 11.7741 8.59434 11.8024 8.55629C11.8307 8.51823 11.8498 8.47409 11.858 8.42737C11.8662 8.38065 11.8634 8.33265 11.8498 8.28721L10.9368 5.24373C10.918 5.18101 10.8795 5.12602 10.8269 5.08693C10.7744 5.04784 10.7107 5.02673 10.6452 5.02673H6.08C5.99928 5.02673 5.92186 5.0588 5.86479 5.11587C5.80771 5.17295 5.77565 5.25036 5.77565 5.33108V8.37456C5.77565 8.45528 5.80771 8.53269 5.86479 8.58977C5.92186 8.64684 5.99928 8.67891 6.08 8.67891H11.5583ZM6.38434 5.63543H10.4188L11.1492 8.07021H6.38434V5.63543ZM6.68869 12.3311C6.20714 12.3311 5.7364 12.4739 5.336 12.7414C4.9356 13.009 4.62353 13.3892 4.43924 13.8341C4.25496 14.279 4.20674 14.7686 4.30069 15.2409C4.39464 15.7132 4.62653 16.147 4.96704 16.4875C5.30755 16.828 5.74139 17.0599 6.21369 17.1539C6.68599 17.2478 7.17554 17.1996 7.62044 17.0153C8.06534 16.831 8.4456 16.519 8.71314 16.1186C8.98068 15.7182 9.12347 15.2474 9.12347 14.7659C9.12275 14.1203 8.866 13.5015 8.40954 13.045C7.95309 12.5886 7.33421 12.3318 6.68869 12.3311ZM6.68869 16.592C6.32753 16.592 5.97447 16.4849 5.67417 16.2842C5.37387 16.0835 5.13982 15.7984 5.00161 15.4647C4.86339 15.131 4.82723 14.7638 4.89769 14.4096C4.96815 14.0554 5.14207 13.73 5.39745 13.4746C5.65283 13.2192 5.97821 13.0453 6.33244 12.9749C6.68667 12.9044 7.05383 12.9406 7.3875 13.0788C7.72118 13.217 8.00637 13.451 8.20703 13.7513C8.40768 14.0516 8.51478 14.4047 8.51478 14.7659C8.5143 15.25 8.32175 15.7142 7.9794 16.0566C7.63704 16.3989 7.17285 16.5915 6.68869 16.592Z" fill="#005CCE"/>
<path d="M7.60245 14.4614H5.77637V15.0701H7.60245V14.4614Z" fill="#005CCE"/>
<path d="M14.2979 15.9832C14.2979 16.2841 14.3871 16.5783 14.5543 16.8286C14.7215 17.0788 14.9592 17.2739 15.2372 17.3891C15.5153 17.5042 15.8213 17.5344 16.1165 17.4757C16.4117 17.4169 16.6828 17.272 16.8956 17.0592C17.1084 16.8464 17.2534 16.5752 17.3121 16.28C17.3708 15.9849 17.3407 15.6789 17.2255 15.4008C17.1103 15.1228 16.9153 14.8851 16.665 14.7179C16.4148 14.5507 16.1206 14.4614 15.8196 14.4614C15.4161 14.4619 15.0294 14.6224 14.7441 14.9077C14.4588 15.1929 14.2983 15.5797 14.2979 15.9832ZM15.8196 15.0701C16.0002 15.0701 16.1767 15.1237 16.3269 15.224C16.477 15.3243 16.594 15.4669 16.6631 15.6338C16.7322 15.8006 16.7503 15.9842 16.7151 16.1613C16.6799 16.3384 16.5929 16.5011 16.4652 16.6288C16.3375 16.7565 16.1748 16.8434 15.9977 16.8787C15.8206 16.9139 15.637 16.8958 15.4702 16.8267C15.3033 16.7576 15.1607 16.6406 15.0604 16.4904C14.9601 16.3403 14.9065 16.1637 14.9065 15.9832C14.9065 15.741 15.0027 15.5088 15.174 15.3375C15.3452 15.1663 15.5774 15.0701 15.8196 15.0701Z" fill="#005CCE"/>
<path d="M16.1233 15.679H15.5146V16.2877H16.1233V15.679Z" fill="#005CCE"/>
</g>
<defs>
<clipPath id="clip0_1_1464">
<rect width="32" height="32" fill="white"/>
</clipPath>
</defs>
</svg>
