<svg width="32" height="32" viewBox="0 0 32 32" fill="none" xmlns="http://www.w3.org/2000/svg">
<path d="M16.5117 2.98438V2.98828C16.5059 2.98818 16.5 2.98818 16.4941 2.98828C16.4779 2.98745 16.4616 2.98745 16.4453 2.98828C16.4289 2.99069 16.4126 2.99395 16.3965 2.99805C16.38 3.00239 16.3637 3.0076 16.3477 3.01367C16.3304 3.01858 16.3135 3.02445 16.2969 3.03125L4.35742 8.44336C4.25466 8.4736 4.16424 8.53738 4.09977 8.6251C4.0353 8.71282 4.00029 8.81972 4 8.92969V16.377V23.7793C3.99982 23.8761 4.02658 23.971 4.07711 24.0527C4.12764 24.1343 4.19983 24.1994 4.28516 24.2402L16.2852 29.9531C16.3381 29.9782 16.395 29.9934 16.4531 29.9981C16.457 29.9988 16.4609 29.9994 16.4648 30C16.4688 30.0001 16.4727 30.0001 16.4766 30C16.5566 30.004 16.6364 29.988 16.709 29.9531L28.7129 24.2363C28.7986 24.1958 28.8712 24.1308 28.9221 24.0491C28.973 23.9674 29 23.8724 29 23.7754V16.1699V8.91797C28.9996 8.79885 28.9585 8.68366 28.8839 8.5926C28.8092 8.50154 28.7058 8.44041 28.5918 8.41992H28.5898L16.7031 3.02344C16.6425 2.99743 16.5774 2.98415 16.5117 2.98438ZM16.5098 4.04492L27.1523 8.87305L22.6328 10.5176C22.6031 10.4951 22.571 10.4761 22.5371 10.4609C21.6206 10.045 14.8678 6.98151 12.4512 5.88477L16.5098 4.04492ZM11.2305 6.4375C11.2525 6.44728 11.266 6.45343 11.2871 6.46289C11.3085 6.47289 11.3169 6.47633 11.3379 6.48633C11.3625 6.49733 11.3658 6.49872 11.3945 6.51172C13.1318 7.30019 19.4618 10.1737 21.291 11.0039L16.4863 12.752L5.83789 8.88086L11.2305 6.4375ZM28.0137 9.63477V16.1699V23.4512L16.9941 28.6973V13.6426L28.0137 9.63477ZM4.98633 9.64649L15.998 13.6523V28.6973L4.98633 23.4551V16.377V9.64649Z" fill="#005CCE"/>
</svg>
