<svg width="22" height="30" viewBox="0 0 22 30" fill="none" xmlns="http://www.w3.org/2000/svg">
<path d="M9.76473 0.0885434C6.27587 0.551513 3.35469 2.63781 1.80539 5.76725C1.24363 6.91002 0.942047 7.94731 0.800127 9.26003C0.5222 11.7741 1.49199 14.5871 3.86323 18.1619C4.6497 19.3399 5.76141 20.8284 6.71937 21.9712L7.38166 22.7623L7.12739 22.8151C6.48284 22.9381 5.25286 23.278 4.7798 23.4656C3.52026 23.9579 2.63326 24.6259 2.27255 25.3585C2.10106 25.6984 2.07741 25.8039 2.07741 26.22C2.07741 26.6126 2.10697 26.7474 2.24298 27.0345C2.5623 27.7144 3.10041 28.2066 4.05837 28.6813C6.43553 29.8651 10.5985 30.3046 14.3476 29.7655C16.299 29.4842 17.9902 28.904 18.9954 28.1656C19.433 27.8433 19.7346 27.4917 19.9475 27.0345C20.1781 26.5481 20.1781 25.9035 19.9534 25.4112C19.7819 25.042 19.2615 24.4618 18.8535 24.1864C18.4987 23.9461 17.7773 23.5945 17.2096 23.3835C16.8016 23.237 15.2937 22.8385 14.9152 22.7799C14.8265 22.7682 14.9566 22.5807 15.5361 21.8833C19.368 17.2536 21.4436 13.1689 21.4436 10.2563C21.4436 6.85142 19.6873 3.61649 16.8134 1.71773C14.7497 0.35226 12.1951 -0.239638 9.76473 0.0885434ZM12.8219 1.9287C14.5191 2.28032 15.8555 3.01287 17.1268 4.27285C18.41 5.54455 19.1196 6.82797 19.504 8.59195C19.6696 9.37138 19.6873 10.7661 19.5336 11.4811C19.1788 13.122 18.1617 15.2376 16.6419 17.488C15.3942 19.3282 13.1412 22.0884 11.5269 23.741L11.0893 24.1923L10.6281 23.7117C8.82452 21.8423 6.77259 19.3223 5.44209 17.3415C4.02289 15.2259 3.19503 13.5381 2.7397 11.8327C2.57413 11.2115 2.5623 11.0767 2.55639 10.1918C2.55639 8.43372 2.98806 7.01551 3.99332 5.50353C4.40134 4.88819 5.63723 3.64579 6.22856 3.25901C7.42306 2.47958 8.68851 1.99903 10.0308 1.81149C10.6517 1.72945 12.1655 1.78805 12.8219 1.9287ZM9.94805 25.5284L11.0952 26.6888L12.2483 25.5226L13.4014 24.3564L13.7976 24.3974C14.9626 24.5146 16.5414 24.9483 17.3811 25.3819C17.8897 25.6456 18.3686 26.0441 18.3686 26.2141C18.3686 26.3958 17.9015 26.8177 17.4343 27.058C14.3653 28.6286 7.81925 28.6286 4.75614 27.058C4.28899 26.8177 3.82184 26.3958 3.82184 26.2141C3.82184 25.9035 4.84484 25.2764 5.90333 24.9365C6.63658 24.6963 8.07352 24.3974 8.57024 24.3798C8.79495 24.3739 8.83634 24.4091 9.94805 25.5284Z" fill="white"/>
<path d="M10.4448 4.7416C8.09126 5.03462 6.20491 6.71069 5.64315 9.00209C5.48349 9.6819 5.47166 10.725 5.61949 11.3931C5.92107 12.7117 6.67798 13.8779 7.74238 14.6808C8.17996 15.009 9.14975 15.4837 9.64647 15.6067C10.8469 15.9115 12.1596 15.8236 13.2359 15.3606C14.1583 14.9738 14.9744 14.3409 15.5657 13.5732C15.9442 13.075 16.3877 12.1433 16.5414 11.5103C16.707 10.8188 16.7247 9.78152 16.571 9.10758C16.0861 6.99199 14.4599 5.33936 12.3843 4.85881C11.793 4.72402 10.9711 4.67714 10.4448 4.7416ZM12.0828 6.59348C13.3719 6.92752 14.4422 7.99997 14.797 9.31855C14.9271 9.81668 14.9271 10.6899 14.797 11.188C14.525 12.1901 13.7917 13.1102 12.8929 13.5732C12.2602 13.9014 11.7812 14.0186 11.0952 14.0186C10.4093 14.0186 9.93031 13.9014 9.29758 13.5732C8.39876 13.1102 7.6655 12.1901 7.39349 11.188C7.2634 10.6899 7.25748 9.81668 7.38758 9.31855C7.77786 7.86518 9.04331 6.72827 10.5335 6.50558C10.9533 6.44111 11.6452 6.48213 12.0828 6.59348Z" fill="white"/>
</svg>
