<svg width="30" height="30" viewBox="0 0 30 30" fill="none" xmlns="http://www.w3.org/2000/svg">
<path d="M13.7647 0.0885429C10.2759 0.551514 7.35469 2.63781 5.80539 5.76725C5.24363 6.91002 4.94205 7.94731 4.80013 9.26003C4.5222 11.7741 5.49199 14.5871 7.86323 18.1619C8.6497 19.3399 9.76141 20.8284 10.7194 21.9712L11.3817 22.7623L11.1274 22.8151C10.4828 22.9381 9.25286 23.278 8.7798 23.4656C7.52026 23.9579 6.63326 24.6259 6.27255 25.3585C6.10106 25.6984 6.07741 25.8039 6.07741 26.22C6.07741 26.6126 6.10697 26.7474 6.24298 27.0345C6.5623 27.7144 7.10041 28.2066 8.05837 28.6813C10.4355 29.8651 14.5985 30.3046 18.3476 29.7655C20.299 29.4842 21.9902 28.904 22.9954 28.1656C23.433 27.8433 23.7346 27.4917 23.9475 27.0345C24.1781 26.5481 24.1781 25.9035 23.9534 25.4112C23.7819 25.042 23.2615 24.4618 22.8535 24.1864C22.4987 23.9461 21.7773 23.5945 21.2096 23.3835C20.8016 23.237 19.2937 22.8385 18.9152 22.7799C18.8265 22.7682 18.9566 22.5807 19.5361 21.8833C23.368 17.2536 25.4436 13.1689 25.4436 10.2563C25.4436 6.85142 23.6873 3.61649 20.8134 1.71773C18.7497 0.352261 16.1951 -0.239637 13.7647 0.0885429ZM16.8219 1.9287C18.5191 2.28032 19.8555 3.01287 21.1268 4.27285C22.41 5.54455 23.1196 6.82797 23.504 8.59195C23.6696 9.37138 23.6873 10.7661 23.5336 11.4811C23.1788 13.122 22.1617 15.2376 20.6419 17.488C19.3942 19.3282 17.1412 22.0884 15.5269 23.741L15.0893 24.1923L14.6281 23.7117C12.8245 21.8423 10.7726 19.3223 9.44209 17.3415C8.02289 15.2259 7.19503 13.5381 6.7397 11.8327C6.57413 11.2115 6.5623 11.0767 6.55639 10.1918C6.55639 8.43372 6.98806 7.01551 7.99332 5.50353C8.40134 4.88819 9.63723 3.64579 10.2286 3.25901C11.4231 2.47958 12.6885 1.99903 14.0308 1.81149C14.6517 1.72945 16.1655 1.78805 16.8219 1.9287ZM13.948 25.5284L15.0952 26.6888L16.2483 25.5226L17.4014 24.3564L17.7976 24.3974C18.9626 24.5146 20.5414 24.9483 21.3811 25.3819C21.8897 25.6456 22.3686 26.0441 22.3686 26.2141C22.3686 26.3958 21.9015 26.8177 21.4343 27.058C18.3653 28.6286 11.8192 28.6286 8.75614 27.058C8.28899 26.8177 7.82184 26.3958 7.82184 26.2141C7.82184 25.9035 8.84484 25.2764 9.90333 24.9365C10.6366 24.6963 12.0735 24.3974 12.5702 24.3798C12.7949 24.3739 12.8363 24.4091 13.948 25.5284Z" fill="#DB2F09"/>
<path d="M14.4448 4.7416C12.0913 5.03462 10.2049 6.71069 9.64315 9.00209C9.48349 9.6819 9.47166 10.725 9.61949 11.3931C9.92107 12.7117 10.678 13.8779 11.7424 14.6808C12.18 15.009 13.1498 15.4837 13.6465 15.6067C14.8469 15.9115 16.1596 15.8236 17.2359 15.3606C18.1583 14.9738 18.9744 14.3409 19.5657 13.5732C19.9442 13.075 20.3877 12.1433 20.5414 11.5103C20.707 10.8188 20.7247 9.78152 20.571 9.10758C20.0861 6.99199 18.4599 5.33936 16.3843 4.85881C15.793 4.72402 14.9711 4.67714 14.4448 4.7416ZM16.0828 6.59348C17.3719 6.92752 18.4422 7.99997 18.797 9.31855C18.9271 9.81668 18.9271 10.6899 18.797 11.188C18.525 12.1901 17.7917 13.1102 16.8929 13.5732C16.2602 13.9014 15.7812 14.0186 15.0952 14.0186C14.4093 14.0186 13.9303 13.9014 13.2976 13.5732C12.3988 13.1102 11.6655 12.1901 11.3935 11.188C11.2634 10.6899 11.2575 9.81668 11.3876 9.31855C11.7779 7.86518 13.0433 6.72827 14.5335 6.50558C14.9533 6.44111 15.6452 6.48213 16.0828 6.59348Z" fill="#DB2F09"/>
</svg>
