<svg width="100" height="100" viewBox="0 0 100 100" fill="none" xmlns="http://www.w3.org/2000/svg">
<g clip-path="url(#clip0_1_1197)">
<path d="M1.5625 18.75C0.699591 18.7501 8.6278e-05 19.4496 0 20.3125V60.9375V67.1875C8.6278e-05 68.0504 0.699591 68.7499 1.5625 68.75H3.125V73.4375C3.12509 74.3004 3.82459 74.9999 4.6875 75H9.53369V75.0063C10.2655 78.5573 13.4283 81.25 17.1875 81.25C20.9467 81.25 24.1095 78.5512 24.8413 75H28.2837V75.0063C29.0155 78.5573 32.1783 81.25 35.9375 81.25C39.6967 81.25 42.8595 78.5512 43.5913 75H72.0337V75.0063C72.7655 78.5573 75.9283 81.25 79.6875 81.25C83.4467 81.25 86.6095 78.5512 87.3413 75H92.1875C93.0504 74.9999 93.7499 74.3004 93.75 73.4375V68.75H98.3276H98.4375C99.3004 68.7499 99.9999 68.0504 100 67.1875L100.024 60.6201L98.4008 60.4981L98.4375 60.6506H100L100 34.375C100 29.2084 95.7917 25 90.625 25H68.75V28.125H68.7927V59.375H65.6677V18.7744L64.1296 18.75H64.1052H1.5625ZM3.125 21.875H62.5427V59.375H3.125V21.875ZM71.9177 28.125H90.625C94.1145 28.125 96.875 30.8856 96.875 34.375V59.375H71.9177V28.125ZM14.0808 28.1433C13.2179 28.1568 12.5292 28.8673 12.5427 29.7302V51.5137C12.5128 53.6267 15.6976 53.6267 15.6677 51.5137V29.7302C15.6815 28.8481 14.9629 28.1295 14.0808 28.1433ZM26.5808 28.1433C25.7179 28.1568 25.0292 28.8673 25.0427 29.7302V51.5137C25.0128 53.6267 28.1976 53.6267 28.1677 51.5137V29.7302C28.1815 28.8481 27.4629 28.1295 26.5808 28.1433ZM39.0808 28.1433C38.2179 28.1568 37.5292 28.8673 37.5427 29.7302V51.5137C37.5127 53.6267 40.6976 53.6267 40.6677 51.5137V29.7302C40.6815 28.8481 39.9629 28.1295 39.0808 28.1433ZM51.5808 28.1433C50.7179 28.1568 50.0292 28.8673 50.0427 29.7302V51.5137C50.0127 53.6267 53.1976 53.6267 53.1677 51.5137V29.7302C53.1815 28.8481 52.4629 28.1295 51.5808 28.1433ZM78.125 31.25V46.875H89.6851H93.75V45.3125V36.2854C93.75 33.5326 91.5075 31.25 88.7573 31.25H81.25H78.125ZM81.25 34.375H88.7573C89.8111 34.375 90.625 35.191 90.625 36.2854V43.75H89.6851H81.25V34.375ZM79.5532 50C77.4699 50.1058 77.6286 53.2308 79.7119 53.125H82.8369C84.9499 53.155 84.9499 49.9701 82.8369 50H79.7119C79.659 49.9973 79.6061 49.9973 79.5532 50ZM3.125 62.5H63.9954H96.875V65.625H92.1875H17.1875H3.125V62.5ZM6.25 68.75H10.9802C10.2871 69.6642 9.77114 70.7136 9.53369 71.875H6.25V68.75ZM17.1875 68.75C19.7948 68.75 21.875 70.8303 21.875 73.4375C21.875 76.045 19.7948 78.125 17.1875 78.125C14.5802 78.125 12.5 76.045 12.5 73.4375V73.4131C12.5132 70.8175 14.5884 68.75 17.1875 68.75ZM23.3948 68.75H29.7302C29.0371 69.6642 28.5211 70.7136 28.2837 71.875H24.8413C24.6039 70.7136 24.0879 69.6642 23.3948 68.75ZM35.9375 68.75C38.5448 68.75 40.625 70.8303 40.625 73.4375C40.625 76.045 38.5448 78.125 35.9375 78.125C33.3302 78.125 31.25 76.045 31.25 73.4375C31.25 70.8303 33.3302 68.75 35.9375 68.75ZM42.1448 68.75H73.4802C72.7871 69.6642 72.2711 70.7136 72.0337 71.875H43.5913C43.3539 70.7136 42.8379 69.6642 42.1448 68.75ZM79.6875 68.75C82.2948 68.75 84.375 70.8303 84.375 73.4375C84.375 76.045 82.2948 78.125 79.6875 78.125C77.0802 78.125 75 76.045 75 73.4375C75 70.8303 77.0802 68.75 79.6875 68.75ZM85.8948 68.75H90.625V71.875H87.3413C87.1039 70.7136 86.5879 69.6642 85.8948 68.75ZM17.1875 71.875C16.3246 71.875 15.625 72.5746 15.625 73.4375C15.625 74.3004 16.3246 75 17.1875 75C18.0504 75 18.75 74.3004 18.75 73.4375C18.75 72.5746 18.0504 71.875 17.1875 71.875ZM35.9375 71.875C35.0746 71.875 34.375 72.5746 34.375 73.4375C34.375 74.3004 35.0746 75 35.9375 75C36.8004 75 37.5 74.3004 37.5 73.4375C37.5 72.5746 36.8004 71.875 35.9375 71.875ZM79.6875 71.875C78.8246 71.875 78.125 72.5746 78.125 73.4375C78.125 74.3004 78.8246 75 79.6875 75C80.5504 75 81.25 74.3004 81.25 73.4375C81.25 72.5746 80.5504 71.875 79.6875 71.875Z" fill="#005CCE"/>
</g>
<defs>
<clipPath id="clip0_1_1197">
<rect width="100" height="100" fill="white"/>
</clipPath>
</defs>
</svg>
