<svg width="100" height="100" viewBox="0 0 100 100" fill="none" xmlns="http://www.w3.org/2000/svg">
<g clip-path="url(#clip0_1_1183)">
<path d="M35.9375 71.875C35.0746 71.875 34.375 72.5746 34.375 73.4375C34.375 74.3004 35.0746 75 35.9375 75C36.8004 75 37.5 74.3004 37.5 73.4375C37.5 72.5746 36.8004 71.875 35.9375 71.875Z" fill="#005CCE"/>
<path d="M17.1875 71.875C16.3246 71.875 15.625 72.5746 15.625 73.4375C15.625 74.3004 16.3246 75 17.1875 75C18.0504 75 18.75 74.3004 18.75 73.4375C18.75 72.5746 18.0504 71.875 17.1875 71.875Z" fill="#005CCE"/>
<path d="M79.6875 71.875C78.8246 71.875 78.125 72.5746 78.125 73.4375C78.125 74.3004 78.8246 75 79.6875 75C80.5504 75 81.25 74.3004 81.25 73.4375C81.25 72.5746 80.5504 71.875 79.6875 71.875Z" fill="#005CCE"/>
<path fill-rule="evenodd" clip-rule="evenodd" d="M78.125 31.25V46.875H89.6851H93.75V45.3125V36.2854C93.75 33.5326 91.5075 31.25 88.7573 31.25H81.25H78.125ZM88.7573 34.375H81.25V43.75H89.6851H90.625V36.2854C90.625 35.191 89.8111 34.375 88.7573 34.375Z" fill="#005CCE"/>
<path d="M79.5532 50C77.4699 50.1058 77.6286 53.2308 79.7119 53.125H82.8369C84.9499 53.155 84.9499 49.9701 82.8369 50H79.7119C79.659 49.9973 79.6061 49.9973 79.5532 50Z" fill="#005CCE"/>
<path fill-rule="evenodd" clip-rule="evenodd" d="M0 59.375V67.1875C8.6278e-05 68.0504 0.699591 68.7499 1.5625 68.75H3.125V73.4375C3.12509 74.3004 3.82459 74.9999 4.6875 75H9.53369V75.0063C10.2655 78.5573 13.4283 81.25 17.1875 81.25C20.9467 81.25 24.1095 78.5512 24.8413 75H28.2837V75.0063C29.0155 78.5573 32.1783 81.25 35.9375 81.25C39.6967 81.25 42.8595 78.5512 43.5913 75L59.3645 75.0063V71.8813L43.5913 71.875C43.3539 70.7136 42.8379 69.6642 42.1448 68.75H64.3813H68.3946H73.4802C72.7871 69.6642 72.2711 70.7136 72.0337 71.875C71.9119 73.0386 71.8907 73.7166 72.0337 75V75.0063C72.7655 78.5573 75.9283 81.25 79.6875 81.25C83.4467 81.25 86.6095 78.5512 87.3413 75H92.1875C93.0504 74.9999 93.7499 74.3004 93.75 73.4375V68.75H98.3276H98.4375C99.3004 68.7499 99.9999 68.0504 100 67.1875L100.024 60.6201L100 60.6183V60.6506H98.4375L98.4008 60.4981L100 60.6183L100 34.375C100 29.2084 95.7917 25 90.625 25H68.75V28.125H68.7927V59.375H62.5427H3.125H0ZM90.625 28.125H71.9177V59.375H96.875V34.375C96.875 30.8856 94.1145 28.125 90.625 28.125ZM63.9954 62.5H3.125V65.625H17.1875H92.1875H96.875V62.5H63.9954ZM10.9802 68.75H6.25V71.875H9.53369C9.77114 70.7136 10.2871 69.6642 10.9802 68.75ZM21.875 73.4375C21.875 70.8303 19.7948 68.75 17.1875 68.75C14.5884 68.75 12.5132 70.8175 12.5 73.4131V73.4375C12.5 76.045 14.5802 78.125 17.1875 78.125C19.7948 78.125 21.875 76.045 21.875 73.4375ZM29.7302 68.75H23.3948C24.0879 69.6642 24.6039 70.7136 24.8413 71.875H28.2837C28.5211 70.7136 29.0371 69.6642 29.7302 68.75ZM40.625 73.4375C40.625 70.8303 38.5448 68.75 35.9375 68.75C33.3302 68.75 31.25 70.8303 31.25 73.4375C31.25 76.045 33.3302 78.125 35.9375 78.125C38.5448 78.125 40.625 76.045 40.625 73.4375ZM84.375 73.4375C84.375 70.8303 82.2948 68.75 79.6875 68.75C77.0802 68.75 75 70.8303 75 73.4375C75 76.045 77.0802 78.125 79.6875 78.125C82.2948 78.125 84.375 76.045 84.375 73.4375ZM90.625 68.75H85.8948C86.5879 69.6642 87.1039 70.7136 87.3413 71.875H90.625V68.75Z" fill="#005CCE"/>
<path fill-rule="evenodd" clip-rule="evenodd" d="M78.125 73.4375C78.125 72.5746 78.8246 71.875 79.6875 71.875C80.5504 71.875 81.25 72.5746 81.25 73.4375C81.25 74.3004 80.5504 75 79.6875 75C78.8246 75 78.125 74.3004 78.125 73.4375ZM35.9375 71.875C35.0746 71.875 34.375 72.5746 34.375 73.4375C34.375 74.3004 35.0746 75 35.9375 75C36.8004 75 37.5 74.3004 37.5 73.4375C37.5 72.5746 36.8004 71.875 35.9375 71.875ZM17.1875 71.875C16.3246 71.875 15.625 72.5746 15.625 73.4375C15.625 74.3004 16.3246 75 17.1875 75C18.0504 75 18.75 74.3004 18.75 73.4375C18.75 72.5746 18.0504 71.875 17.1875 71.875ZM78.125 46.875V31.25H81.25H88.7573C91.5075 31.25 93.75 33.5326 93.75 36.2854V45.3125V46.875H89.6851H78.125ZM79.7119 53.125C77.6286 53.2308 77.4699 50.1058 79.5532 50C79.6061 49.9973 79.659 49.9973 79.7119 50H82.8369C84.9499 49.9701 84.9499 53.155 82.8369 53.125H79.7119ZM88.7573 34.375H81.25V43.75H89.6851H90.625V36.2854C90.625 35.191 89.8111 34.375 88.7573 34.375Z" fill="#005CCE"/>
<path d="M59.3645 71.8813V75.0063L68.3946 68.75H64.3813L59.3645 71.8813Z" fill="#005CCE"/>
<path d="M0 59.375H3.125V35.1171H0V59.375Z" fill="#005CCE"/>
<path d="M56.0926 29.0238H54.1904V18.5618C54.1904 18.3096 54.0902 18.0677 53.9118 17.8893C53.7335 17.7109 53.4916 17.6107 53.2393 17.6107H52.2882V11.9042C52.2883 11.7477 52.2496 11.5935 52.1758 11.4555C52.102 11.3175 51.9952 11.1998 51.865 11.1129L49.0117 9.21072L47.956 10.7933L50.3861 12.413V17.6107H49.435C49.1827 17.6107 48.9408 17.7109 48.7625 17.8893C48.5841 18.0677 48.4839 18.3096 48.4839 18.5618V29.0238H42.5111L37.4389 13.8064H40.8752C41.1274 13.8064 41.3694 13.7062 41.5477 13.5278C41.7261 13.3494 41.8263 13.1075 41.8263 12.8553V9.05094C41.8263 8.7987 41.7261 8.55678 41.5477 8.37842C41.3694 8.20006 41.1274 8.09985 40.8752 8.09985H12.3426C12.0903 8.09985 11.8484 8.20006 11.6701 8.37842C11.4917 8.55678 11.3915 8.7987 11.3915 9.05094V12.8553C11.3915 13.1075 11.4917 13.3494 11.6701 13.5278C11.8484 13.7062 12.0903 13.8064 12.3426 13.8064H14.2448V23.2868H16.1469V13.8064H35.434L40.5062 29.0238H16.1469V25.2803H14.2448V29.9749C14.2457 30.1061 14.2742 30.2357 14.3285 30.3553C11.9042 31.3577 9.74282 32.9041 8.01134 34.8749C7.84524 35.0648 7.76139 35.3129 7.77825 35.5647C7.7951 35.8165 7.91128 36.0512 8.10122 36.2173C8.29116 36.3834 8.5393 36.4673 8.79106 36.4504C9.04282 36.4336 9.27758 36.3174 9.44368 36.1274C9.75944 35.767 10.0961 35.4303 10.4404 35.1041V37.7738L9.46936 38.7458C9.29106 38.9241 9.19089 39.166 9.19089 39.4182C9.19089 39.6704 9.29106 39.9123 9.46936 40.0906L9.9021 40.5224C9.60238 41.1065 9.35078 41.714 9.14979 42.339H8.53825C8.286 42.339 8.04409 42.4392 7.86573 42.6176C7.68736 42.7959 7.58716 43.0378 7.58716 43.2901V48.9966C7.58716 49.2488 7.68736 49.4908 7.86573 49.6691C8.04409 49.8475 8.286 49.9477 8.53825 49.9477H9.14979C9.35103 50.5724 9.6023 51.1799 9.90115 51.7643L9.46936 52.1961C9.29106 52.3744 9.19089 52.6163 9.19089 52.8685C9.19089 53.1207 9.29106 53.3625 9.46936 53.5409L13.5048 57.5764C13.6832 57.7547 13.925 57.8548 14.1772 57.8548C14.4294 57.8548 14.6713 57.7547 14.8497 57.5764L15.2815 57.1446C15.8659 57.4432 16.4734 57.6945 17.098 57.8959V58.5075C17.098 58.7597 17.1982 59.0016 17.3766 59.18C17.555 59.3584 17.7969 59.4586 18.0491 59.4586H23.7556C24.0079 59.4586 24.2498 59.3584 24.4282 59.18C24.6065 59.0016 24.7067 58.7597 24.7067 58.5075V57.8959C25.3314 57.6945 25.9388 57.4432 26.5233 57.1446L26.9551 57.5764C27.1334 57.7547 27.3753 57.8548 27.6275 57.8548C27.8797 57.8548 28.1216 57.7547 28.2999 57.5764L32.3354 53.5409C32.5137 53.3625 32.6139 53.1207 32.6139 52.8685C32.6139 52.6163 32.5137 52.3744 32.3354 52.1961L31.9036 51.7643C32.2024 51.1799 32.4537 50.5724 32.655 49.9477H39.9241V51.8499C39.9241 52.0619 39.995 52.2678 40.1254 52.435C40.2559 52.6021 40.4384 52.7209 40.6441 52.7724L41.4259 52.9683C41.4896 53.1386 41.5609 53.3079 41.637 53.4743L41.2214 54.1658C41.1122 54.3477 41.0671 54.561 41.0931 54.7716C41.1191 54.9822 41.2148 55.1781 41.365 55.328L44.0547 58.0177C44.2046 58.1676 44.4002 58.2632 44.6106 58.2892C44.821 58.3152 45.0341 58.2702 45.216 58.1613L45.9083 57.7466C46.0757 57.8217 46.245 57.8921 46.4143 57.9568L46.6102 58.7376C46.6616 58.9435 46.7803 59.1263 46.9474 59.2569C47.1146 59.3875 47.3207 59.4585 47.5328 59.4586H51.3372C51.5493 59.4585 51.7553 59.3875 51.9225 59.2569C52.0897 59.1263 52.2084 58.9435 52.2597 58.7376L52.4556 57.9568C52.6249 57.8921 52.7942 57.8217 52.9616 57.7466L53.654 58.1613C53.8359 58.2702 54.0489 58.3152 54.2593 58.2892C54.4697 58.2632 54.6654 58.1676 54.8153 58.0177L57.505 55.328C57.6551 55.1781 57.7508 54.9822 57.7768 54.7716C57.8029 54.561 57.7577 54.3477 57.6486 54.1658L57.2329 53.4743C57.309 53.3079 57.3804 53.1386 57.4441 52.9683L58.2259 52.7724C58.4315 52.7209 58.6141 52.6021 58.7445 52.435C58.875 52.2678 58.9458 52.0619 58.9458 51.8499V49.9477H61.7991C62.5558 49.9477 63.2816 49.6471 63.8167 49.112C64.3518 48.5769 64.6524 47.8512 64.6524 47.0944V43.2511H62.7502V47.0944C62.7502 47.3467 62.65 47.5886 62.4716 47.767C62.2933 47.9453 62.0513 48.0455 61.7991 48.0455H58.9458C58.9458 47.8335 58.875 47.6275 58.7445 47.4604C58.6141 47.2933 58.4315 47.1745 58.2259 47.123L57.4441 46.927C57.3804 46.7568 57.309 46.5875 57.2329 46.4211L57.6486 45.7296C57.7577 45.5476 57.8029 45.3344 57.7768 45.1238C57.7508 44.9132 57.6551 44.7173 57.505 44.5674L54.8153 41.8777C54.6654 41.7278 54.4697 41.6322 54.2593 41.6062C54.0489 41.5802 53.8359 41.6252 53.654 41.7341L52.9616 42.1488C52.7942 42.0736 52.6249 42.0033 52.4556 41.9386L52.2597 41.1577C52.2084 40.9519 52.0897 40.7691 51.9225 40.6385C51.7553 40.5079 51.5493 40.4369 51.3372 40.4368H48.4839V30.9259H56.0926C57.8577 30.928 59.5499 31.63 60.798 32.8781C62.0461 34.1262 62.7482 35.8185 62.7502 37.5836V41.3879H64.6524V37.5836C64.6498 35.3141 63.7472 33.1384 62.1425 31.5337C60.5378 29.9289 58.362 29.0263 56.0926 29.0238ZM15.1959 11.9042H13.2937V10.002H39.9241V11.9042H15.1959ZM32.3154 48.0455H31.9407C31.7299 48.0456 31.5251 48.1157 31.3584 48.2448C31.1918 48.3739 31.0727 48.5547 31.02 48.7588C30.777 49.7031 30.4024 50.6085 29.9073 51.4485C29.8001 51.6301 29.7564 51.8422 29.7829 52.0513C29.8094 52.2605 29.9047 52.4549 30.0537 52.6041L30.3172 52.8685L27.6275 55.5591L27.3631 55.2957C27.2139 55.1464 27.0193 55.051 26.8099 55.0245C26.6005 54.9979 26.3883 55.0418 26.2066 55.1492C25.3669 55.6445 24.4618 56.0194 23.5179 56.2629C23.3137 56.3156 23.1329 56.4346 23.0038 56.6013C22.8747 56.7679 22.8046 56.9728 22.8045 57.1836V57.5564H19.0002V57.1826C19.0001 56.9718 18.9301 56.767 18.8009 56.6003C18.6718 56.4337 18.491 56.3147 18.2869 56.262C17.3429 56.0184 16.4379 55.6435 15.5982 55.1482C15.4165 55.0409 15.2042 54.997 14.9948 55.0235C14.7855 55.05 14.5908 55.1454 14.4416 55.2947L14.1772 55.5582L11.4866 52.8685L11.7501 52.6041C11.8991 52.4549 11.9944 52.2605 12.0209 52.0513C12.0474 51.8422 12.0037 51.6301 11.8965 51.4485C11.4014 50.6085 11.0268 49.7031 10.7838 48.7588C10.7311 48.5549 10.6122 48.3742 10.4458 48.2451C10.2793 48.116 10.0747 48.0458 9.86406 48.0455H9.48933V44.2412H9.86406C10.0749 44.2411 10.2797 44.171 10.4463 44.0419C10.613 43.9128 10.732 43.732 10.7847 43.5279C11.0278 42.5836 11.4024 41.6782 11.8975 40.8382C12.0046 40.6566 12.0484 40.4445 12.0218 40.2353C11.9953 40.0262 11.9001 39.8317 11.751 39.6826L11.4866 39.4182L14.1772 36.7276L14.4416 36.991C14.5908 37.1403 14.7855 37.2357 14.9948 37.2622C15.2042 37.2887 15.4165 37.2449 15.5982 37.1375C16.4379 36.6422 17.3429 36.2673 18.2869 36.0238C18.491 35.9711 18.6718 35.852 18.8009 35.6854C18.9301 35.5188 19.0001 35.3139 19.0002 35.1031V34.7303H22.8045V35.1041C22.8046 35.3149 22.8747 35.5197 23.0038 35.6863C23.1329 35.853 23.3137 35.972 23.5179 36.0247C24.4618 36.2683 25.3669 36.6432 26.2066 37.1385C26.3883 37.2458 26.6005 37.2897 26.8099 37.2632C27.0193 37.2367 27.2139 37.1413 27.3631 36.992L27.6275 36.7285L30.3181 39.4182L30.0547 39.6826C29.9056 39.8317 29.8104 40.0262 29.7839 40.2353C29.7573 40.4445 29.8011 40.6566 29.9082 40.8382C30.4033 41.6782 30.7779 42.5836 31.021 43.5279C31.0737 43.732 31.1927 43.9128 31.3594 44.0419C31.526 44.171 31.7308 44.2411 31.9416 44.2412H32.3154V48.0455ZM50.5944 42.339L50.7351 42.9011C50.7747 43.0605 50.855 43.2069 50.968 43.326C51.081 43.4452 51.2229 43.5331 51.3799 43.5811C51.7884 43.7055 52.1837 43.8696 52.5602 44.0709C52.7052 44.148 52.8677 44.1863 53.0319 44.182C53.1961 44.1776 53.3563 44.1308 53.4971 44.0462L53.9954 43.7476L55.6351 45.3872L55.3355 45.8856C55.2508 46.0267 55.2042 46.1874 55.2002 46.3519C55.1962 46.5165 55.235 46.6792 55.3127 46.8243C55.5138 47.2003 55.6779 47.595 55.8025 48.0027C55.8504 48.1595 55.938 48.3013 56.0568 48.4143C56.1756 48.5273 56.3216 48.6076 56.4806 48.6476L57.0437 48.7883V51.1071L56.4806 51.2478C56.3216 51.2877 56.1756 51.3681 56.0568 51.4811C55.938 51.5941 55.8504 51.7358 55.8025 51.8927C55.6779 52.3004 55.5138 52.6951 55.3127 53.0711C55.235 53.2161 55.1962 53.3789 55.2002 53.5434C55.2042 53.708 55.2508 53.8687 55.3355 54.0098L55.6351 54.5082L54.0002 56.1478L53.5018 55.8492C53.3611 55.7645 53.2008 55.7178 53.0367 55.7134C52.8725 55.7091 52.71 55.7473 52.565 55.8245C52.1885 56.0258 51.7932 56.1898 51.3847 56.3143C51.2277 56.3623 51.0857 56.4502 50.9727 56.5693C50.8597 56.6885 50.7795 56.8349 50.7399 56.9943L50.5944 57.5564H48.2756L48.1348 56.9943C48.0952 56.8349 48.015 56.6885 47.902 56.5693C47.789 56.4502 47.6471 56.3623 47.49 56.3143C47.0816 56.1898 46.6862 56.0258 46.3097 55.8245C46.1647 55.7473 46.0022 55.7091 45.838 55.7134C45.6739 55.7178 45.5136 55.7645 45.3729 55.8492L44.8745 56.1478L43.2348 54.5129L43.5344 54.0145C43.6191 53.8734 43.6658 53.7127 43.6698 53.5482C43.6738 53.3837 43.635 53.2209 43.5573 53.0758C43.3561 52.6998 43.1921 52.3052 43.0675 51.8974C43.0196 51.7406 42.932 51.5988 42.8132 51.4858C42.6944 51.3728 42.5484 51.2925 42.3893 51.2526L41.8263 51.1071V48.7883L42.3893 48.6476C42.5484 48.6076 42.6944 48.5273 42.8132 48.4143C42.932 48.3013 43.0196 48.1595 43.0675 48.0027C43.1923 47.5947 43.3563 47.1998 43.5573 46.8234C43.6348 46.6784 43.6735 46.5158 43.6695 46.3515C43.6655 46.1871 43.619 46.0266 43.5344 45.8856L43.2348 45.3872L44.8745 43.7476L45.3729 44.0462C45.5136 44.1308 45.6739 44.1776 45.838 44.182C46.0022 44.1863 46.1647 44.148 46.3097 44.0709C46.6862 43.8696 47.0816 43.7055 47.49 43.5811C47.6471 43.5331 47.789 43.4452 47.902 43.326C48.015 43.2069 48.0952 43.0605 48.1348 42.9011L48.2756 42.339H50.5944ZM46.5817 41.2719L46.4143 41.9376C46.245 42.0023 46.0757 42.0727 45.9083 42.1478L45.216 41.7332C45.0341 41.6242 44.821 41.5792 44.6106 41.6052C44.4002 41.6313 44.2046 41.7268 44.0547 41.8768L41.365 44.5664C41.2148 44.7164 41.1191 44.9122 41.0931 45.1228C41.0671 45.3334 41.1122 45.5467 41.2214 45.7287L41.637 46.4192C41.5609 46.5866 41.4896 46.7558 41.4259 46.9261L40.6441 47.122C40.4383 47.1736 40.2556 47.2925 40.1251 47.4598C39.9947 47.6272 39.9239 47.8333 39.9241 48.0455H34.2176V43.2901C34.2176 43.0378 34.1174 42.7959 33.939 42.6176C33.7607 42.4392 33.5187 42.339 33.2665 42.339H32.655C32.454 41.714 32.2024 41.1065 31.9026 40.5224L32.3354 40.0906C32.5137 39.9123 32.6139 39.6704 32.6139 39.4182C32.6139 39.166 32.5137 38.9241 32.3354 38.7458L28.2999 34.7103C28.1216 34.532 27.8797 34.4319 27.6275 34.4319C27.3753 34.4319 27.1334 34.532 26.9551 34.7103L26.5233 35.1421C25.9388 34.8435 25.3314 34.5922 24.7067 34.3908V33.7792C24.7067 33.527 24.6065 33.2851 24.4282 33.1067C24.2498 32.9283 24.0079 32.8281 23.7556 32.8281H18.0491C17.7969 32.8281 17.555 32.9283 17.3766 33.1067C17.1982 33.2851 17.098 33.527 17.098 33.7792V34.3908C16.4734 34.5922 15.8659 34.8435 15.2815 35.1421L14.8497 34.7103C14.6713 34.532 14.4294 34.4319 14.1772 34.4319C13.925 34.4319 13.6832 34.532 13.5048 34.7103L12.3426 35.8716V33.589C15.4107 31.484 19.1454 30.58 22.8365 31.0489C26.5276 31.5178 29.9177 33.3269 32.362 36.1322C32.5284 36.3206 32.7626 36.4355 33.0135 36.4518C33.2644 36.468 33.5115 36.3843 33.7008 36.2188C33.8901 36.0534 34.0062 35.8198 34.0237 35.569C34.0412 35.3182 33.9588 35.0707 33.7944 34.8806C32.3603 33.2504 30.6289 31.9083 28.6927 30.9259H46.5817V41.2719ZM50.3861 29.0238V19.5129H52.2882V29.0238H50.3861Z" fill="#005CCE"/>
<path d="M57.9954 33.7793C56.9864 33.7793 56.0188 34.1801 55.3053 34.8936C54.5919 35.607 54.191 36.5747 54.191 37.5836C54.191 38.5926 54.5919 39.5603 55.3053 40.2737C56.0188 40.9872 56.9864 41.388 57.9954 41.388H58.9465C59.1987 41.388 59.4406 41.2878 59.619 41.1094C59.7974 40.9311 59.8976 40.6891 59.8976 40.4369V34.7304C59.8976 34.4781 59.7974 34.2362 59.619 34.0579C59.4406 33.8795 59.1987 33.7793 58.9465 33.7793H57.9954ZM57.9954 39.4858C57.4909 39.4858 57.0071 39.2854 56.6503 38.9287C56.2936 38.572 56.0932 38.0881 56.0932 37.5836C56.0932 37.0792 56.2936 36.5953 56.6503 36.2386C57.0071 35.8819 57.4909 35.6815 57.9954 35.6815V39.4858Z" fill="#005CCE"/>
<path d="M43.7294 33.7793H38.974V35.6815H43.7294V33.7793Z" fill="#005CCE"/>
<path d="M43.7294 37.5837H38.974V39.4859H43.7294V37.5837Z" fill="#005CCE"/>
<path d="M36.121 27.1218C36.2693 27.1218 36.4155 27.0871 36.5479 27.0206C36.6804 26.9541 36.7955 26.8575 36.884 26.7386C36.9725 26.6197 37.032 26.4817 37.0577 26.3357C37.0835 26.1897 37.0747 26.0397 37.0322 25.8977L34.1789 16.3869C34.1202 16.1909 33.9998 16.019 33.8357 15.8969C33.6715 15.7747 33.4724 15.7087 33.2678 15.7087H19.0014C18.7492 15.7087 18.5073 15.8089 18.3289 15.9873C18.1506 16.1657 18.0504 16.4076 18.0504 16.6598V26.1707C18.0504 26.4229 18.1506 26.6649 18.3289 26.8432C18.5073 27.0216 18.7492 27.1218 19.0014 27.1218H36.121ZM19.9525 17.6109H32.5602L34.8428 25.2196H19.9525V17.6109ZM20.9036 38.5348C19.3988 38.5348 17.9277 38.9811 16.6765 39.8171C15.4252 40.6532 14.45 41.8415 13.8741 43.2318C13.2982 44.6221 13.1475 46.152 13.4411 47.6279C13.7347 49.1038 14.4594 50.4596 15.5235 51.5237C16.5876 52.5878 17.9433 53.3124 19.4192 53.606C20.8952 53.8996 22.425 53.7489 23.8153 53.173C25.2057 52.5972 26.394 51.6219 27.23 50.3707C28.0661 49.1194 28.5123 47.6484 28.5123 46.1435C28.5101 44.1263 27.7077 42.1923 26.2813 40.7659C24.8549 39.3394 22.9209 38.5371 20.9036 38.5348ZM20.9036 51.85C19.775 51.85 18.6717 51.5154 17.7332 50.8883C16.7948 50.2613 16.0634 49.37 15.6315 48.3273C15.1996 47.2846 15.0866 46.1372 15.3067 45.0302C15.5269 43.9233 16.0704 42.9065 16.8685 42.1084C17.6666 41.3103 18.6834 40.7668 19.7903 40.5466C20.8973 40.3265 22.0447 40.4395 23.0874 40.8714C24.1301 41.3033 25.0214 42.0347 25.6484 42.9731C26.2755 43.9116 26.6101 45.0149 26.6101 46.1435C26.6086 47.6565 26.0069 49.1071 24.9371 50.177C23.8672 51.2468 22.4166 51.8485 20.9036 51.85Z" fill="#005CCE"/>
<path d="M23.7561 45.1921H18.0496V47.0943H23.7561V45.1921Z" fill="#005CCE"/>
<path d="M44.6801 49.9476C44.6801 50.8881 44.959 51.8075 45.4815 52.5895C46.004 53.3716 46.7467 53.9811 47.6157 54.341C48.4846 54.7009 49.4408 54.7951 50.3632 54.6116C51.2857 54.4281 52.133 53.9752 52.7981 53.3102C53.4631 52.6451 53.9161 51.7978 54.0995 50.8753C54.283 49.9528 54.1889 48.9967 53.8289 48.1277C53.469 47.2588 52.8595 46.5161 52.0775 45.9936C51.2954 45.471 50.376 45.1921 49.4355 45.1921C48.1747 45.1936 46.966 45.6952 46.0746 46.5866C45.1831 47.4781 44.6816 48.6868 44.6801 49.9476ZM49.4355 47.0943C49.9998 47.0943 50.5515 47.2617 51.0207 47.5752C51.4899 47.8887 51.8556 48.3343 52.0716 48.8557C52.2875 49.377 52.344 49.9507 52.2339 50.5042C52.1238 51.0577 51.8521 51.5661 51.453 51.9651C51.054 52.3642 50.5456 52.6359 49.9921 52.746C49.4387 52.8561 48.865 52.7996 48.3436 52.5836C47.8222 52.3677 47.3766 52.002 47.0631 51.5328C46.7496 51.0635 46.5822 50.5119 46.5822 49.9476C46.5822 49.1908 46.8828 48.4651 47.4179 47.93C47.953 47.3949 48.6788 47.0943 49.4355 47.0943Z" fill="#005CCE"/>
<path d="M50.3872 48.9968H48.485V50.899H50.3872V48.9968Z" fill="#005CCE"/>
</g>
<defs>
<clipPath id="clip0_1_1183">
<rect width="100" height="100" fill="white"/>
</clipPath>
</defs>
</svg>
