<svg width="100" height="100" viewBox="0 0 100 100" fill="none" xmlns="http://www.w3.org/2000/svg">
<path d="M5.3731 53.1344H8.80593C8.80593 53.2836 8.80593 63.5821 8.80593 63.1344C8.80593 65.6717 10.7462 67.612 13.2835 67.612H15.8209C16.5671 73.1344 21.3432 77.4627 27.0149 77.4627C32.6865 77.4627 37.4627 73.1344 38.2089 67.612H68.3582C69.1044 73.1344 73.8806 77.4627 79.5522 77.4627C85.2238 77.4627 90 73.1344 90.7462 67.612H93.1343C95.6716 67.612 97.6119 65.6717 97.6119 63.1344V49.5523C97.6119 47.015 95.6716 45.0747 93.1343 45.0747H73.4328C73.2835 45.0747 73.1343 45.0747 73.1343 44.9254L65.6716 30.7463C64.9253 29.2538 63.4328 28.3582 61.6418 28.3582H58.5074V25.5224H60.597C61.4925 25.5224 62.0895 24.9254 62.0895 24.0299C62.0895 23.1344 61.4925 22.5374 60.597 22.5374H11.9403C11.0447 22.5374 10.4477 23.1344 10.4477 24.0299C10.4477 24.9254 11.0447 25.5224 11.9403 25.5224H14.0298V28.3582H13.1343C10.597 28.3582 8.65668 30.2985 8.65668 32.8359V37.4627H5.3731C3.73131 37.4627 2.23877 38.806 2.23877 40.5971V50.1493C2.23877 51.7911 3.58205 53.1344 5.3731 53.1344ZM11.6418 63.1344V62.0896H16.1194C15.8209 62.6866 15.6716 63.5821 15.5224 64.3284C15.5224 64.4776 15.5224 64.4776 15.5224 64.6269H13.1343C12.388 64.6269 11.6418 64.0299 11.6418 63.1344ZM26.8656 74.4777C22.2388 74.4777 18.5074 70.7463 18.5074 66.1194C18.5074 61.7911 21.9403 58.0597 26.2686 57.7612C31.194 57.4627 35.2238 61.1941 35.2238 66.1194C35.3731 70.7463 31.4925 74.4777 26.8656 74.4777ZM68.3582 64.6269H38.2089C38.0597 63.8806 37.7612 62.5373 37.6119 62.0896H68.9552C68.6567 62.8359 68.5074 63.7314 68.3582 64.6269ZM79.5522 74.4777C74.9253 74.4777 71.194 70.7463 71.194 66.1194C71.194 61.4926 75.0746 57.7612 79.5522 57.7612C83.8806 57.7612 87.3134 60.8956 87.9104 65.0747C88.5074 70.1493 84.6268 74.4777 79.5522 74.4777ZM90.8955 64.6269C90.7462 63.8806 90.4477 62.5373 90.2985 62.0896H94.7761V63.1344C94.7761 64.0299 94.1791 64.6269 93.2835 64.6269H90.8955ZM94.7761 55.9702H92.5373C92.0895 55.9702 91.791 55.6717 91.791 55.2239V52.0896C91.791 51.6418 92.0895 51.3433 92.5373 51.3433H94.7761V55.9702ZM55.6716 28.3582H48.2089V25.5224H55.6716V28.3582ZM37.7612 28.3582V25.5224H45.2238V28.3582H37.7612ZM27.4627 28.3582V25.5224H34.9253V28.3582H27.4627ZM17.0149 25.5224H24.4776V28.3582H17.0149V25.5224V25.5224ZM13.1343 31.3433C23.2835 31.3433 47.6119 31.3433 57.0149 31.3433H61.6418C62.2388 31.3433 62.6865 31.6418 62.985 32.0896L70.2985 46.2687C70.8955 47.3135 71.9403 48.0597 73.2835 48.0597H93.1343C94.0298 48.0597 94.6268 48.6568 94.6268 49.5523V49.8508H92.5373C91.3433 49.8508 90.2985 50.8956 90.2985 52.0896V55.2239C90.2985 56.4179 91.3433 57.4627 92.5373 57.4627H94.7761V59.1045H88.6567C86.4179 56.2687 82.985 54.6269 79.7015 54.6269C76.4179 54.6269 72.985 56.1194 70.7462 59.1045H35.9701C33.4328 55.8209 29.5522 54.3284 25.6716 54.7762C22.8358 55.0747 19.8507 56.5672 17.9104 59.1045H11.6418V32.8359C11.6418 31.9403 12.388 31.3433 13.1343 31.3433ZM5.3731 40.4478H8.80593V50.1493H5.3731V40.4478Z" fill="#005CCE"/>
<path d="M50.2987 47.3134H66.1196C66.4182 47.3134 66.5674 47.1641 66.7167 47.0149C66.8659 46.7164 66.8659 46.5671 66.7167 46.2686L60.2988 34.0298C60.1495 33.7313 59.851 33.582 59.7017 33.582H50.1495C49.7017 33.582 49.4032 33.8805 49.4032 34.3283V46.5671C49.5525 46.8656 49.851 47.3134 50.2987 47.3134ZM51.045 35.0746H59.254L64.9256 45.8208H51.045V35.0746ZM26.8659 61.0447C24.1793 61.0447 21.9405 63.2835 21.9405 65.9701C21.9405 68.6567 24.1793 70.8955 26.8659 70.8955C29.5525 70.8955 31.7913 68.6567 31.7913 65.9701C31.7913 63.2835 29.7017 61.0447 26.8659 61.0447ZM26.8659 69.5522C24.9256 69.5522 23.4331 67.9104 23.4331 66.1193C23.4331 64.179 25.0749 62.6865 26.8659 62.6865C28.8062 62.6865 30.2987 64.3283 30.2987 66.1193C30.448 68.0596 28.8062 69.5522 26.8659 69.5522ZM79.5525 61.0447C76.8659 61.0447 74.6271 63.2835 74.6271 65.9701C74.6271 68.6567 76.8659 70.8955 79.5525 70.8955C82.239 70.8955 84.4779 68.6567 84.4779 65.9701C84.4779 63.2835 82.3883 61.0447 79.5525 61.0447ZM79.5525 69.5522C77.6122 69.5522 76.1196 67.9104 76.1196 66.1193C76.1196 64.179 77.7614 62.6865 79.5525 62.6865C81.3435 62.6865 82.9853 64.3283 82.9853 66.1193C83.1346 68.0596 81.4928 69.5522 79.5525 69.5522ZM15.9704 47.3134H44.7764C45.2241 47.3134 45.5226 47.0149 45.5226 46.5671V34.3283C45.5226 33.8805 45.2241 33.582 44.7764 33.582H15.9704C15.5226 33.582 15.2241 33.8805 15.2241 34.3283V46.5671C15.2241 46.8656 15.5226 47.3134 15.9704 47.3134ZM44.0301 45.8208H31.1943V35.0746H44.0301V45.8208ZM16.7167 35.0746H29.5525V45.8208H16.7167V35.0746V35.0746ZM54.3286 49.5522H50.448C50.0002 49.5522 49.7017 49.8507 49.7017 50.2985C49.7017 50.7462 50.0002 51.0447 50.448 51.0447H54.3286C54.7764 51.0447 55.0749 50.7462 55.0749 50.2985C55.0749 49.8507 54.7764 49.5522 54.3286 49.5522Z" fill="#005CCE"/>
</svg>
