<svg width="100" height="100" viewBox="0 0 100 100" fill="none" xmlns="http://www.w3.org/2000/svg">
<path d="M38.5109 79.6875H50.1406C50.5079 81.8711 51.637 83.8539 53.3276 85.2839C55.0181 86.7139 57.1607 87.4985 59.375 87.4985C61.5892 87.4985 63.7319 86.7139 65.4224 85.2839C67.113 83.8539 68.2421 81.8711 68.6094 79.6875H72.0156C72.3829 81.8711 73.512 83.8539 75.2026 85.2839C76.8931 86.7139 79.0357 87.4985 81.25 87.4985C83.4642 87.4985 85.6068 86.7139 87.2974 85.2839C88.988 83.8539 90.1171 81.8711 90.4844 79.6875H95.3125C95.5601 79.6876 95.8041 79.6288 96.0245 79.516C96.2449 79.4032 96.4354 79.2397 96.5802 79.0389C96.725 78.8381 96.82 78.6057 96.8574 78.361C96.8948 78.1163 96.8735 77.8661 96.7953 77.6312L92.1078 63.5687C92.0041 63.2575 91.8051 62.9868 91.539 62.7949C91.2728 62.6031 90.9531 62.4999 90.625 62.5H87.5V56.6891L91.8078 57.7656C92.0382 57.8233 92.2787 57.8278 92.5111 57.7786C92.7434 57.7294 92.9615 57.6279 93.1488 57.4818C93.336 57.3356 93.4875 57.1488 93.5917 56.9353C93.6958 56.7219 93.75 56.4875 93.75 56.25V45.3125C93.75 45.075 93.6958 44.8406 93.5917 44.6272C93.4875 44.4137 93.336 44.2268 93.1488 44.0807C92.9615 43.9346 92.7434 43.8331 92.5111 43.7839C92.2787 43.7347 92.0382 43.7392 91.8078 43.7969L87.5 44.8734V43.75C87.5186 42.9242 87.3696 42.1031 87.0621 41.3364C86.7546 40.5697 86.2949 39.8733 85.7108 39.2892C85.1267 38.7051 84.4302 38.2454 83.6636 37.9379C82.8969 37.6304 82.0758 37.4814 81.25 37.5H71.875V26.5625H73.4375C73.8519 26.5625 74.2493 26.3979 74.5424 26.1049C74.8354 25.8118 75 25.4144 75 25V18.75C75 18.3356 74.8354 17.9382 74.5424 17.6451C74.2493 17.3521 73.8519 17.1875 73.4375 17.1875H59.375C58.9606 17.1875 58.5632 17.3521 58.2701 17.6451C57.9771 17.9382 57.8125 18.3356 57.8125 18.75V25C57.8125 25.4144 57.9771 25.8118 58.2701 26.1049C58.5632 26.3979 58.9606 26.5625 59.375 26.5625H60.9375V37.5H43.75V18.75H45.3125C45.7269 18.75 46.1243 18.5854 46.4174 18.2924C46.7104 17.9993 46.875 17.6019 46.875 17.1875V10.9375C46.875 10.5231 46.7104 10.1257 46.4174 9.83265C46.1243 9.53962 45.7269 9.375 45.3125 9.375H4.6875C4.2731 9.375 3.87567 9.53962 3.58265 9.83265C3.28962 10.1257 3.125 10.5231 3.125 10.9375V17.1875C3.125 17.6019 3.28962 17.9993 3.58265 18.2924C3.87567 18.5854 4.2731 18.75 4.6875 18.75H6.25V62.5H4.6875C4.2731 62.5 3.87567 62.6646 3.58265 62.9576C3.28962 63.2507 3.125 63.6481 3.125 64.0625V78.125C3.125 78.5394 3.28962 78.9368 3.58265 79.2299C3.87567 79.5229 4.2731 79.6875 4.6875 79.6875H11.4891C12.8559 82.0622 14.8245 84.0348 17.1964 85.4063C19.5684 86.7779 22.26 87.5001 25 87.5001C27.74 87.5001 30.4316 86.7779 32.8036 85.4063C35.1755 84.0348 37.1441 82.0622 38.5109 79.6875ZM59.375 84.375C58.1389 84.375 56.9305 84.0084 55.9027 83.3217C54.8749 82.6349 54.0738 81.6588 53.6007 80.5168C53.1277 79.3747 53.0039 78.1181 53.2451 76.9057C53.4862 75.6933 54.0815 74.5797 54.9556 73.7056C55.8297 72.8315 56.9433 72.2362 58.1557 71.9951C59.3681 71.7539 60.6247 71.8777 61.7668 72.3507C62.9088 72.8238 63.8849 73.6249 64.5717 74.6527C65.2584 75.6805 65.625 76.8889 65.625 78.125C65.625 79.7826 64.9665 81.3723 63.7944 82.5444C62.6223 83.7165 61.0326 84.375 59.375 84.375ZM81.25 84.375C80.0139 84.375 78.8055 84.0084 77.7777 83.3217C76.7499 82.6349 75.9488 81.6588 75.4757 80.5168C75.0027 79.3747 74.8789 78.1181 75.1201 76.9057C75.3612 75.6933 75.9565 74.5797 76.8306 73.7056C77.7047 72.8315 78.8183 72.2362 80.0307 71.9951C81.2431 71.7539 82.4997 71.8777 83.6418 72.3507C84.7838 72.8238 85.7599 73.6249 86.4467 74.6527C87.1334 75.6805 87.5 76.8889 87.5 78.125C87.5 79.7826 86.8415 81.3723 85.6694 82.5444C84.4973 83.7165 82.9076 84.375 81.25 84.375ZM93.1453 76.5625H90.4891C90.1218 74.3789 88.9927 72.3961 87.3021 70.9661C85.6115 69.5361 83.4689 68.7515 81.2547 68.7515C79.0404 68.7515 76.8978 69.5361 75.2073 70.9661C73.5167 72.3961 72.3875 74.3789 72.0203 76.5625H68.6094C68.2421 74.3789 67.113 72.3961 65.4224 70.9661C63.7319 69.5361 61.5892 68.7515 59.375 68.7515C57.1607 68.7515 55.0181 69.5361 53.3276 70.9661C51.637 72.3961 50.5079 74.3789 50.1406 76.5625H39.9047C41.039 72.9652 40.828 69.0783 39.3109 65.625H89.4984L93.1453 76.5625ZM90.625 47.3141V54.2484L87.5 53.4672V48.0953L90.625 47.3141ZM60.9375 20.3125H71.875V23.4375H60.9375V20.3125ZM64.0625 26.5625H68.75V37.5H64.0625V26.5625ZM62.5 40.625H81.25C81.6643 40.6106 82.077 40.6816 82.4627 40.8335C82.8484 40.9855 83.1986 41.2152 83.4917 41.5083C83.7848 41.8014 84.0145 42.1516 84.1665 42.5373C84.3184 42.9229 84.3894 43.3357 84.375 43.75V62.5H43.75V40.625H62.5ZM6.25 12.5H43.75V15.625H6.25V12.5ZM9.375 18.75H40.625V62.5H37.4703C36.0211 60.56 34.1393 58.9849 31.9744 57.8999C29.8096 56.8149 27.4215 56.25 25 56.25C22.5785 56.25 20.1904 56.8149 18.0255 57.8999C15.8607 58.9849 13.9789 60.56 12.5297 62.5H9.375V18.75ZM6.25 76.5625V65.625H10.6891C9.17196 69.0783 8.96095 72.9652 10.0953 76.5625H6.25ZM25 84.375C22.5277 84.375 20.111 83.6419 18.0554 82.2684C15.9998 80.8948 14.3976 78.9426 13.4515 76.6585C12.5054 74.3745 12.2579 71.8611 12.7402 69.4364C13.2225 67.0116 14.413 64.7843 16.1612 63.0362C17.9093 61.288 20.1366 60.0975 22.5614 59.6152C24.9861 59.1329 27.4995 59.3804 29.7835 60.3265C32.0676 61.2726 34.0198 62.8748 35.3934 64.9304C36.7669 66.986 37.5 69.4027 37.5 71.875C37.4963 75.1891 36.1781 78.3663 33.8347 80.7097C31.4913 83.0531 28.3141 84.3713 25 84.375Z" fill="white"/>
<path d="M95.3125 87.5H4.6875C4.2731 87.5 3.87567 87.6646 3.58265 87.9576C3.28962 88.2507 3.125 88.6481 3.125 89.0625C3.125 89.4769 3.28962 89.8743 3.58265 90.1674C3.87567 90.4604 4.2731 90.625 4.6875 90.625H95.3125C95.7269 90.625 96.1243 90.4604 96.4174 90.1674C96.7104 89.8743 96.875 89.4769 96.875 89.0625C96.875 88.6481 96.7104 88.2507 96.4174 87.9576C96.1243 87.6646 95.7269 87.5 95.3125 87.5ZM14.0625 37.5H35.9375C36.3519 37.5 36.7493 37.3354 37.0424 37.0424C37.3354 36.7493 37.5 36.3519 37.5 35.9375V23.4375C37.5 23.0231 37.3354 22.6257 37.0424 22.3326C36.7493 22.0396 36.3519 21.875 35.9375 21.875H14.0625C13.6481 21.875 13.2507 22.0396 12.9576 22.3326C12.6646 22.6257 12.5 23.0231 12.5 23.4375V35.9375C12.5 36.3519 12.6646 36.7493 12.9576 37.0424C13.2507 37.3354 13.6481 37.5 14.0625 37.5ZM15.625 25H34.375V34.375H15.625V25ZM48.4375 46.875H79.6875C80.1019 46.875 80.4993 46.7104 80.7924 46.4174C81.0854 46.1243 81.25 45.7269 81.25 45.3125C81.25 44.8981 81.0854 44.5007 80.7924 44.2076C80.4993 43.9146 80.1019 43.75 79.6875 43.75H48.4375C48.0231 43.75 47.6257 43.9146 47.3326 44.2076C47.0396 44.5007 46.875 44.8981 46.875 45.3125C46.875 45.7269 47.0396 46.1243 47.3326 46.4174C47.6257 46.7104 48.0231 46.875 48.4375 46.875Z" fill="white"/>
<path d="M59.375 81.25C61.1009 81.25 62.5 79.8509 62.5 78.125C62.5 76.3991 61.1009 75 59.375 75C57.6491 75 56.25 76.3991 56.25 78.125C56.25 79.8509 57.6491 81.25 59.375 81.25Z" fill="white"/>
<path d="M81.25 81.25C82.9759 81.25 84.375 79.8509 84.375 78.125C84.375 76.3991 82.9759 75 81.25 75C79.5241 75 78.125 76.3991 78.125 78.125C78.125 79.8509 79.5241 81.25 81.25 81.25Z" fill="white"/>
<path d="M25 62.5C23.1458 62.5 21.3332 63.0498 19.7915 64.08C18.2498 65.1101 17.0482 66.5743 16.3386 68.2873C15.6291 70.0004 15.4434 71.8854 15.8051 73.704C16.1669 75.5226 17.0598 77.193 18.3709 78.5041C19.682 79.8153 21.3525 80.7081 23.171 81.0699C24.9896 81.4316 26.8746 81.246 28.5877 80.5364C30.3007 79.8268 31.7649 78.6252 32.795 77.0835C33.8252 75.5418 34.375 73.7292 34.375 71.875C34.3725 69.3894 33.384 67.0062 31.6264 65.2486C29.8688 63.491 27.4856 62.5025 25 62.5ZM25 78.125C23.7639 78.125 22.5555 77.7585 21.5277 77.0717C20.4999 76.3849 19.6988 75.4088 19.2258 74.2668C18.7527 73.1247 18.6289 71.8681 18.8701 70.6557C19.1113 69.4433 19.7065 68.3297 20.5806 67.4556C21.4547 66.5815 22.5683 65.9863 23.7807 65.7451C24.9931 65.5039 26.2497 65.6277 27.3918 66.1008C28.5338 66.5738 29.5099 67.3749 30.1967 68.4027C30.8834 69.4305 31.25 70.6389 31.25 71.875C31.25 73.5326 30.5915 75.1223 29.4194 76.2944C28.2473 77.4665 26.6576 78.125 25 78.125Z" fill="white"/>
</svg>
