<svg width="67" height="60" viewBox="0 0 67 60" fill="none" xmlns="http://www.w3.org/2000/svg">
<path d="M53.1686 3.72668H13.8289C13.3579 3.72668 12.9746 4.06911 12.9746 4.49075V52.2811C12.9746 52.7029 13.358 53.0452 13.8289 53.0452H15.0516L15.6479 55.6622C15.7292 56.0176 16.0772 56.2733 16.4835 56.2733H22.5052C22.9115 56.2733 23.2616 56.0177 23.3408 55.6613L23.9351 53.0452H42.6642L43.2606 55.6622C43.3418 56.0176 43.6898 56.2733 44.0961 56.2733H50.1179C50.5242 56.2733 50.8721 56.0177 50.9534 55.6622L51.5497 53.0452H53.1683C53.6393 53.0452 54.0226 52.7027 54.0226 52.2811V4.49075C54.0228 4.06911 53.6394 3.72668 53.1686 3.72668ZM21.8072 54.7451H17.1794L16.7939 53.0452H22.1947L21.8072 54.7451ZM49.4221 54.7451H44.7922L44.4066 53.0452H49.8075L49.4221 54.7451ZM52.3142 51.5169H50.8536H43.3607H23.2387H15.7479H14.6831V43.4868H52.3141V51.5169H52.3142ZM52.3142 41.9585H14.6832V33.9284H52.3142V41.9585ZM52.3142 32.4001H14.6832V24.3709H52.3142V32.4001ZM52.3142 22.8427H14.6832V14.8125H52.3142V22.8427ZM52.3142 13.2841H14.6832V5.25493H52.3142V13.2841Z" fill="white"/>
<path d="M19.7465 8.32544H17.2109V10.5961H19.7465V8.32544Z" fill="white"/>
<path d="M24.5082 8.32544H21.9727V10.5961H24.5082V8.32544Z" fill="white"/>
<path d="M29.2699 8.32544H26.7344V10.5961H29.2699V8.32544Z" fill="white"/>
<path d="M37.0964 8.72197H37.9195C38.3905 8.72197 38.7738 8.37955 38.7738 7.95791C38.7738 7.53627 38.3904 7.19385 37.9195 7.19385H37.0964C36.6255 7.19385 36.2422 7.53627 36.2422 7.95791C36.2422 8.37955 36.6255 8.72197 37.0964 8.72197ZM37.0964 11.7271H37.9195C38.3905 11.7271 38.7738 11.3847 38.7738 10.9631C38.7738 10.5414 38.3904 10.199 37.9195 10.199H37.0964C36.6255 10.199 36.2422 10.5414 36.2422 10.9631C36.2422 11.3847 36.6255 11.7271 37.0964 11.7271ZM41.495 8.72197H42.3181C42.7891 8.72197 43.1724 8.37955 43.1724 7.95791C43.1724 7.53627 42.789 7.19385 42.3181 7.19385H41.495C41.0241 7.19385 40.6408 7.53627 40.6408 7.95791C40.6408 8.37955 41.0242 8.72197 41.495 8.72197ZM41.495 11.7271H42.3181C42.7891 11.7271 43.1724 11.3847 43.1724 10.9631C43.1724 10.5414 42.789 10.199 42.3181 10.199H41.495C41.0241 10.199 40.6408 10.5414 40.6408 10.9631C40.6408 11.3847 41.0242 11.7271 41.495 11.7271ZM45.8937 8.72197H46.7147C47.1857 8.72197 47.569 8.37955 47.569 7.95791C47.569 7.53627 47.1856 7.19385 46.7147 7.19385H45.8937C45.4228 7.19385 45.0395 7.53627 45.0395 7.95791C45.0395 8.37955 45.4228 8.72197 45.8937 8.72197ZM45.8937 11.7271H46.7147C47.1857 11.7271 47.569 11.3847 47.569 10.9631C47.569 10.5414 47.1856 10.199 46.7147 10.199H45.8937C45.4228 10.199 45.0395 10.5414 45.0395 10.9631C45.0395 11.3847 45.4228 11.7271 45.8937 11.7271Z" fill="white"/>
<path d="M19.7465 17.6923H17.2109V19.9629H19.7465V17.6923Z" fill="white"/>
<path d="M24.5082 17.6923H21.9727V19.9629H24.5082V17.6923Z" fill="white"/>
<path d="M29.2699 17.6923H26.7344V19.9629H29.2699V17.6923Z" fill="white"/>
<path d="M37.0964 18.089H37.9195C38.3905 18.089 38.7738 17.7466 38.7738 17.325C38.7738 16.9032 38.3904 16.5609 37.9195 16.5609H37.0964C36.6255 16.5609 36.2422 16.9033 36.2422 17.325C36.2422 17.7466 36.6255 18.089 37.0964 18.089ZM37.0964 21.0942H37.9195C38.3905 21.0942 38.7738 20.7518 38.7738 20.3301C38.7738 19.9084 38.3904 19.5661 37.9195 19.5661H37.0964C36.6255 19.5661 36.2422 19.9085 36.2422 20.3301C36.2422 20.7518 36.6255 21.0942 37.0964 21.0942ZM41.495 18.089H42.3181C42.7891 18.089 43.1724 17.7466 43.1724 17.325C43.1724 16.9032 42.789 16.5609 42.3181 16.5609H41.495C41.0241 16.5609 40.6408 16.9033 40.6408 17.325C40.6408 17.7466 41.0242 18.089 41.495 18.089ZM41.495 21.0942H42.3181C42.7891 21.0942 43.1724 20.7518 43.1724 20.3301C43.1724 19.9084 42.789 19.5661 42.3181 19.5661H41.495C41.0241 19.5661 40.6408 19.9085 40.6408 20.3301C40.6408 20.7518 41.0242 21.0942 41.495 21.0942ZM45.8937 18.089H46.7147C47.1857 18.089 47.569 17.7466 47.569 17.325C47.569 16.9032 47.1856 16.5609 46.7147 16.5609H45.8937C45.4228 16.5609 45.0395 16.9033 45.0395 17.325C45.0393 17.7466 45.4228 18.089 45.8937 18.089ZM45.8937 21.0942H46.7147C47.1857 21.0942 47.569 20.7518 47.569 20.3301C47.569 19.9084 47.1856 19.5661 46.7147 19.5661H45.8937C45.4228 19.5661 45.0395 19.9085 45.0395 20.3301C45.0393 20.7518 45.4228 21.0942 45.8937 21.0942Z" fill="white"/>
<path d="M19.7465 27.0588H17.2109V29.3295H19.7465V27.0588Z" fill="white"/>
<path d="M24.5082 27.0588H21.9727V29.3295H24.5082V27.0588Z" fill="white"/>
<path d="M29.2699 27.0588H26.7344V29.3295H29.2699V27.0588Z" fill="white"/>
<path d="M37.0964 27.4562H37.9195C38.3905 27.4562 38.7738 27.1138 38.7738 26.6922C38.7738 26.2705 38.3904 25.9281 37.9195 25.9281H37.0964C36.6255 25.9281 36.2422 26.2705 36.2422 26.6922C36.2422 27.1138 36.6255 27.4562 37.0964 27.4562ZM37.0964 30.4614H37.9195C38.3905 30.4614 38.7738 30.1189 38.7738 29.6973C38.7738 29.2756 38.3904 28.9332 37.9195 28.9332H37.0964C36.6255 28.9332 36.2422 29.2757 36.2422 29.6973C36.2422 30.1189 36.6255 30.4614 37.0964 30.4614ZM41.495 27.4562H42.3181C42.7891 27.4562 43.1724 27.1138 43.1724 26.6922C43.1724 26.2705 42.789 25.9281 42.3181 25.9281H41.495C41.0241 25.9281 40.6408 26.2705 40.6408 26.6922C40.6408 27.1138 41.0242 27.4562 41.495 27.4562ZM41.495 30.4614H42.3181C42.7891 30.4614 43.1724 30.1189 43.1724 29.6973C43.1724 29.2756 42.789 28.9332 42.3181 28.9332H41.495C41.0241 28.9332 40.6408 29.2757 40.6408 29.6973C40.6408 30.1189 41.0242 30.4614 41.495 30.4614ZM45.8937 27.4562H46.7147C47.1857 27.4562 47.569 27.1138 47.569 26.6922C47.569 26.2705 47.1856 25.9281 46.7147 25.9281H45.8937C45.4228 25.9281 45.0395 26.2705 45.0395 26.6922C45.0395 27.1138 45.4228 27.4562 45.8937 27.4562ZM45.8937 30.4614H46.7147C47.1857 30.4614 47.569 30.1189 47.569 29.6973C47.569 29.2756 47.1856 28.9332 46.7147 28.9332H45.8937C45.4228 28.9332 45.0395 29.2757 45.0395 29.6973C45.0393 30.1189 45.4228 30.4614 45.8937 30.4614Z" fill="white"/>
<path d="M19.7465 36.426H17.2109V38.6967H19.7465V36.426Z" fill="white"/>
<path d="M24.5082 36.426H21.9727V38.6967H24.5082V36.426Z" fill="white"/>
<path d="M29.2699 36.426H26.7344V38.6967H29.2699V36.426Z" fill="white"/>
<path d="M37.0964 36.8224H37.9195C38.3905 36.8224 38.7738 36.48 38.7738 36.0584C38.7738 35.6366 38.3904 35.2943 37.9195 35.2943H37.0964C36.6255 35.2943 36.2422 35.6367 36.2422 36.0584C36.2422 36.48 36.6255 36.8224 37.0964 36.8224ZM37.0964 39.8276H37.9195C38.3905 39.8276 38.7738 39.4852 38.7738 39.0635C38.7738 38.6418 38.3904 38.2995 37.9195 38.2995H37.0964C36.6255 38.2995 36.2422 38.6419 36.2422 39.0635C36.2422 39.4852 36.6255 39.8276 37.0964 39.8276ZM41.495 36.8224H42.3181C42.7891 36.8224 43.1724 36.48 43.1724 36.0584C43.1724 35.6366 42.789 35.2943 42.3181 35.2943H41.495C41.0241 35.2943 40.6408 35.6367 40.6408 36.0584C40.6408 36.48 41.0242 36.8224 41.495 36.8224ZM41.495 39.8276H42.3181C42.7891 39.8276 43.1724 39.4852 43.1724 39.0635C43.1724 38.6418 42.789 38.2995 42.3181 38.2995H41.495C41.0241 38.2995 40.6408 38.6419 40.6408 39.0635C40.6408 39.4852 41.0242 39.8276 41.495 39.8276ZM45.8937 36.8224H46.7147C47.1857 36.8224 47.569 36.48 47.569 36.0584C47.569 35.6366 47.1856 35.2943 46.7147 35.2943H45.8937C45.4228 35.2943 45.0395 35.6367 45.0395 36.0584C45.0393 36.48 45.4228 36.8224 45.8937 36.8224ZM45.8937 39.8276H46.7147C47.1857 39.8276 47.569 39.4852 47.569 39.0635C47.569 38.6418 47.1856 38.2995 46.7147 38.2995H45.8937C45.4228 38.2995 45.0395 38.6419 45.0395 39.0635C45.0393 39.4852 45.4228 39.8276 45.8937 39.8276Z" fill="white"/>
<path d="M19.7465 45.7927H17.2109V48.0634H19.7465V45.7927Z" fill="white"/>
<path d="M24.5082 45.7927H21.9727V48.0634H24.5082V45.7927Z" fill="white"/>
<path d="M29.2699 45.7927H26.7344V48.0634H29.2699V45.7927Z" fill="white"/>
<path d="M37.0964 46.1895H37.9195C38.3905 46.1895 38.7738 45.8471 38.7738 45.4254C38.7738 45.0038 38.3904 44.6614 37.9195 44.6614H37.0964C36.6255 44.6614 36.2422 45.0038 36.2422 45.4254C36.2422 45.8471 36.6255 46.1895 37.0964 46.1895ZM37.0964 49.1947H37.9195C38.3905 49.1947 38.7738 48.8522 38.7738 48.4306C38.7738 48.0088 38.3904 47.6665 37.9195 47.6665H37.0964C36.6255 47.6665 36.2422 48.009 36.2422 48.4306C36.2422 48.8523 36.6255 49.1947 37.0964 49.1947ZM41.495 46.1895H42.3181C42.7891 46.1895 43.1724 45.8471 43.1724 45.4254C43.1724 45.0038 42.789 44.6614 42.3181 44.6614H41.495C41.0241 44.6614 40.6408 45.0038 40.6408 45.4254C40.6408 45.8471 41.0242 46.1895 41.495 46.1895ZM41.495 49.1947H42.3181C42.7891 49.1947 43.1724 48.8522 43.1724 48.4306C43.1724 48.0088 42.789 47.6665 42.3181 47.6665H41.495C41.0241 47.6665 40.6408 48.009 40.6408 48.4306C40.6408 48.8523 41.0242 49.1947 41.495 49.1947ZM45.8937 46.1895H46.7147C47.1857 46.1895 47.569 45.8471 47.569 45.4254C47.569 45.0038 47.1856 44.6614 46.7147 44.6614H45.8937C45.4228 44.6614 45.0395 45.0038 45.0395 45.4254C45.0395 45.8471 45.4228 46.1895 45.8937 46.1895ZM45.8937 49.1947H46.7147C47.1857 49.1947 47.569 48.8522 47.569 48.4306C47.569 48.0088 47.1856 47.6665 46.7147 47.6665H45.8937C45.4228 47.6665 45.0395 48.009 45.0395 48.4306C45.0393 48.8523 45.4228 49.1947 45.8937 49.1947Z" fill="white"/>
</svg>
