<svg width="60" height="60" viewBox="0 0 60 60" fill="none" xmlns="http://www.w3.org/2000/svg">
<path d="M1.54457 35.8181L4.9082 36.9999C5.18093 37.909 5.54457 38.909 5.99911 39.7272L4.45366 42.909C4.27184 43.2727 4.36275 43.6363 4.63548 43.9999L8.54457 47.909C8.81729 48.1818 9.27184 48.2727 9.63548 48.0908L12.8173 46.5454C13.7264 46.9999 14.6355 47.3636 15.5446 47.6363L16.7264 50.9999C16.8173 51.3636 17.1809 51.6363 17.5446 51.6363H23.09C23.4537 51.6363 23.8173 51.3636 23.9082 50.9999L25.09 47.6363C25.9991 47.3636 26.9082 46.9999 27.8173 46.5454L30.9991 48.0908C31.1809 48.1818 31.4537 48.1818 31.6355 48.0908C31.8173 48.4545 31.9082 48.8181 32.09 49.1818L30.9082 51.6363C30.7264 51.9999 30.8173 52.3636 31.09 52.6363L34.1809 55.7272C34.4537 55.9999 34.9082 56.0908 35.2718 55.909L37.7264 54.7272C38.3628 55.0908 39.09 55.3636 39.7264 55.5454L40.6355 58.0908C40.7264 58.4545 41.09 58.7272 41.4537 58.7272H45.8173C46.1809 58.7272 46.5446 58.4545 46.6355 58.0908L47.5446 55.5454C48.2718 55.3636 48.9082 55.0908 49.5446 54.7272L51.9991 55.909C52.3628 56.0908 52.7264 55.9999 52.9991 55.7272L56.09 52.6363C56.3628 52.3636 56.4537 51.909 56.2718 51.5454L55.09 49.0908C55.4537 48.4545 55.7264 47.7272 55.9082 47.0908L58.4537 46.1818C58.8173 46.0908 59.09 45.7272 59.09 45.3636V40.9999C59.09 40.6363 58.8173 40.2727 58.4537 40.1818L55.9082 39.2727C55.7264 38.5454 55.4537 37.909 55.09 37.2727L56.2718 34.8181C56.4537 34.4545 56.3628 34.0908 56.09 33.7272L52.9991 30.6363C52.7264 30.3636 52.2718 30.2727 51.9991 30.4545L49.5446 31.8181C48.9082 31.4545 48.1809 31.1818 47.5446 30.9999L46.6355 28.4545C46.5446 28.0908 46.1809 27.8181 45.8173 27.8181H41.4537C41.09 27.8181 40.7264 28.0908 40.6355 28.4545L39.7264 30.9999V29.4545C39.7264 29.0908 39.4537 28.7272 39.09 28.6363L35.7264 27.4545C35.4537 26.5454 35.09 25.6363 34.5446 24.7272L36.09 21.5454C36.2718 21.1818 36.1809 20.8181 35.9082 20.4545L31.9991 16.5454C31.7264 16.2727 31.2718 16.1818 30.9082 16.3636L27.7264 17.909C26.8173 17.4545 25.9082 17.0908 24.9991 16.8181L23.8173 13.4545C23.7264 13.0908 23.3627 12.8181 22.9991 12.8181H17.4537C17.09 12.8181 16.7264 13.0908 16.6355 13.4545L15.4537 16.8181C14.5446 17.0908 13.6355 17.4545 12.7264 17.909L9.63548 16.3636C9.27184 16.1818 8.9082 16.2727 8.54457 16.5454L4.63548 20.4545C4.36275 20.7272 4.27184 21.1818 4.45366 21.5454L5.99911 24.7272C5.54457 25.6363 5.18093 26.5454 4.9082 27.4545L1.54457 28.6363C1.18093 28.7272 0.908203 29.0908 0.908203 29.4545V34.9999C0.908203 35.3636 1.18093 35.7272 1.54457 35.8181ZM40.6355 32.5454C40.9082 32.4545 41.1809 32.2727 41.2718 31.9999L42.09 29.6363H45.1809L45.9991 31.9999C46.09 32.2727 46.3628 32.5454 46.6355 32.5454C47.4537 32.8181 48.3628 33.0908 49.09 33.5454C49.3628 33.7272 49.6355 33.7272 49.9082 33.5454L52.1809 32.4545L54.3628 34.6363L53.2718 36.909C53.1809 37.1818 53.1809 37.5454 53.2718 37.7272C53.7264 38.5454 54.09 39.3636 54.2718 40.1818C54.3628 40.4545 54.5446 40.7272 54.8173 40.8181L57.1809 41.6363V44.7272L54.8173 45.5454C54.5446 45.6363 54.2718 45.909 54.2718 46.1818C53.9991 47.0908 53.7264 47.909 53.2718 48.7272C53.09 48.9999 53.09 49.2727 53.2718 49.5454L54.3628 51.8181L52.1809 53.9999L49.9082 52.909C49.6355 52.8181 49.3628 52.8181 49.09 52.909C48.2718 53.3636 47.4537 53.7272 46.6355 53.909C46.3628 53.9999 46.09 54.1818 45.9991 54.4545L45.1809 56.8181H42.09L41.2718 54.5454C41.1809 54.2727 40.9082 53.9999 40.6355 53.9999C39.8173 53.7272 38.9082 53.4545 38.1809 52.9999C37.9082 52.8181 37.6355 52.8181 37.3627 52.9999L35.09 54.0908L32.9082 51.8181L33.9991 49.5454C34.09 49.2727 34.09 48.909 33.9991 48.7272C33.6355 48.1818 33.3628 47.5454 33.1809 46.8181L35.9991 43.9999C36.2718 43.7272 36.3627 43.2727 36.1809 42.909L34.5446 39.7272C34.9991 38.8181 35.3627 37.909 35.7264 36.9999L39.09 35.8181C39.4537 35.7272 39.7264 35.3636 39.7264 34.9999V32.909C39.9991 32.7272 40.3628 32.6363 40.6355 32.5454ZM2.72638 30.0908L5.9082 28.9999C6.18093 28.909 6.45366 28.6363 6.45366 28.3636C6.81729 27.2727 7.27184 26.1818 7.81729 25.1818C7.99911 24.909 7.99911 24.6363 7.81729 24.3636L6.36275 21.2727L9.36275 18.2727L12.3627 19.8181C12.6355 19.909 12.9082 19.909 13.1809 19.8181C14.1809 19.2727 15.2718 18.8181 16.3627 18.4545C16.6355 18.3636 16.9082 18.1818 16.9991 17.909L18.09 14.7272H22.2718L23.3627 17.909C23.4537 18.1818 23.7264 18.4545 23.9991 18.4545C25.09 18.7272 26.1809 19.1818 27.1809 19.8181C27.4537 19.9999 27.7264 19.9999 27.9991 19.8181L30.9991 18.2727L33.9991 21.2727L32.7264 24.3636C32.6355 24.6363 32.6355 24.909 32.7264 25.1818C33.2718 26.1818 33.7264 27.2727 34.09 28.3636C34.1809 28.6363 34.3627 28.909 34.6355 28.9999L37.8173 30.0908V32.2727V34.3636L34.6355 35.4545C34.3627 35.5454 34.09 35.8181 34.09 36.0908C33.8173 37.1818 33.3628 38.2727 32.7264 39.3636C32.5446 39.6363 32.5446 39.909 32.7264 40.1818L34.2718 43.1818L31.2718 46.1818L28.1809 44.6363C27.9082 44.5454 27.6355 44.5454 27.3627 44.6363C26.3627 45.1818 25.2718 45.6363 24.09 45.9999C23.8173 46.0908 23.5446 46.2727 23.4537 46.5454L22.3627 49.7272H18.1809L17.09 46.5454C16.9991 46.2727 16.7264 45.9999 16.4537 45.9999C15.3627 45.7272 14.2718 45.2727 13.2718 44.6363C12.9991 44.4545 12.7264 44.4545 12.4537 44.6363L9.45366 46.1818L6.36275 43.1818L7.9082 40.1818C7.99911 39.909 7.99911 39.6363 7.9082 39.3636C7.36275 38.3636 6.9082 37.2727 6.54457 36.1818C6.45366 35.909 6.27184 35.6363 5.99911 35.5454L2.72638 34.3636V30.0908Z" fill="white"/>
<path d="M20.2731 40.909C25.0004 40.909 28.9094 36.9999 28.9094 32.2727C28.9094 27.5454 25.0004 23.6363 20.2731 23.6363C15.5458 23.6363 11.6367 27.5454 11.6367 32.2727C11.6367 36.9999 15.5458 40.909 20.2731 40.909ZM20.2731 25.3636C24.0004 25.3636 27.0913 28.4545 27.0913 32.1818C27.0913 35.909 24.0004 38.9999 20.2731 38.9999C16.5458 38.9999 13.4549 35.909 13.4549 32.1818C13.4549 28.4545 16.5458 25.3636 20.2731 25.3636ZM36.2731 15.4545L38.0913 16.0909C38.2731 16.5454 38.4549 16.9999 38.6367 17.3636L37.7276 19.0909C37.5458 19.4545 37.6367 19.8181 37.9094 20.1818L40.1822 22.4545C40.4549 22.7272 40.9094 22.8181 41.2731 22.6363L43.0004 21.8181C43.4549 21.9999 43.8185 22.1818 44.2731 22.3636L44.9095 24.1818C45.0004 24.5454 45.364 24.8181 45.7276 24.8181H49.0004C49.364 24.8181 49.7276 24.5454 49.8185 24.1818L50.4549 22.3636C50.9094 22.1818 51.364 21.9999 51.7276 21.8181L53.4549 22.6363C53.8185 22.8181 54.1822 22.7272 54.5458 22.4545L56.8185 20.1818C57.0913 19.909 57.1822 19.4545 57.0004 19.0909L56.1822 17.3636C56.364 16.909 56.5458 16.4545 56.7276 16.0909L58.5458 15.4545C58.9095 15.3636 59.1822 14.9999 59.1822 14.6363V11.3636C59.1822 10.9999 58.9095 10.6363 58.5458 10.5454L56.7276 9.90903C56.5458 9.45449 56.364 8.99994 56.1822 8.63631L57.0004 6.90904C57.1822 6.5454 57.0913 6.18176 56.8185 5.81813L54.5458 3.5454C54.2731 3.27267 53.8185 3.18176 53.5458 3.36358L51.8185 4.18176C51.364 3.99994 50.9094 3.81813 50.5458 3.63631L49.9095 1.81813C49.8185 1.45449 49.4549 1.18176 49.0913 1.18176H45.8185C45.4549 1.18176 45.0913 1.45449 45.0004 1.81813L44.364 3.63631C43.9094 3.81813 43.4549 3.99994 43.0913 4.18176L41.364 3.36358C41.0004 3.18176 40.6367 3.27267 40.364 3.5454L38.0913 5.81813C37.8185 6.09085 37.7276 6.5454 37.9094 6.90904L38.7276 8.63631C38.5458 9.09085 38.364 9.45449 38.1822 9.90903L36.364 10.5454C36.0004 10.6363 35.7276 10.9999 35.7276 11.3636V14.6363C35.6367 14.9999 35.9094 15.3636 36.2731 15.4545ZM37.4549 11.9999L39.0913 11.4545C39.364 11.3636 39.6367 11.0909 39.6367 10.8181C39.8185 10.1818 40.0913 9.63631 40.364 8.99994C40.5458 8.72722 40.5458 8.45449 40.364 8.18176L39.6367 6.63631L41.0004 5.27267L42.5458 5.99994C42.8185 6.09085 43.0913 6.09085 43.364 5.99994C43.9094 5.63631 44.5458 5.45449 45.1822 5.27267C45.4549 5.18176 45.7276 4.99994 45.8185 4.72722L46.364 3.09085H48.2731L48.8185 4.72722C48.9094 4.99994 49.1822 5.27267 49.4549 5.27267C50.0913 5.45449 50.7276 5.72722 51.2731 5.99994C51.5458 6.18176 51.8185 6.18176 52.0913 5.99994L53.6367 5.27267L55.0004 6.63631L54.2731 8.18176C54.1822 8.45449 54.1822 8.81813 54.2731 8.99994C54.6367 9.5454 54.8185 10.1818 55.0004 10.8181C55.0913 11.0909 55.2731 11.3636 55.5458 11.4545L57.1822 11.9999V13.909L55.6367 14.5454C55.364 14.6363 55.0913 14.909 55.0913 15.1818C54.9094 15.8181 54.6367 16.4545 54.364 16.9999C54.1822 17.2727 54.1822 17.5454 54.364 17.8181L55.0913 19.3636L53.7276 20.7272L52.1822 19.9999C51.9095 19.909 51.6367 19.909 51.364 19.9999C50.8185 20.3636 50.1822 20.5454 49.5458 20.7272C49.2731 20.8181 49.0004 20.9999 48.9094 21.2727L48.364 22.909H46.364L45.8185 21.2727C45.7276 20.9999 45.4549 20.7272 45.1822 20.7272C44.5458 20.5454 44.0004 20.2727 43.364 19.9999C43.0913 19.8181 42.8185 19.8181 42.5458 19.9999L41.0004 20.7272L39.6367 19.3636L40.364 17.8181C40.4549 17.5454 40.4549 17.1818 40.364 16.9999C40.0004 16.4545 39.8185 15.8181 39.6367 15.1818C39.5458 14.909 39.364 14.6363 39.0913 14.5454L37.4549 13.9999V11.9999Z" fill="white"/>
<path d="M47.364 18.4545C50.364 18.4545 52.8185 16 52.8185 13C52.8185 9.99996 50.364 7.54541 47.364 7.54541C44.364 7.54541 41.9094 9.99996 41.9094 13C41.9094 16 44.364 18.4545 47.364 18.4545ZM47.364 9.36359C49.364 9.36359 51.0004 11 51.0004 13C51.0004 15 49.364 16.6363 47.364 16.6363C45.364 16.6363 43.7276 15 43.7276 13C43.7276 11 45.364 9.36359 47.364 9.36359ZM36.6367 43.2727C36.6367 47.0909 39.8185 50.2727 43.6367 50.2727C47.4549 50.2727 50.6367 47.0909 50.6367 43.2727C50.6367 39.4545 47.4549 36.2727 43.6367 36.2727C39.8185 36.2727 36.6367 39.3636 36.6367 43.2727ZM43.6367 38.0909C46.4549 38.0909 48.8185 40.4545 48.8185 43.2727C48.8185 46.0909 46.4549 48.4545 43.6367 48.4545C40.8185 48.4545 38.4549 46.0909 38.4549 43.2727C38.4549 40.4545 40.7276 38.0909 43.6367 38.0909Z" fill="white"/>
</svg>
