<svg width="66" height="60" viewBox="0 0 66 60" fill="none" xmlns="http://www.w3.org/2000/svg">
<path d="M16.7004 10.5455C16.7004 10.9091 16.8004 11.3636 16.9004 11.7273C13.1004 13.2727 10.3004 15.4546 10.3004 18.5455C10.3004 18.9091 10.4004 19.3636 10.5004 19.7273C6.40039 21.4546 3.90039 23.9091 3.90039 26.5455C3.90039 28.2727 5.00039 30 7.00039 31.4545V58.1818C7.00039 58.7273 7.40039 59.0909 8.00039 59.0909H45.4004C46.0004 59.0909 46.4004 58.7273 46.4004 58.1818V51.0909H51.9004C52.5004 51.0909 52.9004 50.7273 52.9004 50.1818V43.0909H58.4004C59.0004 43.0909 59.4004 42.7273 59.4004 42.1818V15.4546C61.4004 14 62.5004 12.2727 62.5004 10.5455C62.2004 -2.27272 16.7004 -2.27272 16.7004 10.5455ZM44.6004 30.3636C44.3004 30.5455 44.2004 30.8182 44.2004 31.0909V57.2727H8.90039V31.0909C8.90039 30.8182 8.70039 30.5455 8.50039 30.3636C7.30039 29.5455 5.80039 28.2727 5.80039 26.6364C5.80039 16.3636 47.3004 16.3636 47.3004 26.6364C47.3004 28.1818 45.8004 29.5455 44.6004 30.3636ZM51.1004 22.2727C50.8004 22.4546 50.7004 22.7273 50.7004 23V49.1818H46.2004V31.5455C48.2004 30.0909 49.3004 28.3636 49.3004 26.6364C49.3004 18 26.4004 14.3636 12.3004 19.0909C12.3004 18.9091 12.2004 18.8182 12.2004 18.6364C12.2004 8.63637 53.7004 8.18182 53.7004 18.6364C53.7004 20.1818 52.3004 21.4546 51.1004 22.2727ZM57.5004 14.2727C57.2004 14.4546 57.1004 14.7273 57.1004 15V41.1818H52.6004V23.4546C54.6004 22 55.7004 20.2727 55.7004 18.5455C55.7004 10.7273 34.8004 5.9091 18.7004 11C18.7004 10.8182 18.6004 10.6364 18.6004 10.4546C18.6004 0.181824 60.1004 0.181824 60.1004 10.4546C60.2004 12.0909 58.8004 13.4546 57.5004 14.2727Z" fill="white"/>
<path d="M18.3995 28.8182L17.9995 27.5455C17.8995 27.0909 17.2995 26.7273 16.7995 26.9091C16.2995 27 15.8995 27.5455 16.0995 28L16.4995 29.2727C16.5995 29.7273 17.1995 30.0909 17.6995 29.9091C18.1995 29.8182 18.4995 29.2727 18.3995 28.8182ZM38.0995 33.6364L38.2995 32.3637C38.3995 31.9091 37.9995 31.4546 37.3995 31.3637C36.8995 31.2727 36.3995 31.6364 36.2995 32.1818L36.0995 33.4546C35.9995 33.9091 36.3995 34.3637 36.9995 34.4546C37.5995 34.5455 38.0995 34.1818 38.0995 33.6364ZM30.2995 28.0909C30.7995 28 31.1995 27.5455 31.0995 27L30.8995 25.7273C30.7995 25.2727 30.2995 24.9091 29.6995 25C29.1995 25.0909 28.7995 25.5455 28.8995 26.0909L29.0995 27.3637C29.2995 27.8182 29.7995 28.1818 30.2995 28.0909ZM20.3995 38.1818L18.9995 38.6364C18.4995 38.8182 18.1995 39.3637 18.3995 39.8182C18.5995 40.2727 19.1995 40.5455 19.6995 40.3637L21.0995 39.9091C21.5995 39.7273 21.8995 39.1818 21.6995 38.7273C21.4995 38.2727 20.9995 38 20.3995 38.1818ZM30.7995 40.2727C30.5995 39.8182 29.9995 39.6364 29.4995 39.8182L28.1995 40.3637C27.6995 40.5455 27.4995 41.0909 27.6995 41.5455C27.8995 42 28.4995 42.1818 28.9995 42L30.2995 41.4546C30.7995 41.2727 31.0995 40.7273 30.7995 40.2727ZM38.7995 47.9091L37.7995 48.8182C37.3995 49.1818 37.3995 49.7273 37.7995 50.0909C38.1995 50.4546 38.7995 50.4546 39.1995 50.0909L40.1995 49.1818C40.5995 48.8182 40.5995 48.2727 40.1995 47.9091C39.7995 47.5455 39.0995 47.5455 38.7995 47.9091ZM31.2995 49.5455L30.2995 50.4546C29.8995 50.8182 29.8995 51.3637 30.2995 51.7273C30.6995 52.0909 31.2995 52.0909 31.6995 51.7273L32.6995 50.8182C33.0995 50.4546 33.0995 49.9091 32.6995 49.5455C32.2995 49.1818 31.6995 49.1818 31.2995 49.5455ZM19.6995 50.3637L18.3995 51C17.8995 51.2727 17.6995 51.8182 17.9995 52.2727C18.2995 52.7273 18.8995 52.9091 19.3995 52.6364L20.6995 52C21.1995 51.7273 21.3995 51.1818 21.0995 50.7273C20.7995 50.2727 20.1995 50.0909 19.6995 50.3637Z" fill="white"/>
</svg>
