<svg width="60" height="60" viewBox="0 0 60 60" fill="none" xmlns="http://www.w3.org/2000/svg">
<g clip-path="url(#clip0_1_4001)">
<path d="M38.2133 23.2969H25.3789C25.3178 23.2982 25.2571 23.2872 25.2002 23.2647C25.1434 23.2422 25.0917 23.2085 25.048 23.1657C25.0043 23.123 24.9697 23.0719 24.946 23.0155C24.9223 22.9592 24.9101 22.8987 24.9102 22.8375V20.8782C24.9101 20.817 24.9223 20.7565 24.946 20.7002C24.9697 20.6438 25.0043 20.5928 25.048 20.55C25.0917 20.5072 25.1434 20.4736 25.2002 20.451C25.2571 20.4285 25.3178 20.4175 25.3789 20.4188H38.2133C38.3351 20.4188 38.452 20.4672 38.5381 20.5533C38.6243 20.6395 38.6727 20.7563 38.6727 20.8782V22.8375C38.6727 22.9594 38.6243 23.0762 38.5381 23.1624C38.452 23.2485 38.3351 23.2969 38.2133 23.2969ZM25.8383 22.3594H37.7539V21.3375H25.8383V22.3594ZM40.6133 39.75H22.9789C22.9178 39.7513 22.8571 39.7403 22.8002 39.7178C22.7434 39.6953 22.6917 39.6616 22.648 39.6189C22.6043 39.5761 22.5697 39.525 22.546 39.4687C22.5223 39.4123 22.5101 39.3518 22.5102 39.2907V37.3313C22.5101 37.2702 22.5223 37.2097 22.546 37.1533C22.5697 37.097 22.6043 37.0459 22.648 37.0031C22.6917 36.9603 22.7434 36.9267 22.8002 36.9042C22.8571 36.8816 22.9178 36.8707 22.9789 36.8719H40.6133C40.7351 36.8719 40.852 36.9203 40.9381 37.0065C41.0243 37.0926 41.0727 37.2095 41.0727 37.3313V39.2907C41.0727 39.4125 41.0243 39.5293 40.9381 39.6155C40.852 39.7016 40.7351 39.75 40.6133 39.75ZM23.4383 38.8313H40.1539V37.7907H23.4383V38.8313ZM58.7633 60H1.23828C1.17717 60.0013 1.11643 59.9903 1.05961 59.9678C1.00279 59.9453 0.951031 59.9116 0.907377 59.8689C0.863722 59.8261 0.829044 59.775 0.805374 59.7187C0.781704 59.6623 0.769519 59.6018 0.769531 59.5407V56.4657C0.769519 56.4045 0.781704 56.344 0.805374 56.2877C0.829044 56.2313 0.863722 56.1803 0.907377 56.1375C0.951031 56.0947 1.00279 56.0611 1.05961 56.0385C1.11643 56.016 1.17717 56.005 1.23828 56.0063H58.7633C58.8244 56.005 58.8851 56.016 58.942 56.0385C58.9988 56.0611 59.0505 56.0947 59.0942 56.1375C59.1378 56.1803 59.1725 56.2313 59.1962 56.2877C59.2199 56.344 59.232 56.4045 59.232 56.4657V59.5407C59.232 59.6018 59.2199 59.6623 59.1962 59.7187C59.1725 59.775 59.1378 59.8261 59.0942 59.8689C59.0505 59.9116 58.9988 59.9453 58.942 59.9678C58.8851 59.9903 58.8244 60.0013 58.7633 60ZM1.69766 59.0625H58.3039V56.9063H1.69766V59.0625Z" fill="white"/>
<path d="M39.2351 37.8C39.1485 37.798 39.0641 37.7721 38.9913 37.725L25.3976 29.2875C25.3282 29.2442 25.2716 29.1831 25.2337 29.1106C25.1958 29.0381 25.1779 28.9568 25.182 28.875C25.1831 28.7935 25.2064 28.7137 25.2493 28.6444C25.2922 28.575 25.3532 28.5187 25.4257 28.4813L36.8163 22.4625C36.8805 22.4255 36.9532 22.406 37.0273 22.406C37.1013 22.406 37.1741 22.4255 37.2382 22.4625C37.3038 22.4951 37.3609 22.5426 37.4049 22.6012C37.4488 22.6598 37.4785 22.7279 37.4913 22.8L39.6945 37.3032C39.7055 37.3899 39.692 37.4781 39.6556 37.5576C39.6191 37.6371 39.5612 37.7049 39.4882 37.7532C39.4106 37.7942 39.3223 37.8105 39.2351 37.8ZM26.5601 28.8844L38.6257 36.3844L36.6757 23.5407L26.5601 28.8844ZM42.132 56.925C42.0596 56.9239 41.9887 56.9045 41.9257 56.8688L22.7632 46.875C22.6846 46.8369 22.6188 46.7767 22.5739 46.7017C22.5289 46.6268 22.5068 46.5405 22.5101 46.4531C22.5133 46.3649 22.5415 46.2793 22.5912 46.2063C22.641 46.1334 22.7104 46.0759 22.7913 46.0407L39.3757 38.8594H39.5163H39.6476C39.7131 38.8774 39.7738 38.9094 39.8257 38.9531C39.9094 39.0298 39.9654 39.132 39.9851 39.2438L42.582 56.4094C42.5961 56.4944 42.586 56.5817 42.5528 56.6613C42.5197 56.7409 42.4648 56.8095 42.3945 56.8594C42.3158 56.9077 42.2241 56.9306 42.132 56.925ZM24.0476 46.4719L41.5413 55.6313L39.1695 39.9375L24.0476 46.4719Z" fill="white"/>
<path d="M24.3742 37.8C24.2833 37.7981 24.195 37.7687 24.1211 37.7156C24.0473 37.6686 23.9892 37.6007 23.9542 37.5206C23.9191 37.4404 23.9087 37.3517 23.9242 37.2656L26.1274 22.7625C26.137 22.6905 26.1643 22.622 26.2069 22.5631C26.2494 22.5042 26.3058 22.4568 26.3711 22.425C26.4353 22.3879 26.508 22.3684 26.5821 22.3684C26.6561 22.3684 26.7289 22.3879 26.793 22.425L38.193 28.4437C38.263 28.4852 38.3209 28.5442 38.3611 28.6149C38.4014 28.6856 38.4225 28.7655 38.4225 28.8468C38.4225 28.9282 38.4014 29.0081 38.3611 29.0788C38.3209 29.1495 38.263 29.2085 38.193 29.25L24.5899 37.6875C24.5291 37.7433 24.4548 37.7821 24.3742 37.8ZM26.943 23.5406L24.9555 36.4125L37.0211 28.9125L26.943 23.5406ZM21.4492 56.925C21.3522 56.9245 21.2576 56.8951 21.1774 56.8406C21.107 56.7907 21.0522 56.7221 21.019 56.6425C20.9859 56.5629 20.9758 56.4756 20.9899 56.3906L23.6055 39.2156C23.6157 39.145 23.6422 39.0778 23.6828 39.0192C23.7235 38.9606 23.7773 38.9123 23.8399 38.8781C23.9028 38.8481 23.9717 38.8325 24.0414 38.8325C24.1112 38.8325 24.18 38.8481 24.243 38.8781L40.7993 46.0218C40.8778 46.0593 40.9447 46.1176 40.9926 46.1903C41.0405 46.2629 41.0677 46.3473 41.0711 46.4343C41.0753 46.5206 41.0545 46.6063 41.0113 46.6811C40.9681 46.7559 40.9042 46.8167 40.8274 46.8562L21.6649 56.8687C21.5992 56.906 21.5248 56.9254 21.4492 56.925ZM24.4211 39.9468L22.0399 55.6312L39.543 46.4718L24.4211 39.9468ZM56.043 56.925C55.9212 56.925 55.8043 56.8766 55.7182 56.7904C55.632 56.7043 55.5836 56.5874 55.5836 56.4656V50.0812H50.9899V56.4656C50.9899 56.5899 50.9405 56.7091 50.8526 56.797C50.7647 56.885 50.6454 56.9343 50.5211 56.9343C50.3968 56.9343 50.2776 56.885 50.1897 56.797C50.1018 56.7091 50.0524 56.5899 50.0524 56.4656V49.6218C50.0511 49.5607 50.0621 49.5 50.0846 49.4432C50.1071 49.3863 50.1408 49.3346 50.1836 49.2909C50.2263 49.2473 50.2774 49.2126 50.3338 49.1889C50.3901 49.1653 50.4506 49.1531 50.5117 49.1531H56.0242C56.0854 49.1531 56.1459 49.1653 56.2022 49.1889C56.2586 49.2126 56.3097 49.2473 56.3524 49.2909C56.3952 49.3346 56.4289 49.3863 56.4514 49.4432C56.4739 49.5 56.4849 49.5607 56.4836 49.6218V56.4656C56.4837 56.5842 56.4379 56.6983 56.3558 56.784C56.2736 56.8696 56.1616 56.9201 56.043 56.925ZM11.943 56.925C11.8212 56.925 11.7043 56.8766 11.6182 56.7904C11.532 56.7043 11.4836 56.5874 11.4836 56.4656V47.7H4.39612V56.4656C4.39612 56.5899 4.34674 56.7091 4.25883 56.797C4.17092 56.885 4.05169 56.9343 3.92737 56.9343C3.80305 56.9343 3.68383 56.885 3.59592 56.797C3.50801 56.7091 3.45862 56.5899 3.45862 56.4656V47.2406C3.4586 47.1179 3.5067 47 3.59259 46.9124C3.67848 46.8248 3.79531 46.7743 3.918 46.7718H11.9242C12.0469 46.7743 12.1638 46.8248 12.2497 46.9124C12.3356 47 12.3836 47.1179 12.3836 47.2406V56.4656C12.3837 56.5842 12.3379 56.6983 12.2558 56.784C12.1736 56.8696 12.0616 56.9201 11.943 56.925ZM7.93987 19.0031C7.87391 19.0036 7.80864 18.9895 7.7487 18.962C7.68876 18.9345 7.6356 18.8941 7.593 18.8437C2.9055 13.35 2.99925 7.94059 3.27112 5.86871C3.37515 5.13685 3.74572 4.46916 4.31175 3.99371L8.868 0.112462C8.92405 0.0641879 8.99017 0.0290365 9.06153 0.00957342C9.13289 -0.00988963 9.2077 -0.0131732 9.2805 -3.77363e-05C9.34936 0.0187344 9.41303 0.0529849 9.46665 0.100102C9.52026 0.147218 9.56241 0.205957 9.58987 0.271837L12.1867 6.56246C12.2284 6.66462 12.2284 6.77905 12.1867 6.88121L8.3805 18.6843C8.35542 18.7621 8.31005 18.8318 8.24908 18.8861C8.1881 18.9405 8.11373 18.9776 8.03362 18.9937L7.93987 19.0031ZM8.9805 1.19059L4.91175 4.68746C4.51236 5.02073 4.25436 5.49318 4.18987 6.00934C3.97609 8.08315 4.18219 10.1788 4.79586 12.1712C5.40954 14.1636 6.41822 16.0121 7.76175 17.6062L11.2492 6.78746L8.9805 1.19059Z" fill="white"/>
<path d="M51.6555 21.1875C51.6091 21.1963 51.5614 21.1963 51.5149 21.1875L11.3524 8.06246C11.2411 8.02388 11.1488 7.94397 11.0947 7.83928C11.0406 7.73458 11.0288 7.61311 11.0618 7.49996C11.0797 7.44197 11.1093 7.38821 11.1485 7.34192C11.1878 7.29563 11.2361 7.25777 11.2904 7.23061C11.3447 7.20346 11.4039 7.18758 11.4645 7.18392C11.5251 7.18027 11.5859 7.18891 11.643 7.20934L51.8055 20.3343C51.9197 20.3749 52.0137 20.4581 52.0679 20.5664C52.1221 20.6748 52.1322 20.7999 52.0962 20.9156C52.0566 20.9984 51.994 21.0681 51.9158 21.1163C51.8377 21.1645 51.7473 21.1892 51.6555 21.1875ZM50.8212 23.7468C50.7747 23.7559 50.727 23.7559 50.6805 23.7468L10.518 10.6218C10.46 10.6039 10.4063 10.5744 10.36 10.5351C10.3137 10.4958 10.2758 10.4475 10.2487 10.3932C10.2215 10.3389 10.2056 10.2797 10.202 10.2191C10.1983 10.1585 10.207 10.0978 10.2274 10.0406C10.2455 9.98249 10.275 9.92856 10.3141 9.88194C10.3532 9.83533 10.4012 9.79695 10.4553 9.76904C10.5094 9.74112 10.5685 9.72424 10.6291 9.71935C10.6898 9.71447 10.7508 9.72169 10.8087 9.74059L50.9712 22.8656C51.0955 22.8855 51.2068 22.9539 51.2806 23.0559C51.3545 23.1579 51.3848 23.285 51.3649 23.4093C51.345 23.5337 51.2766 23.645 51.1746 23.7188C51.0726 23.7927 50.9455 23.823 50.8212 23.8031V23.7468Z" fill="white"/>
<path d="M53.2875 25.6782C52.9688 25.6806 52.652 25.6299 52.35 25.5282C51.6008 25.281 50.9786 24.7495 50.6174 24.0482C50.2562 23.3468 50.1849 22.5316 50.4187 21.7782C50.5381 21.3981 50.7318 21.0456 50.9884 20.7409C51.2451 20.4363 51.5597 20.1857 51.914 20.0036C52.2683 19.8214 52.6552 19.7115 53.0523 19.68C53.4495 19.6486 53.8489 19.6963 54.2274 19.8204C54.6059 19.9446 54.956 20.1426 55.2574 20.403C55.5588 20.6635 55.8055 20.9812 55.9832 21.3377C56.1609 21.6942 56.266 22.0825 56.2925 22.48C56.319 22.8774 56.2663 23.2762 56.1375 23.6532C55.8749 24.3789 55.3404 24.9739 54.6469 25.3125C54.231 25.5451 53.7639 25.6707 53.2875 25.6782ZM53.2875 20.5875C52.9618 20.5888 52.6408 20.6659 52.35 20.8125C52.1051 20.9361 51.8876 21.1077 51.7104 21.3171C51.5333 21.5264 51.4001 21.7693 51.3187 22.0313C51.1498 22.556 51.1949 23.1262 51.4442 23.6178C51.6935 24.1094 52.1269 24.4826 52.65 24.6563C53.177 24.8233 53.7482 24.7796 54.2437 24.5344C54.4886 24.4109 54.7061 24.2393 54.8833 24.0299C55.0605 23.8205 55.1937 23.5776 55.275 23.3157C55.3626 23.057 55.3969 22.7833 55.376 22.511C55.355 22.2388 55.2792 21.9735 55.1531 21.7313C54.9026 21.2388 54.4681 20.8649 53.9437 20.6907C53.7295 20.6363 53.5083 20.6142 53.2875 20.625V20.5875ZM7.94063 45.2907C7.82207 45.2858 7.70999 45.2353 7.62785 45.1497C7.54572 45.064 7.4999 44.95 7.5 44.8313V18.5813C7.5 18.457 7.54939 18.3377 7.63729 18.2498C7.7252 18.1619 7.84443 18.1125 7.96875 18.1125C8.09307 18.1125 8.2123 18.1619 8.30021 18.2498C8.38811 18.3377 8.4375 18.457 8.4375 18.5813V44.8313C8.43771 44.8949 8.42471 44.9579 8.39932 45.0162C8.37392 45.0745 8.33669 45.127 8.28998 45.1701C8.24327 45.2133 8.18809 45.2463 8.12796 45.2671C8.06782 45.2878 8.00403 45.2959 7.94063 45.2907Z" fill="white"/>
<path d="M9.25352 47.7C9.13168 47.7 9.01484 47.6516 8.92869 47.5654C8.84254 47.4793 8.79414 47.3624 8.79414 47.2406C8.79414 46.0499 8.28789 45.2906 7.94102 45.2906C7.59414 45.2906 7.08789 46.0499 7.08789 47.2406C7.08789 47.3649 7.0385 47.4841 6.9506 47.572C6.86269 47.6599 6.74346 47.7093 6.61914 47.7093C6.49482 47.7093 6.37559 47.6599 6.28768 47.572C6.19978 47.4841 6.15039 47.3649 6.15039 47.2406C6.15039 45.6 6.90977 44.3718 7.92227 44.3718C8.93477 44.3718 9.69414 45.6 9.69414 47.2406C9.69424 47.3592 9.64842 47.4733 9.56629 47.559C9.48415 47.6446 9.37207 47.6951 9.25352 47.7ZM53.2879 50.0718C53.2276 50.0718 53.1678 50.0599 53.1121 50.0369C53.0564 50.0138 53.0057 49.9799 52.9631 49.9373C52.9204 49.8946 52.8866 49.844 52.8635 49.7882C52.8404 49.7325 52.8285 49.6728 52.8285 49.6124V25.2375C52.8285 25.1131 52.8779 24.9939 52.9658 24.906C53.0537 24.8181 53.1729 24.7687 53.2973 24.7687C53.4216 24.7687 53.5408 24.8181 53.6287 24.906C53.7166 24.9939 53.766 25.1131 53.766 25.2375V49.6124C53.7661 49.6744 53.7536 49.7357 53.7293 49.7927C53.7051 49.8497 53.6696 49.9012 53.6249 49.9441C53.5802 49.987 53.5274 50.0204 53.4694 50.0424C53.4115 50.0643 53.3498 50.0744 53.2879 50.0718ZM35.4004 21.3468C35.3393 21.3468 35.2788 21.3347 35.2224 21.311C35.166 21.2873 35.115 21.2526 35.0722 21.209C35.0294 21.1653 34.9958 21.1136 34.9733 21.0568C34.9507 20.9999 34.9398 20.9392 34.941 20.8781C34.8971 20.0736 34.5465 19.3165 33.9615 18.7625C33.3765 18.2086 32.6014 17.8999 31.7957 17.8999C30.99 17.8999 30.2149 18.2086 29.6299 18.7625C29.0449 19.3165 28.6943 20.0736 28.6504 20.8781C28.6504 21.0024 28.601 21.1216 28.5131 21.2095C28.4252 21.2974 28.306 21.3468 28.1816 21.3468C28.0573 21.3468 27.9381 21.2974 27.8502 21.2095C27.7623 21.1216 27.7129 21.0024 27.7129 20.8781C27.7129 19.799 28.1416 18.7641 28.9046 18.001C29.6676 17.238 30.7025 16.8093 31.7816 16.8093C32.8607 16.8093 33.8956 17.238 34.6587 18.001C35.4217 18.7641 35.8504 19.799 35.8504 20.8781C35.8516 20.9384 35.841 20.9984 35.819 21.0546C35.7971 21.1108 35.7643 21.1621 35.7225 21.2057C35.6807 21.2492 35.6308 21.2841 35.5755 21.3083C35.5202 21.3325 35.4607 21.3456 35.4004 21.3468Z" fill="white"/>
</g>
<defs>
<clipPath id="clip0_1_4001">
<rect width="60" height="60" fill="white"/>
</clipPath>
</defs>
</svg>
