<svg width="63" height="60" viewBox="0 0 63 60" fill="none" xmlns="http://www.w3.org/2000/svg">
<path d="M31.5 33.75C33.6746 33.75 35.4375 32.0711 35.4375 30C35.4375 27.9289 33.6746 26.25 31.5 26.25C29.3254 26.25 27.5625 27.9289 27.5625 30C27.5625 32.0711 29.3254 33.75 31.5 33.75Z" stroke="white" stroke-miterlimit="10"/>
<path d="M31.5 58.75C36.5741 58.75 40.6875 45.8782 40.6875 30C40.6875 14.1218 36.5741 1.25 31.5 1.25C26.4259 1.25 22.3125 14.1218 22.3125 30C22.3125 45.8782 26.4259 58.75 31.5 58.75Z" stroke="white" stroke-miterlimit="10"/>
<path d="M36.75 7.5C37.4749 7.5 38.0625 6.94036 38.0625 6.25C38.0625 5.55964 37.4749 5 36.75 5C36.0251 5 35.4375 5.55964 35.4375 6.25C35.4375 6.94036 36.0251 7.5 36.75 7.5Z" stroke="white" stroke-miterlimit="10"/>
<path d="M36.2216 22.5001C51.1841 30.5001 61.1591 40.2501 58.5341 44.5001C55.9091 48.7501 41.4716 45.5001 26.5091 37.5001C11.5466 29.5001 1.83408 19.7501 4.45908 15.7501C7.08408 11.7501 21.2591 14.5001 36.2216 22.5001Z" stroke="white" stroke-width="1.019" stroke-miterlimit="10"/>
<path d="M26.7727 22.5001C41.7352 14.5001 56.1727 11.5001 58.7977 15.7501C61.4227 20.0001 51.4477 29.7501 36.4852 37.5001C21.5227 45.2501 7.08521 48.5001 4.46021 44.5001C1.83521 40.5001 11.8102 30.2501 26.7727 22.5001Z" stroke="white" stroke-width="1.019" stroke-miterlimit="10"/>
<path d="M7.20502 38.5971C7.83278 38.2519 8.04786 37.4874 7.68543 36.8895C7.32299 36.2917 6.52028 36.0868 5.89252 36.432C5.26476 36.7772 5.04967 37.5417 5.41211 38.1395C5.77455 38.7374 6.57726 38.9423 7.20502 38.5971Z" stroke="white" stroke-miterlimit="10"/>
<path d="M50.9999 46.9236C51.3623 46.3257 51.1472 45.5612 50.5195 45.216C49.8917 44.8709 49.089 45.0757 48.7266 45.6736C48.3641 46.2714 48.5792 47.0359 49.207 47.3811C49.8347 47.7263 50.6374 47.5214 50.9999 46.9236Z" stroke="white" stroke-miterlimit="10"/>
</svg>
