<svg width="66" height="60" viewBox="0 0 66 60" fill="none" xmlns="http://www.w3.org/2000/svg">
<path d="M50.9062 40.8984H39.2918V37.2656H41.3672C41.4703 37.2656 41.5605 37.2656 41.6379 37.2656C41.6637 37.2656 41.6895 37.2656 41.7152 37.2656C42.4371 37.2656 43.1203 37.1484 43.2621 36.0703C43.275 35.9531 43.2879 35.8242 43.3266 35.6484C43.8422 32.9648 44.9766 30.7969 47.1035 28.4062C48.6891 26.625 49.3336 24.9141 49.0371 23.332C48.6762 21.457 47.0648 20.4844 46.8715 20.3789L41.857 17.4844C42.102 16.7344 42.2309 15.9375 42.2309 15.1172V12.4336C42.334 12.3984 42.45 12.3516 42.566 12.3047C44.0484 11.6836 45.0023 10.3594 45.0023 8.91797C45.0023 7.06641 43.5973 5.46094 41.625 5.02734C41.1609 3.24609 39.382 1.95703 37.3453 1.95703C37.1391 1.95703 36.9586 1.96875 36.8168 1.99219C36.0305 0.761719 34.5738 0 33.0012 0C31.4285 0 29.9719 0.761719 29.1855 2.00391C29.0438 1.99219 28.8633 1.96875 28.657 1.96875C26.6203 1.96875 24.8414 3.24609 24.3773 5.03906C22.4051 5.46094 21 7.06641 21 8.92969C21 10.3711 21.9539 11.6953 23.4363 12.3164C23.5523 12.3633 23.6684 12.4102 23.7715 12.4453V15.1289C23.7715 15.9492 23.9004 16.7461 24.1453 17.4961L19.1309 20.3906C18.9375 20.4961 17.3262 21.4688 16.9652 23.3438C16.6559 24.9258 17.3133 26.6367 18.8859 28.418C21.0129 30.8086 22.1344 32.9766 22.6629 35.6602C22.7016 35.8359 22.7145 35.9648 22.7273 36.082C22.8691 37.207 23.6039 37.2891 24.3516 37.2773C24.4289 37.2773 24.5191 37.2773 24.6223 37.2773H26.6977V40.9102H15.0832C13.2914 40.9102 11.8477 42.2344 11.8477 43.8516C11.8477 45.1641 12.8016 46.2891 14.1164 46.6641V58.3242C14.1164 59.25 14.9414 60 15.9598 60H50.0168C51.0352 60 51.8602 59.25 51.8602 58.3242V46.6641C53.175 46.2891 54.1289 45.1758 54.1289 43.8516C54.1418 42.2227 52.6852 40.8984 50.9062 40.8984ZM45.8273 21.8555L45.8402 21.8672C45.8531 21.8672 46.8844 22.4766 47.1164 23.6367C47.3227 24.6914 46.807 25.9336 45.5824 27.3047C44.7832 28.207 44.1129 29.0859 43.5457 29.9648L39.859 20.6953C40.323 20.2148 40.7355 19.6992 41.0836 19.1367L45.8273 21.8555ZM33.0012 21.7266C28.9793 21.7266 25.718 18.7617 25.718 15.1172V12.3398C25.7695 12.3164 25.834 12.293 25.8984 12.2695C26.9297 11.8828 27.5098 11.8125 28.2059 12.3516C28.5152 12.5977 28.8633 12.7266 29.2113 12.7266C29.5465 12.7266 29.8816 12.6211 30.2039 12.3984C30.7582 12.0117 31.4801 12.0117 32.0344 12.3984C32.3566 12.6211 32.6789 12.7266 33.0141 12.7266C33.3492 12.7266 33.6844 12.6094 34.0066 12.3984C34.5609 12.0117 35.2828 12.0117 35.8242 12.3984C36.4688 12.8555 37.2164 12.8438 37.8223 12.3633C38.5055 11.8125 39.0855 11.8945 40.1297 12.2695C40.1941 12.293 40.2457 12.3164 40.3102 12.3398V15.1172C40.2973 18.7617 37.023 21.7266 33.0012 21.7266ZM22.9336 8.91797C22.9336 7.85156 23.7715 6.92578 24.9316 6.72656C25.0348 6.70312 25.0992 6.70312 25.1637 6.69141C25.9371 6.60938 26.1562 6.12891 26.1949 5.74219C26.1949 5.68359 26.2078 5.625 26.2336 5.51953C26.4656 4.48828 27.484 3.72656 28.6441 3.72656C28.9277 3.72656 29.0438 3.76172 29.1469 3.78516C30.1266 4.05469 30.5004 3.44531 30.7711 2.98828L30.8227 2.89453C31.2609 2.17969 32.0859 1.74609 32.9754 1.74609C33.8777 1.74609 34.7027 2.19141 35.141 2.89453L35.1926 2.98828C35.4633 3.43359 35.8371 4.05469 36.8168 3.78516C36.9199 3.75 37.0488 3.72656 37.3195 3.72656C38.4926 3.72656 39.498 4.47656 39.7301 5.51953C39.7559 5.625 39.7559 5.68359 39.7688 5.74219C39.8074 6.12891 40.0266 6.60938 40.8 6.69141C40.8645 6.70312 40.9289 6.70312 41.032 6.72656C42.1922 6.92578 43.0301 7.85156 43.0301 8.91797C43.0301 9.67969 42.5273 10.3711 41.7281 10.6992C41.3801 10.8398 41.3801 10.8398 40.8129 10.6289C40.0137 10.3242 38.3766 9.71484 36.7395 10.8516C35.5793 10.1602 34.1227 10.1719 32.9625 10.8633C32.3824 10.5117 31.725 10.3359 31.0676 10.3359C30.423 10.3359 29.7656 10.5117 29.1984 10.8516C27.5742 9.72656 25.9371 10.3359 25.125 10.6289C24.5578 10.8398 24.5578 10.8398 24.2098 10.6992C23.4363 10.3711 22.9336 9.69141 22.9336 8.91797ZM20.407 27.293C19.1953 25.9336 18.6797 24.7031 18.873 23.6484C19.0922 22.4766 20.1105 21.8789 20.1492 21.8672L20.1621 21.8555L24.893 19.125C26.4656 21.7148 29.4949 23.4844 32.9883 23.4844C33.5297 23.4844 34.0582 23.4375 34.5738 23.3555C34.5609 24.3867 34.1613 25.3359 32.9238 26.4258C31.2867 27.8555 28.2188 29.4727 23.2816 31.4648C22.5984 30.0586 21.6703 28.7109 20.407 27.293ZM24.648 35.5078C24.6352 35.5078 24.6352 35.5078 24.6223 35.5078C24.6094 35.4492 24.6094 35.4023 24.5965 35.332C24.4418 34.5469 24.2484 33.8086 24.0035 33.1055C29.2758 30.9844 32.4598 29.2969 34.3031 27.6914C35.9531 26.2383 36.6363 24.7617 36.5203 22.8516C37.1648 22.6055 37.7707 22.3008 38.3379 21.9375L42.3984 32.1562C41.973 33.1641 41.6508 34.207 41.4316 35.332C41.4188 35.3906 41.4059 35.4492 41.4059 35.5078C41.393 35.5078 41.393 35.5078 41.3801 35.5078H24.648ZM37.3582 37.2656V40.8984H28.6441V37.2656H37.3582ZM49.9395 58.2422H16.0629V46.793H35.1926H38.9051H49.9395V58.2422ZM50.9062 45.0352H38.9051H35.1926H15.0961C14.3742 45.0352 13.7941 44.5078 13.7941 43.8516C13.7941 43.1953 14.3742 42.668 15.0961 42.668H50.8934C51.6152 42.668 52.1953 43.1953 52.1953 43.8516C52.2082 44.4961 51.6281 45.0352 50.9062 45.0352Z" fill="white"/>
<path d="M18.7188 50.6368V54.3985C18.7188 55.1954 19.4277 55.8399 20.3043 55.8399H35.193H39.3953H45.7117C46.5883 55.8399 47.2973 55.1954 47.2973 54.3985V50.6368C47.2973 49.8399 46.5883 49.1954 45.7117 49.1954H20.3172C19.4277 49.1954 18.7188 49.8399 18.7188 50.6368ZM20.6523 50.9532H45.3508V54.0704H39.3953H35.193H20.6523V50.9532Z" fill="white"/>
</svg>
