<svg width="64" height="60" viewBox="0 0 64 60" fill="none" xmlns="http://www.w3.org/2000/svg">
<path d="M57 22.0312V11.7187C57.0019 11.1865 56.8428 10.6647 56.5409 10.2139C56.2391 9.7631 55.8071 9.40185 55.295 9.17212C54.7829 8.94238 54.2118 8.85358 53.648 8.91604C53.0842 8.9785 52.5509 9.18964 52.11 9.52495C45.5785 14.5998 37.4722 17.5594 29 17.9624V17.8124C29 17.5638 28.8946 17.3253 28.7071 17.1495C28.5196 16.9737 28.2652 16.8749 28 16.8749H11C10.2044 16.8749 9.44129 17.1713 8.87868 17.6987C8.31607 18.2262 8 18.9415 8 19.6874V20.6249H6C5.20435 20.6249 4.44129 20.9213 3.87868 21.4487C3.31607 21.9762 3 22.6915 3 23.4374V28.1249C3 28.8709 3.31607 29.5862 3.87868 30.1137C4.44129 30.6411 5.20435 30.9374 6 30.9374H8V31.8749C8 32.6209 8.31607 33.3362 8.87868 33.8637C9.44129 34.3911 10.2044 34.6874 11 34.6874H17.3L22.61 50.5312C22.8014 51.1018 23.1819 51.6004 23.6963 51.9545C24.2106 52.3085 24.8319 52.4996 25.47 52.4999H30.27C30.7409 52.4997 31.2051 52.3955 31.625 52.1958C32.045 51.9962 32.4089 51.7066 32.6874 51.3507C32.9659 50.9947 33.151 50.5822 33.2279 50.1467C33.3048 49.7112 33.2713 49.2648 33.13 48.8437L28.34 34.6218C28.5317 34.5569 28.6976 34.4386 28.8156 34.2827C28.9335 34.1269 28.9979 33.941 29 33.7499V33.6187C37.4722 34.0217 45.5785 36.9813 52.11 42.0562C52.5542 42.3942 53.0922 42.6061 53.6605 42.6669C54.2289 42.7277 54.804 42.6348 55.3179 42.3993C55.8319 42.1638 56.2633 41.7955 56.5614 41.3377C56.8594 40.8799 57.0116 40.3518 57 39.8156V29.5031C58.0609 29.5031 59.0783 29.108 59.8284 28.4047C60.5786 27.7015 61 26.7476 61 25.7531C61 24.7585 60.5786 23.8047 59.8284 23.1014C59.0783 22.3982 58.0609 22.0031 57 22.0031V22.0312ZM6 29.0624C5.73478 29.0624 5.48043 28.9637 5.29289 28.7879C5.10536 28.612 5 28.3736 5 28.1249V23.4374C5 23.1888 5.10536 22.9503 5.29289 22.7745C5.48043 22.5987 5.73478 22.4999 6 22.4999H8V29.0624H6ZM10 31.8749V19.6874C10 19.4388 10.1054 19.2003 10.2929 19.0245C10.4804 18.8487 10.7348 18.7499 11 18.7499H27V32.8124H11C10.7348 32.8124 10.4804 32.7137 10.2929 32.5379C10.1054 32.362 10 32.1236 10 31.8749ZM30.27 50.6249H25.47C25.2494 50.6344 25.0317 50.5752 24.8508 50.4565C24.6699 50.3377 24.536 50.1662 24.47 49.9687L19.4 34.6874H26.27L31.22 49.4062C31.267 49.5463 31.2782 49.6948 31.2528 49.8398C31.2273 49.9847 31.1659 50.122 31.0735 50.2406C30.981 50.3592 30.8601 50.4558 30.7206 50.5225C30.581 50.5893 30.4267 50.6244 30.27 50.6249ZM29 19.8281C35.6908 19.5021 42.2031 17.6898 48 14.5406V37.0406C42.2031 33.8913 35.6908 32.079 29 31.7531V19.8281ZM55 39.8156C55.0029 39.9929 54.9521 40.1674 54.8535 40.3188C54.7549 40.4701 54.6125 40.5922 54.4429 40.6707C54.2733 40.7492 54.0834 40.781 53.8952 40.7624C53.7071 40.7438 53.5284 40.6756 53.38 40.5656C52.2965 39.7282 51.1683 38.9428 50 38.2124V13.3499C51.1683 12.6196 52.2965 11.8342 53.38 10.9968C53.5284 10.8868 53.7071 10.8186 53.8952 10.8C54.0834 10.7814 54.2733 10.8132 54.4429 10.8917C54.6125 10.9702 54.7549 11.0923 54.8535 11.2436C54.9521 11.395 55.0029 11.5695 55 11.7468V39.8156ZM57 27.6281V23.8781C57.5304 23.8781 58.0391 24.0756 58.4142 24.4272C58.7893 24.7789 59 25.2558 59 25.7531C59 26.2504 58.7893 26.7273 58.4142 27.0789C58.0391 27.4305 57.5304 27.6281 57 27.6281Z" fill="white"/>
</svg>
