<svg width="64" height="60" viewBox="0 0 64 60" fill="none" xmlns="http://www.w3.org/2000/svg">
<g clip-path="url(#clip0_1_387)">
<path d="M39.9008 41.5312H24.1008C21.7008 41.5312 19.8008 39.75 19.8008 37.5V22.7812C19.8008 20.5312 21.7008 18.75 24.1008 18.75H39.8008C42.2008 18.75 44.1008 20.5312 44.1008 22.7812V37.5C44.2008 39.75 42.2008 41.5312 39.9008 41.5312Z" stroke="white" stroke-width="1.5" stroke-miterlimit="10" stroke-linecap="round" stroke-linejoin="round"/>
<path d="M34.9008 22.875H29.2008C28.4008 22.875 27.8008 22.3125 27.8008 21.5625V18.75H36.4008V21.5625C36.3008 22.2188 35.6008 22.875 34.9008 22.875Z" stroke="white" stroke-width="1.5" stroke-miterlimit="10" stroke-linecap="round" stroke-linejoin="round"/>
<path d="M60.4004 32.4375L63.0004 30L60.4004 27.5625" stroke="white" stroke-width="1.5" stroke-miterlimit="10" stroke-linecap="round" stroke-linejoin="round"/>
<path d="M63 30H52.5" stroke="white" stroke-width="1.5" stroke-miterlimit="10" stroke-linecap="round" stroke-linejoin="round"/>
<path d="M3.6 27.5625L1 30L3.6 32.4375" stroke="white" stroke-width="1.5" stroke-miterlimit="10" stroke-linecap="round" stroke-linejoin="round"/>
<path d="M1 30H11.5" stroke="white" stroke-width="1.5" stroke-miterlimit="10" stroke-linecap="round" stroke-linejoin="round"/>
<path d="M29.4004 56.625L32.0004 59.0625L34.6004 56.625" stroke="white" stroke-width="1.5" stroke-miterlimit="10" stroke-linecap="round" stroke-linejoin="round"/>
<path d="M32 59.0625V49.2188" stroke="white" stroke-width="1.5" stroke-miterlimit="10" stroke-linecap="round" stroke-linejoin="round"/>
<path d="M34.6004 3.375L32.0004 0.9375L29.4004 3.375" stroke="white" stroke-width="1.5" stroke-miterlimit="10" stroke-linecap="round" stroke-linejoin="round"/>
<path d="M32 0.9375V10.7812" stroke="white" stroke-width="1.5" stroke-miterlimit="10" stroke-linecap="round" stroke-linejoin="round"/>
<path d="M50.1992 50.5313H53.8992V47.0625" stroke="white" stroke-width="1.5" stroke-miterlimit="10" stroke-linecap="round" stroke-linejoin="round"/>
<path d="M53.9 50.5313L46.5 43.5938" stroke="white" stroke-width="1.5" stroke-miterlimit="10" stroke-linecap="round" stroke-linejoin="round"/>
<path d="M13.7996 9.46875H10.0996V12.9375" stroke="white" stroke-width="1.5" stroke-miterlimit="10" stroke-linecap="round" stroke-linejoin="round"/>
<path d="M10.0996 9.46875L17.4996 16.4063" stroke="white" stroke-width="1.5" stroke-miterlimit="10" stroke-linecap="round" stroke-linejoin="round"/>
<path d="M10.0996 47.0625V50.5313H13.7996" stroke="white" stroke-width="1.5" stroke-miterlimit="10" stroke-linecap="round" stroke-linejoin="round"/>
<path d="M10.0996 50.5313L17.4996 43.5938" stroke="white" stroke-width="1.5" stroke-miterlimit="10" stroke-linecap="round" stroke-linejoin="round"/>
<path d="M53.8992 12.9375V9.46875H50.1992" stroke="white" stroke-width="1.5" stroke-miterlimit="10" stroke-linecap="round" stroke-linejoin="round"/>
<path d="M53.9 9.46875L46.5 16.4063" stroke="white" stroke-width="1.5" stroke-miterlimit="10" stroke-linecap="round" stroke-linejoin="round"/>
</g>
<defs>
<clipPath id="clip0_1_387">
<rect width="64" height="60" fill="white"/>
</clipPath>
</defs>
</svg>
