<svg width="80" height="80" viewBox="0 0 80 80" fill="none" xmlns="http://www.w3.org/2000/svg">
<g clip-path="url(#clip0_1_256)">
<path d="M15.0007 33.3334H51.6673C52.1093 33.3334 52.5333 33.1578 52.8458 32.8452C53.1584 32.5327 53.334 32.1087 53.334 31.6667C53.334 31.2247 53.1584 30.8008 52.8458 30.4882C52.5333 30.1756 52.1093 30 51.6673 30H15.0007C14.5586 30 14.1347 30.1756 13.8221 30.4882C13.5096 30.8008 13.334 31.2247 13.334 31.6667C13.334 32.1087 13.5096 32.5327 13.8221 32.8452C14.1347 33.1578 14.5586 33.3334 15.0007 33.3334ZM41.6673 38.3334H15.0007C14.5586 38.3334 14.1347 38.509 13.8221 38.8215C13.5096 39.1341 13.334 39.558 13.334 40C13.334 40.4421 13.5096 40.866 13.8221 41.1786C14.1347 41.4911 14.5586 41.6667 15.0007 41.6667H41.6673C42.1093 41.6667 42.5333 41.4911 42.8458 41.1786C43.1584 40.866 43.334 40.4421 43.334 40C43.334 39.558 43.1584 39.1341 42.8458 38.8215C42.5333 38.509 42.1093 38.3334 41.6673 38.3334ZM15.0007 25H51.6673C52.1093 25 52.5333 24.8244 52.8458 24.5119C53.1584 24.1993 53.334 23.7754 53.334 23.3334C53.334 22.8913 53.1584 22.4674 52.8458 22.1549C52.5333 21.8423 52.1093 21.6667 51.6673 21.6667H15.0007C14.5586 21.6667 14.1347 21.8423 13.8221 22.1549C13.5096 22.4674 13.334 22.8913 13.334 23.3334C13.334 23.7754 13.5096 24.1993 13.8221 24.5119C14.1347 24.8244 14.5586 25 15.0007 25ZM15.0007 16.6667H51.6673C52.1093 16.6667 52.5333 16.4911 52.8458 16.1786C53.1584 15.866 53.334 15.4421 53.334 15C53.334 14.558 53.1584 14.1341 52.8458 13.8215C52.5333 13.509 52.1093 13.3334 51.6673 13.3334H15.0007C14.5586 13.3334 14.1347 13.509 13.8221 13.8215C13.5096 14.1341 13.334 14.558 13.334 15C13.334 15.4421 13.5096 15.866 13.8221 16.1786C14.1347 16.4911 14.5586 16.6667 15.0007 16.6667ZM38.334 66.6667C37.4673 66.6667 36.7673 63.3334 33.6673 63.3334C30.5673 63.3334 29.8506 66.6667 28.984 66.6667C28.1173 66.6667 27.434 63.3334 24.334 63.3334C21.234 63.3334 20.5173 66.6667 19.6673 66.6667C18.8173 66.6667 18.1173 63.3334 15.0007 63.3334C14.5586 63.3334 14.1347 63.509 13.8221 63.8215C13.5096 64.1341 13.334 64.558 13.334 65C13.334 65.4421 13.5096 65.866 13.8221 66.1786C14.1347 66.4911 14.5586 66.6667 15.0007 66.6667C15.8673 66.6667 16.5507 70 19.6673 70C22.784 70 23.4673 66.6667 24.334 66.6667C25.2007 66.6667 25.884 70 28.984 70C32.084 70 32.8007 66.6667 33.6673 66.6667C34.534 66.6667 35.2173 70 38.334 70C38.776 70 39.1999 69.8244 39.5125 69.5119C39.8251 69.1993 40.0007 68.7754 40.0007 68.3334C40.0007 67.8913 39.8251 67.4674 39.5125 67.1549C39.1999 66.8423 38.776 66.6667 38.334 66.6667Z" fill="#005CCE"/>
<path d="M75.0006 16.6667C75.4427 16.6667 75.8666 16.4911 76.1792 16.1785C76.4917 15.8659 76.6673 15.442 76.6673 15V8.33333C76.6673 6.1232 75.7893 4.00358 74.2265 2.44078C72.6637 0.877974 70.5441 0 68.334 0L11.6673 0C9.45718 0 7.33756 0.877974 5.77476 2.44078C4.21196 4.00358 3.33398 6.1232 3.33398 8.33333V78.3333C3.33398 78.7754 3.50958 79.1993 3.82214 79.5118C4.1347 79.8244 4.55862 80 5.00065 80H61.6673C62.1093 80 62.5333 79.8244 62.8458 79.5118C63.1584 79.1993 63.334 78.7754 63.334 78.3333V51.6667L75.884 30C76.2883 29.336 76.5559 28.5978 76.6709 27.829C76.7859 27.0601 76.746 26.2759 76.5536 25.5227C76.3613 24.7694 76.0203 24.0622 75.5507 23.4426C75.0811 22.823 74.4924 22.3035 73.8192 21.9147C73.1459 21.5259 72.4018 21.2756 71.6304 21.1784C70.8591 21.0813 70.0761 21.1394 69.3275 21.3492C68.5789 21.559 67.8798 21.9163 67.2713 22.4001C66.6627 22.884 66.1571 23.4846 65.784 24.1667L63.334 28.3333V16.6667H75.0006ZM73.334 8.33333V13.3333H63.334V8.33333C63.334 7.00725 63.8608 5.73548 64.7985 4.7978C65.7361 3.86012 67.0079 3.33333 68.334 3.33333C69.6601 3.33333 70.9318 3.86012 71.8695 4.7978C72.8072 5.73548 73.334 7.00725 73.334 8.33333ZM60.0006 76.6667H6.66732V8.33333C6.66732 7.00725 7.1941 5.73548 8.13178 4.7978C9.06947 3.86012 10.3412 3.33333 11.6673 3.33333H61.6673C59.3507 6.36667 60.0006 6.03333 60.0006 34.05L47.034 56.5167C46.7506 57 46.8673 56.5167 46.2506 66.5167C46.237 66.7438 46.27 66.9713 46.3476 67.1852C46.4252 67.3991 46.5458 67.5949 46.702 67.7604C46.8581 67.9259 47.0465 68.0577 47.2555 68.1476C47.4646 68.2376 47.6898 68.2837 47.9173 68.2833C48.634 68.2833 48.284 68.2833 56.6173 62.8667C57.0507 62.5833 56.884 62.75 59.9507 57.35L60.0006 76.6667ZM50.0006 58.7333C51.4359 58.9426 52.7363 59.6941 53.634 60.8333L49.7173 63.4167L50.0006 58.7333ZM55.6673 58.1C54.4893 56.8724 52.9864 56.0053 51.334 55.6L64.8507 32.2667L69.184 34.7667L55.6673 58.1ZM68.6673 25.7C68.9988 25.1254 69.5451 24.706 70.1858 24.5341C70.8266 24.3621 71.5093 24.4518 72.084 24.7833C72.6586 25.1149 73.078 25.6611 73.2499 26.3018C73.4218 26.9426 73.3322 27.6254 73.0006 28.2L70.9173 31.8167L66.6673 29.3167L68.6673 25.7Z" fill="#005CCE"/>
</g>
<defs>
<clipPath id="clip0_1_256">
<rect width="80" height="80" fill="white"/>
</clipPath>
</defs>
</svg>
