<svg width="80" height="80" viewBox="0 0 80 80" fill="none" xmlns="http://www.w3.org/2000/svg">
<path d="M69.2393 33.107C69.1272 32.9429 68.9767 32.8087 68.8009 32.716C68.6251 32.6233 68.4293 32.5749 68.2305 32.575H57.4033V25.1822C57.4034 25.0217 57.3719 24.8627 57.3105 24.7143C57.2491 24.566 57.1591 24.4312 57.0455 24.3176C56.932 24.2041 56.7972 24.1141 56.6488 24.0527C56.5005 23.9913 56.3415 23.9597 56.1809 23.9598H13.8033C13.4792 23.9601 13.1684 24.0889 12.9392 24.3181C12.71 24.5473 12.5811 24.8581 12.5809 25.1822V31.8766H3.32572C1.69612 31.8766 1.69612 34.3214 3.32572 34.3214H12.5809V36.2278H8.68092C7.05132 36.2278 7.05132 38.6726 8.68092 38.6726H12.5809V40.5766H3.32572C1.69612 40.5766 1.69612 43.0214 3.32572 43.0214H12.5809V44.9278H8.68092C7.05132 44.9278 7.05132 47.3726 8.68092 47.3726H12.5809V58.5374C12.5811 58.8616 12.71 59.1724 12.9392 59.4016C13.1684 59.6308 13.4792 59.7596 13.8033 59.7598H18.6473C18.8609 60.9516 19.3852 62.0659 20.1673 62.9902H3.32572C1.69612 62.9902 1.69612 65.435 3.32572 65.435H76.6713C78.3009 65.435 78.3009 62.9902 76.6713 62.9902H71.6849C72.4677 62.0664 72.9921 60.9519 73.2049 59.7598H76.6673C76.9915 59.7598 77.3024 59.6311 77.5317 59.4018C77.7609 59.1726 77.8897 58.8616 77.8897 58.5374V46.1374C77.8903 45.8916 77.8167 45.6512 77.6785 45.4478L69.2393 33.107ZM29.5441 60.2398C29.1786 61.1227 28.5388 61.8646 27.7192 62.3559C26.8997 62.8472 25.9439 63.0619 24.9929 62.9683C24.042 62.8747 23.1464 62.4777 22.4384 61.836C21.7304 61.1943 21.2475 60.3419 21.0612 59.4047C20.8748 58.4675 20.9948 57.4952 21.4035 56.6315C21.8121 55.7678 22.4877 55.0583 23.3305 54.6081C24.1733 54.1578 25.1386 53.9905 26.0837 54.1309C27.0289 54.2713 27.9038 54.712 28.5793 55.3878C29.2019 56.0106 29.6258 56.8039 29.7975 57.6675C29.9692 58.5312 29.8811 59.4263 29.5441 60.2398ZM25.4297 51.639C23.8123 51.6389 22.2463 52.208 21.0063 53.2465C19.7662 54.2849 18.9311 55.7267 18.6473 57.319H15.0257V47.375H23.3505C24.9801 47.375 24.9801 44.9302 23.3505 44.9302H15.0257V43.0214H17.9985C19.6289 43.0214 19.6289 40.5766 17.9985 40.5766H15.0257V38.6726H23.3505C24.9801 38.6726 24.9801 36.2278 23.3505 36.2278H15.0257V34.3198H17.9985C19.6289 34.3198 19.6289 31.875 17.9985 31.875H15.0257V26.403H54.9585V57.315H32.2129C31.9276 55.7235 31.0919 54.283 29.8519 53.2454C28.6119 52.2078 27.0466 51.6392 25.4297 51.639ZM30.6897 62.9902C31.4725 62.0664 31.997 60.9519 32.2097 59.7598H59.6425C59.8566 60.9515 60.3809 62.0657 61.1625 62.9902H30.6897ZM70.5401 60.2398C70.1746 61.1227 69.5348 61.8646 68.7152 62.3559C67.8957 62.8472 66.9399 63.0619 65.9889 62.9683C65.038 62.8747 64.1424 62.4777 63.4344 61.836C62.7264 61.1943 62.2436 60.3419 62.0572 59.4047C61.8708 58.4675 61.9908 57.4952 62.3995 56.6315C62.8081 55.7678 63.4837 55.0583 64.3265 54.6081C65.1693 54.1578 66.1346 53.9905 67.0797 54.1309C68.0249 54.2713 68.8998 54.712 69.5753 55.3878C70.1979 56.0106 70.6218 56.8039 70.7935 57.6675C70.9652 58.5312 70.8771 59.4263 70.5401 60.2398ZM75.4489 57.3142H73.2089C72.9238 55.7227 72.0881 54.2821 70.8481 53.2445C69.608 52.2068 68.0426 51.6383 66.4257 51.6383C64.8088 51.6383 63.2434 52.2068 62.0034 53.2445C60.7633 54.2821 59.9277 55.7227 59.6425 57.3142H57.4025V35.0198H67.5857L75.4489 46.5142V57.3142Z" fill="#005CCE"/>
<path d="M66.1355 36.2711H59.9939C59.6698 36.2713 59.3589 36.4002 59.1298 36.6294C58.9006 36.8586 58.7717 37.1694 58.7715 37.4935V45.3527C58.7717 45.6768 58.9006 45.9876 59.1298 46.2168C59.3589 46.446 59.6698 46.5749 59.9939 46.5751H71.6947C71.9189 46.5751 72.1387 46.5135 72.3302 46.3969C72.5217 46.2804 72.6774 46.1134 72.7804 45.9143C72.8834 45.7152 72.9297 45.4916 72.9141 45.2679C72.8986 45.0443 72.8218 44.8293 72.6923 44.6463L67.1339 36.7879C67.0209 36.6283 66.8712 36.498 66.6975 36.4081C66.5238 36.3182 66.3311 36.2712 66.1355 36.2711ZM61.2163 44.1303V38.7199H65.5035L69.3323 44.1343L61.2163 44.1303Z" fill="#005CCE"/>
</svg>
