<svg width="46" height="42" viewBox="0 0 46 42" fill="none" xmlns="http://www.w3.org/2000/svg">
<path d="M45.4837 22.1425L34.8692 18.4685V5.71396V5.30296C34.8692 4.98346 34.6662 4.69896 34.3642 4.59446L23.2452 0.745962C23.0862 0.690962 22.9137 0.690962 22.7547 0.745962L11.6357 4.59446C11.3337 4.69896 11.1312 4.98346 11.1312 5.30296V5.71396V18.4685L0.516219 22.1425C0.214219 22.247 0.0117188 22.531 0.0117188 22.8505V23.2615V36.286V36.697C0.0117188 37.0175 0.214219 37.3015 0.516219 37.406L11.6352 41.2545C11.6382 41.2555 11.6417 41.2545 11.6447 41.2555C11.7212 41.281 11.8007 41.2955 11.8807 41.2955C11.9607 41.2955 12.0402 41.281 12.1167 41.2555C12.1197 41.2545 12.1227 41.2555 12.1262 41.2545L23.0002 37.491L33.8737 41.2545C33.8777 41.2555 33.8807 41.2545 33.8837 41.2555C33.9597 41.281 34.0392 41.2955 34.1202 41.2955C34.2002 41.2955 34.2792 41.281 34.3557 41.2555C34.3587 41.2545 34.3627 41.2555 34.3657 41.2545L45.4847 37.406C45.7867 37.3015 45.9897 37.0175 45.9897 36.697V36.286V23.2615V22.8505C45.9887 22.5315 45.7852 22.247 45.4837 22.1425ZM34.1192 26.3165L24.9122 23.13L26.7207 22.504L35.6707 25.7795L34.1192 26.3165ZM11.8807 26.3165L10.3287 25.7795L19.2792 22.504L21.0877 23.13L11.8807 26.3165ZM15.4087 4.87546C15.4367 4.88996 15.4637 4.90596 15.4942 4.91696L24.5522 8.23146L23.0002 8.76896L13.5802 5.50846L15.4087 4.87546ZM19.7572 3.37046C19.7607 3.37146 19.7637 3.37396 19.7672 3.37496L29.0247 6.63146L26.7257 7.42946L17.6377 4.10396L19.7572 3.37046ZM37.8447 24.9775L28.9637 21.7275L31.0857 20.9935L40.1442 24.18L37.8447 24.9775ZM8.15472 24.9775L5.85522 24.1795L14.9137 20.993L17.0357 21.727L8.15472 24.9775ZM22.2502 21.798L12.6312 18.4685V6.76746L22.2502 10.0965V21.798ZM33.3692 18.4685L23.7502 21.798V10.0965L25.9562 9.33296V13.79C25.9562 14.1025 26.1507 14.383 26.4427 14.492C26.5287 14.524 26.6177 14.54 26.7062 14.54C26.9182 14.54 27.1252 14.45 27.2707 14.284L29.1192 12.1705L30.8242 12.658C31.0507 12.7225 31.2937 12.6775 31.4812 12.5355C31.6687 12.394 31.7802 12.172 31.7802 11.937V7.31746L33.3692 6.76746V18.4685ZM27.4562 8.81346L30.2802 7.83646V10.9425L29.0742 10.598C28.7957 10.519 28.4952 10.607 28.3037 10.825L27.4562 11.794V8.81346ZM11.6677 19.87L12.6352 20.205L3.50272 23.417L2.46072 23.0565L11.6677 19.87ZM4.60022 25.384L7.42422 26.3615V29.342L6.57672 28.373C6.43222 28.208 6.22522 28.117 6.01222 28.117C5.94372 28.117 5.87422 28.126 5.80622 28.1455L4.60022 28.49V25.384ZM38.5752 26.3615L41.3992 25.385V28.4905L40.1932 28.146C39.9137 28.067 39.6142 28.155 39.4227 28.3735L38.5752 29.3425V26.3615ZM42.4972 23.417L33.3647 20.205L34.3327 19.87L43.5397 23.057L42.4972 23.417ZM23.0002 2.24846L32.4202 5.50896L31.3782 5.86996L22.0342 2.58296L23.0002 2.24846ZM1.51172 24.3155L3.10022 24.8655V29.4845C3.10022 29.72 3.21072 29.9415 3.39872 30.083C3.58672 30.2245 3.83022 30.2695 4.05622 30.206L5.76122 29.7185L7.60972 31.832C7.75522 31.998 7.96222 32.088 8.17422 32.088C8.26272 32.088 8.35172 32.0725 8.43772 32.04C8.73022 31.9295 8.92422 31.6505 8.92422 31.338V26.881L11.1307 27.6445V39.493L1.51172 36.164V24.3155ZM12.6307 27.6445L22.2502 24.3155V36.164L12.6312 39.493V27.6445H12.6307ZM23.7502 24.3155L33.3692 27.6445V39.493L23.7502 36.164V24.3155ZM44.4887 36.163L34.8697 39.493V27.6445L37.0757 26.881V31.338C37.0757 31.6505 37.2702 31.93 37.5622 32.04C37.6482 32.072 37.7372 32.088 37.8257 32.088C38.0377 32.088 38.2447 31.998 38.3902 31.832L40.2387 29.7185L41.9437 30.206C42.1702 30.2695 42.4132 30.2245 42.6007 30.083C42.7892 29.9415 42.8997 29.7195 42.8997 29.4845V24.865L44.4887 24.315V36.163Z" fill="#005CCE"/>
</svg>
