<svg width="20" height="20" viewBox="0 0 20 20" fill="none" xmlns="http://www.w3.org/2000/svg">
<path d="M14.5825 18.3333C13.6808 18.3438 12.8261 17.9317 12.2727 17.2198C11.7192 16.5078 11.5308 15.5779 11.7633 14.7067L6.54664 11.725C5.64521 12.5509 4.32388 12.7256 3.23871 12.1626C2.15355 11.5995 1.5357 10.4185 1.69195 9.206C1.84819 7.99348 2.74525 7.00769 3.9377 6.73812C5.13016 6.46854 6.36402 6.97259 7.02664 8L11.7625 5.2925C11.7012 5.06098 11.6687 4.8228 11.6658 4.58333C11.6539 3.18893 12.6223 1.97762 13.9851 1.68235C15.348 1.38708 16.7309 2.08895 17.2972 3.36326C17.8634 4.63757 17.4575 6.13435 16.3249 6.94792C15.1924 7.76149 13.6444 7.6684 12.6175 6.725L7.49164 9.65416C7.48656 9.87027 7.45636 10.085 7.40164 10.2942L12.6175 13.275C13.5777 12.3938 15.0065 12.2578 16.1157 12.9419C17.225 13.6261 17.7447 14.9639 17.3882 16.2175C17.0317 17.4711 15.8858 18.3352 14.5825 18.3333ZM14.5825 14.1667C13.8921 14.1667 13.3325 14.7263 13.3325 15.4167C13.3325 16.107 13.8921 16.6667 14.5825 16.6667C15.2728 16.6667 15.8325 16.107 15.8325 15.4167C15.8325 14.7263 15.2728 14.1667 14.5825 14.1667ZM4.58247 8.33333C3.89212 8.33333 3.33247 8.89297 3.33247 9.58333C3.33247 10.2737 3.89212 10.8333 4.58247 10.8333C5.27283 10.8333 5.83247 10.2737 5.83247 9.58333C5.83247 8.89297 5.27283 8.33333 4.58247 8.33333ZM14.5825 3.33333C13.8921 3.33333 13.3325 3.89297 13.3325 4.58333C13.3325 5.27369 13.8921 5.83333 14.5825 5.83333C15.2728 5.83333 15.8325 5.27369 15.8325 4.58333C15.8325 3.89297 15.2728 3.33333 14.5825 3.33333Z" fill="#DB2F09"/>
</svg>
