<svg width="60" height="60" viewBox="0 0 60 60" fill="none" xmlns="http://www.w3.org/2000/svg">
<g clip-path="url(#clip0_1_3290)">
<path d="M50.6191 56.2574C50.1006 56.2574 49.6816 55.8384 49.6816 55.3199C49.6816 54.8015 50.1006 54.3824 50.6191 54.3824C52.1697 54.3824 53.4316 53.1206 53.4316 51.5699C53.4316 50.0193 52.1697 48.7574 50.6191 48.7574C50.1006 48.7574 49.6816 48.3384 49.6816 47.8199C49.6816 47.3015 50.1006 46.8824 50.6191 46.8824C53.2038 46.8824 55.3066 48.9853 55.3066 51.5699C55.3066 54.1546 53.2038 56.2574 50.6191 56.2574ZM11.2422 56.2574C9.69156 56.2574 8.42969 54.9956 8.42969 53.4449C8.42969 51.8943 9.69156 50.6324 11.2422 50.6324C11.7606 50.6324 12.1797 51.0515 12.1797 51.5699C12.1797 52.0884 11.7606 52.5074 11.2422 52.5074C10.7247 52.5074 10.3047 52.9274 10.3047 53.4449C10.3047 53.9624 10.7247 54.3824 11.2422 54.3824C11.7606 54.3824 12.1797 54.8015 12.1797 55.3199C12.1797 55.8384 11.7606 56.2574 11.2422 56.2574Z" fill="#005CCE"/>
<path d="M11.25 60.0076C7.63219 60.0076 4.6875 57.0629 4.6875 53.4451C4.6875 49.8282 7.63219 46.8845 11.25 46.8845C11.7684 46.8845 12.1875 47.3035 12.1875 47.822C12.1875 48.3404 11.7684 48.7595 11.25 48.7595C8.66531 48.7595 6.5625 50.8613 6.5625 53.4451C6.5625 56.0298 8.66531 58.1326 11.25 58.1326C11.7684 58.1326 12.1875 58.5516 12.1875 59.0701C12.1875 59.5885 11.7684 60.0076 11.25 60.0076ZM5.625 18.7501C5.10656 18.7501 4.6875 18.331 4.6875 17.8126C4.6875 14.1957 7.63219 11.252 11.25 11.252C11.7684 11.252 12.1875 11.671 12.1875 12.1895C12.1875 12.7079 11.7684 13.127 11.25 13.127C8.66531 13.127 6.5625 15.2288 6.5625 17.8126C6.5625 18.331 6.14344 18.7501 5.625 18.7501Z" fill="#005CCE"/>
<path d="M50.6191 52.5074H11.2422C10.7238 52.5074 10.3047 52.0884 10.3047 51.5699C10.3047 51.0515 10.7238 50.6324 11.2422 50.6324H50.6191C51.1375 50.6324 51.5566 51.0515 51.5566 51.5699C51.5566 52.0884 51.1375 52.5074 50.6191 52.5074ZM50.6191 48.7574H11.2497C10.7313 48.7574 10.3122 48.3384 10.3122 47.8199C10.3122 47.3015 10.7313 46.8824 11.2497 46.8824H50.6191C51.1375 46.8824 51.5566 47.3015 51.5566 47.8199C51.5566 48.3384 51.1375 48.7574 50.6191 48.7574ZM50.6191 56.2574H11.2422C10.7238 56.2574 10.3047 55.8384 10.3047 55.3199C10.3047 54.8015 10.7238 54.3824 11.2422 54.3824H50.6191C51.1375 54.3824 51.5566 54.8015 51.5566 55.3199C51.5566 55.8384 51.1375 56.2574 50.6191 56.2574ZM50.6191 60.0075H11.2422C10.7238 60.0075 10.3047 59.5884 10.3047 59.0699C10.3047 58.5515 10.7238 58.1324 11.2422 58.1324H50.6191C51.1375 58.1324 51.5566 58.5515 51.5566 59.0699C51.5566 59.5884 51.1375 60.0075 50.6191 60.0075Z" fill="#005CCE"/>
<path d="M50.6175 60.0076C50.0991 60.0076 49.68 59.5885 49.68 59.0701V55.3201C49.68 54.8016 50.0991 54.3826 50.6175 54.3826C51.1359 54.3826 51.555 54.8016 51.555 55.3201V59.0701C51.555 59.5885 51.1359 60.0076 50.6175 60.0076ZM5.625 54.3826C5.10656 54.3826 4.6875 53.9635 4.6875 53.4451V17.8126C4.6875 17.2941 5.10656 16.8751 5.625 16.8751C6.14344 16.8751 6.5625 17.2941 6.5625 17.8126V53.4451C6.5625 53.9635 6.14344 54.3826 5.625 54.3826ZM54.3713 18.7501C53.8528 18.7501 53.4338 18.331 53.4338 17.8126C53.4338 15.2288 51.3309 13.127 48.7463 13.127C48.2278 13.127 47.8088 12.7079 47.8088 12.1895C47.8088 11.671 48.2278 11.252 48.7463 11.252C52.3641 11.252 55.3088 14.1957 55.3088 17.8126C55.3088 18.331 54.8897 18.7501 54.3713 18.7501Z" fill="#005CCE"/>
<path d="M54.375 52.5075C53.8566 52.5075 53.4375 52.0884 53.4375 51.57V17.8125C53.4375 17.2941 53.8566 16.875 54.375 16.875C54.8934 16.875 55.3125 17.2941 55.3125 17.8125V51.57C55.3125 52.0884 54.8934 52.5075 54.375 52.5075ZM44.9906 44.9812C44.4722 44.9812 44.0531 44.5622 44.0531 44.0437C44.0531 43.5253 44.4722 43.1062 44.9906 43.1062C46.5412 43.1062 47.8031 41.8444 47.8031 40.2937C47.8031 38.7431 46.5412 37.4812 44.9906 37.4812C44.4722 37.4812 44.0531 37.0622 44.0531 36.5437C44.0531 36.0253 44.4722 35.6062 44.9906 35.6062C47.5753 35.6062 49.6781 37.7091 49.6781 40.2937C49.6781 42.8784 47.5753 44.9812 44.9906 44.9812ZM16.875 44.9812C15.3244 44.9812 14.0625 43.7194 14.0625 42.1687C14.0625 40.6181 15.3244 39.3562 16.875 39.3562C17.3934 39.3562 17.8125 39.7753 17.8125 40.2937C17.8125 40.8122 17.3934 41.2312 16.875 41.2312C16.3575 41.2312 15.9375 41.6512 15.9375 42.1687C15.9375 42.6862 16.3575 43.1062 16.875 43.1062C17.3934 43.1062 17.8125 43.5253 17.8125 44.0437C17.8125 44.5622 17.3934 44.9812 16.875 44.9812Z" fill="#005CCE"/>
<path d="M16.8828 48.7304C13.265 48.7304 10.3203 45.7866 10.3203 42.1697C10.3203 38.5519 13.265 35.6072 16.8828 35.6072C17.4012 35.6072 17.8203 36.0263 17.8203 36.5447C17.8203 37.0632 17.4012 37.4822 16.8828 37.4822C14.2981 37.4822 12.1953 39.5851 12.1953 42.1697C12.1953 44.7535 14.2981 46.8554 16.8828 46.8554C17.4012 46.8554 17.8203 47.2744 17.8203 47.7929C17.8203 48.3113 17.4012 48.7304 16.8828 48.7304ZM11.2578 7.49255C10.7394 7.49255 10.3203 7.07349 10.3203 6.55505C10.3203 2.93724 13.265 -0.00744629 16.8828 -0.00744629C17.4012 -0.00744629 17.8203 0.411616 17.8203 0.930054C17.8203 1.44849 17.4012 1.86755 16.8828 1.86755C14.2981 1.86755 12.1953 3.97037 12.1953 6.55505C12.1953 7.07349 11.7763 7.49255 11.2578 7.49255Z" fill="#005CCE"/>
<path d="M44.9906 41.2312H16.875C16.3566 41.2312 15.9375 40.8121 15.9375 40.2937C15.9375 39.7753 16.3566 39.3562 16.875 39.3562H44.9906C45.5091 39.3562 45.9281 39.7753 45.9281 40.2937C45.9281 40.8121 45.5091 41.2312 44.9906 41.2312ZM44.9906 37.4812H16.8825C16.3641 37.4812 15.945 37.0621 15.945 36.5437C15.945 36.0253 16.3641 35.6062 16.8825 35.6062H44.9906C45.5091 35.6062 45.9281 36.0253 45.9281 36.5437C45.9281 37.0621 45.5091 37.4812 44.9906 37.4812ZM44.9906 44.9812H16.875C16.3566 44.9812 15.9375 44.5621 15.9375 44.0437C15.9375 43.5253 16.3566 43.1062 16.875 43.1062H44.9906C45.5091 43.1062 45.9281 43.5253 45.9281 44.0437C45.9281 44.5621 45.5091 44.9812 44.9906 44.9812ZM44.9906 48.7303H16.875C16.3566 48.7303 15.9375 48.3112 15.9375 47.7928C15.9375 47.2743 16.3566 46.8553 16.875 46.8553H44.9906C45.5091 46.8553 45.9281 47.2743 45.9281 47.7928C45.9281 48.3112 45.5091 48.7303 44.9906 48.7303Z" fill="#005CCE"/>
<path d="M44.9891 48.7304C44.4706 48.7304 44.0516 48.3113 44.0516 47.7929V44.0438C44.0516 43.5254 44.4706 43.1063 44.9891 43.1063C45.5075 43.1063 45.9266 43.5254 45.9266 44.0438V47.7919C45.9266 48.3104 45.5075 48.7304 44.9891 48.7304ZM11.2578 43.1063C10.7394 43.1063 10.3203 42.6872 10.3203 42.1688V6.55505C10.3203 6.03662 10.7394 5.61755 11.2578 5.61755C11.7763 5.61755 12.1953 6.03662 12.1953 6.55505V42.1688C12.1953 42.6872 11.7763 43.1063 11.2578 43.1063ZM48.7428 7.49255C48.2244 7.49255 47.8053 7.07349 47.8053 6.55505C47.8053 3.97037 45.7025 1.86755 43.1178 1.86755C42.5994 1.86755 42.1803 1.44849 42.1803 0.930054C42.1803 0.411616 42.5994 -0.00744629 43.1178 -0.00744629C46.7356 -0.00744629 49.6803 2.93724 49.6803 6.55505C49.6803 7.07349 49.2612 7.49255 48.7428 7.49255Z" fill="#005CCE"/>
<path d="M48.7428 41.2313C48.2244 41.2313 47.8053 40.8122 47.8053 40.2938V6.55505C47.8053 6.03662 48.2244 5.61755 48.7428 5.61755C49.2612 5.61755 49.6803 6.03662 49.6803 6.55505V40.2938C49.6803 40.8122 49.2612 41.2313 48.7428 41.2313ZM43.1178 1.86755H16.8828C16.3644 1.86755 15.9453 1.44849 15.9453 0.930054C15.9453 0.411616 16.3644 -0.00744629 16.8828 -0.00744629H43.1178C43.6363 -0.00744629 44.0553 0.411616 44.0553 0.930054C44.0553 1.44849 43.6363 1.86755 43.1178 1.86755Z" fill="#005CCE"/>
</g>
<defs>
<clipPath id="clip0_1_3290">
<rect width="60" height="60" fill="white"/>
</clipPath>
</defs>
</svg>
