<svg width="60" height="60" viewBox="0 0 60 60" fill="none" xmlns="http://www.w3.org/2000/svg">
<path d="M49.0902 34.0908C49.8433 34.0908 50.4538 33.4803 50.4538 32.7272C50.4538 31.974 49.8433 31.3635 49.0902 31.3635C48.3371 31.3635 47.7266 31.974 47.7266 32.7272C47.7266 33.4803 48.3371 34.0908 49.0902 34.0908Z" fill="#005CCE"/>
<path d="M43.6371 34.0908C44.3902 34.0908 45.0007 33.4803 45.0007 32.7272C45.0007 31.974 44.3902 31.3635 43.6371 31.3635C42.884 31.3635 42.2734 31.974 42.2734 32.7272C42.2734 33.4803 42.884 34.0908 43.6371 34.0908Z" fill="#005CCE"/>
<path d="M38.18 34.091C38.9332 34.091 39.5437 33.4805 39.5437 32.7274C39.5437 31.9743 38.9332 31.3638 38.18 31.3638C37.4269 31.3638 36.8164 31.9743 36.8164 32.7274C36.8164 33.4805 37.4269 34.091 38.18 34.091Z" fill="#005CCE"/>
<path d="M30.0014 40.9092C27.6832 40.9092 25.9105 42.6819 25.9105 45.0001C25.9105 47.3183 27.6832 49.091 30.0014 49.091C32.3196 49.091 34.0923 47.3183 34.0923 45.0001C34.0923 42.6819 32.3196 40.9092 30.0014 40.9092ZM30.0014 46.3637C29.1832 46.3637 28.6378 45.8183 28.6378 45.0001C28.6378 44.1819 29.1832 43.6365 30.0014 43.6365C30.8196 43.6365 31.3651 44.1819 31.3651 45.0001C31.3651 45.8183 30.8196 46.3637 30.0014 46.3637ZM46.3651 49.091C48.6832 49.091 50.456 47.3183 50.456 45.0001C50.456 42.6819 48.6832 40.9092 46.3651 40.9092C44.0469 40.9092 42.2741 42.6819 42.2741 45.0001C42.2741 47.3183 44.0469 49.091 46.3651 49.091ZM46.3651 43.6365C47.1832 43.6365 47.7287 44.1819 47.7287 45.0001C47.7287 45.8183 47.1832 46.3637 46.3651 46.3637C45.5469 46.3637 45.0014 45.8183 45.0014 45.0001C45.0014 44.1819 45.5469 43.6365 46.3651 43.6365ZM13.6378 40.9092C11.3196 40.9092 9.54688 42.6819 9.54688 45.0001C9.54688 47.3183 11.3196 49.091 13.6378 49.091C15.956 49.091 17.7287 47.3183 17.7287 45.0001C17.7287 42.6819 15.956 40.9092 13.6378 40.9092ZM13.6378 46.3637C12.8196 46.3637 12.2741 45.8183 12.2741 45.0001C12.2741 44.1819 12.8196 43.6365 13.6378 43.6365C14.456 43.6365 15.0014 44.1819 15.0014 45.0001C15.0014 45.8183 14.456 46.3637 13.6378 46.3637Z" fill="#005CCE"/>
<path d="M59.1818 15.1364C58.6364 14.8637 58.0909 15 57.6818 15.4091L56.7273 16.3637H40.3636L38.7273 13.2273C38.0455 11.8637 36.6818 10.9091 35.0455 10.9091H15V6.81823C15 6.00004 14.4545 5.45459 13.6364 5.45459C12.8182 5.45459 12.2727 6.00004 12.2727 6.81823V10.9091H10.9091C8.59091 10.9091 6.81818 12.6819 6.81818 15V18.2728C6.81818 20.1819 8.04545 21.8182 9.95455 22.2273L17.7273 24.1364V27.2728H8.04545C6 27.2728 4.09091 28.3637 3.13636 30.2728L0.136364 36.1364C-0.136364 36.8182 0.136364 37.6364 0.681818 37.9091C0.954545 38.1819 1.09091 38.1819 1.36364 38.1819C1.90909 38.1819 2.31818 37.9091 2.59091 37.3637L5.59091 31.5C6 30.5455 6.95455 30 8.04545 30H52.9091C54.1364 30 55.0909 30.6819 55.5 31.9091L57.2727 37.091V39.8182C57.2727 40.3637 57.1364 40.9091 56.8636 41.4546L55.7727 43.9091C55.5 41.7273 54.5455 39.6819 52.9091 38.1819H53.1818C54 38.1819 54.5455 37.6364 54.5455 36.8182C54.5455 36 54 35.4546 53.1818 35.4546H1.36364C0.545455 35.4546 0 36 0 36.8182V39.8182C0 40.7728 0.136364 41.7273 0.545455 42.5455L4.09091 50.4546C5.18182 52.9091 7.63636 54.5455 10.3636 54.5455H49.6364C52.3636 54.5455 54.8182 52.9091 55.9091 50.4546L59.4545 42.5455C59.8636 41.7273 60 40.7728 60 39.8182V36.8182C60 36.6819 60 36.5455 59.8636 36.4091L58.0909 31.091C57.4091 28.9091 55.2273 27.4091 52.9091 27.4091H39.5455V24.5455C41.0455 24.1364 42.2727 22.7728 42.2727 21.1364C42.2727 20.591 42.1364 20.0455 41.8636 19.5L41.7273 19.091H56.7273L57.6818 20.0455C57.9545 20.3182 58.2273 20.4546 58.6364 20.4546C58.7727 20.4546 59.0455 20.4546 59.1818 20.3182C59.7273 20.0455 60 19.6364 60 19.091V16.3637C60 15.8182 59.7273 15.2728 59.1818 15.1364ZM53.1818 45C53.1818 48.8182 50.1818 51.8182 46.3636 51.8182C42.5455 51.8182 39.5455 48.8182 39.5455 45C39.5455 41.1819 42.5455 38.1819 46.3636 38.1819C50.1818 38.1819 53.1818 41.1819 53.1818 45ZM39.6818 38.1819C39.1364 38.7273 38.5909 39.4091 38.1818 40.091C37.7727 39.4091 37.2273 38.7273 36.6818 38.1819H39.6818ZM30 51.8182C26.1818 51.8182 23.1818 48.8182 23.1818 45C23.1818 41.1819 26.1818 38.1819 30 38.1819C33.8182 38.1819 36.8182 41.1819 36.8182 45C36.8182 48.8182 33.8182 51.8182 30 51.8182ZM23.3182 38.1819C22.7727 38.7273 22.2273 39.4091 21.8182 40.091C21.4091 39.4091 20.8636 38.7273 20.3182 38.1819H23.3182ZM13.6364 51.8182C9.81818 51.8182 6.81818 48.8182 6.81818 45C6.81818 41.1819 9.81818 38.1819 13.6364 38.1819C17.4545 38.1819 20.4545 41.1819 20.4545 45C20.4545 48.8182 17.4545 51.8182 13.6364 51.8182ZM2.72727 39.8182V38.1819H6.95455C5.45455 39.6819 4.36364 41.591 4.09091 43.9091L3 41.4546C2.86364 40.9091 2.72727 40.3637 2.72727 39.8182ZM20.3182 51.8182C20.8636 51.2728 21.4091 50.591 21.8182 49.9091C22.2273 50.591 22.7727 51.2728 23.3182 51.8182H20.3182ZM36.6818 51.8182C37.2273 51.2728 37.7727 50.591 38.1818 49.9091C38.5909 50.591 39.1364 51.2728 39.6818 51.8182H36.6818ZM38.7273 21.8182H30C29.1818 21.8182 28.6364 22.3637 28.6364 23.1819C28.6364 24 29.1818 24.5455 30 24.5455H36.8182V27.2728H20.4545V23.1819C20.4545 22.5 20.0455 21.9546 19.3636 21.8182L10.5 19.6364C9.95455 19.5 9.40909 18.9546 9.40909 18.2728V15C9.40909 14.1819 9.95455 13.6364 10.7727 13.6364H35.0455C35.5909 13.6364 36 13.9091 36.2727 14.4546L39.4091 20.7273C39.4091 20.8637 39.5455 21 39.5455 21.1364C39.5455 21.4091 39.1364 21.8182 38.7273 21.8182Z" fill="#005CCE"/>
</svg>
