<svg width="60" height="60" viewBox="0 0 60 60" fill="none" xmlns="http://www.w3.org/2000/svg">
<path d="M9.51782 9.375C6.3475 9.375 3.75 11.9198 3.75 15.0623V18.8452C1.60756 19.2933 0 21.2436 0 23.5437V33.0212V37.0422V42.7258C0 44.8745 1.65511 46.6357 3.75 46.8347V49.6875C3.75005 50.2052 4.16975 50.6249 4.6875 50.625H8.4375C8.95525 50.6249 9.37495 50.2052 9.375 49.6875V46.875H50.625V49.6875C50.6251 50.2052 51.0448 50.6249 51.5625 50.625H55.3125C55.8302 50.6249 56.2499 50.2052 56.25 49.6875V46.8347C58.3449 46.6357 60 44.8745 60 42.7258V33.0212V23.5437C60 21.2436 58.3925 19.2933 56.25 18.8452V15.0623C56.25 11.9198 53.6525 9.375 50.4822 9.375H9.51782ZM9.51782 11.272H50.4822C52.6517 11.272 54.353 12.9553 54.353 15.0623V18.8489C52.2216 19.3056 50.625 21.2515 50.625 23.5437V30H9.30009C9.08901 30.2762 9.36573 30.7573 9.375 30.8643V23.5437C9.375 21.2515 7.77843 19.3056 5.64697 18.8489V15.0623C5.64697 12.9553 7.3483 11.272 9.51782 11.272ZM4.6875 20.625C6.24753 20.625 7.5 21.8965 7.5 23.5437V45H4.13452C2.8692 45 1.875 44.0051 1.875 42.7258V37.0422V33.0212V23.5437C1.875 21.8965 3.12747 20.625 4.6875 20.625ZM55.3125 20.625C56.8726 20.625 58.125 21.8965 58.125 23.5437V37.0422V42.7258C58.125 44.0051 57.1308 45 55.8655 45H52.5V23.5437C52.5 21.8965 53.7524 20.625 55.3125 20.625ZM9.375 31.875H50.625V35.647H9.375V31.875ZM9.375 37.522H50.625V45H9.375V37.522ZM5.625 46.875H7.5V48.75H5.625V46.875ZM52.5 46.875H54.375V48.75H52.5V46.875Z" fill="#005CCE"/>
</svg>
