<svg width="60" height="60" viewBox="0 0 60 60" fill="none" xmlns="http://www.w3.org/2000/svg">
<path d="M49.6875 25.3125H47.8125V15C47.8125 14.7514 47.7137 14.5129 47.5379 14.3371C47.3621 14.1613 47.1236 14.0625 46.875 14.0625H45.9375V8.4375C45.9375 8.28319 45.8995 8.13127 45.8267 7.9952C45.7539 7.85914 45.6487 7.74314 45.5203 7.6575L42.7078 5.7825L41.6672 7.3425L44.0625 8.93906V14.0625H43.125C42.8764 14.0625 42.6379 14.1613 42.4621 14.3371C42.2863 14.5129 42.1875 14.7514 42.1875 15V25.3125H36.3L31.3003 10.3125H34.6875C34.9361 10.3125 35.1746 10.2137 35.3504 10.0379C35.5262 9.8621 35.625 9.62364 35.625 9.375V5.625C35.625 5.37636 35.5262 5.1379 35.3504 4.96209C35.1746 4.78627 34.9361 4.6875 34.6875 4.6875H6.5625C6.31386 4.6875 6.0754 4.78627 5.89959 4.96209C5.72377 5.1379 5.625 5.37636 5.625 5.625V9.375C5.625 9.62364 5.72377 9.8621 5.89959 10.0379C6.0754 10.2137 6.31386 10.3125 6.5625 10.3125H8.4375V19.6575H10.3125V10.3125H29.3241L34.3237 25.3125H10.3125V19.6575H8.4375V26.25C8.43842 26.3794 8.46653 26.5072 8.52 26.625C6.13036 27.6131 3.99987 29.1374 2.29313 31.08C2.1294 31.2672 2.04675 31.5118 2.06336 31.76C2.07998 32.0082 2.19449 32.2395 2.38172 32.4033C2.56894 32.567 2.81354 32.6497 3.06171 32.633C3.30987 32.6164 3.54127 32.5019 3.705 32.3147C4.01625 31.9594 4.34812 31.6275 4.6875 31.3059V33.9375L3.73031 34.8956C3.55456 35.0714 3.45583 35.3098 3.45583 35.5584C3.45583 35.807 3.55456 36.0454 3.73031 36.2213L4.15688 36.6469C3.86144 37.2226 3.61343 37.8215 3.41531 38.4375H2.8125C2.56386 38.4375 2.3254 38.5363 2.14959 38.7121C1.97377 38.8879 1.875 39.1264 1.875 39.375V45C1.875 45.2486 1.97377 45.4871 2.14959 45.6629C2.3254 45.8387 2.56386 45.9375 2.8125 45.9375H3.41531C3.61367 46.5533 3.86135 47.1521 4.15594 47.7281L3.73031 48.1537C3.55456 48.3296 3.45583 48.568 3.45583 48.8166C3.45583 49.0652 3.55456 49.3036 3.73031 49.4794L7.70813 53.4572C7.88393 53.6329 8.12235 53.7317 8.37094 53.7317C8.61953 53.7317 8.85794 53.6329 9.03375 53.4572L9.45938 53.0316C10.0355 53.3259 10.6343 53.5736 11.25 53.7722V54.375C11.25 54.6236 11.3488 54.8621 11.5246 55.0379C11.7004 55.2137 11.9389 55.3125 12.1875 55.3125H17.8125C18.0611 55.3125 18.2996 55.2137 18.4754 55.0379C18.6512 54.8621 18.75 54.6236 18.75 54.375V53.7722C19.3657 53.5736 19.9645 53.3259 20.5406 53.0316L20.9662 53.4572C21.1421 53.6329 21.3805 53.7317 21.6291 53.7317C21.8777 53.7317 22.1161 53.6329 22.2919 53.4572L26.2697 49.4794C26.4454 49.3036 26.5442 49.0652 26.5442 48.8166C26.5442 48.568 26.4454 48.3296 26.2697 48.1537L25.8441 47.7281C26.1386 47.1521 26.3863 46.5533 26.5847 45.9375H33.75V47.8125C33.75 48.0215 33.8198 48.2245 33.9484 48.3893C34.077 48.554 34.257 48.6711 34.4597 48.7219L35.2303 48.915C35.2931 49.0828 35.3634 49.2497 35.4384 49.4137L35.0287 50.0953C34.9212 50.2747 34.8767 50.4849 34.9023 50.6925C34.928 50.9001 35.0223 51.0931 35.1703 51.2409L37.8216 53.8922C37.9693 54.04 38.1622 54.1342 38.3696 54.1598C38.577 54.1855 38.787 54.1411 38.9662 54.0338L39.6488 53.625C39.8138 53.6991 39.9806 53.7684 40.1475 53.8322L40.3406 54.6019C40.3912 54.8048 40.5082 54.9849 40.673 55.1137C40.8378 55.2425 41.0409 55.3124 41.25 55.3125H45C45.2091 55.3124 45.4122 55.2425 45.577 55.1137C45.7418 54.9849 45.8588 54.8048 45.9094 54.6019L46.1025 53.8322C46.2694 53.7684 46.4362 53.6991 46.6012 53.625L47.2838 54.0338C47.463 54.1411 47.673 54.1855 47.8804 54.1598C48.0878 54.1342 48.2807 54.04 48.4284 53.8922L51.0797 51.2409C51.2277 51.0931 51.322 50.9001 51.3477 50.6925C51.3733 50.4849 51.3288 50.2747 51.2213 50.0953L50.8116 49.4137C50.8866 49.2497 50.9569 49.0828 51.0197 48.915L51.7903 48.7219C51.993 48.6711 52.173 48.554 52.3016 48.3893C52.4302 48.2245 52.5 48.0215 52.5 47.8125V45.9375H55.3125C56.0584 45.9375 56.7738 45.6412 57.3012 45.1137C57.8287 44.5863 58.125 43.8709 58.125 43.125V37.5H56.25V43.125C56.25 43.3736 56.1512 43.6121 55.9754 43.7879C55.7996 43.9637 55.5611 44.0625 55.3125 44.0625H52.5C52.5 43.8535 52.4302 43.6505 52.3016 43.4857C52.173 43.321 51.993 43.2039 51.7903 43.1531L51.0197 42.96C50.9569 42.7922 50.8866 42.6253 50.8116 42.4613L51.2213 41.7797C51.3288 41.6003 51.3733 41.3901 51.3477 41.1825C51.322 40.9749 51.2277 40.7819 51.0797 40.6341L48.4284 37.9828C48.2807 37.835 48.0878 37.7408 47.8804 37.7152C47.673 37.6895 47.463 37.7339 47.2838 37.8412L46.6012 38.25C46.4362 38.1759 46.2694 38.1066 46.1025 38.0428L45.9094 37.2731C45.8588 37.0702 45.7418 36.8901 45.577 36.7613C45.4122 36.6325 45.2091 36.5626 45 36.5625H42.1875V27.1875H49.6875C51.4274 27.1895 53.0954 27.8815 54.3257 29.1118C55.556 30.3421 56.248 32.0101 56.25 33.75V37.5H58.125V33.75C58.1225 31.513 57.2328 29.3683 55.651 27.7865C54.0692 26.2047 51.9245 25.315 49.6875 25.3125ZM9.375 8.4375H7.5V6.5625H33.75V8.4375H9.375ZM26.25 44.0625H25.8806C25.6728 44.0625 25.4709 44.1316 25.3067 44.2589C25.1424 44.3862 25.0251 44.5644 24.9731 44.7656C24.7335 45.6964 24.3643 46.5889 23.8763 47.4169C23.7707 47.5959 23.7275 47.8049 23.7537 48.0111C23.7798 48.2173 23.8737 48.4089 24.0206 48.5559L24.2803 48.8166L21.6291 51.4688L21.3684 51.2091C21.2214 51.0619 21.0295 50.9679 20.8232 50.9417C20.6168 50.9156 20.4075 50.9589 20.2284 51.0647C19.4007 51.5529 18.5086 51.9224 17.5781 52.1625C17.3769 52.2144 17.1987 52.3318 17.0714 52.496C16.9441 52.6603 16.8751 52.8622 16.875 53.07V53.4375H13.125V53.0691C13.1249 52.8613 13.0559 52.6594 12.9286 52.4951C12.8013 52.3308 12.6231 52.2135 12.4219 52.1616C11.4914 51.9215 10.5993 51.5519 9.77156 51.0637C9.59246 50.9579 9.38324 50.9147 9.17685 50.9408C8.97046 50.9669 8.77863 51.061 8.63156 51.2081L8.37094 51.4678L5.71875 48.8166L5.97844 48.5559C6.12536 48.4089 6.21926 48.2173 6.2454 48.0111C6.27153 47.8049 6.22841 47.5959 6.12281 47.4169C5.63476 46.5889 5.26552 45.6964 5.02594 44.7656C4.97403 44.5646 4.85684 44.3865 4.69277 44.2592C4.52869 44.1319 4.32701 44.0628 4.11937 44.0625H3.75V40.3125H4.11937C4.32718 40.3125 4.52907 40.2434 4.69333 40.1161C4.8576 39.9888 4.97493 39.8106 5.02688 39.6094C5.26646 38.6786 5.63569 37.7861 6.12375 36.9581C6.22935 36.7791 6.27247 36.5701 6.24634 36.3639C6.2202 36.1577 6.1263 35.9661 5.97937 35.8191L5.71875 35.5584L8.37094 32.9062L8.63156 33.1659C8.77863 33.3131 8.97046 33.4071 9.17685 33.4333C9.38324 33.4594 9.59246 33.4161 9.77156 33.3103C10.5993 32.8221 11.4914 32.4526 12.4219 32.2125C12.6231 32.1606 12.8013 32.0432 12.9286 31.879C13.0559 31.7147 13.1249 31.5128 13.125 31.305V30.9375H16.875V31.3059C16.8751 31.5137 16.9441 31.7156 17.0714 31.8799C17.1987 32.0442 17.3769 32.1615 17.5781 32.2134C18.5086 32.4535 19.4007 32.8231 20.2284 33.3113C20.4075 33.4171 20.6168 33.4603 20.8232 33.4342C21.0295 33.4081 21.2214 33.314 21.3684 33.1669L21.6291 32.9072L24.2812 35.5584L24.0216 35.8191C23.8746 35.9661 23.7807 36.1577 23.7546 36.3639C23.7285 36.5701 23.7716 36.7791 23.8772 36.9581C24.3652 37.7861 24.7345 38.6786 24.9741 39.6094C25.026 39.8106 25.1433 39.9888 25.3076 40.1161C25.4719 40.2434 25.6738 40.3125 25.8816 40.3125H26.25V44.0625ZM44.2678 38.4375L44.4066 38.9916C44.4456 39.1487 44.5247 39.293 44.6361 39.4104C44.7475 39.5279 44.8874 39.6145 45.0422 39.6619C45.4448 39.7845 45.8345 39.9462 46.2056 40.1447C46.3486 40.2207 46.5087 40.2584 46.6706 40.2541C46.8324 40.2499 46.9903 40.2038 47.1291 40.1203L47.6203 39.8259L49.2366 41.4422L48.9412 41.9334C48.8578 42.0725 48.8118 42.2309 48.8078 42.3931C48.8039 42.5553 48.8421 42.7158 48.9188 42.8587C49.117 43.2294 49.2787 43.6184 49.4016 44.0203C49.4487 44.1749 49.5351 44.3147 49.6522 44.426C49.7693 44.5374 49.9132 44.6166 50.07 44.6559L50.625 44.7947V47.0803L50.07 47.2191C49.9132 47.2584 49.7693 47.3376 49.6522 47.449C49.5351 47.5603 49.4487 47.7001 49.4016 47.8547C49.2787 48.2566 49.117 48.6456 48.9188 49.0163C48.8421 49.1592 48.8039 49.3197 48.8078 49.4819C48.8118 49.6441 48.8578 49.8025 48.9412 49.9416L49.2366 50.4328L47.625 52.0491L47.1338 51.7547C46.995 51.6712 46.8371 51.6251 46.6752 51.6209C46.5134 51.6166 46.3532 51.6543 46.2103 51.7303C45.8392 51.9288 45.4495 52.0905 45.0469 52.2131C44.8921 52.2605 44.7522 52.3471 44.6408 52.4646C44.5294 52.582 44.4503 52.7263 44.4113 52.8834L44.2678 53.4375H41.9822L41.8434 52.8834C41.8044 52.7263 41.7253 52.582 41.6139 52.4646C41.5025 52.3471 41.3626 52.2605 41.2078 52.2131C40.8052 52.0905 40.4155 51.9288 40.0444 51.7303C39.9014 51.6543 39.7413 51.6166 39.5794 51.6209C39.4176 51.6251 39.2597 51.6712 39.1209 51.7547L38.6297 52.0491L37.0134 50.4375L37.3088 49.9463C37.3922 49.8071 37.4382 49.6488 37.4422 49.4866C37.4461 49.3244 37.4079 49.1639 37.3312 49.0209C37.133 48.6503 36.9713 48.2613 36.8484 47.8594C36.8013 47.7048 36.7149 47.565 36.5978 47.4537C36.4807 47.3423 36.3368 47.2631 36.18 47.2238L35.625 47.0803V44.7947L36.18 44.6559C36.3368 44.6166 36.4807 44.5374 36.5978 44.426C36.7149 44.3147 36.8013 44.1749 36.8484 44.0203C36.9715 43.6181 37.1332 43.2288 37.3312 42.8578C37.4077 42.7149 37.4458 42.5547 37.4419 42.3927C37.4379 42.2307 37.3921 42.0724 37.3088 41.9334L37.0134 41.4422L38.6297 39.8259L39.1209 40.1203C39.2597 40.2038 39.4176 40.2499 39.5794 40.2541C39.7413 40.2584 39.9014 40.2207 40.0444 40.1447C40.4155 39.9462 40.8052 39.7845 41.2078 39.6619C41.3626 39.6145 41.5025 39.5279 41.6139 39.4104C41.7253 39.293 41.8044 39.1487 41.8434 38.9916L41.9822 38.4375H44.2678ZM40.3125 37.3856L40.1475 38.0419C39.9806 38.1056 39.8138 38.175 39.6488 38.2491L38.9662 37.8403C38.787 37.733 38.577 37.6886 38.3696 37.7142C38.1622 37.7399 37.9693 37.8341 37.8216 37.9819L35.1703 40.6331C35.0223 40.7809 34.928 40.974 34.9023 41.1816C34.8767 41.3892 34.9212 41.5994 35.0287 41.7787L35.4384 42.4594C35.3634 42.6244 35.2931 42.7913 35.2303 42.9591L34.4597 43.1522C34.2568 43.203 34.0767 43.3202 33.9481 43.4852C33.8195 43.6501 33.7498 43.8533 33.75 44.0625H28.125V39.375C28.125 39.1264 28.0262 38.8879 27.8504 38.7121C27.6746 38.5363 27.4361 38.4375 27.1875 38.4375H26.5847C26.3866 37.8215 26.1386 37.2226 25.8431 36.6469L26.2697 36.2213C26.4454 36.0454 26.5442 35.807 26.5442 35.5584C26.5442 35.3098 26.4454 35.0714 26.2697 34.8956L22.2919 30.9178C22.1161 30.7421 21.8777 30.6433 21.6291 30.6433C21.3805 30.6433 21.1421 30.7421 20.9662 30.9178L20.5406 31.3434C19.9645 31.0491 19.3657 30.8014 18.75 30.6028V30C18.75 29.7514 18.6512 29.5129 18.4754 29.3371C18.2996 29.1613 18.0611 29.0625 17.8125 29.0625H12.1875C11.9389 29.0625 11.7004 29.1613 11.5246 29.3371C11.3488 29.5129 11.25 29.7514 11.25 30V30.6028C10.6343 30.8014 10.0355 31.0491 9.45938 31.3434L9.03375 30.9178C8.85794 30.7421 8.61953 30.6433 8.37094 30.6433C8.12235 30.6433 7.88393 30.7421 7.70813 30.9178L6.5625 32.0625V29.8125C9.58677 27.7376 13.2681 26.8465 16.9065 27.3087C20.5449 27.7709 23.8865 29.5542 26.2959 32.3194C26.46 32.5051 26.6908 32.6184 26.9381 32.6344C27.1854 32.6504 27.429 32.5678 27.6156 32.4048C27.8021 32.2417 27.9166 32.0114 27.9339 31.7642C27.9512 31.517 27.8699 31.2731 27.7078 31.0856C26.2943 29.4787 24.5876 28.1558 22.6791 27.1875H40.3125V37.3856ZM44.0625 25.3125V15.9375H45.9375V25.3125H44.0625Z" fill="#005CCE"/>
<path d="M51.5625 30C50.5679 30 49.6141 30.3951 48.9109 31.0984C48.2076 31.8016 47.8125 32.7554 47.8125 33.75C47.8125 34.7446 48.2076 35.6984 48.9109 36.4016C49.6141 37.1049 50.5679 37.5 51.5625 37.5H52.5C52.7486 37.5 52.9871 37.4012 53.1629 37.2254C53.3387 37.0496 53.4375 36.8111 53.4375 36.5625V30.9375C53.4375 30.6889 53.3387 30.4504 53.1629 30.2746C52.9871 30.0988 52.7486 30 52.5 30H51.5625ZM51.5625 35.625C51.0652 35.625 50.5883 35.4275 50.2367 35.0758C49.885 34.7242 49.6875 34.2473 49.6875 33.75C49.6875 33.2527 49.885 32.7758 50.2367 32.4242C50.5883 32.0725 51.0652 31.875 51.5625 31.875V35.625Z" fill="#005CCE"/>
<path d="M37.5 30H32.8125V31.875H37.5V30Z" fill="#005CCE"/>
<path d="M37.5 33.75H32.8125V35.625H37.5V33.75Z" fill="#005CCE"/>
<path d="M30 23.4375C30.1461 23.4375 30.2902 23.4034 30.4208 23.3378C30.5514 23.2722 30.6649 23.177 30.7521 23.0598C30.8394 22.9426 30.898 22.8066 30.9234 22.6627C30.9487 22.5188 30.9401 22.3709 30.8981 22.2309L28.0856 12.8559C28.0277 12.6627 27.9091 12.4934 27.7473 12.3729C27.5855 12.2525 27.3892 12.1875 27.1875 12.1875H13.125C12.8764 12.1875 12.6379 12.2863 12.4621 12.4621C12.2863 12.6379 12.1875 12.8764 12.1875 13.125V22.5C12.1875 22.7486 12.2863 22.9871 12.4621 23.1629C12.6379 23.3387 12.8764 23.4375 13.125 23.4375H30ZM14.0625 14.0625H26.49L28.74 21.5625H14.0625V14.0625ZM15 34.6875C13.5166 34.6875 12.0666 35.1274 10.8332 35.9515C9.59986 36.7756 8.63856 37.9469 8.07091 39.3174C7.50325 40.6878 7.35472 42.1958 7.64411 43.6507C7.9335 45.1055 8.64781 46.4419 9.6967 47.4908C10.7456 48.5397 12.082 49.254 13.5368 49.5434C14.9917 49.8328 16.4997 49.6843 17.8701 49.1166C19.2406 48.5489 20.4119 47.5876 21.236 46.3543C22.0601 45.1209 22.5 43.6709 22.5 42.1875C22.4978 40.1991 21.7069 38.2927 20.3008 36.8867C18.8948 35.4806 16.9884 34.6897 15 34.6875ZM15 47.8125C13.8875 47.8125 12.7999 47.4826 11.8749 46.8645C10.9499 46.2464 10.2289 45.3679 9.80318 44.3401C9.37744 43.3123 9.26604 42.1813 9.48309 41.0901C9.70013 39.999 10.2359 38.9967 11.0225 38.21C11.8092 37.4234 12.8115 36.8876 13.9026 36.6706C14.9938 36.4535 16.1248 36.5649 17.1526 36.9907C18.1804 37.4164 19.0589 38.1374 19.677 39.0624C20.2951 39.9874 20.625 41.075 20.625 42.1875C20.6235 43.6789 20.0304 45.1088 18.9758 46.1633C17.9213 47.2179 16.4914 47.811 15 47.8125Z" fill="#005CCE"/>
<path d="M17.8125 41.25H12.1875V43.125H17.8125V41.25Z" fill="#005CCE"/>
<path d="M38.4375 45.9375C38.4375 46.8646 38.7124 47.7709 39.2275 48.5417C39.7426 49.3126 40.4746 49.9134 41.3312 50.2682C42.1877 50.623 43.1302 50.7158 44.0395 50.5349C44.9488 50.3541 45.784 49.9076 46.4396 49.2521C47.0951 48.5965 47.5416 47.7613 47.7224 46.852C47.9033 45.9427 47.8105 45.0002 47.4557 44.1437C47.1009 43.2871 46.5001 42.5551 45.7292 42.04C44.9584 41.5249 44.0521 41.25 43.125 41.25C41.8823 41.2515 40.6908 41.7458 39.8121 42.6246C38.9333 43.5033 38.439 44.6948 38.4375 45.9375ZM43.125 43.125C43.6813 43.125 44.225 43.29 44.6875 43.599C45.1501 43.908 45.5105 44.3473 45.7234 44.8612C45.9363 45.3751 45.992 45.9406 45.8835 46.4862C45.7749 47.0318 45.5071 47.5329 45.1137 47.9262C44.7204 48.3196 44.2193 48.5874 43.6737 48.696C43.1281 48.8045 42.5626 48.7488 42.0487 48.5359C41.5348 48.323 41.0955 47.9626 40.7865 47.5C40.4775 47.0375 40.3125 46.4938 40.3125 45.9375C40.3125 45.1916 40.6088 44.4762 41.1363 43.9488C41.6637 43.4213 42.3791 43.125 43.125 43.125Z" fill="#005CCE"/>
<path d="M44.0625 45H42.1875V46.875H44.0625V45Z" fill="#005CCE"/>
</svg>
