<svg width="60" height="60" viewBox="0 0 60 60" fill="none" xmlns="http://www.w3.org/2000/svg">
<g clip-path="url(#clip0_1_3269)">
<path d="M42.5089 38.156H41.2225V36.2582H42.5089C43.345 36.2582 44.1313 35.9318 44.7232 35.3402C45.3154 34.7486 45.6412 33.962 45.6412 33.1256V24.4079H43.3525V22.5098H47.5393V33.1256C47.5393 34.4687 47.0158 35.7323 46.0654 36.6821C45.1147 37.6328 43.8517 38.156 42.5089 38.156ZM18.7735 38.156H17.4871C16.1443 38.156 14.8813 37.6331 13.9309 36.6824C12.9808 35.7326 12.457 34.4687 12.457 33.1259V22.5098H16.6435V24.4079H14.3551V33.1256C14.3551 33.962 14.6809 34.7486 15.2728 35.3402C15.8647 35.9318 16.651 36.2582 17.4871 36.2582H18.7735V38.156Z" fill="#005CCE"/>
<path d="M40.4439 34.2006C39.6471 33.4041 38.6028 33.0054 37.5582 33.0054H22.4364C21.3918 33.0054 20.3475 33.4041 19.5504 34.2006C18.7539 34.9971 18.3555 36.042 18.3555 37.0863V41.4063H41.6388V37.0863C41.6391 36.042 41.241 34.9971 40.4439 34.2006ZM39.741 39.5085H20.2536V37.0863C20.2536 36.5034 20.4804 35.9547 20.8923 35.5425C21.3051 35.1297 21.8535 34.9032 22.4361 34.9032H37.5579C38.1408 34.9032 38.6892 35.1297 39.1014 35.5416C39.5139 35.9544 39.7407 36.5031 39.7407 37.086V39.5085H39.741ZM40.4439 1.1955C39.6471 0.3984 38.6031 0 37.5582 0H22.4364C21.3918 0 20.3475 0.3984 19.5504 1.1955C18.7539 1.992 18.3555 3.0363 18.3555 4.0809V26.4114C18.3555 27.4554 18.7539 28.4997 19.5504 29.2968C20.3475 30.0939 21.3918 30.492 22.4364 30.492H37.5582C38.6028 30.492 39.6471 30.0939 40.4439 29.2968C41.2407 28.4997 41.6388 27.4557 41.6388 26.4114V4.0809C41.6391 3.0363 41.241 1.992 40.4439 1.1955ZM39.741 26.4114C39.741 26.9943 39.5142 27.5424 39.1023 27.9549C38.6898 28.3668 38.1417 28.5942 37.5585 28.5942H22.4364C21.8532 28.5942 21.3048 28.3668 20.8929 27.9549C20.4804 27.5424 20.2536 26.9943 20.2536 26.4114V4.0809C20.2536 3.498 20.4804 2.9496 20.8923 2.5374C21.3048 2.1255 21.8529 1.8981 22.4361 1.8981H37.5579C38.1411 1.8981 38.6892 2.1255 39.1017 2.5374C39.5136 2.9499 39.7404 3.498 39.7404 4.0809V26.4114H39.741Z" fill="#005CCE"/>
<path d="M30.9489 43.5156H29.0508V53.0025H30.9489V43.5156Z" fill="#005CCE"/>
<path d="M30.9489 30.4919H29.0508V33.0053H30.9489V30.4919Z" fill="#005CCE"/>
<path d="M42.5906 53.0025H40.6925C40.6925 52.1664 40.3667 51.3798 39.7752 50.7873C39.1838 50.1957 38.3972 49.8702 37.5605 49.8702H22.4387C21.602 49.8702 20.8155 50.1957 20.2239 50.7873C19.6329 51.3798 19.3068 52.1664 19.3068 53.0025H17.4086C17.4086 51.6597 17.9318 50.3961 18.8813 49.4454C19.832 48.4956 21.0953 47.9727 22.4384 47.9727H37.5603C38.9037 47.9727 40.1666 48.4956 41.117 49.4454C42.0674 50.3958 42.5906 51.6597 42.5906 53.0025ZM29.9996 60C28.4411 60 27.173 58.7322 27.173 57.1734C27.173 55.6158 28.4411 54.3477 29.9996 54.3477C31.5578 54.3477 32.8256 55.6158 32.8256 57.1734C32.8256 58.7322 31.5578 60 29.9996 60ZM29.9996 56.2458C29.4875 56.2458 29.0711 56.6619 29.0711 57.1734C29.0711 57.6852 29.4875 58.1019 29.9996 58.1019C30.5111 58.1019 30.9278 57.6852 30.9278 57.1734C30.9278 56.6619 30.5111 56.2458 29.9996 56.2458ZM18.3579 60C16.7991 60 15.5312 58.7322 15.5312 57.1734C15.5312 55.6158 16.7991 54.3477 18.3579 54.3477C19.916 54.3477 21.1838 55.6158 21.1838 57.1734C21.1838 58.7322 19.916 60 18.3579 60ZM18.3579 56.2458C17.8458 56.2458 17.4293 56.6619 17.4293 57.1734C17.4293 57.6852 17.8458 58.1019 18.3579 58.1019C18.8694 58.1019 19.2858 57.6852 19.2858 57.1734C19.2861 56.6619 18.8694 56.2458 18.3579 56.2458ZM41.6414 60C40.0832 60 38.8154 58.7322 38.8154 57.1734C38.8154 55.6158 40.0832 54.3477 41.6414 54.3477C43.1999 54.3477 44.468 55.6158 44.468 57.1734C44.468 58.7322 43.1999 60 41.6414 60ZM41.6414 56.2458C41.1299 56.2458 40.7135 56.6619 40.7135 57.1734C40.7135 57.6852 41.1299 58.1019 41.6414 58.1019C42.1535 58.1019 42.5699 57.6852 42.5699 57.1734C42.5696 56.6619 42.1535 56.2458 41.6414 56.2458Z" fill="#005CCE"/>
<path d="M32.8268 44.4645H27.1748V41.4062H29.0729V42.5667H30.929V41.4062H32.8268V44.4645Z" fill="#005CCE"/>
</g>
<defs>
<clipPath id="clip0_1_3269">
<rect width="60" height="60" fill="white"/>
</clipPath>
</defs>
</svg>
