<svg width="90" height="60" viewBox="0 0 90 60" fill="none" xmlns="http://www.w3.org/2000/svg">
<g clip-path="url(#clip0_1_3350)">
<path d="M0 59.9993V58.9993V-0.000732422H90V59.9993H0ZM2 57.9993H88V1.99927H2V57.9993Z" fill="#005CCE"/>
<path d="M31.1988 27.3959L31.37 27.3856L31.6565 27.805C32.093 28.6394 32.4181 29.5338 32.8162 30.3939L32.7351 29.3215L32.7388 28.3373L33.1197 28.2089L33.1584 28.5382C33.2994 29.8049 33.6718 31.0458 34.2282 32.1969C35.161 34.1183 36.6073 35.7914 38.3875 36.9725C40.2874 38.2434 42.5639 38.9281 44.8534 38.9195L44.969 39.2235L44.5968 39.4501L43.9249 39.9679L43.634 39.6256L42.5898 39.2233C42.1619 39.1422 41.7382 39.0823 41.3146 39.0566L40.4674 39.0463L40.2235 38.9395C39.4961 38.3019 38.79 37.6344 37.9342 37.1765L37.4251 37.0184L37.0656 36.991L36.7061 36.7085C36.2226 36.2336 35.9231 35.6131 35.5507 35.044C35.2728 34.5989 34.9431 34.1967 34.5665 33.8244L33.5395 32.9643L33.4625 33.1053L32.9619 33.0666L33.1631 33.7L33.4541 33.9824L33.3942 34.2521L32.9022 34.2908L33.544 34.9712L34.0061 35.3178L33.9961 35.5061L33.5468 35.5198L33.7351 35.7337L34.8006 36.2087L34.9588 36.3114L34.9416 36.4354L34.6123 36.5381L35.1344 36.8932L35.0916 37.0558L34.7193 37.2055L35.6736 37.6847L35.7078 37.8473L35.4126 38.0185L35.8107 38.1982L36.3712 38.2622L36.41 38.5446L36.0204 38.8226L36.9533 39.3062C37.5653 39.58 38.1901 39.8282 38.8447 39.9737C39.3882 40.1062 39.9488 40.1192 40.5051 40.1021L40.8347 40.1261L40.6893 40.3058L39.8591 40.4728C39.1059 40.5115 38.3571 40.353 37.634 40.1562C36.6625 39.8909 35.7511 39.4715 34.861 39.0136L34.5786 38.8038L34.5992 38.6542L34.9415 38.5429L33.7776 38.329L33.568 38.1921L33.6878 37.9439L34.197 37.8281L33.7092 37.67L33.1615 37.4646L33.0204 37.2119L33.2345 37.1133L33.8891 37.0576L33.7054 36.9549L32.6356 36.7067L32.3189 36.4198L32.3226 36.2616L32.515 36.1805L33.3752 36.2274L33.1013 36.0134L32.331 35.6583L31.257 34.811L30.9146 34.3232L30.9616 34.062H31.2782C31.7018 34.1859 32.0655 34.43 32.4678 34.6054C31.7832 33.9935 31.0685 33.4115 30.4694 32.7269L29.9346 31.8496V31.7343L30.0074 31.5888L30.2258 31.6357L30.6281 31.9311C31.0603 32.3077 31.4711 32.7142 31.9203 33.0779L32.4082 33.3819L32.1001 32.8984C31.6123 32.188 31.1288 31.4777 30.7008 30.7288C30.4098 30.1939 30.1275 29.6505 30.0077 29.0514L30.0932 28.3411L30.367 28.5595C30.9533 29.4453 31.4197 30.4081 32.0316 31.2853L32.4638 31.7389L32.3783 31.4222C32.0316 30.464 31.6337 29.5184 31.3384 28.5384L31.1502 27.6655L31.197 27.396L31.1988 27.3959ZM49.197 40.9994L49.4366 40.9223L50.0785 41.0124C50.9557 41.098 51.8329 41.1192 52.7187 41.1534L53.5874 41.2174L53.6943 41.2818L53.2791 42.0991C52.8812 42.3086 52.4104 42.3216 51.974 42.2788L51.8627 42.7709L51.4733 42.9722L50.6047 42.8781L50.1596 43.2846L49.6461 43.1607L48.8887 43.5715L48.4265 43.5201L47.8403 43.8327L47.3439 43.6485L46.7449 43.9737H46.5439L46.2272 43.6697L45.778 43.8495L45.2131 43.781L45.0036 43.7467L44.3017 43.8625L44.0365 43.6742L43.4631 43.8796L43.0394 43.7512L43.0357 43.3746L43.4465 43.0368L44.1184 42.4847L44.2725 42.4461C45.047 42.5145 45.8344 42.5275 46.6003 42.3735C47.0368 42.2835 47.4734 42.151 47.8755 41.9499L48.1624 41.8471L48.6974 41.878L48.7442 41.6856L48.9326 41.5829L49.1334 41.3518L49.1978 41.0009" fill="#005CCE"/>
<path d="M42.4363 41.7954L42.0985 41.9878L41.8588 41.9741L41.855 41.73L42.2016 41.5332L42.4453 41.5365L42.4391 41.7933L42.4363 41.7954ZM59.1208 31.136C59.4759 30.584 59.8226 30.0106 60.0109 29.3815L60.0667 28.7996L59.9896 28.5469L59.8572 28.5675L59.6216 28.8499C58.9028 29.9068 58.308 31.0323 57.5505 32.055L57.114 32.4957L57.3749 31.8025C57.8071 30.7455 58.2778 29.7014 58.6416 28.6188L58.8641 27.7244L58.7272 27.4249L58.4618 27.6344L57.9355 28.6743C57.6486 29.2905 57.392 29.9109 57.0925 30.5186C57.0925 29.8468 57.1653 29.1792 57.1312 28.5074L57.0582 28.2335L56.7375 28.2095L56.7032 28.4492C56.5491 30.3277 55.8046 32.1335 54.7005 33.6484C53.7634 34.9535 52.5738 36.0661 51.2431 36.9562C49.7625 37.9404 48.0807 38.6807 46.3048 38.9289L45.3635 39.237C44.9698 39.4383 44.6061 39.712 44.2295 39.9516L43.1939 40.5164C42.706 40.6876 42.2011 40.8331 41.7689 41.1198L40.8233 42.0612L40.8333 42.5961L41.0558 42.8015L41.2314 42.4463L41.3214 42.4258L41.4584 42.5326L41.8819 42.3957L42.2457 42.3717C43.5851 42.3118 44.9373 42.2478 46.2767 42.2005L47.1453 41.9695L47.2481 41.8541L47.0814 41.7343L46.4523 41.7548C45.4681 41.7072 44.4797 41.8784 43.4955 41.8442L43.3625 41.7329L43.966 41.0269L43.4053 41.0304L42.9218 41.1844L43.2684 40.9407C43.8462 40.594 44.441 40.3074 45.0485 40.0121L45.8146 39.6824C46.5249 39.4599 47.2566 39.3101 47.9926 39.1946C48.3949 39.1388 48.8057 39.096 49.208 39.0748L49.5974 38.9591C50.1964 38.2915 50.9239 37.7138 51.7754 37.3758C52.152 37.2176 52.5628 37.1019 52.9522 36.9479L53.5085 36.3744C53.7823 36.0022 54.0006 35.5914 54.2488 35.202C54.6168 34.6114 55.0575 34.0594 55.5925 33.6229L56.1915 33.2678L56.3155 33.4947L56.7135 33.2979C56.7135 33.6873 56.4566 34.004 56.354 34.3677L56.3968 34.6416L56.9017 34.6107L56.1743 35.4794L56.1435 35.7149L56.5543 35.6841L56.3447 35.9364L55.3349 36.4927L55.2493 36.6598L55.4632 36.8265L54.7229 37.2459L54.6243 37.3828L54.7743 37.5841L54.0811 37.8152L53.8969 37.935L53.9482 38.2557L53.7816 38.4399L53.4649 38.4786L53.3878 38.697L53.5847 38.9921L53.2381 39.0863L52.4977 39.4543L51.9586 39.6384L51.0642 39.8308L50.0972 40.0105L49.9389 40.1173L50.1403 40.2201C50.7736 40.2474 51.4069 40.143 52.036 40.0489C52.7249 39.9421 53.4138 39.8178 54.0813 39.6081L54.9972 39.3213L55.2837 39.1028L55.1598 38.9488L54.7019 38.7989L55.1854 38.6876L56.0284 38.5466L56.0626 38.247L55.5235 38.08L56.2894 37.9132L56.8886 37.6907L56.8748 37.4381L56.3442 37.3354L56.5153 37.2025L57.4482 36.8388L57.6749 36.4837L57.5253 36.3553L56.9134 36.3724L57.3158 36.154L58.0176 35.6961L58.7237 35.0927L59.0619 34.6135L59.0191 34.3311L58.7237 34.3653L57.9705 34.7761L57.3843 35.05L57.5681 34.7761L58.6592 33.7491C59.0059 33.4025 59.3482 33.0601 59.6349 32.6622L59.8916 32.1016L59.7075 31.8404L59.2325 32.0629C58.7361 32.4309 58.3082 32.876 57.8246 33.2654L57.4182 33.5221L57.8332 32.9273C58.2825 32.3454 58.719 31.7548 59.1212 31.1343L59.1208 31.136ZM45.038 18.7777L44.516 18.2215L45.038 16.0262L45.5644 18.2215L45.038 18.7777ZM43.6045 18.919L42.984 18.4739L43.0655 16.2188L44.0155 18.2685L43.6047 18.919H43.6045ZM42.2267 19.334L41.5291 19.0174L41.174 16.7922L42.4963 18.6194L42.2265 19.334H42.2267ZM40.9557 20.0101L40.2068 19.839L39.428 17.7251L41.0799 19.257L40.956 20.0101H40.9557ZM39.8431 20.9216L39.0772 20.9011L37.8961 18.9797L39.8174 20.1608L39.8415 20.9225L39.8431 20.9216ZM38.9274 22.0385L38.1742 22.1668L36.6381 20.5065L38.752 21.2896L38.9272 22.0385H38.9274ZM38.247 23.3051L37.5281 23.5749L35.7009 22.2526L37.9304 22.6078L38.247 23.3053V23.3051ZM37.8277 24.6787L37.1729 25.0852L35.1276 24.1481L37.3827 24.0581L37.8277 24.6786V24.6787ZM37.6822 26.1165L37.1216 26.6428L34.9307 26.1165L37.1216 25.5945L37.6822 26.1165V26.1165ZM37.8234 27.5458L37.3741 28.1705L35.1232 28.0894L37.1687 27.1394L37.8234 27.5459V27.5458ZM38.2342 28.9279L37.926 29.6297L35.6967 29.9763L37.5239 28.6541L38.2342 28.9279ZM38.9102 30.1988L38.7433 30.9434L36.6293 31.7265L38.1612 30.0705L38.9101 30.1988H38.9102ZM39.8261 31.3114L39.802 32.0774L37.8807 33.2585L39.0618 31.3371L39.8277 31.3131L39.8261 31.3114ZM40.9429 32.2272L41.0627 32.9846L39.4109 34.5208L40.1898 32.4026L40.9429 32.2273V32.2272ZM42.2095 32.9118L42.4792 33.6265L41.157 35.4537L41.5122 33.2242L42.2098 32.9117L42.2095 32.9118ZM43.5831 33.3312L43.9939 33.9816L43.0482 36.0271L42.9626 33.7719L43.5831 33.3312ZM45.0209 33.4724L45.543 34.033L45.0209 36.2282L44.4946 34.033L45.0209 33.4724ZM46.4502 33.3355L47.0793 33.7805L46.9891 36.0356L46.0435 33.9859L46.45 33.3355" fill="#005CCE"/>
<path d="M47.8264 32.9161L48.5325 33.2328L48.8833 35.4622L47.5568 33.6307L47.8266 32.9161H47.8264ZM49.1016 32.24L49.8504 32.4112L50.6293 34.5294L48.9732 32.9974L49.1016 32.24ZM50.2184 31.3286L50.9844 31.3491L52.1612 33.2704L50.2398 32.0937L50.2193 31.3277L50.2184 31.3286ZM51.1298 30.216L51.8874 30.092L53.4193 31.7481L51.3011 30.965L51.1298 30.2161V30.216ZM51.8145 28.945L52.5292 28.6753L54.3564 30.0018L52.1227 29.6467L51.8145 28.9449V28.945ZM52.2339 27.5672L52.8843 27.1649L54.934 28.102L52.6747 28.1921L52.2339 27.5673V27.5672ZM52.3751 26.1422L52.9358 25.6073L55.1267 26.1422L52.9358 26.6643L52.3751 26.1422ZM52.2382 24.7044L52.6789 24.0796L54.9383 24.1693L52.8843 25.1108L52.2382 24.7042V24.7044ZM51.8231 23.3265L52.1357 22.629L54.3652 22.2738L52.5336 23.5961L51.8233 23.3263L51.8231 23.3265ZM51.1427 22.0513L51.314 21.3067L53.4278 20.5237L51.9001 22.1797L51.1427 22.0513ZM50.2313 20.9387L50.2518 20.1685L52.1775 18.996L50.9964 20.913L50.2304 20.9404L50.2313 20.9387ZM49.1229 20.023L48.9901 19.2699L50.6505 17.7379L49.8674 19.8518L49.1228 20.023H49.1229ZM47.8478 19.3426L47.578 18.628L48.9002 16.8008L48.5451 19.0302L47.8476 19.3424L47.8478 19.3426ZM46.4741 18.9232L46.0633 18.2728L47.0091 16.2231L47.0991 18.4782L46.4744 18.9232H46.4741ZM51.498 26.1294C51.498 29.6982 48.601 32.5909 45.0278 32.5909C41.4589 32.5909 38.5662 29.6982 38.5662 26.1294C38.5662 22.5605 41.4589 19.6593 45.0278 19.6593C48.601 19.6593 51.498 22.5605 51.498 26.1294ZM10.478 18.1175L10.1703 18.6902L9.32845 18.9336L8.71733 18.5575L8.60208 18.0746L8.80283 17.8011L9.1362 17.7976L9.35395 18.0239L9.3112 18.4556L9.7257 18.0752L9.75645 17.8103L10.248 17.5238L10.0001 17.3186L9.7522 17.2544L9.71808 16.8698L9.31208 16.5877L9.35483 16.9937L9.1797 17.1858L8.64133 17.2416L8.1157 17.5191C8.10195 16.9893 8.08833 16.4636 8.07695 15.9337L8.17958 15.6688L8.58133 15.545L9.12833 15.6264L8.71808 14.9982L7.91458 14.8529L8.25645 14.464L8.14983 13.793L7.67545 13.199L7.29083 13.6307L7.0902 14.4212L7.43208 14.8529L6.65858 14.9855L6.2227 15.6265L6.9577 15.5667L7.2442 15.7677L7.27495 16.0327C7.26133 16.5327 7.25108 17.0241 7.23633 17.5198L6.67645 17.2378L6.17658 17.191L5.99708 17.0029L6.03983 16.5884L5.6252 16.8875L5.59108 17.2551L5.1082 17.5245L5.59108 17.8109L5.65495 18.1313L6.03958 18.4646L6.01908 17.9689L6.30558 17.7768L6.6517 17.8708L6.7502 18.281L6.3912 18.7853L5.63483 18.9135L5.00658 18.499L4.86983 17.8537L5.04933 17.2084C5.7417 15.7298 6.4382 14.2597 7.13483 12.7854L7.67758 11.6474C8.55358 13.485 9.42108 15.3354 10.2886 17.1773L10.4807 18.1174L10.478 18.1175ZM6.16183 19.6132L7.17033 19.1645L7.66608 18.4936L7.80695 18.7541C8.11458 19.2242 8.64458 19.5319 9.19583 19.6131L8.3027 19.9635L7.67445 20.7284L7.53358 20.4635C7.23445 19.9934 6.70883 19.6985 6.16183 19.6131V19.6132ZM10.29 20.6602L10.4866 21.2243L10.2986 22.0235C9.43095 23.8781 8.5507 25.7285 7.67458 27.5832C7.31995 26.8525 6.98233 26.1174 6.63195 25.3867C6.11483 24.2841 5.59345 23.1858 5.08058 22.0833L4.86695 21.126L5.2217 20.5021L6.02083 20.297L6.55495 20.5705L6.7557 21.0534L6.58058 21.4081L6.2217 21.4286L6.01245 21.2406L6.03983 20.7619L5.64658 21.1038L5.59083 21.4159L5.10795 21.6935L5.37295 21.9243L5.5952 21.967L5.62595 22.3346L6.0362 22.6381L6.01908 22.1681L6.37383 22.0016L7.00195 21.8949L7.23683 21.7069C7.25058 22.2026 7.2642 22.694 7.27545 23.1983L7.2287 23.4804L6.89945 23.6684L6.2242 23.5956L6.6687 24.2451L7.43358 24.3733L7.12183 24.681L7.13545 25.2537L7.46883 25.8434L7.67833 26.0273L8.1357 25.4675L8.26383 24.7838L7.9177 24.3735L8.70395 24.2327L9.13133 23.5959L8.4177 23.6602L8.12295 23.4807L8.0802 23.2499C8.09395 22.7328 8.10758 22.22 8.11895 21.7072L8.66595 21.9852L9.19583 22.0405L9.3667 22.2884L9.31545 22.6431L9.72145 22.3525L9.75558 21.9722L9.99083 21.9123L10.2513 21.6942L9.75995 21.4166L9.69558 21.0833L9.31533 20.763L9.35808 21.2031L9.15295 21.4253L8.76833 21.4048L8.59733 21.0288L8.82808 20.5459L9.58458 20.2939L10.294 20.6614L10.29 20.6602ZM8.52508 29.9464L8.76845 30.0063C8.3197 30.0576 7.91383 30.3311 7.6702 30.7157L6.78133 30.049L6.5847 29.9933C7.03345 29.9461 7.43083 29.6729 7.67445 29.2967L8.52483 29.9463L8.52508 29.9464ZM10.2857 37.9549L10.4696 38.9549L9.94395 39.613L9.26458 39.6899L8.6492 39.2241L8.62858 38.7711L8.88508 38.5575L9.2312 38.6258L9.36795 38.9164L9.3122 39.2412L9.71395 38.8737L9.7567 38.5917L10.2481 38.3052L9.7567 38.0358L9.73608 37.6983L9.31308 37.3609L9.36433 37.7113L9.2317 37.938L8.92808 38.0019L8.32133 38.1216L8.1162 38.2925C8.10245 37.7669 8.08883 37.2412 8.07758 36.7156L8.21833 36.4209L8.58158 36.3224L9.12858 36.4079L8.84208 35.8737L8.42333 35.66L7.91908 35.6293L8.26945 35.1421L8.0517 34.39L7.6757 33.9797L7.38508 34.2662L7.10295 34.826L7.12008 35.3218L7.43195 35.6295L6.91483 35.6636L6.47033 35.9201L6.22245 36.4072L6.93195 36.3389L7.24408 36.5399L7.27483 36.7877C7.26108 37.292 7.25083 37.8006 7.2362 38.2963L6.89008 38.0611L6.34295 38.0012L6.0182 37.8217L6.03533 37.3645L5.62083 37.6763L5.59008 38.0352L5.10708 38.3087L5.59858 38.5952L5.64983 38.8988L6.0387 39.2407L5.99158 38.8219L5.90608 38.7706L5.93345 38.5997L6.18983 38.4588L6.49758 38.4035L6.6172 38.4804V38.613L6.7112 39.207L6.15145 39.6771L5.21983 39.5021L4.86508 38.8611L5.0487 37.985C5.7367 36.5192 6.42895 35.0534 7.12133 33.5876C7.30933 33.1987 7.48883 32.8098 7.67683 32.421C8.55295 34.2628 9.42045 36.1089 10.288 37.9551L10.2857 37.9549ZM6.16183 40.3908L7.1832 39.9335L7.67033 39.2711L7.88408 39.6301C8.1917 40.0489 8.67883 40.3139 9.1917 40.3908L8.26858 40.7668L7.67458 41.519L7.13195 40.8096L6.16183 40.3908ZM10.0891 41.2583L10.4481 41.7326L10.4518 42.3395L10.2895 42.8095C9.4262 44.6642 8.5502 46.5104 7.67408 48.3608C7.43033 47.8693 7.20408 47.3693 6.9647 46.8693C6.3622 45.6001 5.7682 44.3309 5.16995 43.066L4.90933 42.4164V41.6985L5.37095 41.1899L6.14008 41.1044L6.71708 41.6173L6.68283 42.0916L6.39633 42.2325L6.02883 42.0574L6.03883 41.5446L5.64145 41.9036L5.5902 42.1942L5.1072 42.4762L5.39783 42.7114L5.59445 42.7542L5.6327 43.1302L6.03445 43.4208L6.0037 42.9849L6.22145 42.8014L6.74283 42.7542L7.2342 42.4807C7.24795 43.0106 7.26495 43.5405 7.27283 44.0661L7.13195 44.3567L6.68333 44.4593L6.2217 44.3738L6.46558 44.8567L6.91845 45.1261L7.40145 45.1535L7.20933 45.32L7.08958 45.8926L7.51695 46.6789L7.67495 46.8027L7.97408 46.5076L8.2687 45.6188L7.91833 45.1487L8.46958 45.11L8.87983 44.8666L9.1277 44.3752L8.4867 44.4565L8.17045 44.3239L8.07645 44.0463C8.09008 43.5292 8.10383 43.0078 8.11508 42.4865L8.57658 42.7559L9.11083 42.7986L9.34595 42.9908L9.31183 43.4224L9.71783 43.1359L9.75195 42.7555L10.2477 42.4779L9.7562 42.1914L9.69645 41.8793L9.31183 41.546L9.34595 41.9947L9.1197 42.2128L8.71795 42.153L8.61983 41.6615L9.1882 41.1188L10.09 41.2597L10.0891 41.2583ZM8.69595 50.7582L8.79445 50.8009L8.06795 51.083L7.67483 51.4761L7.1022 50.9847L6.53383 50.7925L6.91845 50.6941L7.67483 50.0744C7.89695 50.4291 8.27733 50.6984 8.6962 50.7582H8.69595ZM8.3757 54.6129L8.4697 55.1299L8.3117 55.3009L7.88858 55.1597L7.67495 55.0058L7.1707 55.2923L6.93133 55.2496L6.87595 55.0017L7.06408 54.365C7.25208 53.9035 7.47858 53.4633 7.66658 53.0018L7.7777 53.2366C7.97433 53.6939 8.20933 54.1383 8.37595 54.6127L8.3757 54.6129ZM6.89708 9.30564L6.53808 9.21573L7.35433 8.86958L7.67458 8.52343L8.43533 9.09608L8.79858 9.20718L8.70858 9.24136C8.28558 9.3012 7.9052 9.56616 7.67445 9.92941L6.8967 9.30547L6.89708 9.30564ZM7.06383 5.63902L6.88883 5.0621L6.92295 4.76295L7.16645 4.70724L7.67495 4.99782L8.15358 4.71577L8.41408 4.74996L8.46983 5.03201L8.2647 5.68585C8.10233 6.07919 7.91433 6.45951 7.74333 6.85268L7.67058 7.01096C7.48245 6.54943 7.24745 6.10072 7.0637 5.63919L7.06383 5.63902ZM10.8458 19.0833L11.1833 18.2756V17.8184C11.1628 17.4167 11.0038 17.0406 10.8201 16.6816C9.9697 14.921 9.12783 13.156 8.27308 11.3954L8.15783 10.6902L8.59808 9.97656L9.3672 9.85281L9.97833 10.3998L10.0256 10.9896L9.69633 11.5024L9.20058 11.5496L8.90145 11.2761L8.92195 10.9769L9.31945 10.9906L9.35358 11.3239L9.5502 11.1831L9.58433 10.9055L9.90058 10.7089L9.5802 10.5294L9.56658 10.2518L9.3272 10.0938L9.36145 10.3673L9.0322 10.3537L8.55358 10.6484L8.46808 11.2467L8.85695 11.9005L9.63045 12.0502L9.36558 12.516L9.6602 12.4521L9.49345 12.7854L9.4507 13.0805L9.74133 12.9437L9.91633 12.9608L9.82645 13.26L10.1256 14.1189L10.9118 14.5292L10.4461 13.6189L10.4118 13.0676L10.4928 12.2899C10.5742 11.8668 10.7367 11.4608 10.7793 11.0335L10.7555 10.401L10.4905 9.88821L10.204 9.6017L10.7168 9.22991L10.5458 9.02889L10.11 8.8795L10.5545 8.49062L10.8023 7.66582L10.7425 7.04618L10.4861 6.03336L10.4132 5.28979L10.5456 4.66159L10.9045 3.9522H10.8618L10.2848 4.16586L9.84895 4.73852L9.8527 5.465L9.4852 5.34979L9.6562 5.91388L9.30145 5.89336L9.6732 6.44037L8.90833 6.5214C8.51083 6.73951 8.3442 7.26499 8.51083 7.6795L8.94245 8.06839L9.3527 7.98737L9.31858 8.37625L9.56645 8.21385L9.58008 7.92737L9.96045 7.74377L9.80245 7.61558L9.58033 7.5643L9.6042 7.32053L9.36895 7.07268V7.42738L9.21108 7.56413L8.9417 7.47421L9.01445 7.05114L9.39908 6.90174L9.9332 7.15405L10.0871 7.78224L9.89908 8.25659L9.2367 8.55129L8.7282 8.52053L8.33495 8.26411L8.17258 7.75985L8.32645 7.11028C8.49733 6.65301 8.71533 6.21713 8.89908 5.76842L9.1767 4.98638L9.11683 4.465L8.48433 4.06758L7.67245 4.311L7.31345 4.12296L6.68958 4.10929L6.17245 4.60074L6.2452 5.27167C6.49308 5.98107 6.87345 6.6349 7.0957 7.34856L7.11283 8.09216L6.6897 8.49385L5.9162 8.51096L5.35208 8.1306L5.27933 7.48959L5.5442 7.01952L6.07845 6.91285L6.39883 7.15627L6.39133 7.48959L6.13045 7.56242L5.97245 7.40411L5.9862 7.0708L5.75545 7.28446L5.76908 7.56651L5.55545 7.60924L5.38858 7.74191L5.76895 7.92548V8.19489L6.02945 8.37437L5.99083 7.98549L6.37108 8.07095L6.80708 7.72908C7.0252 7.31028 6.8412 6.73336 6.42245 6.51114L5.67883 6.43832L6.04633 5.89131L5.68733 5.91183L5.85833 5.34774L5.49083 5.45884L5.27308 4.34776L4.4867 3.95032H4.44395C4.67033 4.31783 4.86283 4.71954 4.92683 5.15543L4.8882 5.89046C4.81133 6.38619 4.6062 6.85627 4.56345 7.35626L4.60208 8.11266L5.23883 8.87762L4.88845 8.96308L4.61895 9.22804L4.78995 9.42017L5.13608 9.6041L4.7087 10.1126L4.55495 10.7665L4.61883 11.3562L4.80683 12.087L4.92658 12.9844L4.8992 13.634L4.42908 14.5271L5.2197 14.1126L5.52333 13.3306L5.4292 12.9588L5.5917 12.9383L5.8952 13.0791L5.85658 12.7971L5.6857 12.4552L5.9892 12.515L5.7117 12.0492L6.43808 11.9255L6.88683 11.2075L6.78845 10.6562L6.32258 10.3571L5.9892 10.364L6.02345 10.0905L5.78858 10.2313L5.76808 10.5305L5.4477 10.71L5.76395 10.9021L5.79133 11.1626L5.99645 11.3205L6.03508 10.9744L6.43245 10.9778L6.41545 11.3538L6.09058 11.5548L5.67183 11.508L5.33445 11.0294L5.35495 10.4396L6.01733 9.84136H6.4147L7.08995 10.3243L7.19245 10.7644L7.07283 11.3969C6.27795 13.0465 5.47883 14.696 4.6882 16.3413L4.25233 17.3285L4.15833 17.8626V18.183L4.58145 19.1659L5.56433 19.6103C5.1712 19.6572 4.77795 19.8196 4.51733 20.1231L4.15833 21.0206V21.3453L4.37645 22.2086L4.79095 23.0932C5.54733 24.6616 6.30383 26.2342 7.06445 27.8111L7.1927 28.4777L7.04733 28.9649L6.14995 29.4051L5.37645 28.8367L5.30358 28.3495L5.53883 27.8111L5.8807 27.6572L6.32945 27.7598L6.43608 28.2213L6.04295 28.26L5.99608 27.901L5.77795 28.0805L5.76433 28.3239L5.4607 28.4993L5.50345 28.5632L5.76845 28.687L5.78895 28.9906L6.02383 29.1273L5.98958 28.8497L6.48958 28.8189L6.81433 28.5324L6.87833 27.9726L6.41683 27.2846L5.7117 27.1735L5.9892 26.7034L5.68158 26.7632L5.86958 26.4043L5.89695 26.1479L5.61495 26.2761L5.43133 26.259L5.52533 25.8487L5.1792 25.0624L4.43133 24.6906L4.88858 25.5538L4.9272 26.2718L4.8462 26.9555C4.7607 27.3872 4.59383 27.7931 4.5642 28.229L4.64108 28.9598L5.13683 29.6179L4.6197 30.0025L4.79058 30.1991L5.13683 30.3786L4.59408 31.1777L4.57695 31.8871L4.75195 32.6478C4.8672 33.0452 4.92708 33.4597 4.93595 33.8743L4.91545 34.3486L4.4282 35.3059L5.05645 35.0365L5.5222 34.2202L5.43233 33.7331L5.61595 33.7194L5.89795 33.852L5.87058 33.5915L5.68258 33.2283L5.99033 33.2881L5.7127 32.818H6.1272L6.6742 32.5018L6.88783 31.9463L6.80645 31.4505L6.45183 31.1599L5.99033 31.1428L6.02445 30.8693L5.78958 31.0061L5.76908 31.3052L5.4487 31.4847L5.76495 31.6768L5.78208 31.9292L5.9957 32.096L6.03845 31.7498L6.37183 31.69L6.4617 31.9037L6.34208 32.2285L5.9617 32.344L5.48733 32.1389L5.29933 31.5363L5.42758 31.0663L6.14983 30.5919L6.7652 30.7669L7.19245 31.4806L7.07283 32.1772C6.1882 33.9891 5.3122 35.8096 4.4447 37.6259L4.1582 38.6942V38.9547L4.59408 39.9504L5.56845 40.3863L4.5727 40.8393L4.1582 41.8094V42.0788L4.39333 43.0446L4.80358 43.9078C5.56433 45.4676 6.31645 47.0317 7.06858 48.6001L7.19233 49.2496L6.79058 49.9932L5.9957 50.1515L5.35045 49.5532L5.32995 48.9763L5.67183 48.4892L6.08633 48.4379L6.4067 48.63L6.43408 49.0103L6.03658 49.024L5.99795 48.6736L5.7887 48.8486L5.7682 49.1009L5.4817 49.2548L5.4647 49.3016L5.77233 49.4685L5.79283 49.7632L6.0277 49.904L5.99358 49.6391L6.5362 49.5833L6.88245 49.1261L6.5747 48.1731L5.7072 47.9594L5.9937 47.4851L5.69008 47.5449L5.81833 47.3268L5.8997 46.9251L5.43383 47.0403L5.33545 46.0232L4.43795 45.4762L4.91658 46.4377L4.9337 46.9548C4.9237 47.3394 4.86533 47.724 4.7587 48.1044L4.5662 49.0403L4.62608 49.7026L5.14733 50.3949L4.6217 50.7796L4.84845 51.0103L5.24158 51.1214L4.59633 51.9077L4.5577 52.583C4.59633 53.1641 4.8612 53.7069 4.91233 54.2838L4.89183 55.053L4.44745 56.0487H4.5072L4.91745 55.925L5.51145 55.2199L5.49433 54.5404L5.86195 54.647L5.69958 54.0915L6.04995 54.1086L5.67383 53.5616L6.47733 53.459L6.8747 52.4291L6.41745 51.9377L5.99433 52.019L6.03308 51.6259L5.77245 51.8139V52.0748L5.3922 52.2542L5.55008 52.3824L5.77233 52.4382L5.7552 52.7117L5.99008 52.9298L5.97645 52.5965L6.13433 52.4385L6.3737 52.4942L6.44208 52.7336L6.22395 53.0371L5.8607 53.0925L5.42908 52.8662L5.2712 52.4474L5.34808 51.8919L5.94633 51.4816L6.80958 51.5626L7.15995 52.0669L7.12583 52.5626L6.87358 53.2677C6.68545 53.7122 6.46758 54.1481 6.29658 54.6053L6.15133 55.1481L6.40358 55.7378L7.24545 55.9043L7.67708 55.6951L8.31383 55.9388L8.95483 55.7293L9.19833 55.1139L8.9932 54.4344C8.79658 53.9558 8.57008 53.5028 8.38208 53.0284L8.17695 52.2891L8.3992 51.6695L9.07858 51.4387L9.75383 51.6226L10.0872 52.1611L10.0143 52.7166L9.7107 53.0329L9.2877 53.0927L8.9287 52.8106L8.95608 52.5159L9.21658 52.439L9.37458 52.5799V52.9303L9.6097 52.6824L9.58583 52.439L9.96608 52.2551L9.58583 52.0756L9.57583 51.7936L9.32345 51.6271L9.3577 52.0202L8.9902 51.9303L8.56708 52.225L8.5072 52.9857L9.0542 53.5455L9.6782 53.5626L9.30633 54.1096L9.66108 54.0925L9.4902 54.6523L9.8577 54.5412L10.0798 55.648L10.8406 56.0498H10.909L10.7551 55.7803L10.4177 54.7248L10.4605 54.1265C10.5288 53.6564 10.7168 53.2077 10.7852 52.7334L10.7383 51.853L10.1145 51.1223L10.4606 51.0368L10.7256 50.7804L10.2085 50.3958L10.7597 49.5966L10.794 49.1009L10.623 48.2163L10.435 47.1651L10.4521 46.3617L10.9221 45.4685L9.99045 46.0625L9.92208 47.0411L9.7382 47.0582L9.45608 46.9259L9.49033 47.2124L9.66533 47.5457L9.3747 47.4859L9.65683 47.9645L8.9132 48.0712L8.47308 48.7379L8.54995 49.3404L8.96883 49.6355L9.3577 49.6388L9.3337 49.9038L9.57308 49.7455L9.5867 49.4676L9.90708 49.2881L9.59083 49.0959L9.5567 48.818L9.36008 48.6771L9.31733 49.0233L9.03083 49.1132L8.90258 48.9423L8.9967 48.5705L9.44958 48.4337L9.88558 48.66L10.0521 49.2327C10.0793 49.6942 9.68445 50.1087 9.23158 50.1771C8.80845 50.2199 8.3597 49.9549 8.21445 49.5532L8.1717 49.0746L8.29995 48.566C9.16745 46.7712 10.0307 44.9806 10.894 43.19L11.189 42.2071V41.7371L10.6847 40.7542L9.79145 40.3866L10.8086 39.9037L11.189 39.049V38.5961L10.9923 37.8055L10.5436 36.8696C9.82145 35.3696 9.09495 33.8653 8.3727 32.3611L8.22295 32.0021L8.1632 31.4594L8.50508 30.8269L9.24008 30.6006L10.0007 31.216L10.0315 31.7587L9.7067 32.2758L9.14695 32.3031L8.90345 32.0211L8.9462 31.7261L9.3137 31.7534L9.36058 32.1038L9.56158 31.9544L9.59233 31.6809L9.90858 31.4888L9.5882 31.3093L9.57458 31.0358L9.3267 30.8734L9.36095 31.1469L8.8567 31.1811L8.5062 31.5358L8.49258 32.0956L8.97545 32.7366L9.63783 32.8221L9.36845 33.2965L9.66758 33.2281L9.54795 33.4417L9.45795 33.8563L9.74008 33.7236L9.92395 33.7373L9.84258 33.9937L10.1035 34.8655L10.9197 35.3057L10.454 34.3911L10.4266 33.6689L10.5503 32.8356L10.7856 31.8057L10.7513 31.1561L10.2086 30.3866L10.7257 30.0062L10.2086 29.6174C10.5205 29.3821 10.7556 29.0233 10.7941 28.6345L10.7598 27.9806L10.5805 27.2712C10.4522 26.8225 10.4095 26.3567 10.418 25.8909C10.4317 25.4422 10.6317 25.0277 10.918 24.6943L10.2128 25.0318L9.83258 25.7283L9.92245 26.2668L9.73445 26.277L9.45683 26.1533L9.49958 26.4524L9.66633 26.7727L9.3672 26.7085L9.63658 27.1786L8.9657 27.2767L8.47858 27.9433L8.55133 28.563L8.90608 28.8409L9.35908 28.8614L9.32483 29.1308L9.5727 28.9685L9.58633 28.695L9.9067 28.5155L9.59045 28.3233L9.5597 28.0454L9.3587 27.9045L9.32445 28.2379L8.94845 28.285L8.8972 27.9986L9.13233 27.7035L9.5042 27.6608L9.93583 27.9685L10.0425 28.6138C9.96558 29.1052 9.43983 29.5026 8.94845 29.3873L8.21345 28.7761L8.17483 28.2847L8.31558 27.7548C9.17883 25.9685 10.0421 24.1822 10.9011 22.3916L11.1876 21.4215V20.9643L10.6747 19.9728L9.7902 19.6139C10.1876 19.5626 10.585 19.3957 10.85 19.084" fill="#005CCE"/>
</g>
<defs>
<clipPath id="clip0_1_3350">
<rect width="90" height="60" fill="white"/>
</clipPath>
</defs>
</svg>
