<svg width="90" height="60" viewBox="0 0 90 60" fill="none" xmlns="http://www.w3.org/2000/svg">
<g clip-path="url(#clip0_1_3341)">
<path d="M90 60.0003H89H0V0.000244141H90V60.0003ZM88 58.0003V2.00025H2V58.0003H88Z" fill="#005CCE"/>
<path fill-rule="evenodd" clip-rule="evenodd" d="M27.9619 40V42H89.9987V40H27.9619Z" fill="#005CCE"/>
<path fill-rule="evenodd" clip-rule="evenodd" d="M27 0V60H29V0H27Z" fill="#005CCE"/>
<path fill-rule="evenodd" clip-rule="evenodd" d="M7.6207 3.99976H10.3362V4.84943H11.2414V5.6991H12.1466V6.54877H13.0517V7.39844H13.9569V8.24811H13.0517V9.09778H12.1466V9.94745H11.2414V10.7971H10.3362V11.6468H9.43104V12.4965H8.52586V11.6468H7.6207V10.7971H6.71552V9.94745H5.81035V9.09778H4.90517V8.24811H4V7.39844H4.90517V6.54877H5.81035V5.6991H6.71552V4.84943H7.6207V3.99976ZM8.52586 5.6991H9.43104V6.54877H10.3362V7.39844H11.2414V8.24811H10.3362V9.09778H9.43104V9.94745H8.52586V9.09778H7.6207V8.24811H6.71552V7.39844H7.6207V6.54877H8.52586V5.6991ZM8.52586 7.39844H9.43104V8.24811H8.52586V7.39844ZM4 4.84943H4.90517V5.6991H4V4.84943ZM4 9.94744H4.90517V10.7971H4V9.94744ZM13.9569 3.99976H14.5V5.6991H13.9569V3.99976ZM13.9569 9.94744H14.5V11.6468H13.9569V9.94744ZM5.81035 11.6468H6.71552V12.4965H7.6207V13.3461H8.52586V14.1958H7.6207V15.0455H6.71552V15.8951H5.81035V15.0455H4.90517V14.1958H4V13.3461H4.90517V12.4965H5.81035V11.6468ZM5.81035 13.3461H6.71552V14.1958H5.81035V13.3461ZM11.2414 11.6468H12.1466V12.4965H13.0517V13.3461H13.9569V14.1958H13.0517V15.0455H12.1466V15.8951H11.2414V15.0455H10.3362V14.1958H9.43104V13.3461H10.3362V12.4965H11.2414V11.6468ZM11.2414 13.3461H12.1466V14.1958H11.2414V13.3461ZM4 16.7448H4.90517V17.5945H4V16.7448ZM13.9569 15.8951H14.5V17.5945H13.9569V15.8951ZM4 19.2938H4.90517V18.4441H5.81035V17.5945H6.71552V16.7448H7.6207V15.8951H8.52586V15.0455H9.43104V15.8951H10.3362V16.7448H11.2414V17.5945H12.1466V18.4441H13.0517V19.2938H13.9569V20.1435H14.5V23.5422H13.9569V24.3918H13.0517V25.2415H12.1466V26.0912H11.2414V26.9408H10.3362V27.7905H9.43104V29.9997H7.6207V29.4899H6.71552V28.6402H5.81035V27.7905H4.90517V26.9408H4V24.3918H4.90517V25.2415H5.81035V26.0912H6.71552V26.9408H7.6207V26.0912H8.52586V25.2415H9.43104V24.3918H10.3362V23.5422H11.2414V22.6925H12.1466V21.8428H11.2414V20.9932H10.3362V20.1435H7.6207V20.9932H9.43104V21.8428H8.52586V22.6925H7.6207V23.5422H6.71552V22.6925H5.81035V21.8428H4.90517V20.9932H4V19.2938ZM4 22.6925H4.90517V23.5422H4V22.6925ZM13.9569 25.2415H14.5V26.0912H13.9569V25.2415ZM12.1466 26.9408H13.0517V27.7905H13.9569V28.6402H14.5V29.9997H13.9569V29.4899H13.0517V28.6402H12.1466V26.9408ZM10.3362 29.4899H11.2414V29.9997H10.3362V29.4899Z" fill="#005CCE"/>
<path fill-rule="evenodd" clip-rule="evenodd" d="M21.3793 3.99976H18.6638V4.84943H17.7586V5.6991H16.8535V6.54877H15.9483V7.39844H15.0431V8.24811H15.9483V9.09778H16.8535V9.94744H17.7586V10.7971H18.6638V11.6468H19.569V12.4965H20.4742V11.6468H21.3793V10.7971H22.2845V9.94744H23.1897V9.09778H24.0949V8.24811H25V7.39844H24.0949V6.54877H23.1897V5.6991H22.2845V4.84943H21.3793V3.99976ZM20.4742 5.6991H19.569V6.54877H18.6638V7.39844H17.7586V8.24811H18.6638V9.09778H19.569V9.94744H20.4742V9.09778H21.3793V8.24811H22.2845V7.39844H21.3793V6.54877H20.4742V5.6991ZM20.4742 7.39844H19.569V8.24811H20.4742V7.39844ZM25 4.84942H24.0949V5.6991H25V4.84942ZM25 9.94744H24.0949V10.7971H25V9.94744ZM15.0431 3.99976H14.5V5.6991H15.0431V3.99976ZM15.0431 9.94744H14.5V11.6468H15.0431V9.94744ZM23.1897 11.6468H22.2845V12.4965H21.3793V13.3461H20.4742V14.1958H21.3793V15.0455H22.2845V15.8951H23.1897V15.0455H24.0949V14.1958H25V13.3461H24.0949V12.4965H23.1897V11.6468ZM23.1897 13.3461H22.2845V14.1958H23.1897V13.3461ZM17.7586 11.6468H16.8535V12.4965H15.9483V13.3461H15.0431V14.1958H15.9483V15.0455H16.8535V15.8951H17.7586V15.0455H18.6638V14.1958H19.569V13.3461H18.6638V12.4965H17.7586V11.6468ZM17.7586 13.3461H16.8535V14.1958H17.7586V13.3461ZM25 16.7448H24.0949V17.5945H25V16.7448ZM15.0431 15.8951H14.5V17.5945H15.0431V15.8951ZM25 19.2938H24.0949V18.4441H23.1897V17.5945H22.2845V16.7448H21.3793V15.8951H20.4742V15.0455H19.569V15.8951H18.6638V16.7448H17.7586V17.5945H16.8535V18.4441H15.9483V19.2938H15.0431V20.1435H14.5V23.5422H15.0431V24.3918H15.9483V25.2415H16.8535V26.0912H17.7586V26.9408H18.6638V27.7905H19.569V29.9997H21.3793V29.4899H22.2845V28.6402H23.1897V27.7905H24.0949V26.9408H25V24.3918H24.0949V25.2415H23.1897V26.0912H22.2845V26.9408H21.3793V26.0912H20.4742V25.2415H19.569V24.3918H18.6638V23.5422H17.7586V22.6925H16.8535V21.8428H17.7586V20.9932H18.6638V20.1435H21.3793V20.9932H19.569V21.8428H20.4742V22.6925H21.3793V23.5422H22.2845V22.6925H23.1897V21.8428H24.0949V20.9932H25V19.2938ZM25 22.6925H24.0949V23.5422H25V22.6925ZM15.0431 25.2415H14.5V26.0912H15.0431V25.2415ZM16.8535 26.9408H15.9483V27.7905H15.0431V28.6402H14.5V29.9997H15.0431V29.4899H15.9483V28.6402H16.8535V26.9408ZM18.6638 29.4899H17.7586V29.9997H18.6638V29.4899ZM7.6207 55.9996H10.3362V55.1499H11.2414V54.3002H12.1466V53.4505H13.0517V52.6009H13.9569V51.7512H13.0517V50.9015H12.1466V50.0519H11.2414V49.2022H10.3362V48.3525H9.43104V47.5029H8.52586V48.3525H7.6207V49.2022H6.71552V50.0519H5.81035V50.9015H4.90517V51.7512H4V52.6009H4.90517V53.4505H5.81035V54.3002H6.71552V55.1499H7.6207V55.9996ZM8.52586 54.3002H9.43104V53.4506H10.3362V52.6009H11.2414V51.7512H10.3362V50.9015H9.43104V50.0519H8.52586V50.9015H7.6207V51.7512H6.71552V52.6009H7.6207V53.4506H8.52586V54.3002ZM8.52586 52.6009H9.43104V51.7512H8.52586V52.6009ZM4 55.1499H4.90517V54.3002H4V55.1499ZM4 50.0519H4.90517V49.2022H4V50.0519ZM13.9569 55.9996H14.5V54.3002H13.9569V55.9996ZM13.9569 50.0519H14.5V48.3525H13.9569V50.0519ZM5.81035 48.3525H6.71552V47.5029H7.6207V46.6532H8.52586V45.8035H7.6207V44.9539H6.71552V44.1042H5.81035V44.9539H4.90517V45.8035H4V46.6532H4.90517V47.5029H5.81035V48.3525ZM5.81035 46.6532H6.71552V45.8035H5.81035V46.6532ZM11.2414 48.3525H12.1466V47.5029H13.0517V46.6532H13.9569V45.8035H13.0517V44.9539H12.1466V44.1042H11.2414V44.9539H10.3362V45.8035H9.43104V46.6532H10.3362V47.5029H11.2414V48.3525ZM11.2414 46.6532H12.1466V45.8035H11.2414V46.6532ZM4 43.2545H4.90517V42.4048H4V43.2545ZM13.9569 44.1042H14.5V42.4048H13.9569V44.1042ZM4 40.7055H4.90517V41.5552H5.81035V42.4048H6.71552V43.2545H7.6207V44.1042H8.52586V44.9539H9.43104V44.1042H10.3362V43.2545H11.2414V42.4048H12.1466V41.5552H13.0517V40.7055H13.9569V39.8558H14.5V36.4572H13.9569V35.6075H13.0517V34.7578H12.1466V33.9081H11.2414V33.0585H10.3362V32.2088H9.43104V29.9997H7.6207V30.5095H6.71552V31.3591H5.81035V32.2088H4.90517V33.0585H4V35.6075H4.90517V34.7578H5.81035V33.9081H6.71552V33.0585H7.6207V33.9081H8.52586V34.7578H9.43104V35.6075H10.3362V36.4572H11.2414V37.3068H12.1466V38.1565H11.2414V39.0062H10.3362V39.8558H7.6207V39.0062H9.43104V38.1565H8.52586V37.3068H7.6207V36.4572H6.71552V37.3068H5.81035V38.1565H4.90517V39.0062H4V40.7055ZM4 37.3068H4.90517V36.4572H4V37.3068ZM13.9569 34.7578H14.5V33.9081H13.9569V34.7578ZM12.1466 33.0585H13.0517V32.2088H13.9569V31.3591H14.5V29.9997H13.9569V30.5095H13.0517V31.3591H12.1466V33.0585ZM10.3362 30.5095H11.2414V29.9997H10.3362V30.5095Z" fill="#005CCE"/>
<path fill-rule="evenodd" clip-rule="evenodd" d="M21.3793 55.9997H18.6638V55.15H17.7586V54.3003H16.8535V53.4506H15.9483V52.601H15.0431V51.7513H15.9483V50.9016H16.8535V50.052H17.7586V49.2023H18.6638V48.3526H19.569V47.503H20.4741V48.3526H21.3793V49.2023H22.2845V50.052H23.1897V50.9016H24.0948V51.7513H25V52.601H24.0948V53.4506H23.1897V54.3003H22.2845V55.15H21.3793V55.9997ZM20.4741 54.3003H19.569V53.4506H18.6638V52.601H17.7586V51.7513H18.6638V50.9016H19.569V50.052H20.4741V50.9016H21.3793V51.7513H22.2845V52.601H21.3793V53.4506H20.4741V54.3003ZM20.4741 52.601H19.569V51.7513H20.4741V52.601ZM25 55.15H24.0948V54.3003H25V55.15ZM25 50.052H24.0948V49.2023H25V50.052ZM15.0431 55.9997H14.5V54.3003H15.0431V55.9997ZM15.0431 50.052H14.5V48.3526H15.0431V50.052ZM23.1897 48.3526H22.2845V47.503H21.3793V46.6533H20.4741V45.8036H21.3793V44.954H22.2845V44.1043H23.1897V44.954H24.0948V45.8036H25V46.6533H24.0948V47.503H23.1897V48.3526ZM23.1897 46.6533H22.2845V45.8036H23.1897V46.6533ZM17.7586 48.3526H16.8535V47.503H15.9483V46.6533H15.0431V45.8036H15.9483V44.954H16.8535V44.1043H17.7586V44.954H18.6638V45.8036H19.569V46.6533H18.6638V47.503H17.7586V48.3526ZM17.7586 46.6533H16.8535V45.8036H17.7586V46.6533ZM25 43.2546H24.0948V42.4049H25V43.2546ZM15.0431 44.1043H14.5V42.4049H15.0431V44.1043ZM25 40.7056H24.0948V41.5553H23.1897V42.4049H22.2845V43.2546H21.3793V44.1043H20.4741V44.954H19.569V44.1043H18.6638V43.2546H17.7586V42.4049H16.8535V41.5553H15.9483V40.7056H15.0431V39.8559H14.5V36.4572H15.0431V35.6076H15.9483V34.7579H16.8535V33.9082H17.7586V33.0586H18.6638V32.2089H19.569V29.9998H21.3793V30.5096H22.2845V31.3592H23.1897V32.2089H24.0948V33.0586H25V35.6076H24.0948V34.7579H23.1897V33.9082H22.2845V33.0586H21.3793V33.9082H20.4741V34.7579H19.569V35.6076H18.6638V36.4572H17.7586V37.3069H16.8535V38.1566H17.7586V39.0063H18.6638V39.8559H21.3793V39.0063H19.569V38.1566H20.4741V37.3069H21.3793V36.4572H22.2845V37.3069H23.1897V38.1566H24.0948V39.0063H25V40.7056ZM25 37.3069H24.0948V36.4572H25V37.3069ZM15.0431 34.7579H14.5V33.9082H15.0431V34.7579ZM16.8535 33.0586H15.9483V32.2089H15.0431V31.3592H14.5V29.9998H15.0431V30.5096H15.9483V31.3592H16.8535V33.0586ZM18.6638 30.5096H17.7586V29.9998H18.6638V30.5096Z" fill="#005CCE"/>
</g>
<defs>
<clipPath id="clip0_1_3341">
<rect width="90" height="60" fill="white"/>
</clipPath>
</defs>
</svg>
