<svg width="60" height="60" viewBox="0 0 60 60" fill="none" xmlns="http://www.w3.org/2000/svg">
<path d="M54.9665 15.2059L54.9275 13.6975C54.9269 13.6783 54.9263 13.6579 54.9239 13.6375L54.6209 10.2223C54.5963 9.94687 54.4541 9.69487 54.2303 9.53167C54.0071 9.36847 53.7239 9.30847 53.4533 9.37027C52.8857 9.49747 52.4639 9.60067 52.1207 9.68347C51.0023 9.95527 50.8007 10.0045 48.8495 10.0861C48.5057 10.1143 48.2057 10.1803 47.9387 10.2703C44.6177 9.69307 41.2859 9.39487 37.9847 9.39487C34.8371 9.39487 31.6625 9.66307 28.4963 10.1875C27.9197 9.72427 27.1379 9.37507 26.0909 9.54667C24.2183 9.93067 24.0101 9.93247 22.8563 9.93847C22.5029 9.94027 22.0673 9.94327 21.4847 9.95647C21.2045 9.96247 20.9405 10.0909 20.7629 10.3081C20.5847 10.5247 20.5115 10.8091 20.5607 11.0851L21.2423 14.9053C21.3149 15.3157 21.4379 15.7009 21.5819 16.0543C21.2471 18.0295 21.0815 20.0743 21.0815 22.2907C21.0815 25.7347 21.4691 29.0833 21.8789 32.6281C21.8969 32.7823 21.9143 32.9377 21.9323 33.0919C15.0695 33.7045 9.59572 38.7949 8.27632 40.1221H5.98372C5.64292 40.1221 5.32792 40.3027 5.15572 40.5961C4.98292 40.8901 4.97932 41.2537 5.14552 41.5507L9.94852 50.1589C10.1177 50.4631 10.4387 50.6515 10.7873 50.6515H23.4689H35.7629L35.7647 50.6509L44.8535 50.6503L44.9591 50.6521C45.3395 50.6521 46.1471 50.5909 46.8071 50.1415C47.2607 50.4463 47.8067 50.6515 48.4553 50.6515H52.4993C52.7777 50.6515 53.0435 50.5303 53.2259 50.3191C53.4083 50.1085 53.4899 49.8289 53.4497 49.5529C53.2961 48.4957 53.1491 47.9689 53.0411 47.5849C52.8977 47.0713 52.8317 46.8367 52.8929 45.3469C52.8929 44.5657 52.6127 43.8379 52.2095 43.2241C52.2101 43.2205 52.2107 43.2175 52.2107 43.2139C52.3403 40.0831 52.7987 36.8173 53.2841 33.3595C53.4437 32.2261 54.0455 27.2353 54.1949 26.0923C54.2633 25.5661 54.1091 24.2177 53.5829 24.1493H53.4422C52.9238 24.0827 52.3577 25.3177 52.2893 25.8433C52.1411 26.9803 51.5399 31.9651 51.3809 33.0919C50.9693 36.0277 50.5787 38.8255 50.3837 41.5519L50.3813 41.5507C49.9043 41.3215 49.3295 41.5231 49.0997 42.0019C48.8957 42.4279 49.0349 42.9283 49.4057 43.1947C49.4507 43.2277 49.4981 43.2583 49.5509 43.2829C49.7711 43.3891 50.1743 43.7059 50.4953 44.1229C50.7611 44.4691 50.9711 44.8837 50.9717 45.3067C50.9021 46.9861 50.9933 47.3983 51.1907 48.1021C51.2393 48.2749 51.2927 48.4675 51.3515 48.7297H48.4541C47.9699 48.7297 47.6141 48.3763 47.3825 48.0349C47.1725 47.7259 47.0639 47.4265 47.0585 47.4109C46.9919 47.2135 46.8659 47.0533 46.7081 46.9405C46.4669 46.7665 46.1495 46.7053 45.8459 46.8061C45.3419 46.9729 45.0689 47.5165 45.2357 48.0199C45.2987 48.2101 45.3899 48.4267 45.5081 48.6511C45.3515 48.6997 45.1547 48.7309 44.9579 48.7309H37.3967L41.4029 41.5507C41.5691 41.2531 41.5655 40.8895 41.3921 40.5961C41.2193 40.3027 40.9043 40.1221 40.5635 40.1221H38.2709C36.9035 38.7469 31.0727 33.3283 23.8589 33.0439C23.8343 32.8321 23.8103 32.6191 23.7857 32.4079C23.3825 28.9195 23.0009 25.6249 23.0009 22.2913C23.0009 20.9209 23.0687 19.6219 23.2007 18.3655C23.3255 18.4207 23.4587 18.4507 23.5925 18.4507C23.8295 18.4507 24.0677 18.3631 24.2537 18.1873C24.6389 17.8225 24.6551 17.2141 24.2903 16.8289C24.2903 16.8289 24.2771 16.8139 24.2591 16.7935C24.1631 16.6849 23.8559 16.3159 23.5781 15.7987C23.3879 15.4441 23.2121 15.0217 23.1311 14.5669L23.0111 13.8961L22.6475 11.8609C22.7237 11.8603 22.7951 11.8597 22.8641 11.8597C24.1445 11.8525 24.4853 11.8375 26.4365 11.4355C26.5937 11.4097 26.7365 11.4181 26.8727 11.4559C27.1991 11.5471 27.4829 11.8207 27.8153 12.2545C27.8687 12.3241 27.9221 12.3949 27.9785 12.4729L28.0553 12.5785C28.0895 12.6247 28.1279 12.6655 28.1681 12.7045C28.4975 13.0201 29.0147 13.0669 29.3975 12.7867C29.6777 12.5821 29.8115 12.2539 29.7845 11.9311C32.5223 11.5261 35.2637 11.3167 37.9817 11.3167C40.6817 11.3167 43.4033 11.5231 46.1231 11.9233C46.0535 12.0715 46.0019 12.2035 45.9623 12.3049C45.7691 12.7993 46.0139 13.3561 46.5089 13.5481C46.8905 13.6975 47.3087 13.5823 47.5685 13.2955C47.6447 13.2115 47.7089 13.1143 47.7527 13.0015C47.8739 12.6901 47.9945 12.4399 48.2099 12.2647C48.3821 12.1249 48.6137 12.0319 48.9647 12.0031C49.9373 11.9629 50.5199 11.9263 50.9999 11.8663C51.5231 11.8009 51.9245 11.7079 52.5719 11.5507C52.6451 11.5327 52.7219 11.5141 52.8029 11.4943L53.0051 13.7773L53.0255 14.5441L53.0441 15.2821C53.0447 15.3025 53.0459 15.3223 53.0477 15.3421C53.0963 15.8851 52.6799 16.3045 52.3535 16.5469C52.1573 16.6921 51.9935 16.7737 51.9821 16.7791C51.8627 16.8355 51.7613 16.9123 51.6779 17.0047C51.4277 17.2819 51.3527 17.6923 51.5195 18.0523C51.6821 18.4033 52.0289 18.6091 52.3913 18.6091C52.4333 18.6091 52.4759 18.6013 52.5185 18.5953C52.5497 19.2223 52.5665 19.8661 52.5665 20.5303C52.5665 22.1551 52.4735 23.9143 52.2827 25.9099C52.2323 26.4355 52.6163 26.9023 53.1407 26.9557C53.1431 26.9563 53.1473 26.9575 53.1473 26.9575C53.6771 27.0031 54.1439 26.6203 54.1949 26.0923C54.3917 24.0355 54.4871 22.2163 54.4871 20.5297C54.4871 19.3843 54.4403 18.2935 54.3509 17.2453C54.7535 16.7065 55.0301 16.0225 54.9665 15.2059ZM35.4143 40.1221H24.5357H23.5733H22.6115H11.1347C13.3511 38.2627 17.4551 35.4091 22.1477 34.9999C22.4657 34.9723 22.7861 34.9573 23.1089 34.9531C23.1641 34.9525 23.2187 34.9501 23.2739 34.9501C23.5439 34.9501 23.8115 34.9615 24.0779 34.9783C28.9055 35.2807 33.1475 38.2207 35.4143 40.1221ZM24.5159 48.7309H23.5487H22.5857H11.3513L7.61992 42.0433H8.42932H10.3685H12.3017H22.7081H23.6717H24.6305H34.2479H36.1811H38.1203H38.9297L35.1983 48.7309H24.5159ZM45.8471 21.4327L31.9901 19.6921C31.4681 19.6249 30.9899 19.9933 30.9191 20.5153L29.6219 29.9989C29.5871 30.2533 29.6561 30.5107 29.8121 30.7141C29.9681 30.9169 30.1997 31.0501 30.4541 31.0819L44.3099 32.8225C44.3507 32.8273 44.3909 32.8297 44.4305 32.8297C44.9039 32.8297 45.3155 32.4805 45.3809 31.9999L46.6781 22.5163C46.7129 22.2619 46.6445 22.0039 46.4885 21.8011C46.3325 21.5977 46.1015 21.4645 45.8471 21.4327ZM31.6571 29.2975L32.6933 21.7171L44.6435 23.2177L43.6067 30.7981L31.6571 29.2975Z" fill="#005CCE"/>
</svg>
