<svg width="60" height="60" viewBox="0 0 60 60" fill="none" xmlns="http://www.w3.org/2000/svg">
<g clip-path="url(#clip0_1_3329)">
<path d="M0.9375 11.25C0.419754 11.2501 5.17668e-05 11.6698 0 12.1875V36.5625V40.3125C5.17668e-05 40.8302 0.419754 41.2499 0.9375 41.25H1.875V44.0625C1.87505 44.5802 2.29475 44.9999 2.8125 45H5.72021V45.0037C6.15928 47.1344 8.05699 48.75 10.3125 48.75C12.568 48.75 14.4657 47.1307 14.9048 45H16.9702V45.0037C17.4093 47.1344 19.307 48.75 21.5625 48.75C23.818 48.75 25.7157 47.1307 26.1548 45H43.2202V45.0037C43.6593 47.1344 45.557 48.75 47.8125 48.75C50.068 48.75 51.9657 47.1307 52.4048 45H55.3125C55.8302 44.9999 56.2499 44.5802 56.25 44.0625V41.25H58.9966H59.0625C59.5802 41.2499 59.9999 40.8302 60 40.3125L60.0146 36.3721L59.0405 36.2988L59.0625 36.3904H60L60 20.625C60 17.5251 57.475 15 54.375 15H41.25V16.875H41.2756V35.625H39.4006V11.2646L38.4778 11.25H38.4631H0.9375ZM1.875 13.125H37.5256V35.625H1.875V13.125ZM43.1506 16.875H54.375C56.4687 16.875 58.125 18.5314 58.125 20.625V35.625H43.1506V16.875ZM8.44849 16.886C7.93071 16.8941 7.51753 17.3204 7.52563 17.8381V30.9082C7.50771 32.176 9.41856 32.176 9.40063 30.9082V17.8381C9.40892 17.3089 8.97774 16.8777 8.44849 16.886ZM15.9485 16.886C15.4307 16.8941 15.0175 17.3204 15.0256 17.8381V30.9082C15.0077 32.176 16.9186 32.176 16.9006 30.9082V17.8381C16.9089 17.3089 16.4777 16.8777 15.9485 16.886ZM23.4485 16.886C22.9307 16.8941 22.5175 17.3204 22.5256 17.8381V30.9082C22.5076 32.176 24.4186 32.176 24.4006 30.9082V17.8381C24.4089 17.3089 23.9777 16.8777 23.4485 16.886ZM30.9485 16.886C30.4307 16.8941 30.0175 17.3204 30.0256 17.8381V30.9082C30.0076 32.176 31.9186 32.176 31.9006 30.9082V17.8381C31.9089 17.3089 31.4777 16.8777 30.9485 16.886ZM46.875 18.75V28.125H53.811H56.25V27.1875V21.7712C56.25 20.1196 54.9045 18.75 53.2544 18.75H48.75H46.875ZM48.75 20.625H53.2544C53.8866 20.625 54.375 21.1146 54.375 21.7712V26.25H53.811H48.75V20.625ZM47.7319 30C46.4819 30.0635 46.5771 31.9385 47.8271 31.875H49.7021C50.9699 31.893 50.9699 29.9821 49.7021 30H47.8271C47.7954 29.9984 47.7636 29.9984 47.7319 30ZM1.875 37.5H38.3972H58.125V39.375H55.3125H10.3125H1.875V37.5ZM3.75 41.25H6.58813C6.17224 41.7985 5.86268 42.4282 5.72021 43.125H3.75V41.25ZM10.3125 41.25C11.8769 41.25 13.125 42.4982 13.125 44.0625C13.125 45.627 11.8769 46.875 10.3125 46.875C8.74809 46.875 7.5 45.627 7.5 44.0625V44.0479C7.50789 42.4905 8.75306 41.25 10.3125 41.25ZM14.0369 41.25H17.8381C17.4222 41.7985 17.1127 42.4282 16.9702 43.125H14.9048C14.7623 42.4282 14.4528 41.7985 14.0369 41.25ZM21.5625 41.25C23.1269 41.25 24.375 42.4982 24.375 44.0625C24.375 45.627 23.1269 46.875 21.5625 46.875C19.9981 46.875 18.75 45.627 18.75 44.0625C18.75 42.4982 19.9981 41.25 21.5625 41.25ZM25.2869 41.25H44.0881C43.6722 41.7985 43.3627 42.4282 43.2202 43.125H26.1548C26.0123 42.4282 25.7028 41.7985 25.2869 41.25ZM47.8125 41.25C49.3769 41.25 50.625 42.4982 50.625 44.0625C50.625 45.627 49.3769 46.875 47.8125 46.875C46.2481 46.875 45 45.627 45 44.0625C45 42.4982 46.2481 41.25 47.8125 41.25ZM51.5369 41.25H54.375V43.125H52.4048C52.2623 42.4282 51.9528 41.7985 51.5369 41.25ZM10.3125 43.125C9.79473 43.125 9.375 43.5447 9.375 44.0625C9.375 44.5803 9.79473 45 10.3125 45C10.8303 45 11.25 44.5803 11.25 44.0625C11.25 43.5447 10.8303 43.125 10.3125 43.125ZM21.5625 43.125C21.0447 43.125 20.625 43.5447 20.625 44.0625C20.625 44.5803 21.0447 45 21.5625 45C22.0803 45 22.5 44.5803 22.5 44.0625C22.5 43.5447 22.0803 43.125 21.5625 43.125ZM47.8125 43.125C47.2947 43.125 46.875 43.5447 46.875 44.0625C46.875 44.5803 47.2947 45 47.8125 45C48.3303 45 48.75 44.5803 48.75 44.0625C48.75 43.5447 48.3303 43.125 47.8125 43.125Z" fill="#005CCE"/>
</g>
<defs>
<clipPath id="clip0_1_3329">
<rect width="60" height="60" fill="white"/>
</clipPath>
</defs>
</svg>
