<svg width="60" height="60" viewBox="0 0 60 60" fill="none" xmlns="http://www.w3.org/2000/svg">
<g clip-path="url(#clip0_1_3331)">
<path d="M58.125 56.25H1.875C1.62636 56.25 1.3879 56.1512 1.21209 55.9754C1.03627 55.7996 0.9375 55.5611 0.9375 55.3125V27.1875C0.9375 26.9389 1.03627 26.7004 1.21209 26.5246C1.3879 26.3488 1.62636 26.25 1.875 26.25H58.125C58.3736 26.25 58.6121 26.3488 58.7879 26.5246C58.9637 26.7004 59.0625 26.9389 59.0625 27.1875V55.3125C59.0625 55.5611 58.9637 55.7996 58.7879 55.9754C58.6121 56.1512 58.3736 56.25 58.125 56.25ZM2.8125 54.375H57.1875V28.125H2.8125V54.375Z" fill="#005CCE"/>
<path d="M59.0625 28.125H0.9375C0.68886 28.125 0.450403 28.0262 0.274587 27.8504C0.0987721 27.6746 0 27.4361 0 27.1875V23.4375C0 23.1889 0.0987721 22.9504 0.274587 22.7746C0.450403 22.5988 0.68886 22.5 0.9375 22.5H59.0625C59.3111 22.5 59.5496 22.5988 59.7254 22.7746C59.9012 22.9504 60 23.1889 60 23.4375V27.1875C60 27.4361 59.9012 27.6746 59.7254 27.8504C59.5496 28.0262 59.3111 28.125 59.0625 28.125ZM1.875 26.25H58.125V24.375H1.875V26.25ZM59.0625 60H0.9375C0.68886 60 0.450403 59.9012 0.274587 59.7254C0.0987721 59.5496 0 59.3111 0 59.0625V55.3125C0 55.0639 0.0987721 54.8254 0.274587 54.6496C0.450403 54.4738 0.68886 54.375 0.9375 54.375H59.0625C59.3111 54.375 59.5496 54.4738 59.7254 54.6496C59.9012 54.8254 60 55.0639 60 55.3125V59.0625C60 59.3111 59.9012 59.5496 59.7254 59.7254C59.5496 59.9012 59.3111 60 59.0625 60ZM1.875 58.125H58.125V56.25H1.875V58.125ZM7.5 52.5C6.75408 52.5 6.03871 52.2037 5.51126 51.6762C4.98382 51.1488 4.6875 50.4334 4.6875 49.6875V32.8125C4.6875 32.0666 4.98382 31.3512 5.51126 30.8238C6.03871 30.2963 6.75408 30 7.5 30C8.24592 30 8.96129 30.2963 9.48874 30.8238C10.0162 31.3512 10.3125 32.0666 10.3125 32.8125V49.6875C10.3125 50.4334 10.0162 51.1488 9.48874 51.6762C8.96129 52.2037 8.24592 52.5 7.5 52.5ZM7.5 31.875C7.25136 31.875 7.0129 31.9738 6.83709 32.1496C6.66127 32.3254 6.5625 32.5639 6.5625 32.8125V49.6875C6.5625 49.9361 6.66127 50.1746 6.83709 50.3504C7.0129 50.5262 7.25136 50.625 7.5 50.625C7.74864 50.625 7.9871 50.5262 8.16291 50.3504C8.33873 50.1746 8.4375 49.9361 8.4375 49.6875V32.8125C8.4375 32.5639 8.33873 32.3254 8.16291 32.1496C7.9871 31.9738 7.74864 31.875 7.5 31.875ZM15 52.5C14.2541 52.5 13.5387 52.2037 13.0113 51.6762C12.4838 51.1488 12.1875 50.4334 12.1875 49.6875V32.8125C12.1875 32.0666 12.4838 31.3512 13.0113 30.8238C13.5387 30.2963 14.2541 30 15 30C15.7459 30 16.4613 30.2963 16.9887 30.8238C17.5162 31.3512 17.8125 32.0666 17.8125 32.8125V49.6875C17.8125 50.4334 17.5162 51.1488 16.9887 51.6762C16.4613 52.2037 15.7459 52.5 15 52.5ZM15 31.875C14.7514 31.875 14.5129 31.9738 14.3371 32.1496C14.1613 32.3254 14.0625 32.5639 14.0625 32.8125V49.6875C14.0625 49.9361 14.1613 50.1746 14.3371 50.3504C14.5129 50.5262 14.7514 50.625 15 50.625C15.2486 50.625 15.4871 50.5262 15.6629 50.3504C15.8387 50.1746 15.9375 49.9361 15.9375 49.6875V32.8125C15.9375 32.5639 15.8387 32.3254 15.6629 32.1496C15.4871 31.9738 15.2486 31.875 15 31.875ZM22.5 52.5C21.7541 52.5 21.0387 52.2037 20.5113 51.6762C19.9838 51.1488 19.6875 50.4334 19.6875 49.6875V32.8125C19.6875 32.0666 19.9838 31.3512 20.5113 30.8238C21.0387 30.2963 21.7541 30 22.5 30C23.2459 30 23.9613 30.2963 24.4887 30.8238C25.0162 31.3512 25.3125 32.0666 25.3125 32.8125V49.6875C25.3125 50.4334 25.0162 51.1488 24.4887 51.6762C23.9613 52.2037 23.2459 52.5 22.5 52.5ZM22.5 31.875C22.2514 31.875 22.0129 31.9738 21.8371 32.1496C21.6613 32.3254 21.5625 32.5639 21.5625 32.8125V49.6875C21.5625 49.9361 21.6613 50.1746 21.8371 50.3504C22.0129 50.5262 22.2514 50.625 22.5 50.625C22.7486 50.625 22.9871 50.5262 23.1629 50.3504C23.3387 50.1746 23.4375 49.9361 23.4375 49.6875V32.8125C23.4375 32.5639 23.3387 32.3254 23.1629 32.1496C22.9871 31.9738 22.7486 31.875 22.5 31.875ZM30 52.5C29.2541 52.5 28.5387 52.2037 28.0113 51.6762C27.4838 51.1488 27.1875 50.4334 27.1875 49.6875V32.8125C27.1875 32.0666 27.4838 31.3512 28.0113 30.8238C28.5387 30.2963 29.2541 30 30 30C30.7459 30 31.4613 30.2963 31.9887 30.8238C32.5162 31.3512 32.8125 32.0666 32.8125 32.8125V49.6875C32.8125 50.4334 32.5162 51.1488 31.9887 51.6762C31.4613 52.2037 30.7459 52.5 30 52.5ZM30 31.875C29.7514 31.875 29.5129 31.9738 29.3371 32.1496C29.1613 32.3254 29.0625 32.5639 29.0625 32.8125V49.6875C29.0625 49.9361 29.1613 50.1746 29.3371 50.3504C29.5129 50.5262 29.7514 50.625 30 50.625C30.2486 50.625 30.4871 50.5262 30.6629 50.3504C30.8387 50.1746 30.9375 49.9361 30.9375 49.6875V32.8125C30.9375 32.5639 30.8387 32.3254 30.6629 32.1496C30.4871 31.9738 30.2486 31.875 30 31.875ZM37.5 52.5C36.7541 52.5 36.0387 52.2037 35.5113 51.6762C34.9838 51.1488 34.6875 50.4334 34.6875 49.6875V32.8125C34.6875 32.0666 34.9838 31.3512 35.5113 30.8238C36.0387 30.2963 36.7541 30 37.5 30C38.2459 30 38.9613 30.2963 39.4887 30.8238C40.0162 31.3512 40.3125 32.0666 40.3125 32.8125V49.6875C40.3125 50.4334 40.0162 51.1488 39.4887 51.6762C38.9613 52.2037 38.2459 52.5 37.5 52.5ZM37.5 31.875C37.2514 31.875 37.0129 31.9738 36.8371 32.1496C36.6613 32.3254 36.5625 32.5639 36.5625 32.8125V49.6875C36.5625 49.9361 36.6613 50.1746 36.8371 50.3504C37.0129 50.5262 37.2514 50.625 37.5 50.625C37.7486 50.625 37.9871 50.5262 38.1629 50.3504C38.3387 50.1746 38.4375 49.9361 38.4375 49.6875V32.8125C38.4375 32.5639 38.3387 32.3254 38.1629 32.1496C37.9871 31.9738 37.7486 31.875 37.5 31.875ZM45 52.5C44.2541 52.5 43.5387 52.2037 43.0113 51.6762C42.4838 51.1488 42.1875 50.4334 42.1875 49.6875V32.8125C42.1875 32.0666 42.4838 31.3512 43.0113 30.8238C43.5387 30.2963 44.2541 30 45 30C45.7459 30 46.4613 30.2963 46.9887 30.8238C47.5162 31.3512 47.8125 32.0666 47.8125 32.8125V49.6875C47.8125 50.4334 47.5162 51.1488 46.9887 51.6762C46.4613 52.2037 45.7459 52.5 45 52.5ZM45 31.875C44.7514 31.875 44.5129 31.9738 44.3371 32.1496C44.1613 32.3254 44.0625 32.5639 44.0625 32.8125V49.6875C44.0625 49.9361 44.1613 50.1746 44.3371 50.3504C44.5129 50.5262 44.7514 50.625 45 50.625C45.2486 50.625 45.4871 50.5262 45.6629 50.3504C45.8387 50.1746 45.9375 49.9361 45.9375 49.6875V32.8125C45.9375 32.5639 45.8387 32.3254 45.6629 32.1496C45.4871 31.9738 45.2486 31.875 45 31.875ZM52.5 52.5C51.7541 52.5 51.0387 52.2037 50.5113 51.6762C49.9838 51.1488 49.6875 50.4334 49.6875 49.6875V32.8125C49.6875 32.0666 49.9838 31.3512 50.5113 30.8238C51.0387 30.2963 51.7541 30 52.5 30C53.2459 30 53.9613 30.2963 54.4887 30.8238C55.0162 31.3512 55.3125 32.0666 55.3125 32.8125V49.6875C55.3125 50.4334 55.0162 51.1488 54.4887 51.6762C53.9613 52.2037 53.2459 52.5 52.5 52.5ZM52.5 31.875C52.2514 31.875 52.0129 31.9738 51.8371 32.1496C51.6613 32.3254 51.5625 32.5639 51.5625 32.8125V49.6875C51.5625 49.9361 51.6613 50.1746 51.8371 50.3504C52.0129 50.5262 52.2514 50.625 52.5 50.625C52.7486 50.625 52.9871 50.5262 53.1629 50.3504C53.3387 50.1746 53.4375 49.9361 53.4375 49.6875V32.8125C53.4375 32.5639 53.3387 32.3254 53.1629 32.1496C52.9871 31.9738 52.7486 31.875 52.5 31.875ZM34.6875 7.5H29.0625C28.8139 7.5 28.5754 7.40123 28.3996 7.22541C28.2238 7.0496 28.125 6.81114 28.125 6.5625V0.9375C28.125 0.68886 28.2238 0.450403 28.3996 0.274587C28.5754 0.0987721 28.8139 0 29.0625 0L34.6875 0C34.9361 0 35.1746 0.0987721 35.3504 0.274587C35.5262 0.450403 35.625 0.68886 35.625 0.9375V6.5625C35.625 6.81114 35.5262 7.0496 35.3504 7.22541C35.1746 7.40123 34.9361 7.5 34.6875 7.5ZM30 5.625H33.75V1.875H30V5.625Z" fill="#005CCE"/>
<path d="M32.8123 12.1875H30.9373C30.75 12.1876 30.5668 12.1316 30.4116 12.0267C30.2563 11.9217 30.1361 11.7727 30.0664 11.5987L28.1914 6.91125L29.9333 6.21375L31.572 10.3125H32.1777L33.8164 6.21375L35.5583 6.91125L33.6833 11.5987C33.6136 11.7727 33.4933 11.9217 33.3381 12.0267C33.1829 12.1316 32.9997 12.1876 32.8123 12.1875Z" fill="#005CCE"/>
<path d="M30 15.9375C29.2541 15.9375 28.5387 15.6412 28.0113 15.1137C27.4838 14.5863 27.1875 13.8709 27.1875 13.125V12.1875H29.0625V13.125C29.0625 13.3736 29.1613 13.6121 29.3371 13.7879C29.5129 13.9637 29.7514 14.0625 30 14.0625C30.2486 14.0625 30.4871 13.9637 30.6629 13.7879C30.8387 13.6121 30.9375 13.3736 30.9375 13.125V11.25H32.8125V13.125C32.8125 13.8709 32.5162 14.5863 31.9887 15.1137C31.4613 15.6412 30.7459 15.9375 30 15.9375Z" fill="#005CCE"/>
<path d="M58.8563 24.3525L29.7938 17.79C29.5861 17.7432 29.4005 17.6271 29.2676 17.4608C29.1347 17.2945 29.0624 17.0879 29.0625 16.875V15H30.9375V16.125L59.2688 22.5216L58.8563 24.3525Z" fill="#005CCE"/>
<path d="M29.793 15.9619L0.730469 22.5221L1.14332 24.3511L30.2059 17.7909L29.793 15.9619Z" fill="#005CCE"/>
</g>
<defs>
<clipPath id="clip0_1_3331">
<rect width="60" height="60" fill="white"/>
</clipPath>
</defs>
</svg>
