<svg width="60" height="60" viewBox="0 0 60 60" fill="none" xmlns="http://www.w3.org/2000/svg">
<path d="M51.9239 36.3505H48.8339C48.6275 34.9933 48.2777 33.6829 47.7995 32.4343L50.2505 29.8603C50.5433 29.9305 50.8427 29.9695 51.1421 29.9695C52.1561 29.9695 53.1677 29.5711 53.9195 28.7815C54.6251 28.0405 55.0001 27.0697 54.9743 26.0473C54.9491 25.0243 54.5261 24.0727 53.7845 23.3683L51.0107 20.7325C49.4789 19.2787 47.0501 19.3393 45.5939 20.8681C44.8883 21.6091 44.5139 22.5805 44.5391 23.6035C44.5475 23.9413 44.6033 24.2695 44.6957 24.5857L43.5545 25.7839L25.1855 5.81469C24.8855 5.48829 24.3989 5.40969 24.0101 5.62629L6.68686 15.2929C5.66086 15.8827 5.02366 16.9849 5.02366 18.1687C5.02366 18.8743 5.24506 19.5493 5.66266 20.1205C5.66986 20.1301 5.67646 20.1391 5.68366 20.1487C6.43006 21.1273 6.84106 22.3447 6.84106 23.5765C6.84106 24.4477 6.63526 25.3201 6.24526 26.0995L5.12506 28.3375C4.91686 28.7527 5.03626 29.2579 5.40826 29.5363L9.21406 32.3869C9.64006 32.7055 10.2413 32.6179 10.5587 32.1943C10.8767 31.7701 10.7909 31.1665 10.3661 30.8491L7.20166 28.4797L7.96306 26.9599C8.48566 25.9153 8.76166 24.7453 8.76166 23.5771C8.76166 21.9331 8.21506 20.3083 7.22206 18.9997C7.22086 18.9979 7.21786 18.9943 7.21786 18.9943C7.03846 18.7525 6.94366 18.4669 6.94366 18.1693C6.94366 17.6635 7.20526 17.2111 7.63246 16.9657L24.2831 7.67409L27.6245 11.3065L30.8783 14.8435L36.9611 21.4549C36.0017 21.0727 35.0057 20.7643 33.9785 20.5405L29.3465 16.2439L28.6415 15.5899L27.9317 14.9317L27.3089 14.3545C27.2951 14.3419 27.2813 14.3299 27.2669 14.3179C26.4443 13.6387 25.7303 13.3225 25.0181 13.3225C24.4487 13.3225 23.8949 13.5325 23.3711 13.9465C22.8917 14.3251 22.3241 14.7445 21.6917 15.1927C21.4391 15.3715 21.1739 15.5557 20.9015 15.7429C20.6441 15.9199 20.3783 16.1011 20.1059 16.2841C17.5289 18.0199 14.3411 20.0059 11.5697 21.7093L11.5673 21.7105C11.4101 21.8071 11.0747 21.7771 10.6697 21.6283C10.1717 21.4471 9.61966 21.7015 9.43726 22.1995C9.25486 22.6981 9.51046 23.2495 10.0085 23.4319C10.5083 23.6155 10.9403 23.6857 11.3099 23.6857C11.5601 23.6857 11.7773 23.6503 11.9711 23.5987L16.0037 26.1163C14.3561 27.8593 13.0331 29.9095 12.1289 32.1697L10.3661 30.8491C9.94186 30.5311 9.33886 30.6175 9.02146 31.0417C8.70346 31.4665 8.78986 32.0689 9.21406 32.3869L10.5425 33.3823L10.0277 33.5107C9.79606 33.5689 9.59386 33.7105 9.46126 33.9091L7.82986 36.3535C6.27586 36.3895 5.02246 37.6615 5.02246 39.2227V41.1349C5.02246 41.6653 5.45266 42.0955 5.98306 42.0955L15.8867 42.0949L15.3629 43.1917C15.1427 43.6537 15.3221 44.2063 15.7715 44.4505L17.1167 45.1795L16.8215 46.6795C16.7231 47.1811 17.0351 47.6719 17.5307 47.7967L19.0163 48.1687L19.1033 49.6951C19.1327 50.2033 19.5533 50.6005 20.0627 50.6005H20.0675L21.5993 50.5921L22.0643 52.0495C22.2203 52.5361 22.7291 52.8169 23.2235 52.6867L24.7049 52.2979L25.5179 53.5939C25.7897 54.0265 26.3525 54.1717 26.7983 53.9227L28.1375 53.1781L29.2481 54.2317C29.4335 54.4075 29.6711 54.4951 29.9087 54.4951C30.1469 54.4951 30.3845 54.4069 30.5699 54.2317L31.6805 53.1781L33.0197 53.9227C33.4661 54.1711 34.0283 54.0265 34.3001 53.5939L35.1131 52.2979L36.5951 52.6867C37.0889 52.8163 37.5989 52.5367 37.7543 52.0495L38.2187 50.5921L39.7505 50.6005H39.7559C40.2647 50.6005 40.6853 50.2039 40.7153 49.6951L40.8029 48.1687L42.2879 47.7967C42.7835 47.6725 43.0955 47.1811 42.9971 46.6795L42.7019 45.1795L44.0471 44.4505C44.4971 44.2069 44.6765 43.6537 44.4563 43.1917L43.9325 42.0949H53.8361C54.3665 42.0949 54.7967 41.6647 54.7967 41.1343V39.2221C54.7991 37.6393 53.5091 36.3505 51.9239 36.3505ZM42.3317 43.1971L41.1677 43.8283C40.7981 44.0287 40.6019 44.4457 40.6829 44.8579L40.9379 46.1557L39.6533 46.4779C39.2453 46.5799 38.9519 46.9351 38.9279 47.3545L38.8517 48.6757L37.5263 48.6685C37.1201 48.6793 36.7337 48.9367 36.6059 49.3369L36.2033 50.5981L34.9211 50.2615C34.5131 50.1541 34.0859 50.3245 33.8633 50.6803L33.1595 51.8023L32.0003 51.1579C31.6331 50.9533 31.1765 51.0115 30.8729 51.3007L29.9111 52.2127L28.9499 51.3007C28.7669 51.1273 28.5293 51.0373 28.2881 51.0373C28.1285 51.0373 27.9683 51.0769 27.8219 51.1585L26.6627 51.8029L25.9589 50.6809C25.7363 50.3257 25.3097 50.1571 24.9011 50.2621L23.6189 50.5987L23.2169 49.3375C23.0897 48.9391 22.7195 48.6691 22.3013 48.6691H22.2965L20.9711 48.6763L20.8955 47.3557C20.8709 46.9363 20.5775 46.5811 20.1701 46.4791L18.8849 46.1569L19.1399 44.8591C19.2209 44.4469 19.0247 44.0299 18.6551 43.8295L17.4917 43.1983L18.0179 42.0967H28.4975C28.7921 42.1039 29.1023 42.1015 29.4257 42.0991L29.9117 42.0967L30.3977 42.0991C30.5573 42.1003 30.7133 42.1009 30.8633 42.1009C31.0175 42.1009 31.1657 42.0997 31.3037 42.0967H41.8055L42.3317 43.1971ZM42.7409 40.1749H31.2815C31.1489 40.1785 31.0121 40.1791 30.8723 40.1791V39.2251C30.8723 38.6947 30.4421 38.2645 29.9117 38.2645C29.3813 38.2645 28.9511 38.6947 28.9511 39.2251V40.1755C28.8083 40.1755 28.6631 40.1773 28.5197 40.1743H17.0819H15.6695H14.6039H6.94546V39.2227C6.94546 38.6977 7.37326 38.2711 7.89946 38.2711H8.34766H10.7963H11.7575H15.0473H15.7961H16.9385H17.9483H19.4333H20.3975H26.6003C26.9429 38.2711 27.2591 38.0887 27.4313 37.7923C27.9437 36.9085 28.8941 36.3589 29.9117 36.3589C30.9299 36.3589 31.8797 36.9079 32.3927 37.7923C32.5649 38.0881 32.8817 38.2711 33.2237 38.2711H39.4265H40.3913H41.8763H42.8861H44.0279H48.0671H49.0277H51.9245C52.4501 38.2711 52.8785 38.6983 52.8785 39.2227V40.1743H45.2195H44.1533L42.7409 40.1749ZM21.1961 17.8663C21.7943 18.3835 23.3411 19.6393 24.2495 19.6393C24.3497 19.6393 24.4415 19.6237 24.5243 19.5913C24.6107 19.5565 24.7415 19.5043 27.9557 17.5735L30.6995 20.1187C30.4379 20.1079 30.1757 20.0983 29.9111 20.0983C25.1561 20.0983 20.7953 21.8551 17.4383 24.7471L13.8935 22.5337C16.3433 21.0193 18.9833 19.3573 21.1961 17.8663ZM26.0243 15.7819L26.4887 16.2127C25.5539 16.7731 24.6407 17.3173 24.1355 17.6137C23.7833 17.3935 23.2571 17.0281 22.8503 16.7251C23.4917 16.2703 24.0731 15.8413 24.5633 15.4531C24.8015 15.2653 24.9377 15.2431 25.0193 15.2431C25.1777 15.2431 25.4807 15.3373 26.0243 15.7819ZM18.1877 26.6485C21.2681 23.7799 25.3931 22.0195 29.9117 22.0195C30.9893 22.0195 32.0435 22.1227 33.0677 22.3141C33.7235 22.4365 34.3673 22.5961 34.9955 22.7917C35.8523 23.0575 36.6803 23.3905 37.4753 23.7811C38.9753 24.5191 40.3541 25.4677 41.5715 26.5897C41.7875 26.7889 41.9987 26.9923 42.2045 27.2017C42.2261 27.2239 42.2495 27.2443 42.2711 27.2671C42.4733 27.4753 42.6689 27.6889 42.8597 27.9073C42.8807 27.9313 42.9011 27.9565 42.9215 27.9811C43.6613 28.8337 44.3171 29.7595 44.8799 30.7453C45.3131 31.5037 45.6905 32.2975 46.0061 33.1225C46.4009 34.1557 46.6997 35.2351 46.8887 36.3511H44.9903H43.8689H42.2213H41.0279C40.8065 35.5021 40.4903 34.6909 40.0901 33.9289C40.3577 33.7417 40.5911 33.5101 40.7813 33.2449C40.9679 32.9851 41.1125 32.6935 41.2043 32.3791C41.2787 32.1241 41.3207 31.8553 41.3207 31.5757C41.3207 31.0867 41.1971 30.6265 40.9811 30.2227C40.9379 30.1423 40.8911 30.0649 40.8413 29.9893C40.3499 29.2507 39.5255 28.7545 38.5841 28.7095C38.5385 28.7077 38.4929 28.7023 38.4467 28.7023C38.1617 28.7023 37.8875 28.7455 37.6277 28.8229C37.0991 28.9801 36.6353 29.2861 36.2813 29.6911C34.4543 28.4653 32.2625 27.7465 29.9123 27.7465C24.5963 27.7465 20.0831 31.4155 18.7967 36.3505H17.6033H15.9557H15.7979L15.5711 35.4439L15.1049 33.5803L15.0233 33.2545C14.9489 32.9581 14.7413 32.7325 14.4827 32.6161C14.3501 32.5561 14.2061 32.5231 14.0561 32.5285C14.5961 31.2601 15.2861 30.0697 16.1015 28.9771C16.7249 28.1389 17.4233 27.3595 18.1877 26.6485ZM46.9859 22.1923C47.3609 21.7987 47.8655 21.6001 48.3707 21.6001C48.8441 21.6001 49.3181 21.7741 49.6871 22.1251L52.4603 24.7609C52.8305 25.1119 53.0405 25.5859 53.0543 26.0953C53.0669 26.6041 52.8803 27.0877 52.5287 27.4567C52.2323 27.7681 51.8543 27.9505 51.4601 28.0165C50.8877 28.1125 50.2793 27.9547 49.8269 27.5245L47.0531 24.8887C46.6835 24.5377 46.4729 24.0643 46.4603 23.5555C46.4579 23.4637 46.4693 23.3743 46.4801 23.2843C46.5281 22.8757 46.6979 22.4953 46.9859 22.1923ZM45.7319 26.2831L48.5003 28.9129L46.9511 30.5395C46.3493 29.3689 45.6311 28.2673 44.8103 27.2503L45.7319 26.2831ZM38.4125 30.6271C38.4233 30.6271 38.4341 30.6235 38.4449 30.6235C38.5895 30.6235 38.7257 30.6583 38.8481 30.7165C39.1721 30.8689 39.3983 31.1953 39.3983 31.5751C39.3983 31.8673 39.2627 32.1259 39.0545 32.3005C38.8889 32.4397 38.6777 32.5267 38.4449 32.5267C38.1929 32.5267 37.9655 32.4271 37.7951 32.2675C37.7447 32.2207 37.6991 32.1697 37.6595 32.1133C37.5539 31.9597 37.4909 31.7749 37.4909 31.5745C37.4909 31.3063 37.6037 31.0645 37.7831 30.8911C37.9487 30.7339 38.1689 30.6355 38.4125 30.6271ZM38.1755 34.4341C38.5271 35.0353 38.8157 35.6761 39.0305 36.3505H33.7367C32.8385 35.1589 31.4195 34.4389 29.9111 34.4389C28.4033 34.4389 26.9843 35.1589 26.0861 36.3505H20.7917C22.0211 32.4859 25.6583 29.6677 29.9111 29.6677C32.0231 29.6677 33.9833 30.3631 35.5721 31.5361C35.5721 31.5493 35.5703 31.5619 35.5703 31.5751C35.5703 33.0679 36.7163 34.2973 38.1755 34.4341ZM11.1989 35.1991L12.2465 34.9375L12.5261 34.8673L13.3085 34.6717L13.3907 34.6513L13.5929 35.4589L13.8155 36.3493H12.9335H11.9567H10.9883H10.1429L10.8539 35.2843L11.1989 35.1991Z" fill="#005CCE"/>
</svg>
