<svg width="60" height="60" viewBox="0 0 60 60" fill="none" xmlns="http://www.w3.org/2000/svg">
<path d="M57.1875 38.4375H56.25V35.625C56.2489 34.4388 55.9248 33.2753 55.3125 32.2594V10.3125C55.3125 9.31794 54.9174 8.36411 54.2141 7.66085C53.5109 6.95759 52.5571 6.5625 51.5625 6.5625C50.5679 6.5625 49.6141 6.95759 48.9109 7.66085C48.2076 8.36411 47.8125 9.31794 47.8125 10.3125V14.0625H12.1875V10.3125C12.1875 9.31794 11.7924 8.36411 11.0892 7.66085C10.3859 6.95759 9.43206 6.5625 8.4375 6.5625C7.44294 6.5625 6.48911 6.95759 5.78585 7.66085C5.08259 8.36411 4.6875 9.31794 4.6875 10.3125V32.2594C4.07518 33.2753 3.75109 34.4388 3.75 35.625V38.4375H2.8125C2.56386 38.4375 2.3254 38.5363 2.14959 38.7121C1.97377 38.8879 1.875 39.1264 1.875 39.375V46.875C1.875 47.1236 1.97377 47.3621 2.14959 47.5379C2.3254 47.7137 2.56386 47.8125 2.8125 47.8125H3.75V52.5C3.75 52.7486 3.84877 52.9871 4.02459 53.1629C4.2004 53.3387 4.43886 53.4375 4.6875 53.4375H7.5C7.69607 53.4361 7.88691 53.374 8.04635 53.2599C8.20579 53.1458 8.32604 52.9851 8.39062 52.8L10.05 47.8125H49.95L51.6094 52.8C51.674 52.9851 51.7942 53.1458 51.9536 53.2599C52.1131 53.374 52.3039 53.4361 52.5 53.4375H55.3125C55.5611 53.4375 55.7996 53.3387 55.9754 53.1629C56.1512 52.9871 56.25 52.7486 56.25 52.5V47.8125H57.1875C57.4361 47.8125 57.6746 47.7137 57.8504 47.5379C58.0262 47.3621 58.125 47.1236 58.125 46.875V39.375C58.125 39.1264 58.0262 38.8879 57.8504 38.7121C57.6746 38.5363 57.4361 38.4375 57.1875 38.4375ZM49.6875 10.3125C49.6875 9.81522 49.885 9.33831 50.2367 8.98668C50.5883 8.63504 51.0652 8.4375 51.5625 8.4375C52.0598 8.4375 52.5367 8.63504 52.8883 8.98668C53.24 9.33831 53.4375 9.81522 53.4375 10.3125V14.0625H49.6875V10.3125ZM6.5625 10.3125C6.5625 9.81522 6.76004 9.33831 7.11167 8.98668C7.46331 8.63504 7.94022 8.4375 8.4375 8.4375C8.93478 8.4375 9.41169 8.63504 9.76332 8.98668C10.115 9.33831 10.3125 9.81522 10.3125 10.3125V14.0625H6.5625V10.3125ZM6.5625 15.9375H53.4375V30.2437C52.3379 29.4753 51.029 29.063 49.6875 29.0625V24.375C49.6853 23.6298 49.3882 22.9157 48.8613 22.3887C48.3343 21.8618 47.6202 21.5647 46.875 21.5625H33.75C33.0048 21.5647 32.2907 21.8618 31.7637 22.3887C31.2368 22.9157 30.9397 23.6298 30.9375 24.375V29.0625H29.0625V24.375C29.0603 23.6298 28.7632 22.9157 28.2363 22.3887C27.7093 21.8618 26.9952 21.5647 26.25 21.5625H13.125C12.3798 21.5647 11.6657 21.8618 11.1387 22.3887C10.6118 22.9157 10.3147 23.6298 10.3125 24.375V29.0625C8.97103 29.063 7.66205 29.4753 6.5625 30.2437V15.9375ZM47.8125 24.375V29.0625H32.8125V24.375C32.8125 24.1264 32.9113 23.8879 33.0871 23.7121C33.2629 23.5363 33.5014 23.4375 33.75 23.4375H46.875C47.1236 23.4375 47.3621 23.5363 47.5379 23.7121C47.7137 23.8879 47.8125 24.1264 47.8125 24.375ZM27.1875 24.375V29.0625H12.1875V24.375C12.1875 24.1264 12.2863 23.8879 12.4621 23.7121C12.6379 23.5363 12.8764 23.4375 13.125 23.4375H26.25C26.4986 23.4375 26.7371 23.5363 26.9129 23.7121C27.0887 23.8879 27.1875 24.1264 27.1875 24.375ZM5.625 35.625C5.625 34.3818 6.11886 33.1895 6.99794 32.3104C7.87701 31.4314 9.0693 30.9375 10.3125 30.9375H49.6875C50.9307 30.9375 52.123 31.4314 53.0021 32.3104C53.8811 33.1895 54.375 34.3818 54.375 35.625V38.4375H5.625V35.625ZM6.825 51.5625H5.625V47.8125H8.07187L6.825 51.5625ZM54.375 51.5625H53.175L51.9281 47.8125H54.375V51.5625ZM56.25 45.9375H3.75V40.3125H56.25V45.9375Z" fill="#005CCE"/>
</svg>
