<svg width="60" height="60" viewBox="0 0 60 60" fill="none" xmlns="http://www.w3.org/2000/svg">
<path d="M51.93 24.8304C51.8459 24.7073 51.733 24.6066 51.6011 24.5371C51.4693 24.4676 51.3224 24.4313 51.1734 24.4314H43.053V18.8868C43.0531 18.7664 43.0294 18.6471 42.9834 18.5358C42.9373 18.4246 42.8698 18.3235 42.7846 18.2383C42.6995 18.1532 42.5984 18.0856 42.4871 18.0396C42.3759 17.9936 42.2566 17.9699 42.1362 17.97H10.353C10.1099 17.9701 9.87677 18.0668 9.70488 18.2387C9.53298 18.4106 9.43633 18.6437 9.43618 18.8868V23.9076H2.49478C1.27257 23.9076 1.27257 25.7412 2.49478 25.7412H9.43618V27.171H6.51118C5.28898 27.171 5.28898 29.0046 6.51118 29.0046H9.43618V30.4326H2.49478C1.27257 30.4326 1.27257 32.2662 2.49478 32.2662H9.43618V33.696H6.51118C5.28898 33.696 5.28898 35.5296 6.51118 35.5296H9.43618V43.9032C9.43633 44.1463 9.53298 44.3794 9.70488 44.5513C9.87677 44.7232 10.1099 44.8198 10.353 44.82H13.986C14.1462 45.7138 14.5394 46.5496 15.126 47.2428H2.49478C1.27257 47.2428 1.27257 49.0764 2.49478 49.0764H57.504C58.7262 49.0764 58.7262 47.2428 57.504 47.2428H53.7642C54.3513 46.5499 54.7446 45.714 54.9042 44.82H57.501C57.7441 44.82 57.9773 44.7234 58.1493 44.5514C58.3212 44.3795 58.4178 44.1463 58.4178 43.9032V34.6032C58.4182 34.4188 58.363 34.2385 58.2594 34.086L51.93 24.8304ZM22.1586 45.18C21.8844 45.8421 21.4046 46.3985 20.7899 46.767C20.1753 47.1355 19.4584 47.2965 18.7452 47.2263C18.032 47.1561 17.3603 46.8584 16.8293 46.3771C16.2983 45.8958 15.9361 45.2565 15.7964 44.5536C15.6566 43.8507 15.7466 43.1215 16.0531 42.4737C16.3596 41.8259 16.8663 41.2939 17.4984 40.9561C18.1305 40.6184 18.8544 40.4929 19.5633 40.5983C20.2722 40.7036 20.9284 41.0341 21.435 41.541C21.9019 42.008 22.2198 42.603 22.3486 43.2507C22.4774 43.8985 22.4113 44.5698 22.1586 45.18ZM19.0728 38.7294C17.8597 38.7293 16.6852 39.1561 15.7552 39.9349C14.8252 40.7138 14.1988 41.7951 13.986 42.9894H11.2698V35.5314H17.5134C18.7356 35.5314 18.7356 33.6978 17.5134 33.6978H11.2698V32.2662H13.4994C14.7222 32.2662 14.7222 30.4326 13.4994 30.4326H11.2698V29.0046H17.5134C18.7356 29.0046 18.7356 27.171 17.5134 27.171H11.2698V25.74H13.4994C14.7222 25.74 14.7222 23.9064 13.4994 23.9064H11.2698V19.8024H41.2194V42.9864H24.1602C23.9462 41.7928 23.3194 40.7124 22.3894 39.9342C21.4594 39.156 20.2854 38.7295 19.0728 38.7294ZM23.0178 47.2428C23.6049 46.5499 23.9982 45.714 24.1578 44.82H44.7324C44.893 45.7137 45.2861 46.5493 45.8724 47.2428H23.0178ZM52.9056 45.18C52.6314 45.8421 52.1516 46.3985 51.5369 46.767C50.9223 47.1355 50.2054 47.2965 49.4922 47.2263C48.779 47.1561 48.1073 46.8584 47.5763 46.3771C47.0453 45.8958 46.6832 45.2565 46.5434 44.5536C46.4036 43.8507 46.4936 43.1215 46.8001 42.4737C47.1066 41.8259 47.6133 41.2939 48.2454 40.9561C48.8775 40.6184 49.6014 40.4929 50.3103 40.5983C51.0192 40.7036 51.6754 41.0341 52.182 41.541C52.6489 42.008 52.9668 42.603 53.0956 43.2507C53.2244 43.8985 53.1583 44.5698 52.9056 45.18ZM56.5872 42.9858H54.9072C54.6933 41.7921 54.0666 40.7117 53.1365 39.9334C52.2065 39.1552 51.0325 38.7288 49.8198 38.7288C48.6071 38.7288 47.4331 39.1552 46.503 39.9334C45.573 40.7117 44.9462 41.7921 44.7324 42.9858H43.0524V26.265H50.6898L56.5872 34.8858V42.9858Z" fill="#005CCE"/>
<path d="M49.6021 27.2034H44.9959C44.7528 27.2035 44.5197 27.3002 44.3478 27.4721C44.1759 27.644 44.0793 27.8771 44.0791 28.1202V34.0146C44.0793 34.2577 44.1759 34.4908 44.3478 34.6627C44.5197 34.8346 44.7528 34.9312 44.9959 34.9314H53.7715C53.9396 34.9314 54.1045 34.8851 54.2481 34.7977C54.3918 34.7103 54.5086 34.5851 54.5858 34.4357C54.663 34.2864 54.6977 34.1187 54.6861 33.951C54.6744 33.7833 54.6169 33.622 54.5197 33.4848L50.3509 27.591C50.2661 27.4712 50.1539 27.3736 50.0236 27.3061C49.8934 27.2387 49.7488 27.2034 49.6021 27.2034ZM45.9127 33.0978V29.04H49.1281L51.9997 33.1008L45.9127 33.0978Z" fill="#005CCE"/>
</svg>
