<svg width="60" height="60" viewBox="0 0 60 60" fill="none" xmlns="http://www.w3.org/2000/svg">
<g clip-path="url(#clip0_1_1591)">
<path d="M50.6191 56.2574C50.1006 56.2574 49.6816 55.8384 49.6816 55.3199C49.6816 54.8015 50.1006 54.3824 50.6191 54.3824C52.1697 54.3824 53.4316 53.1206 53.4316 51.5699C53.4316 50.0193 52.1697 48.7574 50.6191 48.7574C50.1006 48.7574 49.6816 48.3384 49.6816 47.8199C49.6816 47.3015 50.1006 46.8824 50.6191 46.8824C53.2038 46.8824 55.3066 48.9853 55.3066 51.5699C55.3066 54.1546 53.2038 56.2574 50.6191 56.2574ZM11.2422 56.2574C9.69156 56.2574 8.42969 54.9956 8.42969 53.4449C8.42969 51.8943 9.69156 50.6324 11.2422 50.6324C11.7606 50.6324 12.1797 51.0515 12.1797 51.5699C12.1797 52.0884 11.7606 52.5074 11.2422 52.5074C10.7247 52.5074 10.3047 52.9274 10.3047 53.4449C10.3047 53.9624 10.7247 54.3824 11.2422 54.3824C11.7606 54.3824 12.1797 54.8015 12.1797 55.3199C12.1797 55.8384 11.7606 56.2574 11.2422 56.2574Z" fill="#005CCE"/>
<path d="M11.252 60.0075C7.63414 60.0075 4.68945 57.0628 4.68945 53.445C4.68945 49.8281 7.63414 46.8843 11.252 46.8843C11.7704 46.8843 12.1895 47.3034 12.1895 47.8218C12.1895 48.3403 11.7704 48.7593 11.252 48.7593C8.66727 48.7593 6.56445 50.8612 6.56445 53.445C6.56445 56.0296 8.66727 58.1325 11.252 58.1325C11.7704 58.1325 12.1895 58.5515 12.1895 59.07C12.1895 59.5884 11.7704 60.0075 11.252 60.0075ZM5.62695 18.75C5.10852 18.75 4.68945 18.3309 4.68945 17.8125C4.68945 14.1956 7.63414 11.2518 11.252 11.2518C11.7704 11.2518 12.1895 11.6709 12.1895 12.1893C12.1895 12.7078 11.7704 13.1268 11.252 13.1268C8.66727 13.1268 6.56445 15.2287 6.56445 17.8125C6.56445 18.3309 6.14539 18.75 5.62695 18.75Z" fill="#005CCE"/>
<path d="M50.6191 52.5074H11.2422C10.7238 52.5074 10.3047 52.0884 10.3047 51.5699C10.3047 51.0515 10.7238 50.6324 11.2422 50.6324H50.6191C51.1375 50.6324 51.5566 51.0515 51.5566 51.5699C51.5566 52.0884 51.1375 52.5074 50.6191 52.5074ZM50.6191 48.7574H11.2497C10.7313 48.7574 10.3122 48.3384 10.3122 47.8199C10.3122 47.3015 10.7313 46.8824 11.2497 46.8824H50.6191C51.1375 46.8824 51.5566 47.3015 51.5566 47.8199C51.5566 48.3384 51.1375 48.7574 50.6191 48.7574ZM50.6191 56.2574H11.2422C10.7238 56.2574 10.3047 55.8384 10.3047 55.3199C10.3047 54.8015 10.7238 54.3824 11.2422 54.3824H50.6191C51.1375 54.3824 51.5566 54.8015 51.5566 55.3199C51.5566 55.8384 51.1375 56.2574 50.6191 56.2574ZM50.6191 60.0075H11.2422C10.7238 60.0075 10.3047 59.5884 10.3047 59.0699C10.3047 58.5515 10.7238 58.1324 11.2422 58.1324H50.6191C51.1375 58.1324 51.5566 58.5515 51.5566 59.0699C51.5566 59.5884 51.1375 60.0075 50.6191 60.0075Z" fill="#005CCE"/>
<path d="M50.6195 60.0075C50.101 60.0075 49.682 59.5884 49.682 59.07V55.32C49.682 54.8015 50.101 54.3825 50.6195 54.3825C51.1379 54.3825 51.557 54.8015 51.557 55.32V59.07C51.557 59.5884 51.1379 60.0075 50.6195 60.0075ZM5.62695 54.3825C5.10852 54.3825 4.68945 53.9634 4.68945 53.445V17.8125C4.68945 17.294 5.10852 16.875 5.62695 16.875C6.14539 16.875 6.56445 17.294 6.56445 17.8125V53.445C6.56445 53.9634 6.14539 54.3825 5.62695 54.3825ZM54.3732 18.75C53.8548 18.75 53.4357 18.3309 53.4357 17.8125C53.4357 15.2287 51.3329 13.1268 48.7482 13.1268C48.2298 13.1268 47.8107 12.7078 47.8107 12.1893C47.8107 11.6709 48.2298 11.2518 48.7482 11.2518C52.366 11.2518 55.3107 14.1956 55.3107 17.8125C55.3107 18.3309 54.8916 18.75 54.3732 18.75Z" fill="#005CCE"/>
<path d="M54.373 52.5075C53.8546 52.5075 53.4355 52.0884 53.4355 51.57V17.8125C53.4355 17.2941 53.8546 16.875 54.373 16.875C54.8915 16.875 55.3105 17.2941 55.3105 17.8125V51.57C55.3105 52.0884 54.8915 52.5075 54.373 52.5075ZM44.9887 44.9812C44.4702 44.9812 44.0512 44.5622 44.0512 44.0437C44.0512 43.5253 44.4702 43.1062 44.9887 43.1062C46.5393 43.1062 47.8012 41.8444 47.8012 40.2937C47.8012 38.7431 46.5393 37.4812 44.9887 37.4812C44.4702 37.4812 44.0512 37.0622 44.0512 36.5437C44.0512 36.0253 44.4702 35.6062 44.9887 35.6062C47.5734 35.6062 49.6762 37.7091 49.6762 40.2937C49.6762 42.8784 47.5734 44.9812 44.9887 44.9812ZM16.873 44.9812C15.3224 44.9812 14.0605 43.7194 14.0605 42.1687C14.0605 40.6181 15.3224 39.3562 16.873 39.3562C17.3915 39.3562 17.8105 39.7753 17.8105 40.2937C17.8105 40.8122 17.3915 41.2312 16.873 41.2312C16.3555 41.2312 15.9355 41.6512 15.9355 42.1687C15.9355 42.6862 16.3555 43.1062 16.873 43.1062C17.3915 43.1062 17.8105 43.5253 17.8105 44.0437C17.8105 44.5622 17.3915 44.9812 16.873 44.9812Z" fill="#005CCE"/>
<path d="M16.8828 48.7304C13.265 48.7304 10.3203 45.7866 10.3203 42.1697C10.3203 38.5519 13.265 35.6072 16.8828 35.6072C17.4012 35.6072 17.8203 36.0263 17.8203 36.5447C17.8203 37.0632 17.4012 37.4822 16.8828 37.4822C14.2981 37.4822 12.1953 39.5851 12.1953 42.1697C12.1953 44.7535 14.2981 46.8554 16.8828 46.8554C17.4012 46.8554 17.8203 47.2744 17.8203 47.7929C17.8203 48.3113 17.4012 48.7304 16.8828 48.7304ZM11.2578 7.49255C10.7394 7.49255 10.3203 7.07349 10.3203 6.55505C10.3203 2.93724 13.265 -0.00744629 16.8828 -0.00744629C17.4012 -0.00744629 17.8203 0.411616 17.8203 0.930054C17.8203 1.44849 17.4012 1.86755 16.8828 1.86755C14.2981 1.86755 12.1953 3.97037 12.1953 6.55505C12.1953 7.07349 11.7763 7.49255 11.2578 7.49255Z" fill="#005CCE"/>
<path d="M44.9887 41.2312H16.873C16.3546 41.2312 15.9355 40.8121 15.9355 40.2937C15.9355 39.7753 16.3546 39.3562 16.873 39.3562H44.9887C45.5071 39.3562 45.9262 39.7753 45.9262 40.2937C45.9262 40.8121 45.5071 41.2312 44.9887 41.2312ZM44.9887 37.4812H16.8805C16.3621 37.4812 15.943 37.0621 15.943 36.5437C15.943 36.0253 16.3621 35.6062 16.8805 35.6062H44.9887C45.5071 35.6062 45.9262 36.0253 45.9262 36.5437C45.9262 37.0621 45.5071 37.4812 44.9887 37.4812ZM44.9887 44.9812H16.873C16.3546 44.9812 15.9355 44.5621 15.9355 44.0437C15.9355 43.5253 16.3546 43.1062 16.873 43.1062H44.9887C45.5071 43.1062 45.9262 43.5253 45.9262 44.0437C45.9262 44.5621 45.5071 44.9812 44.9887 44.9812ZM44.9887 48.7303H16.873C16.3546 48.7303 15.9355 48.3112 15.9355 47.7928C15.9355 47.2743 16.3546 46.8553 16.873 46.8553H44.9887C45.5071 46.8553 45.9262 47.2743 45.9262 47.7928C45.9262 48.3112 45.5071 48.7303 44.9887 48.7303Z" fill="#005CCE"/>
<path d="M44.9891 48.7304C44.4706 48.7304 44.0516 48.3113 44.0516 47.7929V44.0438C44.0516 43.5254 44.4706 43.1063 44.9891 43.1063C45.5075 43.1063 45.9266 43.5254 45.9266 44.0438V47.7919C45.9266 48.3104 45.5075 48.7304 44.9891 48.7304ZM11.2578 43.1063C10.7394 43.1063 10.3203 42.6872 10.3203 42.1688V6.55505C10.3203 6.03662 10.7394 5.61755 11.2578 5.61755C11.7763 5.61755 12.1953 6.03662 12.1953 6.55505V42.1688C12.1953 42.6872 11.7763 43.1063 11.2578 43.1063ZM48.7428 7.49255C48.2244 7.49255 47.8053 7.07349 47.8053 6.55505C47.8053 3.97037 45.7025 1.86755 43.1178 1.86755C42.5994 1.86755 42.1803 1.44849 42.1803 0.930054C42.1803 0.411616 42.5994 -0.00744629 43.1178 -0.00744629C46.7356 -0.00744629 49.6803 2.93724 49.6803 6.55505C49.6803 7.07349 49.2612 7.49255 48.7428 7.49255Z" fill="#005CCE"/>
<path d="M48.7428 41.2313C48.2244 41.2313 47.8053 40.8122 47.8053 40.2938V6.55505C47.8053 6.03662 48.2244 5.61755 48.7428 5.61755C49.2612 5.61755 49.6803 6.03662 49.6803 6.55505V40.2938C49.6803 40.8122 49.2612 41.2313 48.7428 41.2313ZM43.1178 1.86755H16.8828C16.3644 1.86755 15.9453 1.44849 15.9453 0.930054C15.9453 0.411616 16.3644 -0.00744629 16.8828 -0.00744629H43.1178C43.6363 -0.00744629 44.0553 0.411616 44.0553 0.930054C44.0553 1.44849 43.6363 1.86755 43.1178 1.86755Z" fill="#005CCE"/>
</g>
<defs>
<clipPath id="clip0_1_1591">
<rect width="60" height="60" fill="white"/>
</clipPath>
</defs>
</svg>
