<svg width="40" height="40" viewBox="0 0 40 40" fill="none" xmlns="http://www.w3.org/2000/svg">
<path d="M30.9818 36.7047H28.9105C28.6242 36.7047 28.3926 36.4731 28.3926 36.1869C28.3926 35.9006 28.6242 35.669 28.9105 35.669H30.9818C31.2681 35.669 31.4997 35.9006 31.4997 36.1869C31.4997 36.4731 31.2681 36.7047 30.9818 36.7047ZM26.8391 36.7047H24.7677C24.4814 36.7047 24.2498 36.4731 24.2498 36.1869C24.2498 35.9006 24.4814 35.669 24.7677 35.669H26.8391C27.1253 35.669 27.3569 35.9006 27.3569 36.1869C27.3569 36.4731 27.1253 36.7047 26.8391 36.7047ZM22.6963 36.7047H20.6249C20.3387 36.7047 20.1071 36.4731 20.1071 36.1869C20.1071 35.9006 20.3387 35.669 20.6249 35.669H22.6963C22.9825 35.669 23.2141 35.9006 23.2141 36.1869C23.2141 36.4731 22.9825 36.7047 22.6963 36.7047ZM18.5535 36.7047H17.2508C16.9459 36.7042 16.648 36.6678 16.3643 36.5975C16.0867 36.5282 15.9183 36.247 15.987 35.9694C16.0568 35.6923 16.3365 35.5244 16.6151 35.5921C16.8174 35.6427 17.0313 35.6685 17.2518 35.669H18.5535C18.8397 35.669 19.0714 35.9006 19.0714 36.1869C19.0714 36.4731 18.8397 36.7047 18.5535 36.7047ZM14.8087 35.4779C14.6489 35.4779 14.4917 35.4045 14.3905 35.266C13.9379 34.6475 13.6891 33.8884 13.6891 33.1283L13.6916 32.9963C13.7027 32.7101 13.9384 32.4785 14.2302 32.5002C14.5159 32.5119 14.7379 32.7531 14.7263 33.0388L14.7248 33.1283C14.7248 33.6704 14.9028 34.2121 15.2259 34.6541C15.3949 34.8852 15.3448 35.2093 15.1142 35.3777C15.0216 35.4455 14.9149 35.4779 14.8087 35.4779ZM14.9741 31.6557C14.8522 31.6557 14.7304 31.6132 14.6322 31.5267C14.4173 31.3376 14.3966 31.0104 14.5852 30.796L16.0493 29.2915C16.249 29.0877 16.5767 29.0836 16.7815 29.2834C16.9858 29.4832 16.9899 29.8109 16.7896 30.0157L15.363 31.4797C15.2603 31.596 15.1177 31.6557 14.9741 31.6557ZM17.8668 28.6897C17.7363 28.6897 17.6058 28.6407 17.5047 28.542C17.3004 28.3423 17.2963 28.0146 17.4966 27.8098L18.9444 26.328C19.1442 26.1242 19.4719 26.1197 19.6767 26.3199C19.881 26.5197 19.8851 26.8474 19.6848 27.0522L18.2369 28.5339C18.1358 28.6376 18.0013 28.6897 17.8668 28.6897ZM20.762 25.7267C20.6315 25.7267 20.501 25.6777 20.3999 25.5796C20.1956 25.3793 20.1915 25.0516 20.3913 24.8468L21.8386 23.3651C22.0394 23.1613 22.3666 23.1577 22.5714 23.3565C22.7757 23.5568 22.7797 23.8845 22.58 24.0893L21.1326 25.571C21.031 25.6747 20.8965 25.7267 20.762 25.7267ZM23.6571 22.7633C23.5267 22.7633 23.3962 22.7142 23.295 22.6156C23.0907 22.4159 23.0867 22.0882 23.287 21.8834L24.7085 20.4208C24.8961 20.2039 25.2238 20.1806 25.4388 20.3682C25.6552 20.5554 25.6785 20.8826 25.4913 21.0985C25.4428 21.1546 25.3917 21.2108 25.3391 21.2649L24.0273 22.6075C23.9262 22.7112 23.7917 22.7633 23.6571 22.7633ZM25.8373 18.8688L25.3194 18.8572C25.3204 18.2473 25.1343 17.6951 24.7965 17.247C24.6241 17.0184 24.6696 16.6938 24.8976 16.5218C25.1252 16.3479 25.4504 16.3939 25.6228 16.623C26.0962 17.2495 26.3561 18.0243 26.3556 18.8036L25.8373 18.8688ZM23.5115 16.3433C23.4726 16.3433 23.4331 16.3393 23.3937 16.3296C23.201 16.2851 22.9992 16.2624 22.7944 16.2624H21.4462C21.1599 16.2624 20.9283 16.0308 20.9283 15.7445C20.9283 15.4583 21.1599 15.2267 21.4462 15.2267H22.7944C23.0781 15.2267 23.3583 15.2585 23.6283 15.3213C23.9065 15.3855 24.0799 15.6641 24.0152 15.9428C23.9601 16.182 23.7467 16.3433 23.5115 16.3433ZM19.3748 16.2624H17.3034C17.0172 16.2624 16.7856 16.0308 16.7856 15.7445C16.7856 15.4583 17.0172 15.2267 17.3034 15.2267H19.3748C19.661 15.2267 19.8926 15.4583 19.8926 15.7445C19.8926 16.0308 19.661 16.2624 19.3748 16.2624ZM15.232 16.2624H13.1606C12.8744 16.2624 12.6428 16.0308 12.6428 15.7445C12.6428 15.4583 12.8744 15.2267 13.1606 15.2267H15.232C15.5182 15.2267 15.7499 15.4583 15.7499 15.7445C15.7499 16.0308 15.5182 16.2624 15.232 16.2624ZM11.0892 16.2624H9.01785C8.73161 16.2624 8.5 16.0308 8.5 15.7445C8.5 15.4583 8.73161 15.2267 9.01785 15.2267H11.0892C11.3755 15.2267 11.6071 15.4583 11.6071 15.7445C11.6071 16.0308 11.3755 16.2624 11.0892 16.2624Z" fill="#B0B0B0"/>
<path d="M8.93164 1.88672C5.6422 1.88672 2.9707 4.54817 2.9707 7.83768C2.9707 10.3666 6.4939 14.9517 8.12306 16.9367C8.54304 17.4484 9.31986 17.448 9.7394 16.936C11.3661 14.9506 14.8825 10.3663 14.8825 7.83767C14.8825 4.54817 12.2211 1.88672 8.93164 1.88672Z" fill="#B0B0B0"/>
<path d="M8.9307 11.1578C7.09655 11.1578 5.61133 9.67253 5.61133 7.83845C5.61133 6.01428 7.09656 4.52905 8.9307 4.52905C10.7548 4.52905 12.2401 6.01428 12.2401 7.83845C12.2401 9.67253 10.7548 11.1578 8.9307 11.1578Z" fill="white"/>
<path d="M8.93222 1.88672C8.86244 1.88672 8.78267 1.88672 8.71289 1.8967C11.8927 2.01631 14.4345 4.62793 14.4345 7.83768C14.4345 10.3695 10.9159 14.9548 9.29106 16.9385C9.13159 17.1279 8.93222 17.2475 8.71289 17.2974C9.07173 17.3771 9.48045 17.2574 9.73963 16.9385C11.3644 14.9548 14.8831 10.3695 14.8831 7.83768C14.8831 4.54817 12.2217 1.88672 8.93222 1.88672Z" fill="#B0B0B0"/>
<path d="M5.2833 7.83768C5.2833 4.9569 7.33672 2.55456 10.058 2.00633C9.69914 1.92663 9.32035 1.88672 8.93164 1.88672C5.6422 1.88672 2.9707 4.54817 2.9707 7.83768C2.9707 10.3695 6.48945 14.9548 8.12423 16.9385C8.54287 17.4468 9.32035 17.4468 9.73905 16.9385C9.84869 16.8089 9.9683 16.6694 10.0879 16.5098C8.35348 14.3568 5.2833 10.2001 5.2833 7.83768Z" fill="#B0B0B0"/>
<path d="M31.0801 22.6779C27.7906 22.6779 25.1191 25.3393 25.1191 28.6288C25.1191 31.1577 28.6423 35.7428 30.2715 37.7278C30.6915 38.2395 31.4683 38.2392 31.8878 37.7271C33.5145 35.7418 37.031 31.1574 37.031 28.6288C37.031 25.3393 34.3695 22.6779 31.0801 22.6779Z" fill="#B0B0B0"/>
<path d="M31.0791 31.9489C29.245 31.9489 27.7598 30.4637 27.7598 28.6296C27.7598 26.8054 29.245 25.3202 31.0791 25.3202C32.9033 25.3202 34.3885 26.8054 34.3885 28.6296C34.3885 30.4637 32.9032 31.9489 31.0791 31.9489Z" fill="white"/>
<path d="M31.0787 22.6779C31.0089 22.6779 30.9292 22.6779 30.8594 22.6878C34.0392 22.8075 36.581 25.4191 36.581 28.6288C36.581 31.1607 33.0623 35.746 31.4375 37.7296C31.2781 37.919 31.0787 38.0387 30.8594 38.0885C31.2182 38.1682 31.6269 38.0486 31.8861 37.7296C33.5109 35.746 37.0296 31.1607 37.0296 28.6288C37.0296 25.3393 34.3681 22.6779 31.0787 22.6779Z" fill="#B0B0B0"/>
<path d="M27.4317 28.6288C27.4317 25.748 29.4852 23.3457 32.2065 22.7975C31.8476 22.7178 31.4688 22.6779 31.0801 22.6779C27.7906 22.6779 25.1191 25.3393 25.1191 28.6288C25.1191 31.1607 28.6379 35.746 30.2727 37.7297C30.6913 38.238 31.4688 38.238 31.8875 37.7297C31.9971 37.6001 32.1167 37.4605 32.2363 37.301C30.5019 35.1479 27.4317 30.9912 27.4317 28.6288Z" fill="#B0B0B0"/>
</svg>
