<svg width="80" height="80" viewBox="0 0 80 80" fill="none" xmlns="http://www.w3.org/2000/svg">
<path d="M4.29848 42.5074H7.04475C7.04475 42.6268 7.04475 50.8656 7.04475 50.5074C7.04475 52.5372 8.59698 54.0895 10.6268 54.0895H12.6567C13.2537 58.5074 17.0746 61.9701 21.6119 61.9701C26.1492 61.9701 29.9701 58.5074 30.5671 54.0895H54.6865C55.2836 58.5074 59.1044 61.9701 63.6418 61.9701C68.1791 61.9701 72 58.5074 72.597 54.0895H74.5074C76.5373 54.0895 78.0895 52.5372 78.0895 50.5074V39.6417C78.0895 37.6119 76.5373 36.0596 74.5074 36.0596H58.7462C58.6268 36.0596 58.5074 36.0596 58.5074 35.9402L52.5373 24.5969C51.9403 23.4029 50.7462 22.6865 49.3134 22.6865H46.8059V20.4178H48.4776C49.194 20.4178 49.6716 19.9402 49.6716 19.2238C49.6716 18.5074 49.194 18.0298 48.4776 18.0298H9.55221C8.83579 18.0298 8.35818 18.5074 8.35818 19.2238C8.35818 19.9402 8.83579 20.4178 9.55221 20.4178H11.2239V22.6865H10.5074C8.47758 22.6865 6.92534 24.2387 6.92534 26.2686V29.9701H4.29848C2.98505 29.9701 1.79102 31.0447 1.79102 32.4775V40.1193C1.79102 41.4328 2.86564 42.5074 4.29848 42.5074ZM9.3134 50.5074V49.6716H12.8955C12.6567 50.1492 12.5373 50.8656 12.4179 51.4626C12.4179 51.582 12.4179 51.582 12.4179 51.7014H10.5074C9.91042 51.7014 9.3134 51.2238 9.3134 50.5074ZM21.4925 59.582C17.791 59.582 14.8059 56.5969 14.8059 52.8955C14.8059 49.4328 17.5522 46.4477 21.0149 46.2089C24.9552 45.9701 28.1791 48.9552 28.1791 52.8955C28.2985 56.5969 25.194 59.582 21.4925 59.582ZM54.6865 51.7014H30.5671C30.4477 51.1044 30.2089 50.0298 30.0895 49.6716H55.1642C54.9253 50.2686 54.8059 50.985 54.6865 51.7014ZM63.6418 59.582C59.9403 59.582 56.9552 56.5969 56.9552 52.8955C56.9552 49.194 60.0597 46.2089 63.6418 46.2089C67.1044 46.2089 69.8507 48.7163 70.3283 52.0596C70.8059 56.1193 67.7015 59.582 63.6418 59.582ZM72.7164 51.7014C72.597 51.1044 72.3582 50.0298 72.2388 49.6716H75.8209V50.5074C75.8209 51.2238 75.3433 51.7014 74.6268 51.7014H72.7164ZM75.8209 44.7761H74.0298C73.6716 44.7761 73.4328 44.5372 73.4328 44.179V41.6716C73.4328 41.3134 73.6716 41.0746 74.0298 41.0746H75.8209V44.7761ZM44.5373 22.6865H38.5671V20.4178H44.5373V22.6865ZM30.2089 22.6865V20.4178H36.1791V22.6865H30.2089ZM21.9701 22.6865V20.4178H27.9403V22.6865H21.9701ZM13.6119 20.4178H19.5821V22.6865H13.6119V20.4178ZM10.5074 25.0746C18.6268 25.0746 38.0895 25.0746 45.6119 25.0746H49.3134C49.791 25.0746 50.1492 25.3134 50.388 25.6716L56.2388 37.0149C56.7164 37.8507 57.5522 38.4477 58.6268 38.4477H74.5074C75.2239 38.4477 75.7015 38.9253 75.7015 39.6417V39.8805H74.0298C73.0746 39.8805 72.2388 40.7164 72.2388 41.6716V44.179C72.2388 45.1343 73.0746 45.9701 74.0298 45.9701H75.8209V47.2835H70.9253C69.1343 45.0149 66.388 43.7014 63.7612 43.7014C61.1343 43.7014 58.388 44.8955 56.597 47.2835H28.7761C26.7462 44.6566 23.6418 43.4626 20.5373 43.8208C18.2686 44.0596 15.8806 45.2537 14.3283 47.2835H9.3134V26.2686C9.3134 25.5522 9.91042 25.0746 10.5074 25.0746ZM4.29848 32.3581H7.04475V40.1193H4.29848V32.3581Z" fill="#005CCE"/>
<path d="M40.2394 37.8508H52.8961C53.1349 37.8508 53.2543 37.7314 53.3737 37.612C53.4931 37.3732 53.4931 37.2538 53.3737 37.015L48.2394 27.2239C48.12 26.9851 47.8812 26.8657 47.7618 26.8657H40.12C39.7618 26.8657 39.523 27.1045 39.523 27.4627V37.2538C39.6424 37.4926 39.8812 37.8508 40.2394 37.8508ZM40.8364 28.0598H47.4036L51.9409 36.6568H40.8364V28.0598ZM21.4931 48.8359C19.3439 48.8359 17.5528 50.6269 17.5528 52.7762C17.5528 54.9254 19.3439 56.7165 21.4931 56.7165C23.6424 56.7165 25.4334 54.9254 25.4334 52.7762C25.4334 50.6269 23.7618 48.8359 21.4931 48.8359ZM21.4931 55.6418C19.9409 55.6418 18.7469 54.3284 18.7469 52.8956C18.7469 51.3433 20.0603 50.1493 21.4931 50.1493C23.0454 50.1493 24.2394 51.4627 24.2394 52.8956C24.3588 54.4478 23.0454 55.6418 21.4931 55.6418ZM63.6424 48.8359C61.4931 48.8359 59.7021 50.6269 59.7021 52.7762C59.7021 54.9254 61.4931 56.7165 63.6424 56.7165C65.7916 56.7165 67.5827 54.9254 67.5827 52.7762C67.5827 50.6269 65.911 48.8359 63.6424 48.8359ZM63.6424 55.6418C62.0901 55.6418 60.8961 54.3284 60.8961 52.8956C60.8961 51.3433 62.2095 50.1493 63.6424 50.1493C65.0752 50.1493 66.3886 51.4627 66.3886 52.8956C66.508 54.4478 65.1946 55.6418 63.6424 55.6418ZM12.7767 37.8508H35.8215C36.1797 37.8508 36.4185 37.612 36.4185 37.2538V27.4627C36.4185 27.1045 36.1797 26.8657 35.8215 26.8657H12.7767C12.4185 26.8657 12.1797 27.1045 12.1797 27.4627V37.2538C12.1797 37.4926 12.4185 37.8508 12.7767 37.8508ZM35.2245 36.6568H24.9558V28.0598H35.2245V36.6568ZM13.3737 28.0598H23.6424V36.6568H13.3737V28.0598ZM43.4633 39.6418H40.3588C40.0006 39.6418 39.7618 39.8806 39.7618 40.2389C39.7618 40.5971 40.0006 40.8359 40.3588 40.8359H43.4633C43.8215 40.8359 44.0603 40.5971 44.0603 40.2389C44.0603 39.8806 43.8215 39.6418 43.4633 39.6418Z" fill="#005CCE"/>
</svg>
