<svg width="80" height="80" viewBox="0 0 80 80" fill="none" xmlns="http://www.w3.org/2000/svg">
<g clip-path="url(#clip0_1_203)">
<path d="M28.75 57.5C28.0596 57.5 27.5 58.0596 27.5 58.75C27.5 59.4404 28.0596 60 28.75 60C29.4404 60 30 59.4404 30 58.75C30 58.0596 29.4404 57.5 28.75 57.5Z" fill="#005CCE"/>
<path d="M13.75 57.5C13.0596 57.5 12.5 58.0596 12.5 58.75C12.5 59.4404 13.0596 60 13.75 60C14.4404 60 15 59.4404 15 58.75C15 58.0596 14.4404 57.5 13.75 57.5Z" fill="#005CCE"/>
<path d="M63.75 57.5C63.0597 57.5 62.5 58.0596 62.5 58.75C62.5 59.4404 63.0597 60 63.75 60C64.4404 60 65 59.4404 65 58.75C65 58.0596 64.4404 57.5 63.75 57.5Z" fill="#005CCE"/>
<path fill-rule="evenodd" clip-rule="evenodd" d="M62.5 25V37.5H71.7481H75V36.25V29.0283C75 26.8261 73.206 25 71.0059 25H65H62.5ZM71.0059 27.5H65V35H71.7481H72.5V29.0283C72.5 28.1528 71.8489 27.5 71.0059 27.5Z" fill="#005CCE"/>
<path d="M63.6426 40C61.9759 40.0846 62.1029 42.5846 63.7695 42.5H66.2695C67.9599 42.524 67.9599 39.9761 66.2695 40H63.7695C63.7272 39.9978 63.6849 39.9978 63.6426 40Z" fill="#005CCE"/>
<path fill-rule="evenodd" clip-rule="evenodd" d="M0 47.5V53.75C6.90224e-05 54.4403 0.559673 54.9999 1.25 55H2.5V58.75C2.50007 59.4403 3.05967 59.9999 3.75 60H7.62695V60.005C8.21237 62.8458 10.7426 65 13.75 65C16.7574 65 19.2876 62.8409 19.873 60H22.627V60.005C23.2124 62.8458 25.7426 65 28.75 65C31.7574 65 34.2876 62.8409 34.8731 60L47.4916 60.005V57.505L34.8731 57.5C34.6831 56.5709 34.2703 55.7314 33.7158 55H51.505H54.7157H58.7842C58.2297 55.7314 57.8169 56.5709 57.627 57.5C57.5295 58.4308 57.5126 58.9733 57.627 60V60.005C58.2124 62.8458 60.7427 65 63.75 65C66.7574 65 69.2876 62.8409 69.8731 60H73.75C74.4403 59.9999 74.9999 59.4403 75 58.75V55H78.6621H78.75C79.4403 54.9999 79.9999 54.4403 80 53.75L80.0195 48.4961L80 48.4946V48.5205H78.75L78.7207 48.3984L80 48.4946L80 27.5C80 23.3667 76.6334 20 72.5 20H55V22.5H55.0342V47.5H50.0342H2.5H0ZM72.5 22.5H57.5342V47.5H77.5V27.5C77.5 24.7085 75.2916 22.5 72.5 22.5ZM51.1963 50H2.5V52.5H13.75H73.75H77.5V50H51.1963ZM8.78418 55H5V57.5H7.62695C7.81691 56.5709 8.22966 55.7314 8.78418 55ZM17.5 58.75C17.5 56.6642 15.8359 55 13.75 55C11.6708 55 10.0105 56.654 10 58.7305V58.75C10 60.836 11.6641 62.5 13.75 62.5C15.8359 62.5 17.5 60.836 17.5 58.75ZM23.7842 55H18.7158C19.2703 55.7314 19.6831 56.5709 19.873 57.5H22.627C22.8169 56.5709 23.2297 55.7314 23.7842 55ZM32.5 58.75C32.5 56.6642 30.8359 55 28.75 55C26.6641 55 25 56.6642 25 58.75C25 60.836 26.6641 62.5 28.75 62.5C30.8359 62.5 32.5 60.836 32.5 58.75ZM67.5 58.75C67.5 56.6642 65.8359 55 63.75 55C61.6641 55 60 56.6642 60 58.75C60 60.836 61.6641 62.5 63.75 62.5C65.8359 62.5 67.5 60.836 67.5 58.75ZM72.5 55H68.7158C69.2703 55.7314 69.6831 56.5709 69.8731 57.5H72.5V55Z" fill="#005CCE"/>
<path fill-rule="evenodd" clip-rule="evenodd" d="M62.5 58.75C62.5 58.0596 63.0597 57.5 63.75 57.5C64.4404 57.5 65 58.0596 65 58.75C65 59.4404 64.4404 60 63.75 60C63.0597 60 62.5 59.4404 62.5 58.75ZM28.75 57.5C28.0596 57.5 27.5 58.0596 27.5 58.75C27.5 59.4404 28.0596 60 28.75 60C29.4404 60 30 59.4404 30 58.75C30 58.0596 29.4404 57.5 28.75 57.5ZM13.75 57.5C13.0596 57.5 12.5 58.0596 12.5 58.75C12.5 59.4404 13.0596 60 13.75 60C14.4404 60 15 59.4404 15 58.75C15 58.0596 14.4404 57.5 13.75 57.5ZM62.5 37.5V25H65H71.0059C73.206 25 75 26.8261 75 29.0283V36.25V37.5H71.7481H62.5ZM63.7695 42.5C62.1029 42.5846 61.9759 40.0846 63.6426 40C63.6849 39.9978 63.7272 39.9978 63.7695 40H66.2695C67.9599 39.9761 67.9599 42.524 66.2695 42.5H63.7695ZM71.0059 27.5H65V35H71.7481H72.5V29.0283C72.5 28.1528 71.8489 27.5 71.0059 27.5Z" fill="#005CCE"/>
<path d="M47.4916 57.505V60.005L54.7157 55H51.505L47.4916 57.505Z" fill="#005CCE"/>
<path d="M0 47.5H2.5V28.0936H0V47.5Z" fill="#005CCE"/>
<path d="M44.8747 23.2191H43.3529V14.8495C43.3529 14.6478 43.2728 14.4542 43.1301 14.3115C42.9874 14.1688 42.7938 14.0887 42.592 14.0887H41.8312V9.52346C41.8312 9.39823 41.8003 9.27492 41.7412 9.16449C41.6822 9.05406 41.5968 8.95992 41.4926 8.89042L39.21 7.36868L38.3654 8.63476L40.3094 9.93052V14.0887H39.5486C39.3468 14.0887 39.1532 14.1688 39.0106 14.3115C38.8679 14.4542 38.7877 14.6478 38.7877 14.8495V23.2191H34.0094L29.9517 11.0452H32.7007C32.9025 11.0452 33.0961 10.965 33.2388 10.8223C33.3815 10.6797 33.4616 10.4861 33.4616 10.2843V7.24085C33.4616 7.03905 33.3815 6.84552 33.2388 6.70283C33.0961 6.56014 32.9025 6.47998 32.7007 6.47998H9.87466C9.67286 6.47998 9.47933 6.56014 9.33664 6.70283C9.19395 6.84552 9.11379 7.03905 9.11379 7.24085V10.2843C9.11379 10.4861 9.19395 10.6797 9.33664 10.8223C9.47933 10.965 9.67286 11.0452 9.87466 11.0452H11.3964V18.6295H12.9181V11.0452H28.3478L32.4055 23.2191H12.9181V20.2243H11.3964V23.98C11.3971 24.085 11.42 24.1887 11.4634 24.2843C9.52394 25.0863 7.79484 26.3234 6.40966 27.9C6.27678 28.0519 6.2097 28.2505 6.22319 28.4519C6.23667 28.6533 6.32961 28.8411 6.48156 28.974C6.63351 29.1068 6.83203 29.1739 7.03344 29.1604C7.23485 29.1469 7.42265 29.054 7.55553 28.9021C7.80814 28.6137 8.07749 28.3443 8.35292 28.0834V30.2191L7.57607 30.9967C7.43343 31.1394 7.3533 31.3329 7.3533 31.5347C7.3533 31.7364 7.43343 31.9299 7.57607 32.0726L7.92227 32.418C7.68249 32.8853 7.48121 33.3713 7.32042 33.8713H6.83118C6.62939 33.8713 6.43586 33.9515 6.29317 34.0941C6.15048 34.2368 6.07031 34.4304 6.07031 34.6322V39.1974C6.07031 39.3992 6.15048 39.5927 6.29317 39.7354C6.43586 39.8781 6.62939 39.9582 6.83118 39.9582H7.32042C7.48141 40.458 7.68242 40.944 7.92151 41.4115L7.57607 41.7569C7.43343 41.8996 7.3533 42.0931 7.3533 42.2949C7.3533 42.4966 7.43343 42.6901 7.57607 42.8328L10.8044 46.0612C10.9471 46.2038 11.1406 46.284 11.3424 46.284C11.5441 46.284 11.7376 46.2038 11.8803 46.0612L12.2257 45.7158C12.6933 45.9547 13.1793 46.1557 13.679 46.3168V46.8061C13.679 47.0079 13.7592 47.2014 13.9019 47.3441C14.0446 47.4868 14.2381 47.5669 14.4399 47.5669H19.0051C19.2069 47.5669 19.4004 47.4868 19.5431 47.3441C19.6858 47.2014 19.766 47.0079 19.766 46.8061V46.3168C20.2657 46.1557 20.7517 45.9547 21.2192 45.7158L21.5647 46.0612C21.7073 46.2038 21.9008 46.284 22.1026 46.284C22.3043 46.284 22.4978 46.2038 22.6405 46.0612L25.8689 42.8328C26.0115 42.6901 26.0917 42.4966 26.0917 42.2949C26.0917 42.0931 26.0115 41.8996 25.8689 41.7569L25.5235 41.4115C25.7625 40.944 25.9636 40.458 26.1245 39.9582H31.9399V41.48C31.9399 41.6496 31.9966 41.8144 32.1009 41.9481C32.2053 42.0818 32.3513 42.1768 32.5159 42.218L33.1413 42.3748C33.1923 42.511 33.2493 42.6464 33.3102 42.7796L32.9777 43.3327C32.8904 43.4783 32.8543 43.6489 32.8751 43.8174C32.8959 43.9859 32.9725 44.1425 33.0926 44.2625L35.2443 46.4142C35.3642 46.5342 35.5208 46.6106 35.6891 46.6315C35.8574 46.6523 36.0278 46.6162 36.1734 46.5291L36.7273 46.1974C36.8612 46.2575 36.9966 46.3138 37.132 46.3655L37.2888 46.9902C37.3299 47.1549 37.4248 47.3011 37.5585 47.4056C37.6923 47.5101 37.8571 47.5669 38.0268 47.5669H41.0703C41.24 47.5669 41.4049 47.5101 41.5386 47.4056C41.6723 47.3011 41.7673 47.1549 41.8083 46.9902L41.9651 46.3655C42.1005 46.3138 42.236 46.2575 42.3699 46.1974L42.9238 46.5291C43.0693 46.6162 43.2397 46.6523 43.4081 46.6315C43.5764 46.6106 43.7329 46.5342 43.8528 46.4142L46.0045 44.2625C46.1247 44.1425 46.2012 43.9859 46.2221 43.8174C46.2429 43.6489 46.2068 43.4783 46.1194 43.3327L45.7869 42.7796C45.8478 42.6464 45.9049 42.511 45.9559 42.3748L46.5813 42.218C46.7458 42.1768 46.8919 42.0818 46.9962 41.9481C47.1006 41.8144 47.1573 41.6496 47.1573 41.48V39.9582H49.4399C50.0453 39.9582 50.6258 39.7178 51.0539 39.2897C51.482 38.8616 51.7225 38.281 51.7225 37.6756V34.601H50.2007V37.6756C50.2007 37.8774 50.1206 38.071 49.9779 38.2137C49.8352 38.3563 49.6417 38.4365 49.4399 38.4365H47.1573C47.1573 38.2669 47.1006 38.1021 46.9962 37.9684C46.8919 37.8347 46.7458 37.7397 46.5813 37.6985L45.9559 37.5417C45.9049 37.4055 45.8478 37.2701 45.7869 37.1369L46.1194 36.5838C46.2068 36.4382 46.2429 36.2676 46.2221 36.0991C46.2012 35.9306 46.1247 35.774 46.0045 35.654L43.8528 33.5023C43.7329 33.3823 43.5764 33.3059 43.4081 33.285C43.2397 33.2642 43.0693 33.3002 42.9238 33.3874L42.3699 33.7191C42.236 33.659 42.1005 33.6027 41.9651 33.551L41.8083 32.9263C41.7673 32.7616 41.6723 32.6154 41.5386 32.5109C41.4049 32.4064 41.24 32.3496 41.0703 32.3496H38.7877V24.7409H44.8747C46.2867 24.7425 47.6405 25.3041 48.639 26.3026C49.6375 27.3011 50.1991 28.6549 50.2007 30.0669V33.1104H51.7225V30.0669C51.7205 28.2514 50.9984 26.5108 49.7146 25.227C48.4308 23.9432 46.6902 23.2211 44.8747 23.2191ZM12.1573 9.52346H10.6355V8.00172H31.9399V9.52346H12.1573ZM25.8529 38.4365H25.5531C25.3845 38.4366 25.2206 38.4926 25.0873 38.5959C24.954 38.6992 24.8588 38.8439 24.8166 39.0072C24.6222 39.7626 24.3225 40.4869 23.9264 41.1589C23.8407 41.3042 23.8057 41.4738 23.8269 41.6412C23.8481 41.8085 23.9243 41.9641 24.0436 42.0834L24.2543 42.2949L22.1026 44.4474L21.8911 44.2366C21.7717 44.1172 21.616 44.0409 21.4485 44.0197C21.281 43.9984 21.1112 44.0336 20.9659 44.1194C20.2941 44.5157 19.57 44.8156 18.8149 45.0104C18.6516 45.0526 18.5069 45.1478 18.4036 45.2811C18.3003 45.4144 18.2443 45.5783 18.2442 45.7469V46.0452H15.2007V45.7462C15.2007 45.5775 15.1446 45.4137 15.0413 45.2804C14.938 45.147 14.7934 45.0518 14.6301 45.0097C13.8749 44.8148 13.1509 44.5149 12.4791 44.1187C12.3338 44.0328 12.164 43.9977 11.9965 44.0189C11.8289 44.0401 11.6733 44.1164 11.5539 44.2359L11.3424 44.4466L9.18988 42.2949L9.40064 42.0834C9.51988 41.9641 9.59609 41.8085 9.6173 41.6412C9.63851 41.4738 9.60352 41.3042 9.51781 41.1589C9.12171 40.4869 8.82204 39.7626 8.62759 39.0072C8.58546 38.844 8.49036 38.6994 8.3572 38.5961C8.22403 38.4929 8.06035 38.4367 7.89183 38.4365H7.59205V35.393H7.89183C8.06048 35.393 8.22434 35.3369 8.35766 35.2336C8.49097 35.1303 8.58619 34.9857 8.62836 34.8224C8.8228 34.067 9.12247 33.3426 9.51857 32.6706C9.60428 32.5254 9.63927 32.3557 9.61806 32.1884C9.59685 32.021 9.52064 31.8655 9.4014 31.7462L9.18988 31.5347L11.3424 29.3822L11.5539 29.5929C11.6733 29.7123 11.8289 29.7887 11.9965 29.8099C12.164 29.8311 12.3338 29.796 12.4791 29.7101C13.1509 29.3139 13.8749 29.014 14.6301 28.8191C14.7934 28.777 14.938 28.6817 15.0413 28.5484C15.1446 28.4151 15.2007 28.2512 15.2007 28.0826V27.7843H18.2442V28.0834C18.2443 28.252 18.3003 28.4159 18.4036 28.5492C18.5069 28.6825 18.6516 28.7777 18.8149 28.8199C19.57 29.0147 20.2941 29.3146 20.9659 29.7109C21.1112 29.7967 21.281 29.8319 21.4485 29.8106C21.616 29.7894 21.7717 29.7131 21.8911 29.5937L22.1026 29.3829L24.2551 31.5347L24.0443 31.7462C23.9251 31.8655 23.8489 32.021 23.8277 32.1884C23.8065 32.3557 23.8415 32.5254 23.9272 32.6706C24.3233 33.3426 24.6229 34.067 24.8174 34.8224C24.8595 34.9857 24.9548 35.1303 25.0881 35.2336C25.2214 35.3369 25.3852 35.393 25.5539 35.393H25.8529V38.4365ZM40.4761 33.8713L40.5887 34.321C40.6204 34.4485 40.6846 34.5656 40.775 34.6609C40.8654 34.7563 40.9789 34.8266 41.1045 34.865C41.4313 34.9645 41.7476 35.0958 42.0488 35.2568C42.1648 35.3185 42.2948 35.3491 42.4261 35.3457C42.5575 35.3422 42.6857 35.3048 42.7982 35.2371L43.1969 34.9981L44.5087 36.3099L44.269 36.7086C44.2012 36.8215 44.1639 36.95 44.1607 37.0817C44.1575 37.2133 44.1885 37.3435 44.2507 37.4596C44.4116 37.7603 44.5429 38.0761 44.6426 38.4023C44.6809 38.5277 44.751 38.6412 44.846 38.7315C44.9411 38.8219 45.0579 38.8862 45.1851 38.9181L45.6355 39.0307V40.8857L45.1851 40.9984C45.0579 41.0303 44.9411 41.0946 44.846 41.185C44.751 41.2753 44.6809 41.3888 44.6426 41.5142C44.5429 41.8404 44.4116 42.1562 44.2507 42.4569C44.1885 42.573 44.1575 42.7032 44.1607 42.8348C44.1639 42.9665 44.2012 43.095 44.269 43.2079L44.5087 43.6066L43.2007 44.9184L42.802 44.6794C42.6895 44.6117 42.5613 44.5743 42.4299 44.5708C42.2986 44.5674 42.1686 44.598 42.0526 44.6597C41.7514 44.8207 41.4351 44.952 41.1083 45.0515C40.9827 45.0899 40.8692 45.1602 40.7788 45.2556C40.6884 45.3509 40.6242 45.468 40.5925 45.5955L40.4761 46.0452H38.6211L38.5085 45.5955C38.4768 45.468 38.4126 45.3509 38.3222 45.2556C38.2318 45.1602 38.1182 45.0899 37.9926 45.0515C37.6658 44.952 37.3496 44.8207 37.0484 44.6597C36.9324 44.598 36.8024 44.5674 36.671 44.5708C36.5397 44.5743 36.4115 44.6117 36.2989 44.6794L35.9002 44.9184L34.5885 43.6104L34.8281 43.2117C34.8959 43.0988 34.9332 42.9703 34.9364 42.8386C34.9396 42.707 34.9086 42.5768 34.8464 42.4608C34.6855 42.16 34.5543 41.8442 34.4545 41.518C34.4163 41.3926 34.3462 41.2791 34.2511 41.1888C34.1561 41.0984 34.0393 41.0341 33.912 41.0022L33.4616 40.8857V39.0307L33.912 38.9181C34.0393 38.8862 34.1561 38.8219 34.2511 38.7315C34.3462 38.6412 34.4163 38.5277 34.4545 38.4023C34.5544 38.0759 34.6856 37.7599 34.8464 37.4588C34.9085 37.3428 34.9394 37.2128 34.9362 37.0813C34.933 36.9498 34.8958 36.8214 34.8281 36.7086L34.5885 36.3099L35.9002 34.9981L36.2989 35.2371C36.4115 35.3048 36.5397 35.3422 36.671 35.3457C36.8024 35.3491 36.9324 35.3185 37.0484 35.2568C37.3496 35.0958 37.6658 34.9645 37.9926 34.865C38.1182 34.8266 38.2318 34.7563 38.3222 34.6609C38.4126 34.5656 38.4768 34.4485 38.5085 34.321L38.6211 33.8713H40.4761ZM37.266 33.0176L37.132 33.5502C36.9966 33.6019 36.8612 33.6582 36.7273 33.7184L36.1734 33.3866C36.0278 33.2995 35.8574 33.2635 35.6891 33.2843C35.5208 33.3051 35.3642 33.3816 35.2443 33.5015L33.0926 35.6532C32.9725 35.7732 32.8959 35.9299 32.8751 36.0984C32.8543 36.2668 32.8904 36.4374 32.9777 36.583L33.3102 37.1354C33.2493 37.2693 33.1923 37.4048 33.1413 37.541L32.5159 37.6977C32.3512 37.739 32.205 37.8341 32.1007 37.968C31.9963 38.1018 31.9397 38.2668 31.9399 38.4365H27.3747V34.6322C27.3747 34.4304 27.2945 34.2368 27.1518 34.0941C27.0091 33.9515 26.8156 33.8713 26.6138 33.8713H26.1245C25.9638 33.3713 25.7625 32.8853 25.5227 32.418L25.8689 32.0726C26.0115 31.9299 26.0917 31.7364 26.0917 31.5347C26.0917 31.3329 26.0115 31.1394 25.8689 30.9967L22.6405 27.7684C22.4978 27.6257 22.3043 27.5456 22.1026 27.5456C21.9008 27.5456 21.7073 27.6257 21.5647 27.7684L21.2192 28.1138C20.7517 27.8749 20.2657 27.6739 19.766 27.5127V27.0235C19.766 26.8217 19.6858 26.6281 19.5431 26.4854C19.4004 26.3428 19.2069 26.2626 19.0051 26.2626H14.4399C14.2381 26.2626 14.0446 26.3428 13.9019 26.4854C13.7592 26.6281 13.679 26.8217 13.679 27.0235V27.5127C13.1793 27.6739 12.6933 27.8749 12.2257 28.1138L11.8803 27.7684C11.7376 27.6257 11.5441 27.5456 11.3424 27.5456C11.1406 27.5456 10.9471 27.6257 10.8044 27.7684L9.87466 28.6974V26.8713C12.3291 25.1873 15.3169 24.4641 18.2698 24.8392C21.2227 25.2143 23.9347 26.6616 25.8902 28.9059C26.0233 29.0566 26.2107 29.1485 26.4114 29.1615C26.6121 29.1745 26.8098 29.1075 26.9612 28.9752C27.1126 28.8428 27.2055 28.6559 27.2195 28.4553C27.2336 28.2547 27.1676 28.0567 27.0361 27.9046C25.8889 26.6004 24.5037 25.5267 22.9548 24.7409H37.266V33.0176ZM40.3094 23.2191V15.6104H41.8312V23.2191H40.3094Z" fill="#005CCE"/>
<path d="M46.397 27.0234C45.5898 27.0234 44.8157 27.3441 44.2449 27.9149C43.6742 28.4856 43.3535 29.2597 43.3535 30.0669C43.3535 30.8741 43.6742 31.6482 44.2449 32.219C44.8157 32.7897 45.5898 33.1104 46.397 33.1104H47.1579C47.3597 33.1104 47.5532 33.0302 47.6959 32.8875C47.8386 32.7448 47.9187 32.5513 47.9187 32.3495V27.7843C47.9187 27.5825 47.8386 27.389 47.6959 27.2463C47.5532 27.1036 47.3597 27.0234 47.1579 27.0234H46.397ZM46.397 31.5887C45.9934 31.5887 45.6063 31.4283 45.321 31.1429C45.0356 30.8576 44.8753 30.4705 44.8753 30.0669C44.8753 29.6633 45.0356 29.2763 45.321 28.9909C45.6063 28.7055 45.9934 28.5452 46.397 28.5452V31.5887Z" fill="#005CCE"/>
<path d="M34.984 27.0234H31.1797V28.5452H34.984V27.0234Z" fill="#005CCE"/>
<path d="M34.984 30.0669H31.1797V31.5886H34.984V30.0669Z" fill="#005CCE"/>
<path d="M28.8976 21.6973C29.0162 21.6973 29.1332 21.6696 29.2391 21.6164C29.3451 21.5632 29.4372 21.4859 29.508 21.3908C29.5788 21.2956 29.6264 21.1853 29.647 21.0685C29.6676 20.9517 29.6605 20.8317 29.6265 20.7181L27.3439 13.1094C27.2969 12.9526 27.2006 12.8151 27.0693 12.7174C26.938 12.6197 26.7787 12.5669 26.615 12.5669H15.2019C15.0001 12.5669 14.8066 12.6471 14.6639 12.7897C14.5212 12.9324 14.4411 13.126 14.4411 13.3278V20.9365C14.4411 21.1383 14.5212 21.3318 14.6639 21.4745C14.8066 21.6172 15.0001 21.6973 15.2019 21.6973H28.8976ZM15.9628 14.0886H26.0489L27.875 20.1756H15.9628V14.0886ZM16.7237 30.8278C15.5198 30.8278 14.3429 31.1848 13.3419 31.8536C12.341 32.5224 11.5608 33.4731 11.1001 34.5853C10.6394 35.6976 10.5188 36.9215 10.7537 38.1022C10.9885 39.283 11.5683 40.3676 12.4196 41.2188C13.2708 42.0701 14.3554 42.6498 15.5362 42.8847C16.7169 43.1196 17.9408 42.999 19.0531 42.5383C20.1653 42.0776 21.116 41.2974 21.7848 40.2964C22.4536 39.2955 22.8106 38.1186 22.8106 36.9147C22.8088 35.3009 22.1669 33.7537 21.0258 32.6126C19.8847 31.4715 18.3375 30.8296 16.7237 30.8278ZM16.7237 41.4799C15.8208 41.4799 14.9381 41.2122 14.1874 40.7106C13.4366 40.2089 12.8515 39.4959 12.506 38.6618C12.1604 37.8276 12.07 36.9097 12.2462 36.0241C12.4223 35.1385 12.8571 34.3251 13.4956 33.6866C14.134 33.0482 14.9475 32.6134 15.8331 32.4372C16.7186 32.2611 17.6365 32.3515 18.4707 32.697C19.3049 33.0425 20.0179 33.6277 20.5195 34.3784C21.0212 35.1292 21.2889 36.0118 21.2889 36.9147C21.2877 38.1251 20.8063 39.2856 19.9504 40.1415C19.0946 40.9974 17.9341 41.4787 16.7237 41.4799Z" fill="#005CCE"/>
<path d="M19.0047 36.1536H14.4395V37.6753H19.0047V36.1536Z" fill="#005CCE"/>
<path d="M35.7441 39.9579C35.7441 40.7103 35.9673 41.4459 36.3853 42.0715C36.8033 42.6971 37.3975 43.1847 38.0926 43.4727C38.7878 43.7606 39.5527 43.836 40.2907 43.6892C41.0286 43.5424 41.7065 43.18 42.2386 42.648C42.7706 42.1159 43.1329 41.4381 43.2797 40.7001C43.4265 39.9621 43.3512 39.1972 43.0632 38.5021C42.7753 37.8069 42.2877 37.2127 41.6621 36.7947C41.0364 36.3767 40.3009 36.1536 39.5485 36.1536C38.5399 36.1548 37.5729 36.556 36.8597 37.2692C36.1466 37.9824 35.7453 38.9493 35.7441 39.9579ZM39.5485 37.6753C39.9999 37.6753 40.4413 37.8092 40.8166 38.06C41.192 38.3108 41.4846 38.6673 41.6573 39.0844C41.8301 39.5015 41.8753 39.9604 41.7872 40.4032C41.6992 40.846 41.4818 41.2527 41.1625 41.572C40.8433 41.8912 40.4366 42.1086 39.9938 42.1967C39.551 42.2847 39.0921 42.2395 38.675 42.0668C38.2579 41.894 37.9014 41.6014 37.6506 41.2261C37.3998 40.8507 37.2659 40.4094 37.2659 39.9579C37.2659 39.3525 37.5064 38.7719 37.9344 38.3439C38.3625 37.9158 38.9431 37.6753 39.5485 37.6753Z" fill="#005CCE"/>
<path d="M40.3108 39.1975H38.7891V40.7192H40.3108V39.1975Z" fill="#005CCE"/>
</g>
<defs>
<clipPath id="clip0_1_203">
<rect width="80" height="80" fill="white"/>
</clipPath>
</defs>
</svg>
